<?xml version="1.0" encoding="utf-8"?>
<!-- Generator: Adobe Illustrator 28.0.0, SVG Export Plug-In . SVG Version: 6.00 Build 0)  -->
<svg width="156px" height="156px" viewBox="0 0 156 156" version="1.1" id="Ebene_1" xmlns="http://www.w3.org/2000/svg" xmlns:xlink="http://www.w3.org/1999/xlink" x="0px" y="0px" style="enable-background:new 0 0 78.4 56;" xml:space="preserve">
<style type="text/css">
	.st0{fill:#FFFFFF;}
	.st1{fill:#0000FF;}
</style>
<g transform="translate(0.00,22.29) scale(1.989796)">
<g>
	<circle class="st0" cx="39.3" cy="46" r="8.4"/>
	<path class="st1" d="M39.3,56c-5.6,0-10.1-4.5-10.1-10.1c0-5.6,4.5-10.1,10.1-10.1S49.4,40.4,49.4,46C49.4,51.5,44.9,56,39.3,56z
		 M39.3,39.3c-3.7,0-6.7,3-6.7,6.7c0,3.7,3,6.7,6.7,6.7c3.7,0,6.7-3,6.7-6.7C46,42.3,43,39.3,39.3,39.3z"/>
</g>
<g>
	<circle class="st0" cx="16.5" cy="46" r="8.4"/>
	<path class="st1" d="M16.5,56C10.9,56,6.4,51.5,6.4,46c0-5.6,4.5-10.1,10.1-10.1S26.6,40.4,26.6,46C26.6,51.5,22.1,56,16.5,56z
		 M16.5,39.3c-3.7,0-6.7,3-6.7,6.7c0,3.7,3,6.7,6.7,6.7c3.7,0,6.7-3,6.7-6.7C23.2,42.3,20.2,39.3,16.5,39.3z"/>
</g>
<g>
	<circle class="st0" cx="62.2" cy="46" r="8.4"/>
	<path class="st1" d="M62.2,56c-5.6,0-10.1-4.5-10.1-10.1c0-5.6,4.5-10.1,10.1-10.1c5.6,0,10.1,4.5,10.1,10.1
		C72.2,51.5,67.7,56,62.2,56z M62.2,39.3c-3.7,0-6.7,3-6.7,6.7c0,3.7,3,6.7,6.7,6.7c3.7,0,6.7-3,6.7-6.7
		C68.8,42.3,65.8,39.3,62.2,39.3z"/>
</g>
<g>
	<polygon class="st0" points="1.7,34.4 39.2,34.4 76.7,34.4 76.7,18.3 76.7,2.2 58.2,7.3 46,9.6 39.2,10 31.6,9.4 20.3,7.2 1.7,2.2 
		1.7,18.3 	"/>
	<path class="st1" d="M78.4,36.1H0V0l20.7,5.5l11.2,2.2l7.3,0.5l6.6-0.4l12-2.2L78.4,0V36.1z M3.4,32.8H75V4.4L58.5,8.9l-12.4,2.3
		l-6.9,0.4l-7.9-0.6L19.9,8.8L3.4,4.4V32.8z"/>
</g>
<g>
	<rect x="1.7" y="20.3" class="st1" width="75" height="3.4"/>
</g>
<g>
	<rect x="37.5" y="9.7" class="st1" width="3.4" height="24.7"/>
</g>
</g>
</svg>
