<?xml version="1.0" encoding="utf-8"?>
<!-- Generator: Adobe Illustrator 28.0.0, SVG Export Plug-In . SVG Version: 6.00 Build 0)  -->
<svg width="156px" height="156px" viewBox="0 0 156 156" version="1.1" id="Ebene_1" xmlns="http://www.w3.org/2000/svg" xmlns:xlink="http://www.w3.org/1999/xlink" x="0px" y="0px" style="enable-background:new 0 0 75 75;" xml:space="preserve">
<style type="text/css">
	.st0{fill:#FFFFFF;}
	.st1{fill:#FF0000;}
</style>
<g transform="translate(0.00,0.00) scale(2.080000)">
<rect class="st0" width="75" height="74.9"/>
<path class="st1" d="M70.9,73.4c-1.5-0.2-2.9-0.5-4.4-0.7c-3.1-0.5-6.1-1-9.2-1.4c-3.6-0.6-7.1-1.1-10.7-1.7c-4-0.6-8-1.3-12.1-1.9
	c-0.4-0.1-0.6-0.2-0.5-0.6c0.2-0.7,0.3-1.4,0.4-2.2c0-0.2,0.1-0.3,0.3-0.2c3.9,0.6,7.8,1.2,11.6,1.8c3.8,0.6,7.6,1.2,11.4,1.8
	c3.3,0.5,6.6,1,9.9,1.6c0.4,0.1,0.6,0,0.6-0.5c0.3-3.2,0.6-6.3,0.9-9.5c0.3-3,0.6-6,0.9-9c0.3-3.4,0.7-6.8,1-10.2
	c0.2-1.9,0.4-3.8,0.6-5.6c0-0.2,0.1-0.3,0.3-0.3c0.8,0.1,1.7,0.2,2.6,0.3c0.1,0,0.2,0.2,0.2,0.3c-0.2,1.9-0.4,3.8-0.6,5.7
	c-0.2,2.1-0.4,4.2-0.7,6.2c-0.4,3.5-0.7,7-1.1,10.5c-0.3,3.3-0.7,6.5-1,9.8c-0.2,1.8-0.3,3.6-0.5,5.4C71.2,73.2,71.2,73.5,70.9,73.4
	L70.9,73.4z"/>
<path class="st1" d="M27.4,23.2c0,2-0.2,4-0.3,6c0,0.2-0.1,0.5-0.3,0.6c-3,2.5-6,5-9,7.5c-0.3,0.2-0.5,0.3-0.9,0.3
	c-1.5,0-2.9,0-4.4,0c-0.3,0-0.4,0-0.4-0.3c0.1-4.7,1.2-9.1,3.5-13.2c2.2-3.8,5.2-6.8,8.9-9.2c0.4-0.3,0.9-0.7,1.2-0.7
	c0.3,0.1,0.5,0.8,0.8,1.1c0.7,0.9,0.9,1.9,0.9,3C27.3,20,27.4,21.6,27.4,23.2C27.4,23.2,27.5,23.2,27.4,23.2L27.4,23.2z"/>
<path class="st1" d="M39.4,64.3c-2.3,0.1-4.5-0.2-6.7-0.8c-2.2-0.5-4.3-1.4-6.3-2.3c-0.2-0.1-0.5-0.2-0.8-0.3
	c-0.3-0.1-0.3-0.2-0.1-0.5c1-1.6,2-3.2,3-4.9c1.8-3,3.7-6,5.5-9c0.2-0.3,0.3-0.4,0.7-0.2c0.5,0.2,1.1,0.5,1.6,0.6
	c0.3,0.1,0.4,0.2,0.4,0.5c0.5,2.8,1,5.5,1.5,8.3c0,0.2,0.2,0.5,0.3,0.6c1.9,2.5,3.8,4.9,5.7,7.4c0.1,0.1,0.1,0.2,0.2,0.3
	c-0.1,0-0.2,0.1-0.4,0.1C42.5,64.1,41,64.2,39.4,64.3L39.4,64.3z"/>
<path class="st1" d="M52.4,14c0.1,0.1,0.2,0.1,0.2,0.2c2.9,1.9,5.3,4.2,7.5,6.9c0.9,1.1,1.6,2.4,2.5,3.5c0.2,0.3,0.2,0.3-0.2,0.4
	c-3,0.5-6,1-8.9,1.5c-0.2,0-0.5,0.2-0.7,0.4c-1.6,2-3.2,3.9-4.7,5.9c-0.2,0.2-0.3,0.5-0.5,0c-0.2-0.4-0.4-0.8-0.7-1.2
	c-0.6-1.1-1.5-1.7-2.6-2.3c-0.3-0.1-0.3-0.3-0.2-0.5c2.7-4.7,5.3-9.4,8-14.1C52.2,14.3,52.3,14.2,52.4,14L52.4,14z"/>
<path class="st1" d="M57.4,37.4c-2.6,0-5.3,0-7.9,0c-0.4,0-0.6,0-0.6-0.5c0-0.6-0.2-1.1-0.3-1.7c0-0.2,0-0.4,0.1-0.5
	c1.7-2.2,3.5-4.3,5.3-6.5c0.1-0.1,0.3-0.2,0.5-0.3c2.5-0.4,5-0.8,7.5-1.1c0.5-0.1,0.9-0.1,1.4-0.2c0.3-0.1,0.4,0,0.5,0.3
	c1,2.4,1.6,4.8,1.9,7.3c0.1,0.9,0.1,1.8,0.2,2.7c0,0.4-0.1,0.5-0.5,0.5C62.8,37.4,60.1,37.4,57.4,37.4L57.4,37.4z"/>
<path class="st1" d="M44.4,45.7c0.1,0.1,0.2,0.2,0.2,0.3c0.8,1.5,1.7,3,2.5,4.5c1.8,3.3,3.7,6.5,5.5,9.8c0.2,0.3,0.1,0.4-0.1,0.6
	c-1.8,1.2-3.8,2-5.9,2.5c-0.1,0-0.4-0.1-0.5-0.2c-1.6-2.1-3.1-4.2-4.7-6.3c-0.1-0.2-0.2-0.4-0.4-0.5c-1.2-1.2-1.2-2.7-1.5-4.2
	c-0.3-1.5-0.6-3-0.9-4.5c0-0.2-0.1-0.4,0.3-0.4c1.9,0.1,3.6-0.5,5.2-1.4C44.2,45.8,44.3,45.7,44.4,45.7L44.4,45.7z"/>
<path class="st1" d="M71.1,10.7c0.1-1.1,0.1-2.1,0.2-3.2c0-0.4-0.1-0.4-0.4-0.3c-4.5,1.5-9,2.9-13.6,4.3c-1,0.3-2,0.6-3,1
	c-0.2,0.1-0.4,0.1-0.5-0.2c-0.4-0.7-0.7-1.4-1.1-2c-0.2-0.3-0.1-0.4,0.2-0.5c3.5-1.1,6.9-2.2,10.3-3.2c3.6-1.2,7.3-2.3,10.9-3.5
	c0.3-0.1,0.4,0,0.3,0.3c-0.3,4.4-0.6,8.7-0.9,13.1c-0.2,2.8-0.3,5.6-0.5,8.4c0,0.4,0.1,1-0.2,1.2c-0.2,0.2-0.8,0-1.2,0
	c-0.4,0-0.9-0.1-1.3-0.1c-0.2,0-0.3-0.1-0.3-0.4c0.2-3.3,0.4-6.5,0.6-9.8C70.9,14,71,12.3,71.1,10.7L71.1,10.7L71.1,10.7z"/>
<path class="st1" d="M4.1,25.8c-0.5,0-1.1,0.2-1.3,0c-0.2-0.2-0.1-0.8-0.1-1.3c-0.2-4.4-0.4-8.7-0.6-13c-0.1-2.5-0.2-5-0.4-7.5
	c0-0.4,0.1-0.5,0.4-0.5C6.4,2.7,10.7,2.1,15,1.5c2.4-0.3,4.8-0.7,7.2-1c0.3-0.1,0.4,0,0.4,0.3c0.1,0.7,0.2,1.3,0.4,2
	c0.1,0.3,0,0.5-0.4,0.5c-1.9,0.2-3.7,0.5-5.6,0.8c-3.4,0.5-6.8,1-10.2,1.5C6.3,5.7,5.8,5.8,5.2,5.9C4.8,5.9,4.8,6,4.8,6.4
	c0.1,2.9,0.2,5.8,0.4,8.7c0.1,3.4,0.3,6.8,0.4,10.1c0,0.3-0.1,0.4-0.4,0.4C4.8,25.7,4.4,25.7,4.1,25.8C4.1,25.7,4.1,25.7,4.1,25.8
	L4.1,25.8z"/>
<path class="st1" d="M32.8,37.4c-0.1-3.1,2.5-6.1,6.2-6.1c3.5,0,6.2,2.9,6.2,6.4c-0.1,3.1-2.8,6.1-6.4,6
	C35.6,43.5,32.7,40.7,32.8,37.4z"/>
<path class="st1" d="M26.8,72.1c-0.2,1-0.4,1.8-0.6,2.7c-0.1,0.4-0.4,0.2-0.5,0.1c-1.9-0.4-3.8-0.8-5.6-1.3c-3.5-0.8-7-1.6-10.5-2.4
	c-1.1-0.2-2.2-0.5-3.3-0.8C6,70.4,5.9,70.3,5.8,70c-1-3.8-2-7.6-3-11.3c-0.1-0.3,0-0.5,0.3-0.6c0.7-0.2,1.4-0.3,2.1-0.5
	c0.3-0.1,0.4,0,0.5,0.3c0.8,3.2,1.7,6.4,2.5,9.6c0.1,0.4,0.3,0.6,0.7,0.7c4.6,1,9.1,1.9,13.6,2.9c1.3,0.3,2.6,0.6,3.9,0.9
	C26.6,72,26.7,72.1,26.8,72.1z"/>
<path class="st1" d="M36.7,8c-4.8,0-9.6,0-14.4,0c-0.4,0-0.6-0.1-0.5-0.5c0-0.7,0-1.3,0-2c0-0.4,0.1-0.5,0.5-0.5c0,0,0.1,0,0.1,0
	c9.6,0,19.2,0,28.8,0c0.5,0,0.6,0.1,0.6,0.6c0,0.6,0,1.3,0,1.9c0,0.4-0.1,0.5-0.5,0.5C46.4,8,41.5,8,36.7,8z"/>
<path class="st1" d="M24.7,37.6c-1.3,0-2.6,0-4,0c-0.1,0-0.2,0-0.3,0c0.1-0.1,0.1-0.2,0.2-0.2c2.6-2.2,5.2-4.5,7.9-6.7
	c0.2-0.2,0.4-0.4,0.4-0.7c0.1-3.2,0.2-6.4,0.3-9.5c0-0.1,0-0.2,0-0.3c0.1,0.1,0.1,0.1,0.2,0.2c1.6,2.8,3.2,5.6,4.8,8.3
	c0.1,0.2,0,0.3-0.1,0.5c-1.1,0.7-2,1.6-2.9,2.6c-1.2,1.6-1.8,3.3-2,5.3c0,0.4-0.1,0.5-0.5,0.5c-1.4,0-2.7,0-4,0
	C24.7,37.5,24.7,37.6,24.7,37.6L24.7,37.6z"/>
<path class="st1" d="M8.5,50.4c0,0-0.1,0.1-0.2,0.1c-0.8,0.2-1.7,0.4-2.5,0.7c-0.3,0.1-0.3-0.2-0.3-0.3c-0.5-2-1.1-4-1.6-6
	C2.6,40.2,1.3,35.4,0,30.7c-0.1-0.4-0.1-0.6,0.3-0.6c0.6-0.1,1.3-0.3,1.9-0.5c0.4-0.1,0.5-0.1,0.6,0.3c0.8,3,1.6,5.9,2.4,8.9
	c1,3.8,2,7.5,3.1,11.3C8.4,50.2,8.4,50.3,8.5,50.4L8.5,50.4z"/>
</g>
</svg>
