<?xml version="1.0" encoding="utf-8"?>
<!-- Generator: Adobe Illustrator 28.0.0, SVG Export Plug-In . SVG Version: 6.00 Build 0)  -->
<svg width="156px" height="156px" viewBox="0 0 156 156" version="1.1" id="Ebene_1" xmlns="http://www.w3.org/2000/svg" xmlns:xlink="http://www.w3.org/1999/xlink" x="0px" y="0px" style="enable-background:new 0 0 78.6 78.7;" xml:space="preserve">
<style type="text/css">
	.st0{fill:#FF0000;}
</style>
<g transform="translate(0.10,0.00) scale(1.982211)">
<g>
	<path d="M43.1,35.6h0.5c4.3,0,8.7,0,13,0c0.2,0,0.4,0,0.6,0c0.6,0.1,0.8,0,1,1c0.2,1,0.7,2,1,3c0.4,1.2,0.8,2.5,1.2,3.7
		c1.7,5.1,3.4,10.1,5.1,15.2c0.9,2.8,1.8,5.6,2.8,8.4c1.1,3.2,2.1,6.4,3.1,9.6c0,0.1,0,0.2,0.1,0.3H43.1L43.1,35.6L43.1,35.6z"/>
</g>
<g>
	<path d="M35.5,76.8H6.9c0.4-1.1,0.7-2.2,1.1-3.2c2.6-7.7,5.1-15.4,7.7-23.1c1-2.9,1.9-5.8,2.9-8.8c0.5-1.6,1.1-3.3,1.6-4.9
		c0,0,0,0,0,0c0.2-0.7,0.8-1.1,1.6-1.1c4.3,0,8.7,0,13,0h0.7V76.8z"/>
</g>
<g>
	<path d="M9.4,31.8H1.8v-3.5h75c0,1.1,0,2.2,0,3.3c0,0.1-0.3,0.2-0.5,0.2c-1.5,0-3.1,0-4.6,0c-0.6,0-1.3,0-1.9,0
		c-0.4,0-0.6,0.1-0.6,0.6c0,1.1,0,2.1,0,3.2h-7.2c-0.1-1.2-0.2-2.4-0.2-3.6c-0.9-0.2-44.3-0.2-45.1,0v3.7H9.4L9.4,31.8L9.4,31.8z"/>
</g>
<g>
	<path d="M35.5,1.9v22.4H24.3c0.4-1.2,0.8-2.3,1.2-3.5c1.1-3.2,2.1-6.5,3.2-9.7c0.9-2.8,1.9-5.7,2.8-8.6c0.2-0.5,0.4-0.7,1-0.7
		C33.5,1.9,34.5,1.9,35.5,1.9L35.5,1.9z"/>
</g>
<g>
	<path d="M54.2,24.4H43.1V1.9c1.1,0,2.2,0,3.3,0c0.2,0,0.4,0.3,0.5,0.6c0.5,1.3,0.9,2.6,1.3,3.9c1.3,3.9,2.5,7.7,3.8,11.6
		C52.7,20.1,53.5,22.2,54.2,24.4L54.2,24.4z"/>
</g>
<g>
	
		<rect x="37.2" y="-13.2" transform="matrix(0.713 -0.7011 0.7011 0.713 -16.1581 39.2225)" class="st0" width="5.3" height="105.2"/>
</g>
<g>
	
		<rect x="-13.5" y="37" transform="matrix(0.7085 -0.7057 0.7057 0.7085 -16.6033 39.1848)" class="st0" width="105.2" height="5.3"/>
</g>
</g>
</svg>
