<?xml version="1.0" encoding="utf-8"?>
<!-- Generator: Adobe Illustrator 28.0.0, SVG Export Plug-In . SVG Version: 6.00 Build 0)  -->
<svg width="156px" height="156px" viewBox="0 0 156 156" version="1.1" id="Ebene_1" xmlns="http://www.w3.org/2000/svg" xmlns:xlink="http://www.w3.org/1999/xlink" x="0px" y="0px" style="enable-background:new 0 0 75 75;" xml:space="preserve">
<style type="text/css">
	.st0{fill:#FFFFFF;}
	.st1{fill:#FF0101;}
</style>
<g transform="translate(0.00,0.00) scale(2.080000)">
<rect class="st0" width="75" height="75"/>
<path class="st1" d="M24.5,21.5c2.2-0.5,2.1,1.1,3.6,1.7c4.7,2.2-1.2,8.6,3.5,9.3c1.1,1.9-1,3.1-0.7,5.1c1.1,1.6,1.5,4.3,3.8,4.9
	c3.9,4.3,10.6-2.1,9.8,1.5C42.3,46,30.9,62.9,32.2,55.2c3.5-3.7,5.4-4.7-0.2-7.4c-6.3-6.2-14-11.1-20.4-16.4
	c-2.8,0,6.3-13.9,7.3-7.7c-0.2,3-1.7,2.2-0.3,4.8c0.4,4.4,8.1,7.1,10.5,2.8C18.8,35.9,16,22.5,24.5,21.5L24.5,21.5z M20.7,26.8
	c-1,2.3,2.5,4.3,4.8,4.6c4.1-1,4.8-3.4,2.5-7.1c-1-0.4-1.8-0.7-2.4-1.7C23.2,22,20,24,20.7,26.8z"/>
<path class="st1" d="M16.6,51.6c0.6-2.6-2.1-0.7-2.3-2.5c-0.1-0.8,0.4-1.9-0.9-1.7c-1.3-0.9-3.5-0.6-3-2.8c-0.2-1,2.6-0.2,0.5-2.9
	c-0.8-0.3-0.7-1.2-1.1-1.8c-0.9,0.2-0.7-0.6-0.6-1c2-1.5,0.4-1.9,1-4.1c-1.1-2.5,4,1.7,4.9,2.7c4.7,3.6,9.6,7.2,14.4,10.9
	c0.9,1.7,2.8,1.2,3.4,2.8c-0.4,1.3-1.2,2-1.7,0.4c-0.2,0.9-0.8,1.9-2,1.4c-1.8,4.7-1.4,2.7-5.5,1.3c-0.1-1.9-2.5-0.2-3.1-1.6
	C19.5,52,16.2,54.4,16.6,51.6L16.6,51.6z"/>
<path class="st1" d="M33.2,64.8c3.3,0.6,6.5,1.1,9.8,1.6c4.4,0.7,8.7,1.4,13.1,2.2c3.8,0.6,7.5,1.2,11.3,1.8c0.1,0,0.4-0.2,0.4-0.3
	c0.4-4.9,0.8-9.7,1.2-14.6c0.5-6.2,1.1-12.5,1.6-18.7c0-0.4,0.1-0.8,0.1-1.2c-0.1-0.7,0.2-0.8,0.8-0.7c0.5,0.1,1,0.1,1.6,0.2
	c0.1,0,0.2,0.2,0.2,0.3c-0.6,7.4-1.2,14.8-1.9,22.1c-0.4,5.2-0.9,10.4-1.4,15.7c0,0.1-0.3,0.3-0.4,0.3c-7.6-1.2-15.1-2.5-22.7-3.7
	c-4.6-0.8-9.2-1.5-13.8-2.3c-0.1,0-0.3-0.3-0.3-0.4c0-0.7,0.2-1.3,0.2-1.9C33.1,65,33.2,64.9,33.2,64.8L33.2,64.8z"/>
<path class="st1" d="M48.4,61.7c-5.5,1.3-8.8-0.3-12.5-4.2c2.7-3.6,7.8-12,10.9-13.1c1.2,0.5-1.7,4,0.4,4.6c0.8,0,0.7,0.9,1,1.3
	c0.6-0.2,0.7,0.4,1,0.8c1.4,1,4.4,0.6,5.2-0.8c2.1,2-2,1.1,2.3,4C54.8,57.3,51.6,61.6,48.4,61.7L48.4,61.7z M47.4,60.4
	c4.6-0.4-2.2-4.8-3.5-6C41.4,48.8,31.6,62.7,47.4,60.4z"/>
<path class="st1" d="M71.7,25.3c-0.8-0.1-1.4-0.1-2-0.3c-0.1,0-0.2-0.2-0.2-0.4c0.5-4.6,1-9.2,1.5-13.8c0.2-1.9,0.4-3.7,0.6-5.6
	c0-0.1-0.2-0.2-0.3-0.2C67.3,6.6,63.5,8,59.6,9.5c-2.4,0.9-4.8,1.8-7.2,2.7c-0.4,0.1-0.5,0.1-0.6-0.3c0-0.2-0.2-0.5-0.2-0.7
	c-0.4-1.4-0.4-1.4,0.8-1.8C59.6,6.6,66.8,3.9,74,1.2c0.4-0.2,0.4,0,0.4,0.4C73.7,8,73,14.4,72.3,20.9c-0.2,1.4-0.3,2.8-0.5,4.2
	C71.9,25.2,71.7,25.3,71.7,25.3L71.7,25.3z"/>
<path class="st1" d="M1.3,6.3c0-0.7-0.1-1.5-0.1-2.2c0-0.2,0.2-0.5,0.4-0.5c5-0.9,10.1-1.7,15.1-2.6c1.5-0.3,3.1-0.5,4.6-0.8
	c0.1,0,0.3,0.2,0.4,0.3c0.1,0.7,0.2,1.4,0.3,2c0,0.1-0.1,0.3-0.3,0.3C17,3.7,12.4,4.5,7.7,5.3C6.5,5.5,5.3,5.7,4.1,5.9
	C4,5.9,3.8,6.2,3.8,6.3C4.1,12.5,4.4,18.8,4.7,25c0,0.1-0.2,0.4-0.3,0.4c-0.4,0.1-0.9,0-1.3,0.1c-0.7,0.2-0.9-0.1-0.9-0.8
	C1.9,18.5,1.6,12.4,1.3,6.3L1.3,6.3L1.3,6.3z"/>
<path class="st1" d="M25.3,74.7c-3-0.6-5.8-1.2-8.6-1.8c-3.5-0.7-7-1.4-10.5-2.2c-0.2,0-0.4-0.3-0.5-0.5c-1.1-3.7-2.2-7.4-3.2-11.1
	c0-0.2,0.2-0.4,0.3-0.6c0.1-0.1,0.3-0.1,0.4-0.1c1.5-0.5,1.5-0.5,2,1.2c0.8,2.8,1.6,5.6,2.4,8.4c0.1,0.2,0.3,0.4,0.4,0.4
	c5.8,1.2,11.7,2.4,17.5,3.7c0.1,0,0.3,0.3,0.3,0.5c-0.1,0.7-0.2,1.3-0.3,1.9C25.4,74.5,25.3,74.6,25.3,74.7L25.3,74.7z"/>
<path class="st1" d="M35.4,4.8c4.5,0,8.9,0,13.4,0c0.1,0,0.4,0.3,0.4,0.4C49.2,6,49.4,7,49,7.4c-0.3,0.4-1.2,0.1-1.9,0.1
	C38.7,7.4,30.4,7.3,22,7.1c-0.1,0-0.3-0.3-0.3-0.4c0-0.7-0.2-1.7,0.1-2.2c0.3-0.4,1.2-0.1,1.9-0.1c3.9,0,7.8,0,11.7,0
	C35.4,4.6,35.4,4.7,35.4,4.8L35.4,4.8z"/>
<path class="st1" d="M37.7,18.1c-0.6,0-1.2,0-1.7,0c-1.7-0.2-3,0.6-3.8,2.3c0,0.1-0.1,0.2-0.2,0.2c-1-0.1-2,0-2.9-0.4
	c-0.8-0.4-1.5-1-2.5-0.9c-0.7,0.1-1.5-0.1-2.2,0c-1.8,0.3-2.8-1-3.7-2.3c-1-1.4-1.5-3.1-2.4-4.7c-0.6-1.1-1.5-2.1-2.2-3.2
	c-0.1-0.1,0-0.4,0.1-0.5c0.3-0.2,0.8-0.5,0.9-0.4c1.3,1.5,2.5,3.2,3.2,5.2c0.6,1.7,1.7,3.2,3.1,4.2c0.1,0.1,0.3,0.1,0.5,0.1
	c1,0,2.1,0.1,3.1,0c1.1-0.1,2,0.2,2.8,1c0.6,0.6,1.5,0.3,2-0.3c0.9-1.1,1.9-1.9,3.3-2c1.7,0,3.4,0,5.1,0c1.2,0,2.4-0.3,3.2-1.3
	c0.5-0.6,0.7-1.6,1.1-2.4c0.1-0.2,0.1-0.5,0.3-0.6c1.2-0.9,1.2-2.2,1.4-3.5c0.2-0.8,0.7,0,1.1-0.2c0,0,0.2,0.3,0.2,0.4
	c0,0.6-0.1,1.2-0.2,1.7c-0.2,0.6-0.5,1.2-0.7,1.7c-0.5,1-1,1.9-1.5,2.9c-0.5,1.2-1.5,2-2.6,2.3c-1.4,0.4-2.9,0.4-4.4,0.5L37.7,18.1
	L37.7,18.1z"/>
<path class="st1" d="M2.2,29.3c0,0.1,0.1,0.2,0.2,0.4c1.5,5.8,3,11.7,4.5,17.5c0.3,1.2,0.6,2.3,0.9,3.4c0,0.1-0.1,0.3-0.2,0.4
	c-0.3,0.1-0.6,0.2-0.9,0.3c-1.1,0.3-1.1,0.3-1.4-0.9C3.4,43.8,1.7,37.1,0,30.5c0-0.1,0.1-0.5,0.2-0.5C0.9,29.7,1.5,29.5,2.2,29.3
	L2.2,29.3z"/>
<path class="st1" d="M54.7,49.7c-4.9,0-6.8-1.8-6.3-6.8c0.7-5.7,6.8-4.4,10-1.8C60.1,45.1,60.5,50,54.7,49.7z M54.6,48.6
	c9.1-0.1,0.2-13.6-4.3-7.3C47.5,44.5,50.5,49.2,54.6,48.6z"/>
<path class="st1" d="M37.8,32c2.7-0.4,4.4,1.7,6,3.4c3,9.1-7.7,9.6-10.8,3.5C32.5,35.5,34.1,31.5,37.8,32L37.8,32z M34,36.8
	c-0.5,3.5,6,7.7,8.4,3.7c2.4-0.8,0.2-5.2-1.3-6C39.5,31.4,33.6,33.3,34,36.8z"/>
<path class="st1" d="M56.8,57.9c-3.2,0.2,0.2-1.7,0.2-3C58.1,56.2,57.7,56.6,56.8,57.9z"/>
<path class="st1" d="M9,27.8c0.4,0.2-0.6,2.1-1,2.6C7.2,29,7.4,28.5,9,27.8z"/>
<path class="st1" d="M56.8,57.8c0.5-0.4,1.1-0.6,1.5-1.1c0,0.8,0,1,0.6,1.3C58.5,58.8,56.4,59.4,56.8,57.8L56.8,57.8z"/>
<path class="st1" d="M6.6,41.2c0.1-0.3,0.2-0.7,0.3-1.1c0,1.9,0.9,1.8,1.4,3.7C7.6,43.7,6.7,42.2,6.6,41.2z"/>
<path class="st1" d="M58.7,61.7c-0.2,0-0.4-0.1-0.7-0.2c0.2-0.4,0.3-0.8,0.8-0.8c0.2,0,0.5-0.5,0.6-0.8c0.2-0.5,0.3-0.9,0.9-0.9
	c0.1,0,0.1,0,0.2,0c0,0-0.1,0.1-0.2,0.1c-0.4,0.1-0.5,0.4-0.5,0.9c0,0.5-0.2,1-0.4,1.4C59.4,61.7,59,61.7,58.7,61.7L58.7,61.7z"/>
<path class="st1" d="M24.9,59.3c-0.2-0.1-0.6-0.2-0.9-0.4c0.4,0,0.7-0.1,1,0c0.4,0,0.8,0.1,0.7-0.7c0,0,0.3-0.3,0.4-0.2
	c0.4,0.2,0.7,0.5,1,0.7c0,0,0,0.1,0,0.1C26.5,59,25.8,59.1,24.9,59.3L24.9,59.3z"/>
<path class="st1" d="M21.1,58.8c0.9,0,1.6,0.4,2.2,1c0,0,0,0.2,0,0.2c-0.5,0.3-2-0.3-2.1-0.9C21.1,59.1,21.1,58.9,21.1,58.8
	L21.1,58.8L21.1,58.8z"/>
<path class="st1" d="M23.1,59c-0.1-0.2-0.3-0.4-0.3-0.6c0-0.1,0.3-0.4,0.4-0.4c0.3,0.2,0.5,0.5,0.7,0.7C23.6,58.8,23.4,58.8,23.1,59
	z"/>
<path class="st1" d="M21.1,58.8c-0.5-0.1-0.4-1.1-1.1-1C20.6,56.8,21.1,58.2,21.1,58.8z"/>
<path class="st1" d="M57.4,61.6c0.2,0.1,0.3,0.1,0.4,0.1c-0.2,0.1-0.3,0.2-0.5,0.3c0,0-0.1-0.1-0.1-0.2
	C57.3,61.8,57.4,61.7,57.4,61.6L57.4,61.6z"/>
<path class="st1" d="M24.6,29.7c-2.8,1.1-3.3-5.3-0.9-5.2c1.4-0.4,0.6,0.4,1.5,0.8C27.7,25.3,28.2,30.5,24.6,29.7z M24.8,28.7
	c1.9,0.5,1.6-1.7,0.4-2.4c-1-0.1-1.2,0.2-1.5-0.8C23.1,26.5,23.2,29.1,24.8,28.7z"/>
<path class="st1" d="M56.2,45.1c0.1,4.5-6.4,2.5-5-1.3C52,40.8,56.4,42.5,56.2,45.1z M55.2,45.2c-0.4-2.2-3.4-2.5-3.2,0.2
	C53,45.8,55.3,47.8,55.2,45.2z"/>
<path class="st1" d="M35.7,38c-0.3-1.7,0.4-1.8,1.8-2.2c0-1.2,0.6-0.7,1.2-0.8c0.3,0.7,0.4,1.3,1.2,1.2c0.6,0.2,1.7,2.9,1,3.6
	C39.2,41.4,35.1,40.7,35.7,38z M38.5,39.8c1.3-0.3,0.8-1,1.8-1.2c-1,0-0.7-0.8-0.8-1.4C36.4,36,35.6,38.4,38.5,39.8z"/>
</g>
</svg>
