<?xml version="1.0" encoding="utf-8"?>
<!-- Generator: Adobe Illustrator 28.0.0, SVG Export Plug-In . SVG Version: 6.00 Build 0)  -->
<svg width="156px" height="156px" viewBox="0 0 156 156" version="1.1" id="Calque_1" xmlns="http://www.w3.org/2000/svg" xmlns:xlink="http://www.w3.org/1999/xlink" x="0px" y="0px" style="enable-background:new 0 0 123.1 75;" xml:space="preserve">
<style type="text/css">
	.st0{fill:#FFFFFF;}
	.st1{fill:#0000FF;}
</style>
<g transform="translate(0.00,30.48) scale(1.267262)">
<rect x="0" y="0.3" class="st0" width="123" height="74.7"/>
<path class="st1" d="M123.1,0.2V75H0.2C-0.2,50.1,0.1,25.2,0,0.3C41-0.2,82.1,0,123.1,0.2z M4.1,71H83v-16H4.1V71z M4.1,19.3H83V4.1
	H4.1V19.3z M87.3,10v54.7c9.8-9.3,19.3-18.3,29-27.4C106.6,28.1,97,19.1,87.3,10z M119,71.1V40.4c-10.8,10.2-21.4,20.3-32.4,30.6
	H119z M119,34.3V4.1H87.2C98,14.3,108.4,24.2,119,34.3z M19.7,50.7h12.9V23.5H19.7V50.7z M50.5,50.8V23.5h-13v27.2H50.5z M67.6,50.8
	V23.5H55.3v27.2H67.6z M4.1,23.5v27.3h11.3V23.5H4.1z M71.8,23.5v27.2H83V23.5H71.8z"/>
</g>
</svg>
