<?xml version="1.0" encoding="utf-8"?>
<!-- Generator: Adobe Illustrator 28.0.0, SVG Export Plug-In . SVG Version: 6.00 Build 0)  -->
<svg width="156px" height="156px" viewBox="0 0 156 156" version="1.1" id="Ebene_1" xmlns="http://www.w3.org/2000/svg" xmlns:xlink="http://www.w3.org/1999/xlink" x="0px" y="0px" style="enable-background:new 0 0 286.1 75;" xml:space="preserve">
<style type="text/css">
	.st0{fill:#FFFFFF;fill-opacity:0;}
	.st1{clip-path:url(#SVGID_00000163048285498285297070000000637969656423535024_);}
	.st2{clip-path:url(#SVGID_00000066492091601701306140000008265758186929639869_);}
	.st3{fill-rule:evenodd;clip-rule:evenodd;fill:#1214FF;}
	.st4{fill:#FFFFFF;}
</style>
<g transform="translate(0.00,57.55) scale(0.545264)">
<g>
	<rect class="st0" width="286.1" height="75"/>
</g>
<g>
	<defs>
		<rect id="SVGID_1_" x="0.9" y="0.9" width="284.3" height="73.2"/>
	</defs>
	<clipPath id="SVGID_00000101814000388901551160000007010775590080299958_">
		<use xlink:href="#SVGID_1_"  style="overflow:visible;"/>
	</clipPath>
	<g style="clip-path:url(#SVGID_00000101814000388901551160000007010775590080299958_);">
		<g>
			<rect x="2" y="2.5" class="st0" width="279.9" height="69.8"/>
		</g>
		<g>
			<defs>
				<rect id="SVGID_00000168076891710535743510000000182868879615239329_" x="2.6" y="3.1" width="278.8" height="68.7"/>
			</defs>
			<clipPath id="SVGID_00000115510432757637459220000004843586271382175909_">
				<use xlink:href="#SVGID_00000168076891710535743510000000182868879615239329_"  style="overflow:visible;"/>
			</clipPath>
			<g style="clip-path:url(#SVGID_00000115510432757637459220000004843586271382175909_);">
				<g>
					<path class="st3" d="M25.2,25.4c0.1-2.3-7.1-13.3-1.1-13c6.8-1.8,14.6-1.7,20.9,2C37,34.6,41.1,19.9,25.2,25.4L25.2,25.4
						L25.2,25.4z M59.5,63.7c10.5-13.2,3.3-11.5,14.7-5.3c2.5,1.2,5.2,1.3,7.9,1.2c2.3-2,2.3,10.5,2.9,11c-1.7,0.2-3.6,0.7-5.3,0.9
						c-0.2-0.1-0.2,0.1-0.2,0.3h0.9C72.8,71.8,65,69.1,59.5,63.7L59.5,63.7z M92.6,54.8c0.3-0.1,6.3,12.1,6.9,10.8
						c1.5-1.4,2.7-3,4.1-4.3c5.4-6.8,5.3-15.5,7.3-23.7c0.2-1.6,0.8-3.2,1.4-4.6c-1.7-0.3-8.7-13.2-9.5-6.4
						C97.4,35.2,98.8,46.7,92.6,54.8L92.6,54.8z M115.2,14.4c6,19,2.2,7,16.2,9.6c1.9,0.7,3.8,1.6,5.5,2.6c-0.3-0.5,5.9-13,3.8-12.7
						C132.7,9.9,123,10.2,115.2,14.4z M143.8,33.8c3.1-1.6,8.8-13.8,11.1-5c1.4,2.3,2.5,5.2,2.6,7.9c0.6,3.5,0.4,7.4,1.2,10.7
						c0.4-0.2-10.6,9.6-9.3,6.5C148.2,47,146,40.4,143.8,33.8L143.8,33.8z M165.2,56.5c-5.6,11.9-8.1,12.8,7,15.1
						c14.4-0.2,13.8-0.6,8.8-12.4C175.7,60.6,169.6,60.2,165.2,56.5L165.2,56.5z M189.7,49.6c14.5,14.3,7.4,9.5,17.9-6l1.9-2.8
						c-0.4,0.1-12.1-8.8-12.2-7.2C194.8,38.6,191.9,44.2,189.7,49.6z M244.7,20.8V3.1l36.7,24.2l-36.7,24c-1.3-5,4.1-21-6.1-17.5
						c-5.4,0-11.1-0.1-16.4,0.8c-2.5,0-5.1,0.5-7.4,1.4c0.2-0.6-8.7-13.3-4.3-12.2C221.4,20.6,233.3,21,244.7,20.8L244.7,20.8z
						 M46.6,30.7c0.8,0.2,10-11,10.2-7c3,6,4.3,12.9,6.2,19.4c2.9,2.9-9,8.4-10,9.9c0.1-2.4-1.1-4.7-1.4-7
						C50.2,40.9,48.6,35.6,46.6,30.7L46.6,30.7z M2.6,41.2c18.3-0.7,9.2,3.5,15.2-9.3c0.6-0.9,1.2-1.9,2-2.6c0.9-0.2-8-9.4-7.9-9.6
						C5.8,25.1,2.5,33.1,2.6,41.2z"/>
				</g>
				<g>
					<path class="st4" d="M80.4,71.9h-1l0,0c-7.7-0.2-14.9-3.2-19.9-8.1l-0.1,0.1v-0.2l0,0c3-3.8,4.6-6.4,5.5-8
						c0.8-1.3,1.2-1.9,1.6-2c0.4-0.1,0.9,0.3,1.9,1c1.1,0.8,2.8,2.1,5.7,3.7c2.6,1.2,5.4,1.3,7.9,1.2c0.2-0.2,0.5-0.3,0.7-0.2
						c1.1,0.4,1.5,4.7,1.8,7.8c0.2,1.6,0.3,3.2,0.5,3.3l0.1,0.1l-0.1,0c-0.9,0.1-1.9,0.3-2.9,0.5c-0.8,0.2-1.7,0.3-2.4,0.4l0,0l0,0
						c-0.1,0-0.1,0-0.1,0c0,0,0,0.1,0,0.2c0,0,0,0,0,0C79.9,71.8,80.1,71.8,80.4,71.9L80.4,71.9z M59.6,63.7c5,5,12.2,7.9,19.9,8.1
						c0,0,0,0,0,0c0-0.1,0-0.2,0.1-0.2c0,0,0.1,0,0.2,0c0.8-0.1,1.6-0.3,2.4-0.4c0.9-0.2,1.9-0.4,2.8-0.5c-0.2-0.3-0.3-1.5-0.5-3.3
						c-0.3-3.1-0.7-7.4-1.7-7.8c-0.2-0.1-0.4,0-0.6,0.2l0,0l0,0c-2.5,0.1-5.3,0-7.9-1.2c-2.9-1.6-4.6-2.9-5.7-3.7
						c-0.9-0.7-1.4-1.1-1.8-1c-0.4,0.1-0.8,0.7-1.6,2C64.2,57.2,62.6,59.8,59.6,63.7z M172.2,71.6c-7-1.1-10.2-1.8-11.1-3.5
						c-0.8-1.6,0.3-3.8,2.4-8c0.5-1.1,1.1-2.3,1.8-3.6l0-0.1l0.1,0.1c4,3.3,9.8,4.3,15.7,2.6l0,0l0,0c0.2,0.4,0.3,0.8,0.5,1.2
						c2.1,5.1,3.3,8,2.3,9.5C182.8,71.4,179.1,71.5,172.2,71.6z M165.2,56.6c-0.6,1.3-1.2,2.5-1.7,3.6c-2,4.1-3.1,6.3-2.4,7.9
						c0.9,1.7,4.1,2.4,11.1,3.5c6.9-0.1,10.6-0.2,11.6-1.8c1-1.5-0.2-4.3-2.3-9.4c-0.2-0.4-0.3-0.7-0.5-1.1c-2.8,0.8-5.6,1-8.2,0.6
						C169.8,59.4,167.3,58.3,165.2,56.6z M99.4,65.8c-0.6,0-2.5-3.4-4.8-7.5c-0.9-1.7-1.8-3.3-2-3.4l-0.2,0l0.1-0.1
						c3.3-4.3,4.5-9.6,5.6-14.8c1-4.6,2.1-9.4,4.6-13.4c0.1-1.2,0.5-1.8,1-2c1.3-0.4,3.6,2.6,5.6,5.2c1.2,1.6,2.4,3.1,2.9,3.2l0.1,0
						l0,0.1c-0.7,1.5-1.2,3.1-1.4,4.6c-0.6,2.3-1,4.6-1.4,6.9c-1,5.9-2.1,11.9-6,16.9c-0.7,0.6-1.3,1.3-1.9,2
						c-0.7,0.8-1.4,1.6-2.2,2.3C99.5,65.7,99.4,65.8,99.4,65.8C99.4,65.8,99.4,65.8,99.4,65.8z M92.7,54.8c0.2,0.2,0.7,1,2,3.4
						c1.6,3,4.1,7.5,4.7,7.5c0,0,0,0,0,0c0,0,0.1,0,0.1-0.1l0,0c0.8-0.7,1.5-1.5,2.2-2.3c0.6-0.7,1.2-1.4,1.9-2
						c3.9-4.9,4.9-10.7,6-16.8c0.4-2.3,0.8-4.6,1.4-6.9c0.2-1.5,0.7-3.1,1.4-4.6c-0.6-0.2-1.7-1.6-2.9-3.2c-1.8-2.3-4-5.1-5.3-5.1
						c-0.1,0-0.1,0-0.2,0c-0.5,0.1-0.8,0.8-1,1.9l0,0c-2.5,4.1-3.6,8.8-4.6,13.4C97.1,45.2,96,50.5,92.7,54.8z M199.4,58.1
						c-1.1,0-2.8-1.7-6.6-5.4c-0.9-0.9-1.9-1.9-3.1-3.1l0,0l0,0c1.7-4.1,3.8-8.3,5.8-12.4c0.6-1.3,1.2-2.5,1.8-3.7
						c0-0.1,0.1-0.2,0.1-0.2c0,0,0.1,0,0.1,0c1.1,0,5.4,3,8.7,5.3c1.6,1.1,3.1,2.2,3.3,2.2c0,0,0,0,0,0l0.1,0l-0.1,0.1l-1.9,2.8
						c-3.2,4.8-4.8,8.5-5.8,11c-0.9,2.2-1.4,3.4-2.3,3.5C199.5,58.1,199.5,58.1,199.4,58.1z M189.8,49.5c1.2,1.1,2.2,2.2,3.1,3.1
						c3.7,3.7,5.4,5.4,6.5,5.4c0.1,0,0.1,0,0.2,0c0.8-0.2,1.3-1.4,2.2-3.5c1-2.5,2.6-6.3,5.8-11l1.8-2.8c-0.3-0.1-1.2-0.7-3.3-2.1
						c-3-2.1-7.6-5.3-8.6-5.3c-0.1,0-0.1,0-0.1,0c0,0-0.1,0.1-0.1,0.1l0,0c-0.6,1.2-1.2,2.4-1.8,3.7
						C193.5,41.2,191.5,45.5,189.8,49.5z M149.6,54.5c-0.1,0-0.1,0-0.1,0c-0.1-0.1-0.1-0.3,0-0.6c-1.4-7.1-3.8-14.3-5.7-20.1l0,0v0
						l0,0c0.9-0.5,2.1-2,3.3-3.5c1.8-2.3,3.8-4.7,5.4-4.7c0.1,0,0.2,0,0.3,0c0.9,0.2,1.6,1.2,2.2,3.2c1.6,2.5,2.5,5.3,2.6,7.9
						c0.2,1.5,0.3,3.1,0.5,4.6c0.1,2.1,0.3,4.2,0.7,6.1l0,0c0,0,0,0.1-0.1,0.1C158.2,48.1,150.9,54.5,149.6,54.5z M143.9,33.8
						c1.9,5.8,4.3,13,5.7,20.1l0,0l0,0c-0.1,0.2-0.2,0.5,0,0.5c0,0,0.1,0,0.1,0c0.4,0,1.5-0.5,4.8-3.3c2.2-1.8,4.1-3.6,4.3-3.8
						c-0.5-1.9-0.6-4-0.8-6.1c-0.1-1.5-0.2-3.1-0.5-4.6c-0.1-2.6-1-5.4-2.6-7.9l0,0c-0.5-1.9-1.2-2.9-2.1-3.1
						c-1.6-0.3-3.8,2.3-5.6,4.6C146,31.8,144.8,33.3,143.9,33.8z M53,53.1l0-0.2c0.1-1.4-0.3-2.8-0.7-4.1c-0.3-0.9-0.5-1.9-0.7-2.8
						c-1.5-5.3-3-10.4-5-15.3l0,0v-0.3l0.1,0.2c0.3,0,1.5-1.2,2.9-2.6c2.4-2.4,5.3-5.3,6.7-5.3c0.1,0,0.2,0,0.3,0
						c0.3,0.1,0.4,0.4,0.5,0.9c2.2,4.5,3.6,9.6,4.9,14.4c0.4,1.6,0.9,3.3,1.3,4.9c0.3,0.4,0.5,0.8,0.4,1.2c-0.2,2-4.4,4.6-7.4,6.5
						c-1.5,0.9-2.8,1.7-3.1,2.2L53,53.1z M46.7,30.7c2,4.9,3.5,10,5,15.3c0.1,0.9,0.4,1.9,0.7,2.8c0.4,1.3,0.8,2.7,0.7,4
						c0.4-0.5,1.6-1.2,3-2.1c3-1.9,7.1-4.5,7.4-6.5c0.1-0.4-0.1-0.8-0.4-1.2l0,0c-0.5-1.6-0.9-3.3-1.3-4.9
						c-1.3-4.9-2.6-9.9-4.9-14.4l0,0c0-0.4-0.2-0.7-0.4-0.8c-0.1,0-0.1,0-0.2,0c-1.3,0-4.3,3-6.6,5.3C48,29.7,47.1,30.6,46.7,30.7z
						 M244.7,51.3L244.7,51.3c-0.4-1.5-0.2-4,0-6.5c0.4-4.3,0.8-9.2-1.4-10.9c-1-0.8-2.6-0.9-4.7-0.1l0,0l-1.2,0
						c-5.1,0-10.3,0-15.3,0.8c-2.5,0-5.1,0.5-7.4,1.4l-0.1,0l0-0.1c0-0.2-0.7-1.4-1.5-2.7c-1.9-3.2-4.8-8.1-3.9-9.3
						c0.2-0.3,0.6-0.3,1.1-0.2c9.4-2.7,19.6-2.8,29.4-2.9c1.6,0,3.2,0,4.8-0.1V3l0.1,0l36.8,24.2l-0.1,0L244.7,51.3z M241.2,33.2
						c0.9,0,1.6,0.2,2.1,0.7c2.2,1.7,1.8,6.6,1.5,10.9c-0.2,2.5-0.4,4.9-0.1,6.4l36.6-23.9L244.8,3.2v17.7l-0.1-0.1
						c-1.6,0-3.3,0-4.8,0.1c-9.8,0.1-20,0.2-29.4,2.9l0,0l0,0c-0.5-0.1-0.9-0.1-1,0.2c-0.9,1.1,2.1,6.2,3.9,9.2
						c0.9,1.6,1.4,2.4,1.5,2.7c2.3-0.9,4.9-1.4,7.4-1.4c4.9-0.8,10.2-0.8,15.3-0.8l1.2,0C239.6,33.4,240.4,33.2,241.2,33.2z
						 M13.7,41.4c-0.4,0-0.9,0-1.6-0.1c-1.8-0.1-4.7-0.3-9.5-0.1l0,0l0,0c0-4,0.8-8.1,2.3-11.8c1.6-3.7,4-7.1,7-9.8l0.2-0.2
						l-0.1,0.2c0.1,0.2,1.1,1.3,2.2,2.6c3.2,3.6,5.9,6.5,5.7,7c0,0,0,0.1-0.1,0.1c-0.6,0.6-1.1,1.3-1.6,2c-0.1,0.2-0.3,0.4-0.4,0.6
						c-1.9,4-2.3,6.4-2.5,7.7C15.1,41.1,15,41.4,13.7,41.4z M6.6,41.1c2.5,0,4.3,0.1,5.5,0.2c2.9,0.2,2.9,0.2,3.2-1.6
						c0.2-1.4,0.6-3.7,2.5-7.8c0.1-0.2,0.3-0.4,0.4-0.6c0.5-0.7,1-1.5,1.6-2.1l0,0l0,0c0,0,0,0,0,0c0.1-0.5-3.5-4.5-5.7-6.9
						c-1.6-1.8-2.1-2.3-2.2-2.5C6,25,2.5,33,2.6,41.1C4.1,41.1,5.4,41.1,6.6,41.1z M137,26.7l-0.2-0.1c-1.5-0.9-3.2-1.7-5.5-2.6
						c-5.4-1-8.2,0.2-9.8,0.9c-0.9,0.4-1.5,0.6-2,0.4c-1.1-0.5-1.9-3.1-4.3-10.7l-0.1-0.2l0,0c7.9-4.2,17.6-4.4,25.5-0.5
						c0.1,0,0.3,0,0.3,0.1c0.6,0.8-1.3,5.5-2.8,9c-0.7,1.8-1.4,3.4-1.3,3.6L137,26.7z M127.5,23.6c1.1,0,2.4,0.1,3.9,0.4
						c2.3,0.9,4,1.7,5.4,2.6c0-0.4,0.5-1.6,1.4-3.6c1.3-3.2,3.4-8.1,2.8-8.9c-0.1-0.1-0.2-0.1-0.3-0.1l0,0l0,0
						c-7.8-3.9-17.5-3.8-25.4,0.5l0,0.1c2.4,7.6,3.2,10.2,4.3,10.7c0.5,0.2,1.1,0,1.9-0.4C122.7,24.3,124.5,23.6,127.5,23.6z
						 M38.6,25.6c-0.5,0-1.1-0.2-1.8-0.5c-2-0.8-5.1-1.9-11.7,0.3l0,0h-0.3l0.2-0.1c0-0.7-0.6-2.2-1.3-3.9c-1.3-3-2.9-6.8-1.8-8.4
						c0.4-0.5,1.1-0.8,2-0.7c3.6-1,7.3-1.3,10.7-1.1c3.8,0.3,7.3,1.3,10.3,3.1l0,0l0,0C41.4,23.5,40.3,25.6,38.6,25.6z M32,24
						c2.3,0,3.8,0.6,4.9,1c2.8,1,3.3,1.2,8-10.6c-5.6-3.3-13.2-4-20.8-1.9l0,0l0,0c-0.9-0.1-1.6,0.2-2,0.7c-1.1,1.5,0.5,5.3,1.8,8.3
						c0.7,1.7,1.3,3.2,1.3,3.9C28.1,24.4,30.3,24,32,24z"/>
				</g>
			</g>
		</g>
	</g>
</g>
</g>
</svg>
