<?xml version="1.0" encoding="utf-8"?>
<!-- Generator: Adobe Illustrator 28.0.0, SVG Export Plug-In . SVG Version: 6.00 Build 0)  -->
<svg width="156px" height="156px" viewBox="0 0 156 156" version="1.1" id="Ebene_1" xmlns="http://www.w3.org/2000/svg" xmlns:xlink="http://www.w3.org/1999/xlink" x="0px" y="0px" style="enable-background:new 0 0 522.8 80.3;" xml:space="preserve">
<style type="text/css">
	.st0{fill:#0000FF;}
</style>
<g transform="translate(0.00,66.02) scale(0.298393)">
<g>
	<rect y="31.3" class="st0" width="31.6" height="17.7"/>
</g>
<g>
	<path class="st0" d="M363.3,49l-66.4-0.1l0-17.6h66.4V49z M280.4,49L214,48.9l0-17.6h66.4V49z M197.5,49l-66.4-0.1l0-17.6h66.4V49z
		 M114.6,49l-66.4-0.1l0.1-17.6h66.4V49z"/>
</g>
<g>
	<rect x="379.8" y="31.3" class="st0" width="31.7" height="17.7"/>
</g>
<g>
	<polygon class="st0" points="458.8,2.6 520,40.1 458.8,77.6 458.8,2.6 	"/>
	<path class="st0" d="M457.3,80.3V0l65.5,40.1L457.3,80.3z M460.3,5.3V75l56.9-34.9L460.3,5.3z"/>
</g>
<g>
	<polygon class="st0" points="458.8,2.6 520,40.1 458.8,77.6 458.8,2.6 	"/>
	<path class="st0" d="M457.3,80.3V0l65.5,40.1L457.3,80.3z M460.3,5.3V75l56.9-34.9L460.3,5.3z"/>
</g>
<g>
	<polygon class="st0" points="396.6,2.6 457.8,40.1 396.6,77.6 396.6,2.6 	"/>
	<path class="st0" d="M395.1,80.3V0l65.5,40.1L395.1,80.3z M398.1,5.3V75l56.9-34.9L398.1,5.3z"/>
</g>
<g>
	<polygon class="st0" points="396.6,2.6 457.8,40.1 396.6,77.6 396.6,2.6 	"/>
	<path class="st0" d="M395.1,80.3V0l65.5,40.1L395.1,80.3z M398.1,5.3V75l56.9-34.9L398.1,5.3z"/>
</g>
</g>
</svg>
