<?xml version="1.0" encoding="utf-8"?>
<!-- Generator: Adobe Illustrator 28.0.0, SVG Export Plug-In . SVG Version: 6.00 Build 0)  -->
<svg width="156px" height="156px" viewBox="0 0 156 156" version="1.1" id="Ebene_1" xmlns="http://www.w3.org/2000/svg" xmlns:xlink="http://www.w3.org/1999/xlink" x="0px" y="0px" style="enable-background:new 0 0 75 75;" xml:space="preserve">
<style type="text/css">
	.st0{fill:#FFFFFF;}
	.st1{fill-rule:evenodd;clip-rule:evenodd;fill:#FF0000;}
	.st2{fill:#FF0000;}
</style>
<g transform="translate(0.00,0.00) scale(2.080000)">
<g>
	<rect class="st0" width="75" height="75"/>
</g>
<g>
	<path class="st1" d="M41.1,14c7.3,0.8,12.7,6.1,12,11.7s-7.1,9.5-14.5,8.7l0,0c7.6-1.5,11.8-7.6,9.4-13.6C47,18,44.5,15.6,41.1,14
		L41.1,14L41.1,14z"/>
</g>
<g>
	<path class="st1" d="M42.2,41.5c3.6-6.5,10.6-9.6,15.6-7s6.2,10.1,2.6,16.6l0,0c1.8-7.5-2-13.8-8.3-14.1
		C48.8,36.9,45.1,38.5,42.2,41.5L42.2,41.5L42.2,41.5z"/>
</g>
<g>
	<path class="st1" d="M46.3,31.4c1.4-1.8,5.2-2.1,8.8-0.2c1.7,0.9,2.8,2.2,4.3,4c2.7,3,2.8,7,1.3,8.8c0.2-2.6-2.2-7.4-4.6-9.5
		C53.7,32.4,48.8,30.6,46.3,31.4C46.3,31.4,46.3,31.4,46.3,31.4z"/>
</g>
<g>
	<path class="st1" d="M48.3,36.7c2.3,0.1,5.1-2.2,6-5.7c0.4-1.7,0.2-3.2-0.1-5.3c-0.5-3.6-3.7-8.5-6-8.6c2.2,1.4,4.3,7.9,4.3,11.2
		S50.6,35.5,48.3,36.7C48.3,36.7,48.3,36.7,48.3,36.7z"/>
</g>
<g>
	<polygon class="st1" points="39.7,34.9 52.4,27.6 55.8,33.4 42.5,40.3 39.7,34.9 39.7,34.9 	"/>
</g>
<g>
	<path class="st1" d="M40.7,40.6c0.7-0.4,1.4-1.3,1.4-2.2c0-0.8-0.5-1.5-1.1-1.9c-0.7-0.5-1.6-0.5-2.3-0.2c0.8,0.2,1.7,0.9,2,1.6
		S40.9,39.8,40.7,40.6L40.7,40.6L40.7,40.6z"/>
</g>
<g>
	<path class="st1" d="M38.7,36.3c0-0.6,0.1-1.2,0.1-1.9l3.2-0.6l-0.6,2.6L38.7,36.3L38.7,36.3L38.7,36.3z"/>
</g>
<g>
	<path class="st1" d="M40.7,40.6c0.5,0.2,1.1,0.6,1.6,0.8l2.1-2.4l-2.2-0.7L40.7,40.6L40.7,40.6L40.7,40.6z"/>
</g>
<g>
	<path class="st1" d="M13.6,47.9c-2.6-6.8-0.3-13.9,5.1-15.9s11.9,1.9,14.5,8.6l0,0c-4.9-5.9-12.3-6.8-16.6-2
		C14.5,41,13.5,44.3,13.6,47.9L13.6,47.9L13.6,47.9z"/>
</g>
<g>
	<path class="st1" d="M38,34.4c-7.5-0.2-13.6-4.8-13.5-10.4s6.3-10,13.9-9.9l0,0c-7.6,1.9-11.6,8-9,13.7C30.9,30.8,34,33.2,38,34.4
		L38,34.4L38,34.4z"/>
</g>
<g>
	<path class="st1" d="M27,35.5c-2.3-0.5-4.3-3.6-4.2-7.6c0.1-1.9,0.6-3.5,1.6-5.6c1.5-3.7,5.1-5.6,7.3-5.2c-2.5,1-5.7,5.3-6.5,8.3
		S25.1,33.6,27,35.5L27,35.5L27,35.5z"/>
</g>
<g>
	<path class="st1" d="M30.8,31.3c-1-2.1-4.3-3.4-7.9-2.6c-1.7,0.4-3,1.2-4.8,2.6c-3.1,2.1-6,7.1-5.1,9.2c0.3-2.5,5.2-7.4,8.2-8.9
		S28.7,29.8,30.8,31.3L30.8,31.3L30.8,31.3z"/>
</g>
<g>
	<polygon class="st1" points="33.2,39.6 20.8,31.9 24.4,26.3 36.8,34.7 33.2,39.6 33.2,39.6 	"/>
</g>
<g>
	<path class="st1" d="M37.9,36.1c-0.7-0.4-1.8-0.6-2.6-0.2c-0.7,0.4-1.1,1.1-1.2,1.8c-0.1,0.8,0.2,1.7,0.9,2.1
		c-0.2-0.8,0-1.9,0.5-2.5S37,36.3,37.9,36.1L37.9,36.1L37.9,36.1z"/>
</g>
<g>
	<path class="st1" d="M35,39.9c-0.6,0.2-1.2,0.5-1.8,0.7l-2-2.5l2.7-0.7L35,39.9C35,39.9,35,39.9,35,39.9z"/>
</g>
<g>
	<path class="st1" d="M37.9,36.2c0-0.5,0-1.2,0-1.8l-3.2-0.8l0.4,2.3L37.9,36.2C37.9,36.2,37.9,36.2,37.9,36.2z"/>
</g>
<g>
	<path class="st1" d="M58,55.2c-4.6,5.6-12,7.3-16.5,3.7c-4.5-3.6-4.4-11,0.2-16.6l0,0C39,49.4,42,56.1,48.4,57.4
		C51.5,57.9,54.9,57.2,58,55.2L58,55.2L58,55.2z"/>
</g>
<g>
	<path class="st1" d="M33.8,41.5c3.7,6.5,2.7,13.9-2.3,16.7s-12-0.3-15.7-6.7l0,0c5.5,5.5,12.9,5.7,16.6,0.6
		C34.3,49.3,34.8,45.4,33.8,41.5C33.8,41.5,33.8,41.5,33.8,41.5z"/>
</g>
<g>
	<path class="st1" d="M40.3,50.2c0.8,2.1-1,5.4-4.5,7.4c-1.7,0.9-3.4,1.2-5.8,1.5c-4,0.6-7.5-1.5-8.3-3.6c2.1,1.6,7.5,2.1,10.6,1.2
		S39.6,52.7,40.3,50.2L40.3,50.2L40.3,50.2z"/>
</g>
<g>
	<path class="st1" d="M34.7,49.1c-1.3,1.8-0.8,5.4,1.8,8c1.2,1.2,2.6,1.9,4.7,2.7c3.4,1.5,9.3,1.5,10.6-0.4c-2.4,1-9.1-0.7-12-2.4
		S34.5,51.6,34.7,49.1L34.7,49.1L34.7,49.1z"/>
</g>
<g>
	<polygon class="st1" points="40.8,42.8 40.3,57.3 33.6,57 34.6,42.3 40.8,42.8 40.8,42.8 	"/>
</g>
<g>
	<path class="st1" d="M35.4,40.6c0,0.8,0.4,1.9,1.2,2.3c0.7,0.4,1.5,0.4,2.2,0.1c0.8-0.3,1.3-1,1.4-1.8c-0.7,0.6-1.7,0.9-2.5,0.8
		C36.9,41.9,36,41.3,35.4,40.6L35.4,40.6L35.4,40.6z"/>
</g>
<g>
	<path class="st1" d="M40.1,41.2c0.5,0.4,1,0.7,1.5,1.1l-1.2,3l-2-1.9L40.1,41.2L40.1,41.2L40.1,41.2z"/>
</g>
<g>
	<path class="st1" d="M35.4,40.6c-0.5,0.3-1.1,0.6-1.6,0.9l0.9,3.1l1.8-1.5L35.4,40.6L35.4,40.6L35.4,40.6z"/>
</g>
<g>
	<path class="st1" d="M42.6,52.3l-1.6-4c0.4,0.3,4.1-2.4,5.2-4.1c1.1-1.7,2-6.2,1.5-6.1l4.5-0.2c0.4,0.2,0.1,5.1-1.5,7.7
		c-0.4,0.7-0.9,1.4-1.4,2C47.7,50.3,43.1,52.9,42.6,52.3L42.6,52.3L42.6,52.3z"/>
</g>
<g>
	<path class="st1" d="M47.2,28.2l-2.7,3.3c0-0.5-4.2-2.3-6.2-2.4c-2-0.1-6.4,1.4-6.1,1.8l-2.4-3.8c0-0.4,4.4-2.7,7.5-2.6
		c0.8,0,1.7,0.1,2.5,0.1C42.9,24.9,47.5,27.5,47.2,28.2L47.2,28.2L47.2,28.2z"/>
</g>
<g>
	<path class="st1" d="M23.8,36.5l4.3,0.6c-0.5,0.2,0.1,4.7,1,6.5c0.9,1.8,4.5,4.7,4.6,4.3l-2.1,4c-0.4,0.2-4.6-2.4-6.1-5.1
		c-0.4-0.7-0.8-1.4-1.1-2.2C23.1,41.8,23,36.6,23.8,36.5L23.8,36.5L23.8,36.5z"/>
</g>
<g>
	<rect x="2.9" y="29.2" transform="matrix(0.9682 -0.2503 0.2503 0.9682 -9.9331 2.3797)" class="st2" width="3" height="22.1"/>
</g>
<g>
	
		<rect x="21.3" y="4.8" transform="matrix(1 -3.604761e-03 3.604761e-03 1 -2.238595e-02 0.1301)" class="st2" width="29.6" height="3"/>
</g>
<g>
	<polygon class="st2" points="72,25.3 69,25 71.1,5.4 52.2,12.6 51.1,9.8 74.6,0.9 	"/>
</g>
<g>
	<polygon class="st2" points="70,73 32.9,67.1 33.3,64.2 67.3,69.6 70.5,34.5 73.4,34.8 	"/>
</g>
<g>
	<polygon class="st2" points="26.3,74.6 6,69.6 1.8,57.9 4.7,56.9 8.3,67.1 27.1,71.7 	"/>
</g>
<g>
	<polygon class="st2" points="2.7,25.3 1.4,3.6 21.9,0.4 22.3,3.3 4.5,6.1 5.7,25.1 	"/>
</g>
</g>
</svg>
