<?xml version="1.0" encoding="utf-8"?>
<!-- Generator: Adobe Illustrator 28.0.0, SVG Export Plug-In . SVG Version: 6.00 Build 0)  -->
<svg width="156px" height="156px" viewBox="0 0 156 156" version="1.1" id="Ebene_1" xmlns="http://www.w3.org/2000/svg" xmlns:xlink="http://www.w3.org/1999/xlink" x="0px" y="0px" style="enable-background:new 0 0 78 78;" xml:space="preserve">
<style type="text/css">
	.st0{fill:#FFFFFF;}
	.st1{fill:#FF0000;}
</style>
<g transform="translate(0.00,0.00) scale(2.000000)">
<g>
	<rect x="1.5" y="2" class="st0" width="75" height="74.1"/>
</g>
<g>
	<path class="st1" d="M24.4,28.5c1,0,2.1,0,3.1,0c1.2,0,1.9,0.7,1.9,1.9c0,1.1,0,2.1,0,3.2c0,0.3,0.1,0.4,0.4,0.5
		c4.6,1.9,7.5,5.3,8.6,10.1c1.7,7.6-3.3,15.1-11,16.6c-6.5,1.3-12.7-1.5-15.8-7.3c-2.8-5-1.9-11.6,2.2-15.9c1.4-1.6,3.2-2.7,5.2-3.5
		c0.3-0.1,0.4-0.3,0.4-0.6c0-1.1,0-2.1,0-3.2c0-1.2,0.7-1.9,2-1.9C22.4,28.5,23.4,28.5,24.4,28.5L24.4,28.5z"/>
</g>
<g>
	<path class="st1" d="M51.5,33c-1.6-0.2-3.2-0.1-4.7-0.4c-2.1-0.4-3.5-1.6-4.6-2.4c-6.7-5-8.1-8.9-11.1-8.6
		c-0.9,0.1-2.4,0.7-3.2,1.9c-0.7,1-1,2.1-1.1,3.3c0,0.2-0.1,0.3-0.3,0.3c-1.3,0-2.6,0-3.9,0c-0.1,0-0.3-0.1-0.3-0.2
		c0-4,2.5-8.4,7.1-9.4c2.4-0.5,4.7-0.1,6.6,1.5c1.5,1.2,3,2.6,4.4,3.9c1.5,1.4,3.1,2.8,4.6,4.2c1.2,1,2.6,1.6,4.2,1.6
		c1.6,0,3.1,0,4.7,0c0.3,0,0.4,0.1,0.4,0.4c0,1.2,0,2.5,0,3.7c0,0.1,0,0.2-0.1,0.3C54.3,33,54.2,33,54.1,33
		C53.9,32.9,52.9,33,51.5,33L51.5,33z"/>
</g>
<g>
	
		<rect x="44.7" y="39.5" transform="matrix(0.3425 -0.9395 0.9395 0.3425 -4.2105 73.4238)" class="st1" width="11.3" height="0.4"/>
</g>
<g>
	
		<rect x="57.7" y="34.1" transform="matrix(0.8884 -0.4591 0.4591 0.8884 -11.8571 31.0435)" class="st1" width="0.4" height="11.7"/>
</g>
<g>
	<polygon class="st1" points="67.2,39.2 56.9,33.3 57.1,32.9 67.4,38.9 	"/>
</g>
<g>
	
		<rect x="62.9" y="24.5" transform="matrix(5.343104e-03 -1 1 5.343104e-03 32.5733 93.0881)" class="st1" width="0.4" height="11.2"/>
</g>
<g>
	
		<rect x="56.2" y="24.4" transform="matrix(0.8697 -0.4935 0.4935 0.8697 -4.0703 33.8192)" class="st1" width="11.6" height="0.4"/>
</g>
<g>
	<polygon class="st1" points="55.4,26.4 55,26.2 60,16.2 60.4,16.3 	"/>
</g>
<g>
	<rect x="50.1" y="15.3" transform="matrix(0.952 -0.306 0.306 0.952 -4.0036 16.3977)" class="st1" width="0.4" height="11.4"/>
</g>
<g>
	<path class="st1" d="M78,78H0V0h78V78z M3,75h72V3H3V75z"/>
</g>
</g>
</svg>
