<?xml version="1.0" encoding="utf-8"?>
<!-- Generator: Adobe Illustrator 28.0.0, SVG Export Plug-In . SVG Version: 6.00 Build 0)  -->
<svg width="156px" height="156px" viewBox="0 0 156 156" version="1.1" id="Calque_1" xmlns="http://www.w3.org/2000/svg" xmlns:xlink="http://www.w3.org/1999/xlink" x="0px" y="0px" style="enable-background:new 0 0 75 148;" xml:space="preserve">
<style type="text/css">
	.st0{fill:#FD0A0A;}
</style>
<g transform="translate(38.47,0.00) scale(1.054054)">
<path class="st0" d="M25.5,147c5-9.3,14-14.1,17.3-24.4c5.1-16.1,1.6-28.9-9-40.6c-7.4-8.2-15.6-15.7-23-23.9
	C-2.1,43.8-3.8,26.8,7.6,14.8C18,3.8,31.4-1.7,47.7,0.5c-1.7,5.2-5.4,8.6-8.4,12.2c-14.2,17.1-10.7,39.3,4.9,54.6
	c7.2,7,14.1,14.3,20.9,21.7c17,18.9,12.8,46.3-17.5,55.6C40.8,146.6,33.8,149.5,25.5,147z"/>
</g>
</svg>
