<?xml version="1.0" encoding="utf-8"?>
<!-- Generator: Adobe Illustrator 28.0.0, SVG Export Plug-In . SVG Version: 6.00 Build 0)  -->
<svg width="156px" height="156px" viewBox="0 0 156 156" version="1.1" id="Ebene_1" xmlns="http://www.w3.org/2000/svg" xmlns:xlink="http://www.w3.org/1999/xlink" x="0px" y="0px" style="enable-background:new 0 0 75 74.3;" xml:space="preserve">
<style type="text/css">
	.st0{fill:#FFFFFF;}
	.st1{fill:#FF0000;}
	.st2{fill:#FE0101;}
</style>
<g transform="translate(0.00,0.73) scale(2.080000)">
<rect y="5.6" class="st0" width="68.8" height="68.7"/>
<path class="st1" d="M0,74.3V5.6h68.8v68.7C68.8,74.3,0,74.3,0,74.3z M52.1,35.9c4.7-2.7,7.2-8.7,7.6-13.9c9.4,9.7,7.4,26.4,1,37.2
	c0,0,0,0,0-0.1C56.2,66.3,47.9,70,39.8,71.5c0,0,0,0,0,0.1h26.4V8H2.7v56.6c9.7-27.4,31.5-23,31.4-39.4c2.5,3.5,2.2,8.3,1.6,12.4
	c-0.9,2.7,1.5,1.6,3,0.9c4.9-3.2,6.5-10.1,6.2-15.7c-0.3-0.7-0.1-0.9,0.7-0.8C50,24.9,50.5,31.4,52.1,35.9L52.1,35.9z M2.7,71.6
	c11.6,0,23.2,0,34.8,0c7.7-1.8,11.7-10,13.1-17.1c1.7-6.1-0.5-3.6-2.3,0c-3.5,4-9.2,7.2-14.7,6.6c2.2-4,4.7-7.7,7.6-11.2
	c0,0,0,0,0,0c-13.9,4.5-12.8,1.7-23.1,14.2c1.2-3.9,3-8,4.8-11.6c0.4-0.7,1.3-2,1.2-2.5c-2.1,1.2-4,2.6-6.1,3.8
	C11.5,58.6,0.6,61.7,2.7,71.6L2.7,71.6z"/>
<rect x="45.6" class="st0" width="29.4" height="28.4"/>
<path class="st2" d="M55.5,5.1c-0.2-0.7,0.3-0.4,0.6-0.5c0,0,0.1-0.1,0.1-0.1c-0.1-1.3-0.1-2.7-0.2-4c0-0.1,0.1-0.3,0.2-0.3
	c0.2,0,0.5,0,0.5,0c0.9,1.4,1.7,2.9,2.6,4.3c0,0,0.1,0.1,0.2,0.1c1.3,0,2.6,0,3.8,0c0.1,0,0.3,0,0.4,0c0.5,0,0.7,0.4,0.5,0.9
	c0,0-0.1,0.1-0.1,0c-0.4-0.1-0.3,0.2-0.2,0.4c0.3,0.9,0.6,1.9,0.9,2.9c0,0.1,0.2,0.1,0.2,0.1c0.8-0.2,1.5-0.5,2.3-0.7
	c0,0,0.1,0.1,0.1,0.1C67.3,9,67.2,9.7,67,10.4c0,0,0.1,0.1,0.1,0.1c0.9-0.3,1.7-0.5,2.6-0.9c0.1,0,0.1-0.3,0.1-0.4
	c0.1-1.3,0.2-2.6,0.2-3.9c0,0-0.1-0.1-0.1-0.1c-1.7,0.6-3.3,1.1-5,1.7c0,0-0.2-0.2-0.2-0.3C64.5,6.3,64.6,6.1,65,6
	C67,5.4,68.9,4.7,70.8,4c0,0,0.1,0.1,0.1,0.1c-0.1,1.7-0.2,3.4-0.2,5.1c0,0,0.1,0.1,0.1,0.1c1.1-0.3,2.1-0.6,3.2-0.9
	c0.1,0,0.2,0.3,0.3,0.4c0,0.1,0,0.3-0.1,0.4c-2,1.8-4.1,3.6-6.1,5.4c0,0,0,0.1,0,0.1c0.6,0.2,1.2,0.5,1.9,0.7c0,0,0.1-0.1,0.1-0.1
	c0-0.4,0.1-0.9,0.1-1.3c0-0.1,0.1-0.1,0.2-0.1c0.9-0.1,0.6,0.6,0.6,1c0,0.1,0,0.2,0,0.3c-0.1,0.5,0,0.7,0.5,0.8
	c0.1,0,0.2,0.2,0.2,0.3c0.1,0.5-0.2,0.7-0.7,0.6c-0.1,0-0.2,0.1-0.2,0.2c-0.1,0.6-0.1,1.2-0.2,1.8c0,0.1,0.1,0.2,0.1,0.2
	c0.7,0.7,1.5,1.5,2.2,2.2c0.1,0.1-0.1,0.4-0.2,0.6c0,0-0.1,0.1-0.2,0c-0.7-0.2-1.4-0.4-2.1-0.6c0,0-0.1,0.1-0.2,0.1
	c-0.1,1.4-0.3,2.8-0.4,4.1c0,0-0.1,0.1-0.1,0.1c-3-0.5-6-1-9.1-1.5c-0.2,0-0.5-0.1-0.7-0.1c-0.1,0-0.3,0.1-0.4,0.2
	c-0.5,1.1-0.9,2.2-1.4,3.3c0,0,0,0.1-0.1,0.1c0,0,0,0,0-0.1c-0.3-1.7-0.7-3.4-1-5c-0.1-0.5-0.2-1-0.3-1.6c0,0,0-0.1,0-0.1
	c0,0,0,0,0,0.1c-0.5,1.2-1,2.4-1.5,3.5c0,0.1-0.2,0.1-0.3,0.1c-0.2,0-0.4-0.1-0.5-0.2c-0.1-0.7-0.1-1.5-0.2-2.2c0,0-0.1-0.1-0.2-0.1
	c-0.3,0.1-0.7,0.2-1,0.3c0,0-0.1,0-0.1-0.1c0.1-0.9,0.2-1.8,0.3-2.7c0,0-0.1-0.1-0.1-0.1c-1.4,0.5-2.7,1-4.1,1.4
	c-0.1,0-0.3-0.3-0.5-0.5c0,0,0-0.1,0-0.1c0.5-0.6,1.1-1.2,1.6-1.9c0.1-0.1,0-0.5-0.2-0.6c-0.3-0.2-0.7-0.3-1.1-0.5c0,0,0-0.1,0-0.1
	c0.2-0.2,0.6-0.5,0.7-0.8c0.1-0.3-0.1-0.7-0.1-1.1c-0.1-1.1-1.1-1.2-1.8-1.7c-0.7-0.5-1.5-0.9-2.2-1.3c0,0,0,0-0.1-0.1
	c0,0,0,0,0.1,0c1.9-0.1,3.7-0.3,5.6-0.4c0.8-0.1,1.7-0.1,2.5-0.2c0.1,0,0.1,0,0.2,0c0,0-0.1-0.1-0.1-0.1c-0.5-0.5-1.1-1.1-1.6-1.6
	c0,0,0,0,0-0.1c0,0,0,0,0.1,0c1.3-0.2,2.7-0.5,4-0.7c0,0,0.1-0.1,0.1-0.1c-0.1-1.2-0.1-2.3-0.2-3.5c0-0.1-0.2-0.1-0.3-0.1
	C55.5,5.6,55.3,5.5,55.5,5.1L55.5,5.1z M48.4,13.1c0,0-0.1,0-0.2,0c0,0,0,0,0.1,0.1c1.2,0.8,2.5,1.5,3.7,2.3c0,0,0,0.2,0,0.2
	c-0.5,0.5-1,1-1.5,1.5c0,0,0,0.1,0,0.1c0.4,0.2,0.9,0.4,1.3,0.6c0,0,0,0.1,0,0.1c-0.5,0.6-1,1.2-1.5,1.8c0,0,0,0.1,0,0.1
	c0,0,0.1,0,0.1,0c1.1-0.4,2.2-0.8,3.3-1.2c0.2,0,0.5,0.1,0.5,0.2c0,0.6-0.1,1.1-0.2,1.7c-0.1,0.9-0.1,0.9,0.8,0.7c0,0,0.2,0,0.2,0.1
	c0.1,0.5,0.1,1.1,0.2,1.6c0,0,0,0.1,0,0.1c0,0,0,0,0-0.1c0.6-1.5,1.2-2.9,1.8-4.4c0,0,0-0.1,0.1-0.1c0,0,0,0.1,0,0.1
	c0.5,2.2,0.9,4.4,1.4,6.6c0,0,0,0.1,0,0.1c0,0,0,0,0-0.1c0.8-1.9,1.6-3.7,2.4-5.6c0,0,0.1,0,0.1,0c0.4,0.4,0.8,0.9,1.2,1.3
	c0,0,0.1,0,0.1,0.1c0,0,0-0.1,0-0.1c-0.1-0.8-0.1-1.5-0.2-2.3c0,0,0.2-0.2,0.2-0.2c3,0.8,5.9,1.6,8.8,2.5c0,0,0.1,0,0.1,0
	c0,0-0.1-0.1-0.1-0.1c-1.4-1.4-2.8-2.8-4.2-4.1c0,0-0.1-0.1-0.1-0.1c0,0,0,0,0.1,0c0.9-0.1,1.8-0.2,2.7-0.2c0,0,0.1,0,0.1,0
	c0,0-0.1,0-0.1,0c-1.1-0.4-2.1-0.8-3.1-1.2c0,0-0.1-0.1-0.1-0.1c2-1.7,3.9-3.4,5.9-5.1c0,0,0.1-0.1,0.1-0.1c-0.1,0-0.1,0-0.1,0
	c-2.1,0.6-4.2,1.3-6.4,1.9c0,0-0.1,0-0.1-0.1c0.1-0.7,0.2-1.5,0.4-2.2c0,0-0.1-0.1-0.1-0.1c-0.6,0.2-1.2,0.4-1.8,0.5
	c-0.1,0-0.2-0.1-0.2-0.1c-0.3-1-0.6-2-1-3c0,0,0-0.1,0-0.1c0,0,0,0,0,0.1c-0.5,1.2-1,2.3-1.5,3.5c0,0,0,0.1,0,0.1c0,0,0-0.1-0.1-0.1
	c-1.5-2.6-3-5.2-4.5-7.7C57.1,2.2,57,2,56.9,1.8c0,0.2,0,0.5,0,0.7C57,5,57.1,7.4,57.2,9.9c0,0-0.1,0.1-0.1,0.1
	c-1.1,0.2-2.2,0.4-3.3,0.6c0,0-0.1,0.1,0,0.1c0.5,0.5,0.9,1,1.4,1.5c0.1,0.1,0.2,0.2,0.3,0.3c-0.1,0-0.3,0-0.4,0.1
	C52.9,12.8,50.7,12.9,48.4,13.1L48.4,13.1z M63.5,23.2C63.5,23.2,63.5,23.2,63.5,23.2c0,0-0.1,0-0.1,0c-0.7-0.7-1.3-1.5-2-2.2
	c0,0-0.1,0-0.1,0c-0.3,0.8-0.6,1.5-0.9,2.2c0,0,0,0.1,0,0.1c2.9,0.5,5.9,1,8.8,1.4c0,0,0.1,0,0.1-0.1c0.1-1.1,0.2-2.2,0.3-3.4
	c0,0,0-0.1-0.1-0.1c-2.1-0.6-4.1-1.1-6.2-1.7c0,0-0.2,0.1-0.2,0.2C63.2,20.9,63.3,22,63.5,23.2L63.5,23.2z M61.5,5.5L61.5,5.5
	c-0.5,0-1,0-1.5,0c0,0-0.1,0.1-0.1,0.1c0.5,0.9,1.1,1.9,1.6,2.8c0,0,0.1,0,0.1,0c0.4-0.9,0.9-1.9,1.3-2.8c0,0,0-0.1-0.1-0.1
	C62.4,5.5,62,5.5,61.5,5.5L61.5,5.5z M69.9,17.1c-0.4,0-0.7,0.1-1,0.1c0,0-0.1,0-0.1,0c0,0,0,0,0.1,0.1c0.3,0.2,0.5,0.5,0.8,0.8
	c0.1,0,0.1,0.1,0.2,0.1c0-0.1,0-0.1,0-0.2c0-0.3,0.1-0.5,0.1-0.8C70,17.2,70,17.2,69.9,17.1L69.9,17.1z M50.7,15.6
	c0,0.1,0,0.1,0,0.1c0,0,0,0.1,0.1,0.1c0,0,0.1-0.1,0.1-0.1C50.8,15.7,50.8,15.6,50.7,15.6z"/>
<path class="st2" d="M49.7,10.5c-0.1-2-0.2-4-0.2-6.1c0-0.1,0.1-0.3,0.2-0.3c1.9-0.3,3.9-0.6,5.8-0.9c0,0,0.1,0,0.1,0.1
	c0.2,0.8,0.2,0.8-0.8,0.9c-1.5,0.2-2.9,0.4-4.3,0.7c0,0-0.1,0.1-0.1,0.2c0.1,2,0.2,3.9,0.2,5.8c0,0.1-0.3,0.1-0.4,0.2
	C49.7,11.2,49.7,11.1,49.7,10.5L49.7,10.5z"/>
<path class="st2" d="M56.9,25.5c0,0.3-0.1,0.5-0.2,0.8c0,0-0.2,0-0.3,0c-1.9-0.4-3.8-0.9-5.7-1.3c-0.1,0-0.1-0.2-0.1-0.3
	c-0.3-1.1-0.6-2.2-0.9-3.3c0-0.1,0.2-0.2,0.3-0.2c0.4-0.2,0.6-0.1,0.7,0.4c0.2,0.9,0.4,1.7,0.6,2.6c0,0.1,0.3,0.2,0.5,0.2
	c1.6,0.4,3.3,0.7,4.9,1.1C56.8,25.4,56.9,25.5,56.9,25.5L56.9,25.5z"/>
</g>
</svg>
