<?xml version="1.0" encoding="utf-8"?>
<!-- Generator: Adobe Illustrator 28.0.0, SVG Export Plug-In . SVG Version: 6.00 Build 0)  -->
<svg width="156px" height="156px" viewBox="0 0 156 156" version="1.1" id="Ebene_1" xmlns="http://www.w3.org/2000/svg" xmlns:xlink="http://www.w3.org/1999/xlink" x="0px" y="0px" style="enable-background:new 0 0 75 75;" xml:space="preserve">
<style type="text/css">
	.st0{fill:#FFFFFF;}
	.st1{fill:#FF0000;}
</style>
<g transform="translate(0.00,0.00) scale(2.080000)">
<rect x="0.1" y="0.2" class="st0" width="74.8" height="74.8"/>
<path class="st1" d="M37.5,74.9c-12.3,0-24.6,0-36.9,0c-0.5,0-0.6-0.1-0.6-0.6C0,49.8,0,25.2,0,0.6C0,0.1,0.1,0,0.6,0
	c24.6,0,49.2,0,73.8,0C74.9,0,75,0.1,75,0.6c0,24.6,0,49.2,0,73.7c0,0.5-0.1,0.6-0.6,0.6C62.1,74.9,49.8,74.9,37.5,74.9z M44.8,48.4
	L44.8,48.4L44.8,48.4C44.8,48.4,44.7,48.4,44.8,48.4C44.7,48.4,44.7,48.4,44.8,48.4c-0.1,0.1-0.2,0.1-0.3,0.1
	c-3.4,1.2-6.9,2.1-10.5,2.8c-0.8,0.2-1.7,0.5-2.5,0.9c-2.1,1.2-3.9,2.6-5.5,4.4c-2.2,2.3-4.3,4.8-6.4,7.1c-0.1,0.1-0.1,0.2-0.2,0.2
	c0-0.1,0-0.2,0.1-0.3c0.5-1.3,1-2.7,1.6-4c0.7-1.8,1.4-3.7,2.2-5.5c0.9-1.9,2-3.8,3-5.7c0,0,0-0.1,0-0.1c0,0-0.1,0-0.1,0
	c-1,0.6-2,1.2-3,1.9c-4,2.5-7.9,5-11.9,7.6c-1,0.7-1.9,1.5-2.9,2c-1.1,0.6-1.9,1.4-2.7,2.2c-0.8,0.9-1.6,1.8-2.4,2.8
	c-0.2,0.2-0.3,0.4-0.3,0.7c0,2,0,3.9,0,5.9c0,0.4,0.1,0.5,0.5,0.5c12.5,0,25,0,37.5,0c0.3,0,0.7-0.1,1-0.2c2.5-1.1,4.7-2.5,6.5-4.5
	c2.3-2.4,4-5.2,5-8.4c0.6-1.8,1.2-3.7,1.6-5.5c0.3-1.2,0.5-2.4,0.6-3.6c0-0.2-0.1-0.4-0.2-0.6c-0.2,0.1-0.5,0.2-0.6,0.3
	c-0.5,0.6-0.9,1.2-1.2,1.9c-0.9,1.9-2.2,3.5-4,4.7c-2.6,1.8-5.3,3.3-8.4,4.2c-1.3,0.4-2.7,0.6-4.1,0.4c-0.7-0.1-0.7-0.1-0.3-0.7
	C39.3,55.9,41.8,52,44.8,48.4C44.7,48.4,44.8,48.4,44.8,48.4L44.8,48.4z M37.5,2.7c-11.3,0-22.7,0-34,0C3,2.7,2.9,2.8,2.9,3.3
	c0,13.1,0,26.2,0,39.3c0,7.1,0,14.2,0,21.2c0,0.1,0,0.3,0,0.4C3,64.1,3.1,64,3.1,63.9c1.1-2.5,2.2-5,3.5-7.3c1.7-3.2,3.8-6.3,6.3-9
	c2.9-3.3,6-6.4,9.9-8.6c1.9-1,3.7-2.2,5.6-3.3c1.9-1.1,3.6-2.4,5-4c1.5-1.8,2.7-3.7,3.3-6c0.3-1.2,0.5-2.5,0.4-3.7
	c0-0.1,0-0.2,0.1-0.3c0.1,0.1,0.2,0.1,0.2,0.2c0.3,0.5,0.6,1,0.8,1.5c0.8,2,1.1,4,1.1,6.1c0,2.3-0.2,4.7-0.6,6.9
	c-0.1,0.4,0,0.5,0.4,0.5c1.3,0.1,2.4-0.4,3.5-1.1c1.9-1.2,3.1-2.9,4-4.9c1.4-2.9,2.1-6,2.5-9.2c0.1-1.1,0.2-2.2-0.2-3.2
	c-0.1-0.2,0-0.3,0.2-0.4c0.6-0.1,1.1,0.1,1.6,0.5c1,0.9,1.7,1.9,2.2,3.1c0.7,1.6,1.4,3.3,2,5c0.7,2,1.2,4.1,1.8,6.1
	c0.1,0.2,0.2,0.2,0.3,0.1c0.6-0.4,1.2-0.7,1.7-1.1c1.4-1.2,2.4-2.6,3.3-4.2c1.6-2.9,2.9-5.8,3.1-9.1c0-0.2,0.1-0.3,0.1-0.5
	c0.2,0.1,0.3,0.2,0.5,0.3c2.2,2.1,3.4,4.7,4.5,7.4c1.1,2.8,1.6,5.7,1.8,8.7c0.2,2.6,0.1,5.3-0.3,7.9c-0.4,3.1-1,6.2-2.1,9.1
	c-0.9,2.6-2.1,5-3.6,7.2c-2.9,4.2-6.8,7.3-11.4,9.5c-3.4,1.6-7.1,2.7-10.8,3.4c-0.2,0-0.3,0.1-0.4,0.2c0.2,0,0.3,0,0.4,0
	c9.3,0,18.5,0,27.8,0c0.7,0,0.6,0.1,0.6-0.6c0-22.7,0-45.3,0-68c0-0.5-0.2-0.6-0.6-0.6C60.1,2.7,48.8,2.7,37.5,2.7L37.5,2.7z"/>
</g>
</svg>
