<?xml version="1.0" encoding="utf-8"?>
<!-- Generator: Adobe Illustrator 28.0.0, SVG Export Plug-In . SVG Version: 6.00 Build 0)  -->
<svg width="156px" height="156px" viewBox="0 0 156 156" version="1.1" id="Ebene_1" xmlns="http://www.w3.org/2000/svg" xmlns:xlink="http://www.w3.org/1999/xlink" x="0px" y="0px" style="enable-background:new 0 0 86.8 74;" xml:space="preserve">
<style type="text/css">
	.st0{fill:#FFFFFF;}
	.st1{fill:#FF9900;}
	.st2{enable-background:new    ;}
</style>
<g transform="translate(0.00,11.50) scale(1.797235)">
<g>
	<polygon class="st0" points="5.9,70.6 43.4,6.7 80.9,70.6 5.9,70.6 	"/>
	<path class="st1" d="M86.8,74H0L43.4,0L86.8,74z M11.8,67.2H75L43.4,13.3L11.8,67.2z"/>
</g>
<g class="st2">
	<path class="st1" d="M47.2,56.3l3.1,1c-0.5,1.7-1.3,3-2.4,3.9c-1.1,0.8-2.5,1.3-4.3,1.3c-2.1,0-3.9-0.7-5.2-2.2
		c-1.4-1.5-2.1-3.4-2.1-6c0-2.7,0.7-4.7,2.1-6.2c1.4-1.5,3.2-2.2,5.4-2.2c2,0,3.5,0.6,4.8,1.7c0.7,0.7,1.3,1.7,1.6,2.9l-3.2,0.8
		c-0.2-0.8-0.6-1.5-1.2-2c-0.6-0.5-1.3-0.7-2.2-0.7c-1.2,0-2.1,0.4-2.9,1.3c-0.7,0.9-1.1,2.2-1.1,4.1c0,2,0.4,3.5,1.1,4.3
		c0.7,0.9,1.7,1.3,2.8,1.3c0.9,0,1.6-0.3,2.2-0.8S46.9,57.5,47.2,56.3z"/>
</g>
</g>
</svg>
