<?xml version="1.0" encoding="utf-8"?>
<!-- Generator: Adobe Illustrator 28.0.0, SVG Export Plug-In . SVG Version: 6.00 Build 0)  -->
<svg width="156px" height="156px" viewBox="0 0 156 156" version="1.1" id="Ebene_1" xmlns="http://www.w3.org/2000/svg" xmlns:xlink="http://www.w3.org/1999/xlink" x="0px" y="0px" style="enable-background:new 0 0 75 75;" xml:space="preserve">
<style type="text/css">
	.st0{fill:#FFFFFF;}
	.st1{fill:#FE0101;}
</style>
<g transform="translate(0.00,0.00) scale(2.080000)">
<rect class="st0" width="75" height="75"/>
<path class="st1" d="M35.4,53.9c-8.4,0-16.7,0-25.1,0c-1.4-1.3-0.1-5-0.6-7c11.1-1.3,24.1,0,35.9-0.4c6.8,0.9,7.6,4.5,14.9,0.2
	c0.3-0.1,0.5,0,0.5,0.3c-0.4,2.1,0.8,5.6-0.5,7C52.1,53.9,43.8,53.9,35.4,53.9L35.4,53.9z"/>
<path class="st1" d="M10,26.2c0-1.6,0.7-2.8,2-3.8c0.9-0.7,2-0.8,3.1-1c3.4-0.5,6.9-1,10.3-1.5c3.4-0.5,6.8-1,10.2-1.5
	c3.2-0.5,6.3-0.9,9.4-1.4c2-0.3,4-0.6,6-0.9c0.3,0,0.4-0.2,0.5-0.4c0.4-0.9,0.8-1.8,1.2-2.6c0-0.1,0.1-0.1,0.2-0.2
	c0,0.1,0.1,0.2,0.1,0.2c0.4,3.2,0.8,6.3,1.3,9.5c0.2,1.4,0.3,2.8,0.6,4.2c0.1,0.6,0.4,1.2,0.6,1.8c0.4,1.2,1,2.4,1.3,3.6
	c0.3,1,0.2,2-0.5,2.9c-0.7,0.9-2.9,1.2-3.6-0.5c-0.4-1-0.5-2-0.1-3.1c0.7-1.6,1.2-3.2,1.8-4.8c0-0.1,0-0.3-0.1-0.4
	c-0.5-0.5-1-0.9-1.5-1.4c-0.1-0.1-0.3-0.1-0.5-0.1c-2.3,0.3-4.7,0.6-7,1c-2.7,0.4-5.3,0.7-8,1.1c-3.2,0.5-6.5,0.9-9.7,1.4
	c-2.6,0.4-5.3,0.7-7.9,1.1c-1.8,0.2-3.5,0.5-5.3,0.7c-1.2,0.1-3-0.3-3.9-1.7C9.9,27.8,9.9,26.7,10,26.2L10,26.2z M32.7,23.7
	c6.4,0.4,13.5,0,20.1,0.1c0.9-0.3-0.4-6.6-0.7-6.5C39,19.7,25,20.2,12.2,23.6C19,23.8,25.9,23.6,32.7,23.7z"/>
<path class="st1" d="M73.7,34.8c-0.2,2.4-0.5,4.8-0.7,7.2c-0.2,2.3-0.5,4.7-0.7,7c-0.3,3.4-0.7,6.9-1,10.3c-0.3,3-0.6,6-0.9,8.9
	c-0.1,1.2-0.3,2.4-0.4,3.6c0,0.3-0.2,0.4-0.4,0.3c-1.6-0.3-3.1-0.5-4.7-0.8c-3.6-0.6-7.2-1.1-10.8-1.7c-3.5-0.6-7.1-1.1-10.6-1.7
	c-3.1-0.5-6.2-1-9.3-1.5c-0.3-0.1-0.4-0.1-0.3-0.5c0.2-0.7,0.3-1.4,0.4-2.1c0-0.4,0.2-0.4,0.5-0.4c2,0.3,4,0.7,6,1
	c3.7,0.6,7.4,1.2,11.1,1.8c4.9,0.8,9.9,1.6,14.8,2.4c0.4,0.1,0.6,0,0.6-0.5c0.4-4.3,0.9-8.6,1.3-12.9c0.4-3.9,0.8-7.8,1.2-11.8
	c0.3-2.9,0.6-5.9,0.9-8.8c0-0.5,0.2-0.6,0.7-0.5c0.6,0.1,1.3,0.2,1.9,0.2C73.6,34.3,73.8,34.4,73.7,34.8L73.7,34.8z"/>
<path class="st1" d="M73.3,3.6c-0.2,2.8-0.4,5.6-0.6,8.5c-0.2,2.3-0.3,4.6-0.4,6.9c-0.1,2-0.3,4.1-0.4,6.1c0,0.3-0.1,0.4-0.4,0.4
	c-0.7-0.1-1.5-0.2-2.2-0.3c-0.3,0-0.3-0.1-0.2-0.3c0.1-1.8,0.2-3.6,0.3-5.4c0.2-2.9,0.3-5.7,0.5-8.6C70,9.7,70,8.4,70.1,7.2
	c0-0.3,0-0.4-0.4-0.3c-3.5,1.2-7,2.3-10.6,3.4c-1.9,0.6-3.8,1.2-5.7,1.8c-0.3,0.1-0.3,0-0.5-0.2c-0.3-0.7-0.7-1.4-1.1-2
	c-0.2-0.3,0-0.4,0.2-0.4C54.5,8.7,56.7,8,59,7.3c4.6-1.5,9.2-2.9,13.8-4.4c0.5-0.2,0.5-0.2,0.5,0.4C73.3,3.4,73.3,3.5,73.3,3.6
	L73.3,3.6z"/>
<path class="st1" d="M4.5,25.1c-0.3,0-0.7,0-1,0.1c-0.3,0-0.4-0.1-0.4-0.4c-0.1-2.5-0.2-4.9-0.3-7.4C2.6,12.8,2.4,8.2,2.2,3.6
	c0-0.3,0.1-0.4,0.4-0.5C7.4,2.4,12.2,1.7,17,1c1.8-0.2,3.5-0.5,5.2-0.8c0.3,0,0.4,0,0.4,0.3C22.7,1.3,22.9,2,23,2.7
	c0,0.2,0,0.3-0.2,0.3c-2.1,0.3-4.1,0.6-6.2,0.9C12.9,4.5,9.3,5,5.6,5.6C5.2,5.6,5.2,5.7,5.2,6c0.1,2,0.2,4,0.2,6c0.1,3,0.2,6,0.4,9
	c0.1,1.2,0.1,2.3,0.2,3.5c0,0.4,0,0.6-0.5,0.6C5.2,25,4.8,25.1,4.5,25.1C4.5,25.1,4.5,25.1,4.5,25.1z"/>
<path class="st1" d="M26.7,70.7c-0.2,0.9-0.4,1.8-0.6,2.6c-0.1,0.3-0.3,0.2-0.5,0.2c-1.8-0.4-3.6-0.8-5.3-1.2c-4.5-1-9-2.1-13.6-3.1
	c-0.3-0.1-0.4-0.2-0.5-0.5c-0.8-3.2-1.7-6.3-2.5-9.5c-0.2-0.6-0.3-1.2-0.5-1.8c-0.1-0.3,0-0.4,0.2-0.4c0.7-0.2,1.4-0.4,2.1-0.6
	c0.3-0.1,0.4,0,0.5,0.3C6.7,59.2,7.4,61.6,8,64c0.2,0.8,0.4,1.5,0.6,2.3c0.1,0.4,0.2,0.5,0.6,0.6c3.8,0.8,7.7,1.6,11.5,2.5
	c1.9,0.4,3.8,0.8,5.7,1.2C26.5,70.6,26.6,70.7,26.7,70.7L26.7,70.7z"/>
<path class="st1" d="M36.4,7.7c-4.7,0-9.4,0-14.1,0c-0.4,0-0.5-0.1-0.5-0.5c0-0.7,0-1.4,0-2.1c0-0.2,0-0.4,0.3-0.3
	c0.1,0,0.2,0,0.2,0c9.4,0,18.8,0,28.2,0c0.4,0,0.5,0.1,0.5,0.5c0,0.7,0,1.3,0,2c0,0.4-0.1,0.4-0.5,0.4C45.8,7.7,41.1,7.7,36.4,7.7
	L36.4,7.7z"/>
<path class="st1" d="M6.1,50.3C6,50.2,5.9,50,5.9,49.9c-0.7-2.8-1.5-5.5-2.2-8.3c-1-3.9-2-7.7-3.1-11.6c-0.1-0.4,0-0.5,0.4-0.6
	c0.7-0.1,1.3-0.4,2-0.5c0.3-0.1,0.4,0,0.5,0.3c0.9,3.4,1.8,6.7,2.7,10.1c0.9,3.3,1.8,6.6,2.7,9.9c0.1,0.3,0,0.4-0.3,0.5
	C7.7,49.8,6.9,50,6.1,50.3L6.1,50.3z"/>
<path class="st1" d="M54.8,47.7c-1,0.1-1.8-0.4-2.1-1.3c-0.4-1.1-0.6-2.2,0-3.3c0.7-1.5,1.2-3,1.8-4.6c0-0.1,0.1-0.2,0.2-0.3
	c0,0.1,0.1,0.2,0.1,0.3c0.6,1.5,1.1,3,1.7,4.4c0,0.1,0.1,0.2,0.1,0.3c0.8,1.3,0.4,2.6-0.3,3.8C55.9,47.5,55.4,47.7,54.8,47.7
	L54.8,47.7z"/>
<path class="st1" d="M62.7,33.9c-1.3,1.3-2.3,4.2-3.8,4.7C57.4,37.8,62.2,31.9,62.7,33.9z"/>
<path class="st1" d="M50.9,38c-0.9,1.8-3.8-1.5-5-2.2C46.7,34.1,49.5,37.4,50.9,38z"/>
<path class="st1" d="M59.8,43c0.9-0.6,6.6-2.3,4.3-0.2C62.8,42.8,60,45,59.8,43z"/>
<path class="st1" d="M48.8,42.4c0.4,1.8-4.1,0.8-4.3,0C44.7,41,47.7,42.2,48.8,42.4z"/>
<path class="st1" d="M38.4,42c1.2,0.3,5.6,0.3,3.5,1.7C40.8,43.1,37.2,43.8,38.4,42z"/>
<path class="st1" d="M39.7,36.5c0.1,0,0.2,0.1,0.3,0.1c0.9,0.3,1.7,0.6,2.6,0.9c0.3,0.1,0.4,0.2,0.2,0.5c-0.3,0.7-0.3,0.7-1,0.4
	c-0.7-0.3-1.4-0.6-2.2-0.9c-0.1,0-0.2-0.2-0.2-0.3C39.5,37,39.6,36.8,39.7,36.5L39.7,36.5z"/>
<path class="st1" d="M67.3,36.9c-0.9,0.6-3.2,2.3-2.9,0.2C65.4,36.7,66.7,35.1,67.3,36.9z"/>
<path class="st1" d="M69.5,41c-0.9,1-3.6,0.2-1.6-0.7C68.8,39.9,69.2,40,69.5,41z"/>
<path class="st1" d="M43.8,32.8c0,0,0.1,0.1,0.2,0.2c0.2,0.2,0.3,0.3,0.5,0.5c0.5,0.4,0.4,0.4,0,0.9c-0.3,0.3-0.5,0.3-0.7,0
	c-0.1-0.1-0.2-0.2-0.3-0.3c-0.2-0.2-0.4-0.4-0.4-0.5c0.2-0.3,0.4-0.5,0.7-0.7C43.7,32.9,43.7,32.9,43.8,32.8L43.8,32.8z"/>
</g>
</svg>
