<?xml version="1.0" encoding="utf-8"?>
<!-- Generator: Adobe Illustrator 28.0.0, SVG Export Plug-In . SVG Version: 6.00 Build 0)  -->
<svg width="156px" height="156px" viewBox="0 0 156 156" version="1.1" id="Ebene_1" xmlns="http://www.w3.org/2000/svg" xmlns:xlink="http://www.w3.org/1999/xlink" x="0px" y="0px" style="enable-background:new 0 0 75 74.5;" xml:space="preserve">
<style type="text/css">
	.st0{fill:#FFFFFF;}
	.st1{fill:#FF0000;}
</style>
<g transform="translate(0.00,0.52) scale(2.080000)">
<rect class="st0" width="75" height="74.5"/>
<path class="st1" d="M37.5,74.5c-12.3,0-24.6,0-36.9,0c-0.4,0-0.6-0.2-0.6-0.6C0,49.5,0,25,0,0.6C0-0.1-0.1,0,0.6,0
	c23.9,0,47.8,0,71.7,0c0.8,0,1.5,0,2.3,0C74.9,0,75,0.1,75,0.4c0,24.5,0,49,0,73.5c0,0.7,0.1,0.6-0.7,0.6
	C62.1,74.5,49.8,74.5,37.5,74.5L37.5,74.5z M37.4,3.3c-11.1,0-22.3,0-33.4,0c-0.5,0-0.6,0.1-0.6,0.6c0.1,16.3-0.1,32.7,0.1,49
	c2.4-2.2,5.4-2.8,8.3-1c-0.2-2-0.6-4-0.9-6c0-0.1-0.1-0.3-0.2-0.3c-0.3,0.1-0.3-0.1-0.3-0.3c-1.3-5.4-2.7-10.8-4-16.2
	c-0.1-0.4,0-0.5,0.4-0.6c1.9-0.7,3.8-1.4,5.7-2.1c0.1,0,0.3-0.2,0.3-0.4c-0.1-5.8-0.3-11.6-0.5-17.4c0-0.4,0.1-0.5,0.5-0.4
	c0.7,0.1,1.3,0.2,2,0.3c7.4,1,14.8,1.6,22.2,1.8c7.9,0,15.7-0.9,23.5-1.8c1.5-0.2,3-0.3,4.4-0.5c0.4-0.1,0.5,0,0.5,0.4
	c0.2,7.3,0.4,14.6,0.6,22c0.1,0.9-1-0.2-0.9,1c0.3,6.3,0.5,12.6,0.8,19c0,0.2,0.1,0.3,0.3,0.3c1.8,0,3.5,0.4,5,1.3
	c0.2-16,0-32.1,0.1-48.1c0-0.7,0.1-0.6-0.6-0.6C59.6,3.3,48.5,3.3,37.4,3.3L37.4,3.3z M63.8,20.2C63.8,20.2,63.7,20.2,63.8,20.2
	c0-3.2-0.1-6.3-0.2-9.5c0-0.2,0-0.3-0.3-0.3c-1,0.2-2.1,0.3-3.1,0.4c-7,0.9-14.1,1.6-21.2,1.7c-8-0.1-16.1-0.9-24.1-1.7
	c-0.3,0-0.4,0.1-0.4,0.4c0.2,4.8,0.3,9.5,0.4,14.3c0,0.2,0.1,0.3,0.3,0.2c6-2.1,12.1-4.2,18.1-6.2c0.3-0.1,0.4,0,0.5,0.2
	c1.2,3.9,2.5,7.7,3.7,11.6c0.1,0.2,0.2,0.3,0.4,0.3c8.5-0.5,17.1-1,25.6-1.5c0.4,0,0.4-0.1,0.4-0.5C63.9,26.4,63.8,23.3,63.8,20.2
	L63.8,20.2z M63.2,46.9c-0.2-4.6-0.5-9.2-0.7-13.8c0-0.9,0-0.9-0.9-0.8C53.8,32.7,46,33,38.3,33.6c0.1,0.4,0.2,0.8,0.3,1.2
	c0.3,0.9,0.3,0.9-0.6,1.1c-0.3,0.1-0.4,0.2-0.2,0.5c2,4.2,3.9,8.5,5.8,12.8c0.8,1.8,1.6,3.5,2.4,5.2c0,0.1,0.1,0.4,0.3,0.2
	c1.1-0.7,2.2-1,3.5-1.1c0.3,0,0.3-0.2,0.3-0.4c0-3.2,1.8-6.1,4.8-7.2c2-0.8,4-0.6,5.7,0.9c1.1,0.9,1.7,2.1,2.4,3.2 M8.8,30
	c1,4,2,7.9,3,11.9c0.2,0.9,0.2,0.9,1.1,0.6c5.2-1.8,10.4-3.7,15.6-5.5c2.4-0.8,4.8-1.7,7.1-2.5c0.4-0.1,0.6-0.3,0.4-0.8
	c-1.3-3.8-2.5-7.6-3.7-11.5c-0.1-0.3-0.2-0.4-0.5-0.3C24.2,24.7,16.4,27.2,8.8,30z M38.9,47.3c0.5,0,0.8,0.2,0.5-0.5
	c-0.8-1.7-1.5-3.3-2.2-5c-0.7-1.5-1.4-3.1-2.1-4.6c-0.1-0.2-0.2-0.3-0.5-0.2C27.7,39.5,20.9,42,14,44.4c-0.2,0.1-0.4,0.1-0.3,0.4
	c0.1,0.9,0.3,1.8,0.4,2.7c0,0.2,0.1,0.3,0.3,0.1c2.3-2.5,4.9-2.8,7.8-1.2c2.6,1.4,4,3.5,4,6.5c0,0.3,0.1,0.4,0.4,0.3
	c1.6-0.4,3.2,0,4.6,0.8c0.5,0.2,0.4,0,0.5-0.3C32,50.2,35.3,47.4,38.9,47.3L38.9,47.3z M27.8,70.9c0.8,0,1.5,0,2.3,0
	c0.3,0,0.4,0,0.3-0.3c-0.4-1.1-0.3-2.2,0-3.4c0.4-1.3,0.9-2.5,1.8-3.5c0.2-0.2,0.2-0.5,0.3-0.7c0.1-1.2-0.1-2.3-0.5-3.5
	c-0.6-3.1-4.7-4.7-7-2.1c-1.3,1.5-1.9,3.2-1.3,5.1c0.1,0.3,0.5,0.6,0,0.9c0.4,0.7,0.8,1.5,1,2.2c0.5,1.5,0.5,3.1,0.5,4.7
	c0,0.3,0.1,0.5,0.4,0.5C26.3,70.8,27.1,70.8,27.8,70.9L27.8,70.9z M50.5,70.9c0.7,0,1.3,0,2,0c0.3,0,0.4-0.1,0.4-0.4
	c0-0.5,0-0.9,0-1.4c0-1.4,0.3-2.8,1-4.1c0.5-1,0.8-1.9,0.7-3c0.2-2.1-1.1-4.6-3.3-5.3c-3-1.1-5,1-5.8,3.8c-0.2,0.8-0.2,1.5,0.1,2.3
	c0.8,1.6,2.1,3,2.3,4.9c0,0.9,0.2,1.9,0.2,2.8c0,0.3,0.1,0.4,0.4,0.4C49.2,70.8,49.9,70.9,50.5,70.9L50.5,70.9z M3.4,65.7
	c0,1.6,0,3.2,0,4.7c0,0.2,0,0.4,0.3,0.4c1.1,0,2.2,0,3.3,0c0.2,0,0.2,0,0.2-0.2c-0.4-1.7-0.1-3.5,0.3-5.2c0.8-2.6,2.5-4.4,4.8-5.7
	c0.4-0.2,0.5-0.4,0.5-0.7c0-0.3,0-0.5,0-0.8C12.6,56.4,11,54,9,53.7c-1.8-0.2-3.5,0.9-4.1,2.2c-0.9,1.9-1.4,3.9-1.4,6
	C3.4,63.2,3.4,64.5,3.4,65.7L3.4,65.7z M16.3,70.9c1.9,0,3.8,0,5.6,0c0.4,0,0.5-0.1,0.5-0.5c-0.1-1-0.1-1.9-0.2-2.9
	c-0.5-4.1-5.4-7.2-9.1-5c-2.5,1.5-4,5.1-3.1,7.9c0.1,0.4,0.3,0.5,0.7,0.5C12.5,70.8,14.4,70.9,16.3,70.9L16.3,70.9z M62.2,70.9
	c1.9,0,3.8,0,5.8,0c0.3,0,0.4-0.1,0.4-0.4c-0.1-3-0.9-5.8-3.6-7.5c-0.8-0.5-1.7-1-2.7-0.9c-0.4,0-0.8,0.1-1.2,0.2
	c-1.7,0.2-3.2,1-4.1,2.5c-1.1,1.8-1.2,3.8-0.8,5.8c0.1,0.3,0.2,0.3,0.5,0.3C58.4,70.8,60.3,70.8,62.2,70.9L62.2,70.9z M38.7,49.4
	c-0.6,0.2-1.3,0.3-2,0.6c-2.4,0.9-3.6,3.6-2.9,5.9c0.5,1.7,1.5,3.2,1.5,5c0,0.5,0.2,0.4,0.5,0.3c2-0.9,4.1-0.9,6.2-0.2
	c0.6,0.2,0.5,0.2,0.7-0.4c0.3-1.1,0.7-2.1,1.1-3.2c0.1-0.2,0.1-0.5,0-0.7c-0.9-2.1-1.8-4.1-2.8-6.2C40.6,49.5,39.6,49.6,38.7,49.4z
	 M14.5,50.9C14.5,50.9,14.6,51,14.5,50.9c0.5,2.6,1,5.1,1.4,7.7c0.1,0.2,0.2,0.3,0.4,0.3c1.5,0,2.7,0.6,4,1.3c0-1.1,0.3-2.2,0.9-3.1
	c0.7-1.2,1.7-2,2.8-2.8c0.1-0.1,0.2-0.3,0.2-0.4c-0.4-2-0.5-4.5-2.6-5.6c-2-1.2-5-1-6.4,1.1C15,49.9,14.8,50.4,14.5,50.9z
	 M39.4,70.9c1.9,0,3.7,0,5.6,0c0.3,0,0.4,0,0.3-0.4c-0.1-0.7-0.1-1.4-0.2-2c-0.2-0.8-0.3-1.7-0.7-2.4c-0.7-1.4-2-2.2-3.4-2.8
	c-1.3-0.5-2.6-0.7-4-0.2c-2.7,0.9-5.1,4.5-3.9,7.4c0.1,0.3,0.3,0.4,0.6,0.4C35.7,70.8,37.5,70.8,39.4,70.9L39.4,70.9z M52.3,53.1
	c0,0.3-0.1,0.8,0.3,1c2.4,1.2,4.7,3.4,4.8,6.3c0,0.3,0.1,0.3,0.3,0.2c0.5-0.3,1-0.6,1.6-0.9c0.4-0.2,0.5-0.3,0.5-0.7
	c-0.1-1.8,0.2-3.5,1.3-4.9c0.2-0.2,0.3-0.5,0.3-0.7c0.2-1.6-0.1-3.1-1.2-4.3c-1.4-1.6-3-1.9-4.8-1C53.3,49,52.4,50.8,52.3,53.1z
	 M71.3,63.7c0-2.3,0-4.5,0-6.8c0-0.2-0.1-0.5-0.2-0.7c-1.1-1.9-3.6-3.6-5.7-2.2c-1.3,0.9-2.2,2.1-2.8,3.6c-0.2,0.5,0,1.1,0.1,1.7
	c0,0.1,0.6,0.2,0.9,0.2c0.2,0.1,0.5,0.1,0.7,0.2c2.7,0.7,4.6,2.3,5.7,4.9c0.7,1.6,1,3.3,1,5c0,0.4,0,1,0.2,1.3
	c0.1-0.1,0.1-0.3,0.1-0.5C71.3,68.1,71.3,65.9,71.3,63.7L71.3,63.7z"/>
</g>
</svg>
