<?xml version="1.0" encoding="utf-8"?>
<!-- Generator: Adobe Illustrator 28.0.0, SVG Export Plug-In . SVG Version: 6.00 Build 0)  -->
<svg width="156px" height="156px" viewBox="0 0 156 156" version="1.1" id="Ebene_1" xmlns="http://www.w3.org/2000/svg" xmlns:xlink="http://www.w3.org/1999/xlink" x="0px" y="0px" style="enable-background:new 0 0 75 66.9;" xml:space="preserve">
<style type="text/css">
	.st0{fill:#FFFFFF;}
	.st1{fill:#FF0000;}
	.st2{fill:#FE0707;}
	.st3{fill:#FE0808;}
</style>
<g transform="translate(0.00,8.42) scale(2.080000)">
<rect y="2.9" class="st0" width="64.9" height="64"/>
<path class="st1" d="M32.7,66.9c-10.6,0-21.2,0-31.8,0c-0.3,0-0.5-0.2-0.5-0.5c0-20.9,0-41.8,0-62.8c0-0.6-0.1-0.5,0.5-0.5
	c20.6,0,41.2,0,61.9,0c0.7,0,1.3,0,2,0c0.3,0,0.3,0.1,0.3,0.3c0,21,0,42,0,62.9c0,0.6,0.1,0.5-0.6,0.5
	C53.9,66.9,43.3,66.9,32.7,66.9L32.7,66.9z M32.6,5.9c-9.6,0-19.2,0-28.8,0C3.3,5.9,3.2,6,3.2,6.4c0.1,14-0.1,28,0.1,42
	c2.1-1.9,4.7-2.4,7.2-0.9c-0.2-1.7-0.5-3.4-0.7-5.1c0-0.1-0.1-0.3-0.1-0.3c-0.3,0.1-0.2-0.1-0.3-0.2C8.2,37.3,7,32.7,5.9,28
	c-0.1-0.4,0-0.5,0.3-0.5c1.7-0.6,3.3-1.2,4.9-1.8c0.1,0,0.3-0.2,0.3-0.3c-0.1-5-0.3-9.9-0.5-14.9c0-0.4,0.1-0.4,0.4-0.3
	c0.6,0.1,1.1,0.2,1.7,0.3c6.4,0.9,12.8,1.4,19.2,1.6c6.8,0,13.6-0.8,20.3-1.6c1.3-0.1,2.5-0.3,3.8-0.4c0.3-0.1,0.4,0,0.5,0.4
	c0.2,6.3,0.3,12.5,0.5,18.8c0,0.8-0.9-0.2-0.8,0.8c0.2,5.4,0.5,10.8,0.7,16.2c0,0.2,0.1,0.3,0.3,0.3c1.5,0,3,0.3,4.3,1.1
	c0.1-13.7,0-27.5,0-41.2c0-0.6,0.1-0.5-0.5-0.5C51.7,5.9,42.1,5.9,32.6,5.9L32.6,5.9z M55.3,20.4C55.3,20.4,55.3,20.4,55.3,20.4
	c0-2.7-0.1-5.4-0.2-8.1c0-0.2,0-0.3-0.3-0.2c-0.9,0.1-1.8,0.2-2.7,0.3c-6.1,0.8-12.2,1.3-18.3,1.4C26.9,13.7,20,13,13.1,12.3
	c-0.3,0-0.4,0-0.3,0.3c0.1,4.1,0.3,8.1,0.4,12.2c0,0.2,0.1,0.3,0.3,0.2c5.2-1.8,10.4-3.6,15.6-5.4c0.3-0.1,0.4,0,0.4,0.2
	c1,3.3,2.1,6.6,3.2,9.9c0.1,0.2,0.1,0.3,0.4,0.3c7.4-0.4,14.8-0.9,22.1-1.3c0.3,0,0.4-0.1,0.4-0.4C55.4,25.7,55.4,23.1,55.3,20.4
	L55.3,20.4z M54.8,43.3c-0.2-4-0.4-7.9-0.6-11.8c0-0.8,0-0.8-0.8-0.7c-6.7,0.4-13.4,0.7-20.1,1.2c0.1,0.4,0.2,0.7,0.3,1.1
	c0.2,0.8,0.2,0.8-0.5,1c-0.3,0.1-0.3,0.2-0.2,0.4c1.7,3.6,3.3,7.3,5,10.9c0.7,1.5,1.4,3,2.1,4.5c0,0.1,0,0.3,0.3,0.2
	c0.9-0.6,1.9-0.8,3-0.9c0.3,0,0.3-0.1,0.3-0.4c0-2.7,1.5-5.2,4.1-6.2c1.8-0.7,3.5-0.5,5,0.8c0.9,0.7,1.4,1.8,2,2.8 M7.9,28.8
	c0.9,3.4,1.7,6.8,2.6,10.2c0.2,0.8,0.2,0.8,1,0.5c4.5-1.6,9-3.2,13.5-4.7c2-0.7,4.1-1.4,6.2-2.1c0.4-0.1,0.5-0.2,0.3-0.7
	c-1.1-3.3-2.1-6.5-3.2-9.8c-0.1-0.3-0.2-0.3-0.5-0.2C21.2,24.3,14.4,26.4,7.9,28.8L7.9,28.8z M33.8,43.7c0.4,0,0.7,0.1,0.4-0.4
	c-0.7-1.4-1.3-2.8-1.9-4.2c-0.6-1.3-1.2-2.6-1.8-4c-0.1-0.2-0.2-0.3-0.4-0.2c-5.9,2.1-11.8,4.2-17.7,6.3c-0.1,0-0.3,0.1-0.3,0.3
	c0.1,0.8,0.2,1.6,0.4,2.3c0,0.2,0.1,0.2,0.2,0.1c2-2.1,4.2-2.4,6.8-1c2.2,1.2,3.5,3,3.5,5.6c0,0.3,0,0.3,0.3,0.3
	c1.4-0.4,2.7,0,4,0.7c0.4,0.2,0.4,0,0.4-0.2C27.9,46.1,30.7,43.7,33.8,43.7L33.8,43.7z M24.3,63.8c0.7,0,1.3,0,2,0
	c0.2,0,0.3,0,0.2-0.3c-0.3-1-0.3-1.9,0-2.9c0.3-1.1,0.8-2.1,1.5-3c0.1-0.2,0.2-0.4,0.2-0.6c0.1-1-0.1-2-0.4-3c-0.5-2.7-4-4-6.1-1.8
	c-1.2,1.3-1.6,2.7-1.2,4.4c0.1,0.3,0.4,0.5,0,0.8c0.3,0.6,0.7,1.3,0.9,1.9c0.4,1.3,0.5,2.7,0.4,4.1c0,0.3,0,0.4,0.4,0.4
	C23,63.8,23.6,63.8,24.3,63.8z M43.9,63.8c0.6,0,1.2,0,1.7,0c0.3,0,0.4-0.1,0.3-0.4c0-0.4,0-0.8,0-1.2c0-1.2,0.2-2.4,0.8-3.5
	c0.5-0.8,0.7-1.7,0.6-2.6c0.2-1.8-0.9-3.9-2.9-4.5c-2.6-0.9-4.4,0.9-5,3.3c-0.2,0.7-0.2,1.3,0.1,1.9c0.7,1.4,1.8,2.6,2,4.2
	c0,0.8,0.2,1.6,0.2,2.4c0,0.3,0.1,0.3,0.4,0.3C42.8,63.8,43.4,63.8,43.9,63.8L43.9,63.8z M3.3,59.4c0,1.3,0,2.7,0,4.1
	c0,0.2,0,0.3,0.3,0.3c1,0,1.9,0,2.9,0c0.2,0,0.2,0,0.2-0.2c-0.4-1.5-0.1-3,0.3-4.4c0.7-2.2,2.2-3.8,4.2-4.9c0.3-0.2,0.4-0.3,0.4-0.6
	c0-0.2,0-0.4,0-0.7c-0.2-1.6-1.6-3.6-3.3-3.8c-1.6-0.2-3,0.8-3.6,1.9c-0.8,1.6-1.2,3.3-1.2,5.1C3.3,57.3,3.3,58.3,3.3,59.4L3.3,59.4
	z M14.4,63.8c1.6,0,3.2,0,4.9,0c0.4,0,0.5-0.1,0.4-0.4c-0.1-0.8,0-1.7-0.2-2.5c-0.5-3.5-4.6-6.2-7.9-4.3c-2.2,1.3-3.5,4.4-2.7,6.8
	c0.1,0.3,0.2,0.4,0.6,0.4C11.2,63.8,12.8,63.8,14.4,63.8L14.4,63.8z M54,63.8c1.7,0,3.3,0,5,0c0.3,0,0.4-0.1,0.4-0.4
	c-0.1-2.5-0.8-5-3.1-6.4c-0.7-0.5-1.4-0.8-2.3-0.7c-0.3,0-0.7,0.1-1,0.2c-1.5,0.2-2.8,0.8-3.6,2.1c-0.9,1.5-1,3.2-0.7,5
	c0,0.3,0.2,0.3,0.5,0.3C50.7,63.8,52.3,63.8,54,63.8L54,63.8z M33.7,45.4c-0.5,0.2-1.2,0.3-1.7,0.5c-2,0.8-3.1,3.1-2.5,5
	c0.5,1.4,1.3,2.7,1.3,4.2c0,0.4,0.1,0.3,0.4,0.2c1.8-0.8,3.5-0.8,5.4-0.2c0.5,0.2,0.5,0.2,0.6-0.4c0.3-0.9,0.6-1.8,0.9-2.7
	c0.1-0.2,0.1-0.4,0-0.6c-0.8-1.8-1.6-3.5-2.4-5.3C35.3,45.5,34.5,45.6,33.7,45.4L33.7,45.4z M12.9,46.7
	C12.9,46.7,12.9,46.7,12.9,46.7c0.4,2.2,0.9,4.4,1.2,6.6c0,0.2,0.1,0.2,0.3,0.2c1.3,0,2.4,0.5,3.4,1.1c0-1,0.3-1.8,0.8-2.6
	c0.6-1,1.5-1.7,2.4-2.4c0.1-0.1,0.2-0.2,0.2-0.3c-0.3-1.7-0.5-3.9-2.2-4.8c-1.7-1-4.4-0.8-5.5,1C13.2,45.9,13.1,46.3,12.9,46.7
	L12.9,46.7z M34.3,63.8c1.6,0,3.2,0,4.8,0c0.2,0,0.3,0,0.3-0.3c-0.1-0.6-0.1-1.2-0.2-1.7c-0.1-0.7-0.3-1.5-0.6-2.1
	c-0.6-1.2-1.7-1.9-2.9-2.4c-1.1-0.5-2.2-0.6-3.4-0.2C30,57.9,27.9,61,29,63.4c0.1,0.3,0.3,0.3,0.5,0.3
	C31.1,63.8,32.7,63.8,34.3,63.8L34.3,63.8z M45.4,48.6c0,0.3,0,0.7,0.2,0.9c2.1,1.1,4.1,2.9,4.1,5.4c0,0.2,0.1,0.3,0.3,0.2
	c0.5-0.3,0.9-0.5,1.4-0.7c0.3-0.1,0.4-0.3,0.4-0.6c-0.1-1.5,0.2-3,1.1-4.2c0.1-0.2,0.3-0.4,0.3-0.6c0.1-1.4-0.1-2.6-1-3.7
	c-1.2-1.4-2.6-1.7-4.2-0.9C46.3,45.1,45.6,46.6,45.4,48.6z M61.8,57.7c0-1.9,0-3.9,0-5.8c0-0.2-0.1-0.4-0.2-0.6
	c-0.9-1.6-3.1-3.1-4.9-1.9c-1.1,0.8-1.9,1.8-2.4,3.1c-0.2,0.4,0,1,0.1,1.4c0,0.1,0.5,0.1,0.7,0.2c0.2,0,0.4,0.1,0.6,0.2
	c2.3,0.6,4,2,4.9,4.2c0.6,1.4,0.8,2.8,0.8,4.3c0,0.3,0,0.8,0.2,1.1c0.1-0.1,0.1-0.3,0.1-0.4C61.9,61.5,61.9,59.6,61.8,57.7
	L61.8,57.7z"/>
<rect x="47.4" class="st0" width="27.6" height="26.5"/>
<path class="st2" d="M55.9,23.5c-0.1-0.8-0.1-1.6-0.2-2.4c-0.4,0.1-0.8,0.2-1.2,0.3c0.1-0.9,0.2-1.8,0.3-2.8c-1.4,0.5-2.7,1-4.1,1.5
	c-0.1-0.2-0.3-0.4-0.4-0.6c0.5-0.6,1-1.1,1.5-1.7c0.3-0.3,0.2-0.6-0.2-0.8c-0.3-0.1-0.7-0.2-0.9-0.4c0.9-0.7,0.8-1.4,0.5-2.3
	c-0.8-0.9-2.7-1.6-3.8-2.4c2.7-0.2,5.3-0.4,7.9-0.6c-0.6-0.6-1.1-1.1-1.8-1.7C55,9.3,56.3,9,57.7,8.8c-0.1-1.2-0.1-2.4-0.2-3.6h-0.7
	V4.4c0.2,0,0.4,0,0.7,0c-0.1-1.4-0.2-2.7-0.2-4.1c0.2-0.1,0.4-0.2,0.7-0.2c0.8,1.3,1.6,2.7,2.4,4c0.1,0.2,0.3,0.3,0.6,0.3
	c1.5,0,2.9,0,4.3,0v0.8c-0.1,0-0.2,0-0.4,0.1c0.3,1.1,0.6,2.1,1,3.2c0.8-0.3,1.6-0.5,2.4-0.8C68.1,8.4,68,9.2,67.9,10
	c0.9-0.3,1.7-0.5,2.5-0.8c0.1,0,0.1-0.1,0.1-0.2c0.1-1.3,0.2-2.6,0.3-4c-1.7,0.6-3.3,1.1-4.9,1.7c-0.1-0.2-0.2-0.5-0.4-0.8
	c2-0.7,4.1-1.4,6.1-2.1c-0.1,1.7-0.2,3.4-0.2,5.1c1.1-0.3,2.1-0.6,3.2-0.9c0.1,0.2,0.2,0.4,0.4,0.7c-2,1.8-4.1,3.6-6.1,5.4
	c0.7,0.2,1.3,0.5,2,0.7c0-0.5,0.1-1,0.1-1.6c0.3,0,0.5,0.1,0.8,0.1c-0.1,0.6-0.1,1.1-0.1,1.7c0.3,0.1,0.5,0.2,0.8,0.3
	c0,0.2-0.1,0.5-0.1,0.8c-0.3,0-0.5,0.1-0.8,0.1c0,0.6-0.4,1.7,0,2.1c0.6,0.6,1.1,1.1,1.7,1.7c0.3,0.3,0.3,0.6,0.1,1
	c-0.7-0.2-1.5-0.4-2.2-0.6c-0.1,1.4-0.3,2.7-0.4,4.1c-3.3-0.5-6.5-1-9.7-1.5c-0.5,1.1-1,2.3-1.5,3.5c-0.5-2.2-0.9-4.3-1.4-6.5
	c-0.4,1-0.8,1.9-1.2,2.8C56.7,23.3,56.4,23.5,55.9,23.5L55.9,23.5L55.9,23.5z M73,9.2c-2,0.6-4,1.2-6.1,1.8c0.1-0.8,0.2-1.5,0.4-2.2
	c-0.7,0.2-1.3,0.4-2,0.6c-0.3-1-0.7-2-1-3.1c-0.5,1.2-1,2.3-1.5,3.4c-1.6-2.7-3.1-5.3-4.6-7.9c0,0,0,0-0.1,0c0.1,2.5,0.2,5,0.4,7.6
	c-1.2,0.2-2.2,0.4-3.4,0.6c0.6,0.6,1.2,1.2,1.8,1.9c-2.4,0.2-4.7,0.3-7.1,0.5c1.3,0.8,2.5,1.5,3.9,2.4c-0.6,0.6-1.2,1-1.7,1.5
	c0.5,0.2,0.9,0.4,1.4,0.6c-0.5,0.6-1,1.2-1.6,1.9c1.3-0.3,2.5-1,3.8-1.2c-0.1,0.9-0.2,1.8-0.3,2.7c0.3-0.1,0.6-0.2,0.9-0.2
	c0.1,0.6,0.2,1.1,0.2,1.7c0.6-1.5,1.2-2.9,1.8-4.4c0.5,2.2,0.9,4.3,1.4,6.5c0.8-1.9,1.6-3.7,2.4-5.5c0.5,0.5,0.9,0.9,1.4,1.4
	c-0.1-0.9-0.1-1.7-0.2-2.5c2.9,0.8,5.8,1.6,8.8,2.4c-1.4-1.4-2.8-2.8-4.1-4.1c0.9-0.1,1.7-0.2,2.6-0.3c0,0,0-0.1,0-0.1
	c-1-0.4-2-0.8-3.1-1.2C69.3,12.5,71.2,10.9,73,9.2c0.1,0,0.1,0,0.1,0C73.1,9.2,73.1,9.2,73,9.2L73,9.2z M70,23.5
	c0.1-1.1,0.2-2.3,0.3-3.4c-2.1-0.6-4.1-1.1-6.2-1.7c0.1,1.2,0.2,2.3,0.3,3.6c-0.8-0.8-1.4-1.5-2.1-2.2c-0.3,0.8-0.7,1.5-1,2.3
	C64.2,22.6,67.1,23,70,23.5L70,23.5z M64,5.2h-3c0.6,0.9,1.1,1.9,1.7,2.8C63.1,7.1,63.5,6.2,64,5.2z M70.6,17.3
	c0-0.5,0.1-0.8,0.1-1.1c-0.4,0-0.7,0.1-1,0.1C69.9,16.7,70.2,17,70.6,17.3z"/>
<path class="st3" d="M52.1,10.4c-0.3,0-0.6,0.1-0.9,0.1c-0.1-2.2-0.2-4.4-0.3-6.6c2-0.3,4-0.6,5.9-0.9c0,0.3,0.1,0.5,0.2,0.8
	c-1.7,0.3-3.5,0.5-5.2,0.8C52,6.6,52,8.5,52.1,10.4L52.1,10.4z"/>
<path class="st3" d="M55.9,23.5c0.1,0.1,0.2,0.1,0.4,0.2c0.6,0.1,1.2,0.3,1.9,0.4C58,24.4,58,24.7,57.9,25c-0.2,0-0.3-0.1-0.5-0.1
	c-1.7-0.4-3.3-0.8-5-1.1c-0.2,0-0.3-0.1-0.4-0.4c-0.3-1.1-0.6-2.1-0.9-3.2c0.3-0.1,0.5-0.2,0.8-0.2c0.2,0.9,0.5,1.8,0.7,2.7
	c0.1,0.2,0.2,0.4,0.4,0.4c0.8,0.1,1.5,0.3,2.2,0.5C55.6,23.6,55.7,23.5,55.9,23.5L55.9,23.5L55.9,23.5z"/>
</g>
</svg>
