<?xml version="1.0" encoding="utf-8"?>
<!-- Generator: Adobe Illustrator 28.0.0, SVG Export Plug-In . SVG Version: 6.00 Build 0)  -->
<svg width="156px" height="156px" viewBox="0 0 156 156" version="1.1" id="Ebene_1" xmlns="http://www.w3.org/2000/svg" xmlns:xlink="http://www.w3.org/1999/xlink" x="0px" y="0px" style="enable-background:new 0 0 289.7 75;" xml:space="preserve">
<style type="text/css">
	.st0{fill-rule:evenodd;clip-rule:evenodd;fill:#FFFFFF;fill-opacity:0;}
	.st1{clip-path:url(#SVGID_00000107585284970657104880000016480273000931358596_);}
	.st2{clip-path:url(#SVGID_00000096771033947502048350000007258738931839531954_);}
	.st3{fill-rule:evenodd;clip-rule:evenodd;fill:#1214FF;}
	.st4{fill:#FFFFFF;}
</style>
<g transform="translate(-0.00,57.81) scale(0.538488)">
<g>
	<polygon class="st0" points="0,0 289.7,0 289.7,75 0,75 0,0 	"/>
</g>
<g>
	<defs>
		<polygon id="SVGID_1_" points="0.9,74.1 288.8,74.1 288.8,0.9 0.9,0.9 0.9,74.1 		"/>
	</defs>
	<clipPath id="SVGID_00000016047180721461674170000015531997390030323078_">
		<use xlink:href="#SVGID_1_"  style="overflow:visible;"/>
	</clipPath>
	<g style="clip-path:url(#SVGID_00000016047180721461674170000015531997390030323078_);">
		<g>
			<polygon class="st0" points="2.7,2.5 286.5,2.5 286.5,72.4 2.7,72.4 2.7,2.5 			"/>
		</g>
		<g>
			<defs>
				<rect id="SVGID_00000165219534978192392040000014677941155342996612_" x="3.2" y="3.1" width="282.7" height="68.7"/>
			</defs>
			<clipPath id="SVGID_00000165234657794675358160000008241130148789803198_">
				<use xlink:href="#SVGID_00000165219534978192392040000014677941155342996612_"  style="overflow:visible;"/>
			</clipPath>
			<g style="clip-path:url(#SVGID_00000165234657794675358160000008241130148789803198_);">
				<g>
					<path class="st3" d="M286,27.1l-37.2,24.3V33.7c-24,1-31.2-6.3-43,18.9c-5,10.9-11.9,18.6-24.5,19.3
						c-13.6,1.1-27.3-7.5-31.6-20.5c-2.2-5.3-0.8-11.1-2.9-16.3c-9.5-18.6-34.4-13.2-34.8,7.8C111.9,57.1,99.9,70,85.9,71.7
						C69.5,74,53.1,61.1,51.7,44.6c0.7-10.1-4.3-18.1-14.1-20.5c-11.6-2.2-21.4,3.5-21.4,16.2c1.4,1.5-14.9,2-12.9-0.4
						c0.3-6.4,2.6-12.7,6.9-17.5c16-20.6,49.2-10.4,54,14.2c0.3,6.4,0.6,13.3,5.7,17.6c8.6,9.6,25,5.4,29-6.5
						c2.1-5.3,0.2-12.1,3.4-17.3c5.8-15.8,25.7-23.9,40.7-16.2c8.2,4.1,15.5,11.8,17.4,20.9c1.4,4.2,0.1,9.1,2.1,13
						c2.9,8.3,12.2,13,20.8,11.1c15.6-4.1,8.7-25.2,27.6-34.9c5.2-3,11.4-2.9,17.2-3.3c6.8-0.1,13.9-0.3,20.7-0.2V3.1L286,27.1
						L286,27.1z"/>
				</g>
				<g>
					<path class="st4" d="M179,72c-5.9,0-11.8-1.8-17-5.1c-5.9-3.8-10.3-9.3-12.3-15.6c-1.1-2.7-1.3-5.6-1.5-8.4
						c-0.2-2.7-0.4-5.4-1.4-7.9c-4.4-8.6-12.6-12.8-21-10.9c-8.2,1.9-13.6,9.2-13.7,18.7c-0.1,6.8-2.9,13.6-7.9,19.1
						c-5,5.4-11.4,8.9-18.3,9.7c-7.9,1.1-16.2-1.3-22.9-6.6c-6.6-5.2-10.8-12.7-11.5-20.6c0.7-10.5-4.5-18.1-14.1-20.5
						c-6.4-1.2-12-0.1-16,3.2c-3.5,2.9-5.4,7.4-5.4,12.9c0.1,0.1,0.1,0.3,0,0.4c-0.6,0.6-3.7,0.9-6.3,0.9c-0.2,0-0.4,0-0.6,0
						c-2.5,0-5.3-0.2-6.1-0.9c-0.2-0.2-0.3-0.5,0-0.8c0.3-6.7,2.8-12.9,6.9-17.5c3.6-4.7,8.5-8,13.9-9.7c5.1-1.6,10.6-1.7,16.1-0.4
						c5.8,1.4,11.1,4.3,15.4,8.4c4.5,4.4,7.5,9.9,8.7,16l0,0c0.3,6.2,0.6,13.2,5.6,17.5c3.9,4.3,9.8,6.2,15.8,4.9
						c6.2-1.3,11.3-5.7,13.2-11.4c0.9-2.3,1.1-5,1.2-7.6c0.2-3.3,0.4-6.8,2.2-9.7c2.8-7.6,9-13.8,17.1-17c7.9-3.1,16.6-2.8,23.6,0.8
						c9,4.4,15.7,12.5,17.5,20.9c0.6,1.9,0.7,4,0.8,5.9c0.1,2.4,0.2,4.9,1.3,7c2.9,8.1,12,13,20.8,11.1c7.6-2,9.8-8,12.4-14.9
						c2.6-7.1,5.6-15,15.2-20c4.5-2.6,9.7-2.9,14.8-3.2c0.8,0,1.6-0.1,2.4-0.1c1,0,1.9,0,2.9,0c5.9-0.1,12-0.2,17.8-0.1V3l0.1,0
						l37.2,24l0.1,0v0.2l-0.1,0l-37.2,24.3V33.7c-5.1,0.2-9.5,0-13.3-0.1c-14-0.5-20.3-0.8-29.6,19c-2.8,6-5.9,10.4-9.4,13.5
						c-4.2,3.6-9.1,5.5-15.1,5.9C180.5,72,179.7,72,179,72z M129.7,23.7c2.6,0,5.2,0.6,7.6,1.7c4,1.9,7.3,5.2,9.5,9.6
						c1,2.5,1.2,5.3,1.4,7.9c0.2,2.8,0.4,5.7,1.5,8.3c3.9,12.1,16.2,20.6,29.1,20.6c0.8,0,1.6,0,2.4-0.1
						c11.1-0.6,18.6-6.6,24.5-19.3c9.3-19.8,15.7-19.6,29.7-19c3.8,0.1,8.2,0.3,13.3,0.1l0,0v17.7l37.1-24.2L248.8,3.2v17.7l0,0
						c-5.9-0.1-12,0-17.9,0.1c-1,0-1.9,0-2.9,0c-0.8,0.1-1.6,0.1-2.4,0.1c-5.1,0.3-10.3,0.6-14.8,3.1c-9.6,5-12.6,12.9-15.2,20
						c-1.3,3.4-2.4,6.6-4.3,9.3c-2.1,2.9-4.6,4.7-8.2,5.7c-4.2,0.9-8.7,0.3-12.6-1.7c-3.9-2.1-6.9-5.4-8.3-9.4
						c-1.1-2.2-1.2-4.6-1.3-7.1c-0.1-2-0.1-4-0.8-5.9c-1.8-8.4-8.5-16.4-17.4-20.9c-7.1-3.6-15.7-3.9-23.6-0.8
						c-8,3.2-14.3,9.3-17.1,16.9c-1.8,2.9-2,6.4-2.2,9.7c-0.2,2.6-0.3,5.3-1.2,7.6c-1.9,5.7-7,10.1-13.3,11.4
						c-6,1.2-11.9-0.6-15.8-4.9c-2.3-1.9-3.8-4.6-4.6-8c-0.7-3.1-0.9-6.4-1-9.6l0,0c-2.3-11.9-11.7-21.4-24-24.3
						c-11.6-2.8-22.8,1-29.9,10.1C6,27,3.6,33.2,3.3,39.9l0,0l0,0c-0.2,0.3-0.2,0.5,0,0.7c1.5,1.4,11.8,1,12.8,0
						c0.1-0.1,0.1-0.2,0-0.3l0,0v0c0-5.6,1.9-10.1,5.4-13c4-3.3,9.6-4.4,16-3.2c4.8,1.2,8.6,3.7,11.1,7.4c2.4,3.6,3.5,8.1,3.1,13.2
						c0.7,7.8,4.9,15.3,11.4,20.5c6.6,5.3,14.9,7.6,22.8,6.6c14.2-1.8,25.9-14.7,26.1-28.7c0.1-4.9,1.5-9.3,4.2-12.7
						c2.4-3.1,5.8-5.2,9.6-6.1C127.1,23.8,128.4,23.7,129.7,23.7z"/>
				</g>
			</g>
		</g>
	</g>
</g>
</g>
</svg>
