<?xml version="1.0" encoding="utf-8"?>
<!-- Generator: Adobe Illustrator 28.0.0, SVG Export Plug-In . SVG Version: 6.00 Build 0)  -->
<svg width="156px" height="156px" viewBox="0 0 156 156" version="1.1" id="Ebene_1" xmlns="http://www.w3.org/2000/svg" xmlns:xlink="http://www.w3.org/1999/xlink" x="0px" y="0px" style="enable-background:new 0 0 84.2 171.7;" xml:space="preserve">
<style type="text/css">
	.st0{fill:#FFFFFF;stroke:#0000FF;stroke-width:9.25;stroke-miterlimit:10;}
	.st1{fill:none;stroke:#0000FF;stroke-width:8.32;stroke-miterlimit:10;}
	.st2{enable-background:new    ;}
	.st3{fill:#0000FF;}
	.st4{fill:none;stroke:#0000FF;stroke-width:1.85;stroke-miterlimit:10;}
</style>
<g transform="translate(39.75,0.00) scale(0.908561)">
<path class="st0" d="M4.6,129.6c0-20.7,16.8-37.4,37.5-37.4l0,0c20.7,0,37.5,16.8,37.5,37.4l0,0c0,20.7-16.8,37.4-37.5,37.4l0,0
	C21.4,167,4.6,150.3,4.6,129.6C4.6,129.6,4.6,129.6,4.6,129.6z"/>
<line class="st1" x1="40.5" y1="91.1" x2="40.7" y2="0.1"/>
<line class="st1" x1="36.6" y1="4.2" x2="68.7" y2="4.2"/>
<line class="st1" x1="36.6" y1="23.1" x2="68.7" y2="23.1"/>
<line class="st1" x1="36.6" y1="42.1" x2="68.7" y2="42.1"/>
<g class="st2">
	<path class="st3" d="M18.8,140.9v-22.5h15.4v3.8H23.4v5.3h9.4v3.8h-9.4v9.6H18.8z"/>
	<path class="st3" d="M44.3,140.9L39,118.3h4.7l3.4,15.5l4.1-15.5h5.4l3.9,15.7l3.5-15.7h4.6l-5.5,22.5h-4.8L53.7,124l-4.5,16.8
		H44.3z"/>
</g>
<g class="st2">
	<path class="st4" d="M18.8,140.9v-22.5h15.4v3.8H23.4v5.3h9.4v3.8h-9.4v9.6H18.8z"/>
	<path class="st4" d="M44.3,140.9L39,118.3h4.7l3.4,15.5l4.1-15.5h5.4l3.9,15.7l3.5-15.7h4.6l-5.5,22.5h-4.8L53.7,124l-4.5,16.8
		H44.3z"/>
</g>
</g>
</svg>
