<?xml version="1.0" encoding="utf-8"?>
<!-- Generator: Adobe Illustrator 28.0.0, SVG Export Plug-In . SVG Version: 6.00 Build 0)  -->
<svg width="156px" height="156px" viewBox="0 0 156 156" version="1.1" id="Ebene_1" xmlns="http://www.w3.org/2000/svg" xmlns:xlink="http://www.w3.org/1999/xlink" x="0px" y="0px" style="enable-background:new 0 0 84.2 171.7;" xml:space="preserve">
<style type="text/css">
	.st0{fill:#FFFFFF;}
	.st1{fill:#0000FF;}
	.st2{enable-background:new    ;}
	.st3{fill:none;stroke:#0000FF;stroke-width:1.85;stroke-miterlimit:10;}
</style>
<g transform="translate(39.75,0.00) scale(0.908561)">
<g>
	<path class="st0" d="M4.6,129.6c0-20.7,16.8-37.4,37.5-37.4s37.5,16.8,37.5,37.4l0,0c0,20.7-16.8,37.4-37.5,37.4
		S4.6,150.3,4.6,129.6C4.6,129.6,4.6,129.6,4.6,129.6z"/>
	<path class="st1" d="M42.1,171.7C18.9,171.7,0,152.8,0,129.6s18.9-42.1,42.1-42.1c23.2,0,42.1,18.9,42.1,42.1
		S65.3,171.7,42.1,171.7z M42.1,96.8c-18.1,0-32.9,14.7-32.9,32.8s14.7,32.8,32.9,32.8c18.1,0,32.9-14.7,32.9-32.8
		S60.2,96.8,42.1,96.8z"/>
</g>
<g>
	
		<rect x="-4.9" y="41.4" transform="matrix(2.112795e-03 -1 1 2.112795e-03 -5.0809 86.0485)" class="st1" width="91" height="8.3"/>
</g>
<g>
	<rect x="37.8" class="st1" width="32.1" height="8.3"/>
</g>
<g>
	<rect x="37.8" y="21.4" class="st1" width="32.1" height="8.3"/>
</g>
<g>
	<rect x="37.8" y="43.2" class="st1" width="32.1" height="8.3"/>
</g>
<g class="st2">
	<path class="st1" d="M29.1,147.4v-37.7h14.2c2.5,0,4.4,0.1,5.7,0.4c1.9,0.3,3.4,0.9,4.7,1.8c1.3,0.9,2.3,2.1,3,3.6s1.1,3.3,1.1,5.1
		c0,3.2-1,5.9-3.1,8.1c-2,2.2-5.7,3.3-11.1,3.3h-9.7v15.3H29.1z M34.1,127.6h9.8c3.2,0,5.5-0.6,6.9-1.8s2-2.9,2-5.1
		c0-1.6-0.4-2.9-1.2-4.1c-0.8-1.1-1.8-1.9-3.2-2.2c-0.8-0.2-2.4-0.3-4.7-0.3h-9.7V127.6z"/>
</g>
<g class="st2">
	<path class="st3" d="M29.1,147.4v-37.7h14.2c2.5,0,4.4,0.1,5.7,0.4c1.9,0.3,3.4,0.9,4.7,1.8c1.3,0.9,2.3,2.1,3,3.6s1.1,3.3,1.1,5.1
		c0,3.2-1,5.9-3.1,8.1c-2,2.2-5.7,3.3-11.1,3.3h-9.7v15.3H29.1z M34.1,127.6h9.8c3.2,0,5.5-0.6,6.9-1.8s2-2.9,2-5.1
		c0-1.6-0.4-2.9-1.2-4.1c-0.8-1.1-1.8-1.9-3.2-2.2c-0.8-0.2-2.4-0.3-4.7-0.3h-9.7V127.6z"/>
</g>
</g>
</svg>
