<?xml version="1.0" encoding="utf-8"?>
<!-- Generator: Adobe Illustrator 28.0.0, SVG Export Plug-In . SVG Version: 6.00 Build 0)  -->
<svg width="156px" height="156px" viewBox="0 0 156 156" version="1.1" id="Ebene_1" xmlns="http://www.w3.org/2000/svg" xmlns:xlink="http://www.w3.org/1999/xlink" x="0px" y="0px" style="enable-background:new 0 0 75 75;" xml:space="preserve">
<style type="text/css">
	.st0{fill:#FFFFFF;}
	.st1{fill:#FF1415;}
</style>
<g transform="translate(0.00,0.00) scale(2.080000)">
<rect class="st0" width="75" height="75"/>
<path class="st1" d="M62.7,24.4c0,0.8,0,1.6,0,2.4c0,0.4,0.1,0.6,0.4,0.8c0.7,0.4,1.3,0.7,1.9,1.1c0.2,0.1,0.4,0.4,0.4,0.7
	c0,4,0,8-0.1,11.9c0,1.3,0.3,2.5,0.7,3.8c0.3,0.8-0.3,1.4-0.6,2c-0.1,0.2-0.7,0.2-1.1,0.3c-0.3,0.1-0.5,0.1-0.3,0.5
	c0.4,0.5,0.3,1.1,0.1,1.7c-0.6,2.3-0.7,4.7-0.8,7c0,0.2-0.2,0.6-0.4,0.7c-1.8,0.9-2.6,2.6-3.3,4.3c0,0.1-0.3,0.3-0.4,0.3
	c-0.9,0-1.5,0.4-2,1.1c-0.2,0.2-0.5,0.3-0.8,0.3c-1.4,0-2.9,0-4.3,0c-0.5,0-0.8-0.1-1-0.5c-0.2-0.3-0.5-0.5-0.7-0.8
	c-0.1-0.1-0.1-0.2-0.2-0.3c0.1,0,0.2-0.1,0.4-0.1c2.3,0,4.7-0.1,7-0.1c0.2,0,0.6-0.2,0.7-0.4c0.5-0.7,0.9-1.4,1.3-2.1
	c0.1-0.1,0.1-0.2,0.2-0.3c0.3-0.6,0.1-0.9-0.6-0.8c-2.5,0.2-5,0.5-7.6,0.7c-0.2,0-0.4,0.2-0.6,0.3c-0.5,0.5-0.9,1-1.3,1.5
	c-0.1,0.1-0.1,0.1-0.2,0.2c0-0.1-0.1-0.2-0.1-0.3c-0.2-0.9-0.4-1.8-0.6-2.7c-0.1-0.2-0.3-0.5-0.5-0.5c-0.7-0.2-1.4-0.3-2.1-0.5
	c-0.2,0-0.4-0.2-0.5-0.4c-0.7-1.5-1.3-3-2-4.4c-0.1-0.2-0.3-0.4-0.4-0.5c-2-1.1-4.2-1.6-6.5-1.9c-1.3-0.2-2.6-0.3-3.9-0.4
	c-0.1,0-0.3,0.2-0.3,0.2c0.1,2.2,0.3,4.4,0.4,6.6c0,0.2,0.2,0.3,0.3,0.4c1.4,1,2.9,1.9,4.3,3c0.6,0.5,1,1.3,1.5,2
	c0.2,0.3,0.4,0.4,0.8,0.4c1.8,0.1,3.6,0.2,5.5,0.3c0.1,0,0.2,0.1,0.3,0.1c-0.1,0.1-0.2,0.2-0.2,0.3c-0.6,0.7-1.3,1-2.2,0.9
	c-1-0.1-2.1-0.1-3.1-0.1c-0.2,0-0.4,0-0.5-0.1c-0.5-0.5-1.2-0.6-1.9-0.5c-0.8,0.1-1.7-0.2-2.5,0.4c0,0-0.2,0-0.2-0.1
	c-0.2-0.5-0.4-0.3-0.7-0.2c-0.3,0.1-0.5,0.3-0.8,0.3c-0.4,0.1-0.7,0.1-0.6-0.5c0,0-0.2-0.1-0.3-0.1c-0.9,0.3-1.8,0.6-2.8,0.9
	c-1.1,0.3-2.1,0.1-3.1-0.5c-0.2-0.1-0.5-0.2-0.8-0.1c-1.4,0.4-2.7,0.7-4.2,0.7c-1.1-0.1-2.2,0-3.3,0c-0.6,0-1.2-0.2-1.8-0.3
	c-0.3,0-0.6,0-0.9,0.1c-0.3,0.1-0.6,0.2-1,0.2c-0.9,0.1-1.9,0-2.8,0.1c-0.9,0.1-1.8,0-2.6-0.4c-0.2-0.1-0.4-0.3-0.4-0.5
	c-0.2-1.2-0.3-2.5-0.5-3.8c-0.1-0.4,0.1-0.5,0.4-0.6c0.8-0.2,1.6-0.5,2.3-0.7c0.1,0,0.3-0.3,0.3-0.4c-0.1-1-0.2-1.9-0.3-2.9
	c0-0.1-0.2-0.2-0.3-0.2c-1.1,0.2-2.2,0.5-3.2,0.8c-0.1,0-0.2,0-0.3,0c0.1-0.1,0.2-0.2,0.2-0.2c1.1-0.8,2.2-1.5,3.2-2.3
	c0.3-0.2,0.6-0.6,0.7-1c0.4-1.4,0.9-2.9,1.1-4.3c0.2-0.9,0.1-1.9,0.1-2.9c0-0.5,0.1-0.8,0.4-1.1c1.4-1.6,2.7-3.3,4.1-4.9
	c0.4-0.4,0.4-0.9,0.5-1.4c0.1-0.3,0.2-0.7,0.4-1c3.2-4.1,6.3-8.3,9.6-12.4c1.9-2.3,4-4.3,6-6.4c0.6-0.6,1.5-1,2.2-1.4
	c0.1-0.1,0.3-0.1,0.5-0.1c6.4,0,12.8,0,19.1,0c0.2,0,0.5,0.1,0.6,0.3c2,2,4.1,3.9,6.1,5.9c0.2,0.2,0.3,0.4,0.3,0.7
	C62.7,22.8,62.7,23.6,62.7,24.4L62.7,24.4z M62.2,31.2c0.2-0.6-0.1-0.7-0.7-0.6c-9.4,0-18.7,0.1-28.1,0.1c-0.2,0-0.4,0.1-0.6,0.2
	c-0.9,0.8-1.8,1.6-2.7,2.4c-0.2,0.2-0.3,0.2-0.4-0.1c-0.1-0.5-0.3-0.9-0.5-1.3c-0.1-0.3-0.2-0.4-0.5-0.1c-2.5,2.5-5.1,5-7.6,7.4
	c-0.1,0.1-0.2,0.4-0.2,0.5c0.1,1.7,0.3,3.4,0.4,5.2c0,0.5,0.1,0.5,0.5,0.2c3.7-2.4,7.4-4.8,11.1-7.2c0.2-0.1,0.4-0.2,0.6-0.2
	c5.2-0.1,10.4-0.2,15.5-0.4c4.1-0.1,8.2-0.2,12.3-0.3c0.1,0,0.4-0.2,0.4-0.3C62,34.9,62.1,33,62.2,31.2L62.2,31.2z M49.3,45.2
	c0-0.1,0-0.2,0-0.3c2.8,0,5.5,0,8.3,0c0.3,0,0.4-0.1,0.4-0.4c0-1.3-0.1-2.6-0.1-3.9c0-0.3-0.1-0.4-0.5-0.4c-6,0-12.1,0-18.1,0
	c-0.3,0-0.4,0.1-0.4,0.4c0,1.1,0,2.1,0,3.2c0,0.1,0,0.3,0,0.3c0.7,0.4,1.3,1,2,1.1C43.8,45.3,46.5,45.2,49.3,45.2L49.3,45.2z
	 M35.2,41.5c0-0.7-0.3-1.1-1-1.2c-0.2,0-0.5-0.1-0.7-0.1c-0.3,0-0.8,0-1,0.2c-3.5,2.2-6.9,4.4-10.4,6.5c-0.7,0.4-1,0.8-0.8,1.6
	c0.1,0.4,0.2,0.9,0.2,1.4c0,0.3,0.1,0.5,0.5,0.3c2.1-1,4.1-1.9,6.2-2.8c1.2-0.5,2.3-1,3-2.1c0.3-0.5,0.8-0.8,1.5-0.8
	c0.6,0,1.3-0.2,1.9-0.3c0.1,0,0.3-0.2,0.3-0.3C35.2,43,35.2,42.3,35.2,41.5L35.2,41.5z M39.5,23.2c-1.9,0-3.8,0-5.8,0
	c-0.3,0-0.5,0.1-0.5,0.4c0,1.4-0.1,2.7-0.2,4c0,0.4,0.1,0.4,0.5,0.4c3.8-0.5,7.6-1.1,11.5-1.7c0.1,0,0.3-0.2,0.3-0.4
	c0.1-0.8,0.1-1.6,0.2-2.4c0-0.4-0.1-0.4-0.4-0.4C43.2,23.3,41.4,23.2,39.5,23.2z M54.1,23.2c-1.6,0-3.2,0-4.7,0
	c-0.1,0-0.4,0.2-0.4,0.3c0.1,0.8,0.2,1.6,0.3,2.4c0,0.1,0.2,0.3,0.3,0.3c3,0.4,6.1,0.7,9.1,1c0.3,0,0.4,0,0.4-0.4c0-1.1,0-2.2,0-3.3
	c0-0.3-0.1-0.4-0.4-0.4C57.2,23.3,55.7,23.2,54.1,23.2L54.1,23.2z M19.4,44.3c0,0,0.1,0,0.1,0c0-0.8,0-1.6,0-2.4c0-0.1,0-0.2,0-0.3
	c-0.1,0-0.2,0.1-0.3,0.2c-1.6,1.4-3.3,2.8-4.9,4.3c-0.1,0.1-0.3,0.3-0.3,0.5c-0.3,1.3-0.6,2.7-0.9,4c0,0.1,0,0.2,0,0.3
	c0.1,0,0.2-0.1,0.3-0.1c1.9-1.2,3.8-2.4,5.7-3.6c0.1-0.1,0.3-0.3,0.3-0.5C19.4,45.9,19.4,45.1,19.4,44.3L19.4,44.3z M13.2,54.1
	c0,0.7,0,1.1,0,1.6c0,0,0.2,0.1,0.2,0.1c0.8-1,2-1.3,3.1-1.9c0.2-0.1,0.6-0.2,0.8-0.1c1.2,0.2,1.2,0.2,1.7-0.9
	c0.2-0.5,0.4-1,0.4-1.5c0-0.6-0.2-1.2-0.2-1.8c0-0.3-0.1-0.3-0.4-0.2c-1.4,0.8-2.8,1.7-4.3,2.5C13.5,52.4,12.8,53,13.2,54.1
	L13.2,54.1z M51.9,18.8c-0.8,0-1.6,0-2.3,0c-0.4,0-0.7,0-0.5,0.6c0.1,0.3,0.1,0.7,0.2,1s0.2,0.4,0.5,0.4c1.4-0.1,2.9-0.1,4.3-0.2
	c1.2-0.1,1.2-0.1,0.9-1.3c-0.1-0.4-0.3-0.5-0.6-0.5C53.5,18.8,52.7,18.8,51.9,18.8L51.9,18.8z M40.5,20.6h1.6c1.5,0,1.5,0,1.5-1.5
	c0-0.3-0.1-0.4-0.4-0.4c-1.4,0-2.7,0.1-4.1,0.1c-1.3,0-1.3,0-1.6,1.3c-0.1,0.4,0,0.5,0.4,0.5C38.8,20.5,39.7,20.6,40.5,20.6z
	 M31,30.6c0-0.4-0.1-0.7-0.1-0.9c-0.2-1.8-0.4-3.6-0.5-5.4c0-0.1-0.1-0.2-0.2-0.3c-0.3,0.3-0.8,0.3-0.8,1c0.1,1.9,0.1,3.8,0.1,5.6
	c0,0.4,0,0.7,0.1,1c0.3-0.2,0.6-0.4,0.9-0.6C30.7,30.9,30.9,30.7,31,30.6L31,30.6z M47.2,52.9c0,0.7,0.8,1.6,1.3,1.5
	c0.4,0,1-0.1,1.2-0.4c0.7-0.8,0.6-1.2-0.1-2c-0.6-0.6-1.3-0.8-2.2-0.4c-0.1,0-0.2,0.2-0.2,0.3C47.2,52.2,47.2,52.6,47.2,52.9
	L47.2,52.9z M62.4,42c0-0.4,0-0.8,0-1.1c0.1-0.7-0.2-0.7-0.8-0.6c-0.1,0-0.2,0-0.3,0.1c-0.1,0.1-0.2,0.2-0.2,0.3
	c0,1,0.1,2.1,0.2,3.1c0,0.1,0.2,0.2,0.3,0.3c0.8,0,0.9,0,0.9-0.8C62.4,42.7,62.4,42.4,62.4,42L62.4,42z M26.7,32
	C26.7,32,26.6,32,26.7,32c0-0.3,0-0.6-0.1-0.9c0-0.1-0.4-0.4-0.5-0.3c-1.1,0.7-1.5,1.8-1.3,3.1c0,0.1,0.1,0.2,0.2,0.2
	c0.5-0.3,1.1-0.5,1.5-1C26.7,32.9,26.6,32.4,26.7,32L26.7,32z M24,57.2c0,0.3,0,0.8,0.1,1.2c0,0.1,0.2,0.2,0.2,0.2
	c0.4,0,0.8,0,1.1-0.1c0.1,0,0.2-0.2,0.2-0.3c0-0.7-0.1-1.4-0.1-2c0-0.1-0.1-0.2-0.2-0.3C24,55.7,23.9,55.7,24,57
	C24,57,24,57.1,24,57.2L24,57.2z M18.9,40.8c0.5,0.2,0.6-0.1,0.5-0.6c-0.1-0.9-0.2-1.8-0.3-2.7c0-0.1,0-0.2-0.1-0.3
	c-0.1,0-0.2,0.1-0.2,0.1c-0.8,0.6-1.2,1.2-0.8,2.2c0.1,0.2,0.1,0.4,0.1,0.6C18.3,40.7,18.5,40.9,18.9,40.8L18.9,40.8z M27.1,57.1
	c0,0.4,0,0.8,0,1.2c0,0.1,0.3,0.3,0.5,0.3c0.1,0,0.3-0.2,0.3-0.3c0.1-0.7,0.2-1.5,0.3-2.2c0-0.1,0-0.3-0.1-0.4c-0.8-0.3-1-0.2-1,0.6
	C27.1,56.7,27.1,56.9,27.1,57.1z M56.2,57.3c0.8-0.1,1.4-0.1,2.1-0.2c0.5,0,0.8-0.2,0.5-0.7c-0.1-0.2-0.2-0.4-0.3-0.4
	c-0.6,0.1-1.2,0.2-1.7,0.4c-0.3,0.1-0.4,0.5-0.6,0.8C56.1,57.2,56.2,57.3,56.2,57.3L56.2,57.3z M15.7,42.3c0-0.1,0-0.3,0-0.4
	c0-0.3,0-0.6-0.1-0.8c-0.2,0.2-0.5,0.3-0.7,0.5c-0.1,0.1-0.2,0.2-0.2,0.4c-0.1,0.5-0.1,1-0.1,1.5c0,0.1,0.1,0.2,0.2,0.2
	c0.6-0.1,1.1-0.3,0.9-1C15.7,42.6,15.8,42.5,15.7,42.3L15.7,42.3z M29.5,54.4c0,0-0.1,0-0.1,0c0,0.5,0,0.9,0,1.4
	c0,0.1,0.1,0.3,0.2,0.4c0.1-0.1,0.4-0.2,0.4-0.4c0.1-1,0.2-1.9,0.3-2.9c0-0.4-0.1-0.5-0.4-0.4c-0.1,0.1-0.3,0.2-0.3,0.4
	C29.5,53.3,29.5,53.8,29.5,54.4L29.5,54.4z M16.5,60.9c0.6,0,0.8-0.2,0.6-0.6c-0.1-0.3-0.2-0.7-0.2-1.1c0-0.5-0.4-0.5-0.7-0.4
	c-0.1,0-0.1,0.3-0.1,0.5c0,0.3,0.1,0.7,0.1,1C16.2,60.5,16.4,60.7,16.5,60.9z"/>
<path class="st1" d="M75,35c-0.4,3.9-0.8,7.6-1.1,11.3c-0.3,2.8-0.5,5.5-0.8,8.2c-0.3,3.1-0.6,6.1-0.9,9.2c-0.3,3-0.6,6-0.9,9
	c0,0.4-0.1,0.5-0.5,0.4c-6.3-1-12.6-2-19-3c-4.8-0.8-9.6-1.5-14.4-2.3c-1-0.2-1.9-0.3-2.8-0.4c-0.3,0-0.4-0.1-0.3-0.5
	c0.1-0.8,0.2-1.5,0.4-2.3c0-0.1,0.3-0.3,0.4-0.3c3.6,0.6,7.3,1.1,10.9,1.7c4.8,0.8,9.6,1.5,14.4,2.3c2.6,0.4,5.2,0.8,7.8,1.2
	c0.3,0.1,0.4,0,0.4-0.3c0.5-5.3,1.1-10.6,1.6-15.9c0.5-5.3,1.1-10.7,1.6-16c0.1-0.9,0.2-1.8,0.3-2.7c0-0.1,0.2-0.3,0.3-0.3
	c0.8,0.1,1.7,0.2,2.5,0.3C74.9,34.8,75,35,75,35L75,35z"/>
<path class="st1" d="M70.3,23.7c0.3-5.2,0.6-10.5,0.9-15.7c0-0.1,0-0.2,0-0.3c0.1-1.1,0.1-1.1-1-0.7c-5.3,1.7-10.6,3.4-15.9,5.1
	c-0.3,0.1-0.5,0.1-0.6-0.2c-0.3-0.7-0.7-1.3-1.1-2c-0.2-0.3-0.1-0.4,0.2-0.5c3.6-1.1,7.2-2.3,10.8-3.4c3.4-1.1,6.9-2.2,10.3-3.2
	c0.4-0.1,0.5-0.1,0.5,0.3c-0.4,5.5-0.7,11.1-1,16.6c-0.1,1.9-0.2,3.8-0.3,5.7c0,0.4-0.1,0.5-0.5,0.5c-0.7-0.1-1.4-0.2-2.2-0.3
	c-0.1,0-0.3-0.2-0.3-0.3C70.2,24.7,70.2,24.2,70.3,23.7C70.2,23.7,70.2,23.7,70.3,23.7L70.3,23.7z"/>
<path class="st1" d="M22.4,0c0,0.1,0.2,0.1,0.2,0.2c0.2,0.8,0.3,1.5,0.4,2.3c0,0.1-0.1,0.3-0.2,0.3c-3.6,0.5-7.1,1-10.7,1.6
	c-2.3,0.3-4.6,0.7-6.9,1C4.8,5.5,4.8,5.6,4.8,6C5,12.1,5.3,18.1,5.5,24.2c0,1,0.1,1-0.9,1.1c-0.5,0-1,0.1-1.5,0.1
	c-0.3,0-0.4-0.1-0.4-0.4c-0.1-2.6-0.2-5.1-0.3-7.7C2.1,12.8,2,8.2,1.7,3.6c0-0.4,0-0.6,0.5-0.7c5.3-0.7,10.5-1.5,15.8-2.3
	C19.5,0.4,20.9,0.2,22.4,0L22.4,0z"/>
<path class="st1" d="M26.8,71.9c-0.2,1-0.4,1.8-0.5,2.6c-0.1,0.5-0.4,0.2-0.5,0.2c-4.1-0.9-8.2-1.8-12.2-2.8
	c-2.4-0.5-4.8-1.1-7.2-1.6c-0.2-0.1-0.4-0.3-0.5-0.5c-1-3.8-2-7.6-3-11.4c-0.1-0.3,0-0.4,0.3-0.5c0.7-0.2,1.4-0.4,2.1-0.6
	c0.3-0.1,0.4,0,0.5,0.3c0.8,3.2,1.7,6.4,2.5,9.6C8.3,67.7,8.5,67.9,9,68c5.8,1.2,11.6,2.4,17.4,3.7C26.5,71.8,26.7,71.9,26.8,71.9
	L26.8,71.9z"/>
<path class="st1" d="M36.7,7.5c-4.8,0-9.6,0-14.4,0c-0.4,0-0.5-0.1-0.5-0.5c0-0.6,0-1.3,0-1.9c0-0.5,0.1-0.6,0.6-0.6
	c7.9,0,15.9,0,23.8,0c1.7,0,3.4,0,5.1,0c0.3,0,0.5,0.1,0.5,0.4c0,0.6,0,1.3,0,1.9c0,0.5-0.1,0.6-0.6,0.6C46.3,7.5,41.5,7.5,36.7,7.5
	z"/>
<path class="st1" d="M2.7,29.1c0,0.1,0.1,0.2,0.2,0.4c1.1,4,2.2,8.1,3.3,12.2c0.7,2.7,1.5,5.4,2.2,8.2c0.1,0.3,0.1,0.5-0.3,0.6
	c-0.7,0.2-1.4,0.3-2.2,0.6c-0.3,0.1-0.4,0-0.5-0.3C3.7,43.9,1.9,37.1,0,30.3c-0.1-0.4,0-0.5,0.3-0.6C1.1,29.6,1.9,29.3,2.7,29.1z"/>
</g>
</svg>
