<?xml version="1.0" encoding="utf-8"?>
<!-- Generator: Adobe Illustrator 28.0.0, SVG Export Plug-In . SVG Version: 6.00 Build 0)  -->
<svg width="156px" height="156px" viewBox="0 0 156 156" version="1.1" id="Ebene_1" xmlns="http://www.w3.org/2000/svg" xmlns:xlink="http://www.w3.org/1999/xlink" x="0px" y="0px" style="enable-background:new 0 0 79.2 79;" xml:space="preserve">
<style type="text/css">
	.st0{fill:#FF0000;}
</style>
<g transform="translate(0.00,0.20) scale(1.969697)">
<g>
	<path d="M5.2,77l2.5-8.9H2.1l3.1-10.9h5.5l2.2-7.9H7.6l2.3-8.9h5.5l2.5-8.9h-4l3.1-6.9h2.8l1.9-6.9h-4l3.1-4.9H23L26,2h7.3
		l-2.3,10.9h17L45.8,2h7.3l3,10.9h2.2l3.1,4.9h-4l1.9,6.9h2.8l3.1,6.9h-4l2.5,8.9h4.7l2.3,8.9h-4.6l2.2,7.9h5.5l3.1,10.9h-5.6
		l2.5,8.9H61.4l-1.8-8.9h-40L17.7,77H5.2z M28.6,24.7h22l-1.4-6.9H30.1C30.1,17.8,28.6,24.7,28.6,24.7z M25.3,40.5h28.5L52,31.6
		H27.2C27.2,31.6,25.3,40.5,25.3,40.5z M21.9,57.3h35.5l-1.6-7.9H23.5L21.9,57.3z"/>
</g>
<g>
	
		<rect x="37.2" y="-13.6" transform="matrix(0.7071 -0.7071 0.7071 0.7071 -16.1869 39.701)" class="st0" width="5.3" height="106.1"/>
</g>
<g>
	
		<rect x="-13.6" y="36.9" transform="matrix(0.7072 -0.707 0.707 0.7072 -16.4643 39.4442)" class="st0" width="106.1" height="5.3"/>
</g>
</g>
</svg>
