<?xml version="1.0" encoding="utf-8"?>
<!-- Generator: Adobe Illustrator 28.0.0, SVG Export Plug-In . SVG Version: 6.00 Build 0)  -->
<svg width="156px" height="156px" viewBox="0 0 156 156" version="1.1" id="Ebene_1" xmlns="http://www.w3.org/2000/svg" xmlns:xlink="http://www.w3.org/1999/xlink" x="0px" y="0px" style="enable-background:new 0 0 79.8 129.1;" xml:space="preserve">
<style type="text/css">
	.st0{fill:#FFFFFF;}
	.st1{fill:#0000FF;}
	.st2{enable-background:new    ;}
</style>
<g transform="translate(29.79,0.00) scale(1.208366)">
<g>
	<ellipse class="st0" cx="45.5" cy="33.2" rx="31.5" ry="30.3"/>
</g>
<g>
	<rect x="11.2" y="33.4" class="st1" width="5.6" height="80.4"/>
</g>
<g>
	<path class="st1" d="M45.5,66.3c-18.9,0-34.3-14.9-34.3-33.1S26.5,0,45.5,0c18.9,0,34.3,14.9,34.3,33.1S64.4,66.3,45.5,66.3z
		 M45.5,5.6C29.7,5.6,16.8,18,16.8,33.1s12.9,27.5,28.7,27.5s28.7-12.3,28.7-27.5S61.3,5.6,45.5,5.6z"/>
</g>
<g class="st2">
	<path class="st1" d="M32.3,41.8V23.2h13.8v3.2H36.1v4.1h9.4v3.1h-9.4v5.1h10.4v3.1H32.3z"/>
</g>
<g class="st2">
	<path class="st1" d="M49.8,41.8V23.3h3.8v15.3h9.4v3.1H49.8z"/>
</g>
<g>
	<rect x="11.2" y="98.1" transform="matrix(0.708 -0.7062 0.7062 0.708 -77.1562 43.4678)" class="st1" width="5.6" height="34"/>
</g>
<g>
	<rect x="-3" y="112.2" transform="matrix(0.7055 -0.7087 0.7087 0.7055 -77.4021 43.787)" class="st1" width="34" height="5.6"/>
</g>
</g>
</svg>
