<?xml version="1.0" encoding="utf-8"?>
<!-- Generator: Adobe Illustrator 28.0.0, SVG Export Plug-In . SVG Version: 6.00 Build 0)  -->
<svg width="156px" height="156px" viewBox="0 0 156 156" version="1.1" id="Ebene_1" xmlns="http://www.w3.org/2000/svg" xmlns:xlink="http://www.w3.org/1999/xlink" x="0px" y="0px" style="enable-background:new 0 0 75.1 75;" xml:space="preserve">
<style type="text/css">
	.st0{fill:#FFFFFF;}
	.st1{fill:#FF0000;}
	.st2{fill:#FF0101;}
</style>
<g transform="translate(0.00,0.10) scale(2.077230)">
<rect y="0.1" class="st0" width="75" height="74.9"/>
<path class="st1" d="M0.1,0c0.2,0,0.4,0,0.6,0c24.6,0,49.2,0,73.7,0c0.2,0,0.4,0,0.6,0c0,0.2,0,0.3,0,0.5c0,24.6,0,49.2,0,73.8
	c0,0.2,0,0.4,0,0.6c-0.2,0-0.3,0-0.5,0c-24.7,0-49.3,0-74,0c-0.2,0-0.3,0-0.5,0c0-0.2,0-0.5,0-0.7C0.1,49.5,0.1,24.8,0.1,0L0.1,0
	L0.1,0z M57.5,2.7c-0.1,0-0.3,0-0.4,0c-17.9,0-35.8,0-53.7,0c-0.2,0-0.3,0-0.5,0V72h69.3c0-0.2,0-0.3,0-0.5c0-14.4,0-28.9,0-43.3
	c0-0.3-0.1-0.6-0.3-0.8c-4.2-5.3-8.3-10.6-12.5-16c-0.7-0.9-1.4-1.8-2.1-2.7c-3.2,4.1-6.4,8.2-9.6,12.3c-1-0.6-2-1.1-3-1.7
	c0.1-0.1,0.1-0.2,0.2-0.2c3.2-4,6.3-8.1,9.5-12.1c1.1-1.3,2.1-2.7,3.1-4.1C57.8,3,58,3.1,58.1,3.3c4.2,5.5,8.3,11,12.4,16.5
	c0.6,0.8,1.1,1.5,1.8,2.3V2.7c-0.1,0-0.2,0-0.4,0c-4.7,0-9.4,0-14.1,0C57.7,2.7,57.6,2.7,57.5,2.7L57.5,2.7z"/>
<path class="st1" d="M31.9,33.6c2.1,0.2,3.7,1.2,4.7,3c0.6,1,0.8,2.2,1,3.3c0.5,3.3,0.4,6.6,0.1,9.9c-0.1,1.7-0.3,3.4-0.5,5.1
	c-0.2,1.9-0.9,3.6-1.8,5.3c-1.1,2-2.5,3.7-4.4,5.1c-1.9,1.4-4.1,2.3-6.4,2.4c-3.7,0.2-7.5,0.5-11.2,0.6c-2.2,0.1-4.4-0.1-6.5-0.9
	c-2.1-0.8-3.1-2.3-3.3-4.4c-0.2-2,0.2-4,0.7-6c0.4-1.3,0.8-2.6,1.4-3.8c1.1-2.5,2.8-4.6,4.9-6.3c3-2.5,6.1-4.8,9.1-7.2
	c1.7-1.4,3.5-2.8,5.1-4.2c1.7-1.4,3.7-2.2,6-2.1c0.3,0,0.6,0,0.9,0C31.7,33.6,31.8,33.6,31.9,33.6L31.9,33.6z M15.1,58.6
	c1.7-0.1,3.9-0.5,6-1.3c3-1.1,4.7-3.3,5.3-6.3c0.5-2.5,0.9-5.1,1.4-7.7c0.1-0.8,0.4-1.5,0.6-2.2c0.3-0.6,0.8-1.1,1-1.7
	c0.3-0.5,0.5-1.1,0.6-1.7c0.1-0.7-0.2-0.9-0.8-0.5c-0.9,0.5-1.7,1.1-2.5,1.7c-2.4,1.8-4.8,3.7-7.2,5.6c-2.4,1.9-4.8,3.8-7.1,5.8
	c-1.1,0.9-2.1,2-3.1,3c-0.9,1.1-1,2.1-0.2,3c0.4,0.5,1,1,1.6,1.4C11.9,58.5,13.2,58.6,15.1,58.6z"/>
<path class="st2" d="M58.1,39c-0.8,0.7-1.7,1.3-2.5,2C50,34,44.5,27,39,20c-3.2,4.1-6.5,8.2-9.7,12.4c-1-0.6-1.9-1.2-2.9-1.8
	c4.3-5.5,8.6-10.9,12.9-16.5C45.6,22.4,51.8,30.7,58.1,39L58.1,39z"/>
<path class="st1" d="M36.8,62.8c0.1,0,0.3,0,0.4,0c9.5,0,19,0,28.5,0c0.1,0,0.3,0,0.4,0l0.1,0.1v3.8H36.7L36.8,62.8
	C36.7,62.9,36.7,62.8,36.8,62.8L36.8,62.8z"/>
</g>
</svg>
