<?xml version="1.0" encoding="utf-8"?>
<!-- Generator: Adobe Illustrator 28.0.0, SVG Export Plug-In . SVG Version: 6.00 Build 0)  -->
<svg width="156px" height="156px" viewBox="0 0 156 156" version="1.1" id="Calque_1" xmlns="http://www.w3.org/2000/svg" xmlns:xlink="http://www.w3.org/1999/xlink" x="0px" y="0px" style="enable-background:new 0 0 75 75;" xml:space="preserve">
<style type="text/css">
	.st0{fill:#FFFFFF;}
	.st1{fill:#FE0707;}
	.st2{fill:#FE0808;}
</style>
<g transform="translate(0.00,0.00) scale(2.080000)">
<rect class="st0" width="75" height="75"/>
<path class="st1" d="M23.1,66.7c-0.2-2.3-0.3-4.5-0.5-6.9c-1.1,0.3-2,0.6-3.2,0.9c0.2-2.7,0.5-5.2,0.7-7.9
	c-3.8,1.4-7.4,2.7-11.1,4.1c-0.4-0.6-0.8-1.1-1.2-1.8c2.4-3.6,7.9-6.2,1.1-8.3c6.7-6.3-4.7-10.1-8.9-13.3c7.3-0.6,14.4-1.2,21.4-1.7
	c-1.5-1.6-3-3.1-4.7-4.9c4-0.7,7.5-1.4,11.3-2.1c-0.2-3.3-0.4-6.7-0.6-10.1h-1.9v-2.4c0.6,0,1.2-0.1,1.9-0.1
	C27.2,8.4,27,4.6,26.8,0.7c0.6-0.2,1.1-0.4,1.8-0.7c7.8,13,3.8,12.9,19.8,12.3v2.3c-0.3,0.1-0.6,0.1-1,0.2c0.9,3,1.7,6,2.6,9.1
	c2.2-0.7,4.3-1.4,6.6-2.2c-0.3,2.2-0.6,4.2-1,6.4c2.3-1.1,5.7-1.1,7.2-3c0.3-3.7,0.5-7.4,0.7-11.2c-4.5,1.6-8.9,3.1-13.4,4.7
	c-0.3-0.7-0.7-1.4-1.1-2.2c5.5-1.9,11-3.9,16.7-5.9c-0.2,4.9-0.4,9.6-0.6,14.6c2.9-0.9,5.8-1.8,8.7-2.6c0.3,0.6,0.7,1.2,1.1,1.9
	c-5.5,5-11,10.1-16.7,15.2c1.8,0.7,3.5,1.3,5.4,2c0.1-1.5,0.2-2.9,0.4-4.4c0.7,0.1,1.4,0.2,2.2,0.3c-0.1,1.6-0.2,3.2-0.4,4.9
	c0.7,0.3,1.4,0.5,2.2,0.9c-0.1,0.7-0.2,1.4-0.3,2.1c-0.7,0.1-1.4,0.2-2.1,0.3c0.1,2-1.1,4.4,0.1,6.1c1.3,2.3,7,4.8,4.8,7.6
	c-2-0.5-4-1.1-6.1-1.7c-0.4,3.9-0.7,7.8-1.1,11.7C54.6,68,45.8,66.5,37,65.1c-1.3,3.2-2.6,6.5-4.1,10c-1.3-6.2-2.5-12.1-3.7-18.3
	C27.4,59.6,26.8,67.3,23.1,66.7L23.1,66.7L23.1,66.7z M69.7,26.1c-5.5,1.7-10.9,3.3-16.5,5.1c0.3-2.2,0.7-4.2,1-6.3
	c-1.9,0.6-3.6,1.1-5.4,1.6c-0.9-2.9-1.8-5.7-2.7-8.8c-1.4,3.4-2.8,6.5-4.2,9.7c-4.3-7.6-8.4-14.9-12.6-22.3c-0.1,0-0.1,0-0.2,0.1
	c0.3,7.2,0.7,14.3,1,21.5c-3.1,0.6-6,1.1-9.1,1.7c1.6,1.8,3.1,3.5,4.8,5.4c-6.4,0.5-12.6,1-19.2,1.5c3.6,2.3,6.8,4.4,10.5,6.7
	c-1.6,1.6-3.1,3-4.6,4.4c1.3,0.6,2.5,1.2,3.8,1.8c-1.4,1.8-2.7,3.4-4.2,5.4c3.7-1,6.6-2.8,10.4-3.3c-0.2,2.7-0.5,5.1-0.7,7.6
	c0.9-0.3,1.7-0.5,2.5-0.7c0.2,1.6,0.4,3.1,0.6,4.9c1.7-4.2,3.2-8.2,4.9-12.4c1.3,6.2,2.5,12.1,3.8,18.3c2.2-5.4,4.3-10.5,6.5-15.7
	c1.2,1.4,2.4,2.6,3.7,4.1c-0.2-2.5-0.4-4.8-0.6-7.1c8,2.3,15.7,4.5,23.8,6.9c-3.8-4.1-7.5-7.9-11.1-11.7c2.4-0.2,4.7-0.5,6.9-0.7
	c0-0.1,0-0.1,0-0.2c-2.8-1.1-5.5-2.2-8.4-3.3c5.1-4.8,10.5-9.2,15.4-14.1C69.8,26.1,69.7,26.1,69.7,26.1L69.7,26.1z M61.3,66.6
	c0.3-3.3,0.6-6.4,0.9-9.5c-5.7-1.6-11.2-3.2-16.8-4.7c0.3,3.4,0.6,6.6,0.9,10.1c-2-2.2-3.8-4.2-5.7-6.3c-0.9,2.2-1.8,4.3-2.7,6.5
	C45.8,64,53.4,65.3,61.3,66.6L61.3,66.6z M45.1,14.9H37c1.5,2.7,3,5.3,4.5,8C42.7,20.1,43.9,17.5,45.1,14.9z M63,49.2
	c0.1-1.3,0.2-2.2,0.2-3.2c-1,0.1-1.9,0.2-2.8,0.3C61.3,47.2,62,48.1,63,49.2z"/>
<path class="st2" d="M13,29.6c-0.8,0.1-1.5,0.1-2.4,0.2c-0.2-6.2-0.5-12.4-0.8-18.7c5.4-0.9,10.7-1.7,16.1-2.6
	c0.1,0.8,0.3,1.5,0.4,2.4c-4.7,0.8-9.4,1.5-14.1,2.2C12.5,18.7,12.7,24.1,13,29.6L13,29.6z"/>
<path class="st2" d="M23.1,66.7c0.3,0.2,0.7,0.4,1,0.5c1.6,0.4,3.3,0.8,5,1.2c-0.1,0.8-0.3,1.5-0.5,2.3c-0.5-0.1-0.9-0.2-1.4-0.3
	c-4.5-1.1-9-2.1-13.4-3.1c-0.6-0.2-0.9-0.4-1.1-1.1c-0.7-3-1.5-6-2.3-9.2c0.7-0.2,1.5-0.5,2.3-0.7c0.6,2.7,1.2,5.2,1.8,7.8
	c0.2,0.7,0.4,1.1,1.2,1.2c2,0.4,4.1,0.9,6.1,1.4C22.3,66.8,22.7,66.7,23.1,66.7L23.1,66.7L23.1,66.7z"/>
</g>
</svg>
