<?xml version="1.0" encoding="utf-8"?>
<!-- Generator: Adobe Illustrator 28.0.0, SVG Export Plug-In . SVG Version: 6.00 Build 0)  -->
<svg width="156px" height="156px" viewBox="0 0 156 156" version="1.1" id="Ebene_1" xmlns="http://www.w3.org/2000/svg" xmlns:xlink="http://www.w3.org/1999/xlink" x="0px" y="0px" style="enable-background:new 0 0 75 64.2;" xml:space="preserve">
<style type="text/css">
	.st0{fill-rule:evenodd;clip-rule:evenodd;fill:#FFFFFF;fill-opacity:0;}
	.st1{clip-path:url(#SVGID_00000119110507655605368990000018165147800709645999_);}
	.st2{fill-rule:evenodd;clip-rule:evenodd;fill:#FF1415;}
	.st3{fill:#FFFFFF;}
</style>
<g transform="translate(0.00,11.23) scale(2.080000)">
<g>
	<polygon class="st0" points="0,0 75,0 75,64.2 0,64.2 0,0 	"/>
</g>
<g>
	<defs>
		<polygon id="SVGID_1_" points="0.2,64 74.8,64 74.8,0.2 0.2,0.2 0.2,64 		"/>
	</defs>
	<clipPath id="SVGID_00000001637179845609748860000017780713889717227948_">
		<use xlink:href="#SVGID_1_"  style="overflow:visible;"/>
	</clipPath>
	<g style="clip-path:url(#SVGID_00000001637179845609748860000017780713889717227948_);">
		<g>
			<path class="st2" d="M0.2,64l26-10.7l-19-23.5l24,14.3L18.9,4.8l18.4,27.4l4.5-32l6.7,35.4L64.4,3l-9.3,40.8l19.6-16.7L58.6,54
				l12.2,10L0.2,64L0.2,64z M39.3,54.3l-12.1-7.1l7.2,8.9l-9.3,3.3h32.7l-5.4-4.2l3.9-6.4l-8,6.9l4.1-18l-5.7,11.9L42.5,28
				l-2.3,16.8l-8.4-11.2L39.3,54.3L39.3,54.3L39.3,54.3z"/>
		</g>
		<g>
			<path class="st3" d="M0.2,64.1L0.2,64.1L0.2,64.1l26-10.7L7.1,29.7l24,14.3L18.8,4.6l18.5,27.5l4.5-32l0,0.2l6.7,35.4l16-32.7
				l0,0.2l-9.2,40.7L74.9,27l-0.1,0.1L58.6,54l12.2,10L0.2,64.1L0.2,64.1z M0.4,64h70.3L58.5,54l0,0l16.1-26.8L55.1,43.9l0-0.1
				l9.2-40.5L48.4,35.7l0-0.1L41.8,0.4l-4.4,31.9l0-0.1L19,4.9l12.2,39.3l-0.1,0L7.3,29.9l18.9,23.4l0,0L0.4,64z M57.8,59.3H24.9
				l0.1,0l9.2-3.3L27,47l0.1,0.1l12.1,7.1l-7.6-20.8l0.1,0.1l8.4,11.2l2.3-16.9l0,0.1l4.1,21.5l5.7-12l0,0.2l-4.1,18l8.1-7l-0.1,0.1
				l-3.9,6.4L57.8,59.3z M25.2,59.3h32.4l-5.4-4.1l0,0l3.8-6.3l-8,6.9l0-0.1l4-17.8l-5.6,11.7l0-0.1l-4.1-21.4l-2.3,16.7l0,0
				l-8.3-11.1l7.5,20.7l-0.1-0.1l-12-7.1l7.1,8.8l0,0L25.2,59.3z"/>
		</g>
	</g>
</g>
</g>
</svg>
