<?xml version="1.0" encoding="utf-8"?>
<!-- Generator: Adobe Illustrator 28.0.0, SVG Export Plug-In . SVG Version: 6.00 Build 0)  -->
<svg width="156px" height="156px" viewBox="0 0 156 156" version="1.1" id="Ebene_1" xmlns="http://www.w3.org/2000/svg" xmlns:xlink="http://www.w3.org/1999/xlink" x="0px" y="0px" style="enable-background:new 0 0 86.8 74;" xml:space="preserve">
<style type="text/css">
	.st0{fill:#FFFFFF;}
	.st1{fill:#FF9900;}
	.st2{enable-background:new    ;}
</style>
<g transform="translate(0.00,11.50) scale(1.797235)">
<g>
	<polygon class="st0" points="5.9,70.6 43.4,6.7 80.9,70.6 5.9,70.6 	"/>
	<path class="st1" d="M86.8,74H0L43.4,0L86.8,74z M11.8,67.2H75L43.4,13.3L11.8,67.2z"/>
</g>
<g class="st2">
	<path class="st1" d="M31.4,62.2v-16h11.9v2.7h-8.6v3.5h8v2.7h-8v4.4h8.9v2.7H31.4z"/>
	<path class="st1" d="M44.8,62.2l4.2-6l-4-5.6h3.7l2.1,3.2l2.2-3.2h3.6l-3.9,5.5l4.3,6.1h-3.8l-2.4-3.6l-2.4,3.6H44.8z"/>
</g>
</g>
</svg>
