<?xml version="1.0" encoding="utf-8"?>
<!-- Generator: Adobe Illustrator 28.0.0, SVG Export Plug-In . SVG Version: 6.00 Build 0)  -->
<svg width="156px" height="156px" viewBox="0 0 156 156" version="1.1" id="Ebene_1" xmlns="http://www.w3.org/2000/svg" xmlns:xlink="http://www.w3.org/1999/xlink" x="0px" y="0px" style="enable-background:new 0 0 77.8 125.7;" xml:space="preserve">
<style type="text/css">
	.st0{fill:#FFFFFF;}
	.st1{fill-rule:evenodd;clip-rule:evenodd;fill:#0000FF;}
	.st2{fill:#0000FF;}
	.st3{enable-background:new    ;}
</style>
<g transform="translate(29.72,0.00) scale(1.241050)">
<g>
	<circle class="st0" cx="43.4" cy="32.8" r="30.1"/>
</g>
<g>
	<path class="st1" d="M0,113.7c0-6.6,5.6-12,12.4-12l0,0c6.9,0,12.4,5.4,12.4,12l0,0c0,6.6-5.6,12-12.4,12l0,0
		C5.6,125.7,0,120.3,0,113.7L0,113.7z"/>
</g>
<g>
	<path class="st2" d="M43.8,65.6c-18.7,0-33.9-14.7-33.9-32.8C9.9,14.7,25.1,0,43.8,0s33.9,14.7,33.9,32.8
		C77.7,50.9,62.5,65.6,43.8,65.6z M43.8,5.5c-15.7,0-28.4,12.3-28.4,27.3c0,15.1,12.7,27.3,28.4,27.3c15.7,0,28.4-12.3,28.4-27.3
		C72.2,17.8,59.5,5.5,43.8,5.5z"/>
</g>
<g class="st3">
	<path class="st2" d="M30.5,41.4V23.2H44v3.1h-9.8v4h9.1v3.1h-9.1v5h10.2v3.1H30.5z"/>
</g>
<g class="st3">
	<path class="st2" d="M45.9,41.4V38l9.6-11.8H47v-3.1h13.3V26l-10,12.3h10.3v3.1H45.9z"/>
</g>
<g>
	<rect x="9.9" y="32.6" class="st2" width="5.5" height="75.1"/>
</g>
</g>
</svg>
