<?xml version="1.0" encoding="utf-8"?>
<!-- Generator: Adobe Illustrator 28.0.0, SVG Export Plug-In . SVG Version: 6.00 Build 0)  -->
<svg width="156px" height="156px" viewBox="0 0 156 156" version="1.1" id="Ebene_1" xmlns="http://www.w3.org/2000/svg" xmlns:xlink="http://www.w3.org/1999/xlink" x="0px" y="0px" style="enable-background:new 0 0 119.4 80.6;" xml:space="preserve">
<style type="text/css">
	.st0{fill:#FFFFFF;}
	.st1{enable-background:new    ;}
	.st2{fill:#0000FF;}
</style>
<g transform="translate(0.00,25.35) scale(1.306533)">
<g>
	<rect x="2.8" y="2.8" class="st0" width="113.9" height="75"/>
</g>
<g class="st1">
	<path class="st2" d="M40.9,53.4V27.9h17.5v4.3H46.1v6.1h10.7v4.3H46.1v10.9H40.9z"/>
</g>
<g class="st1">
	<path class="st2" d="M60.8,53.4v-3.8l6.9-8c1.1-1.3,2-2.2,2.5-2.8c-0.6,0-1.3,0.1-2.2,0.1l-6.5,0v-4.1h15.3v3.5l-7.1,8.2l-2.5,2.7
		c1.4-0.1,2.2-0.1,2.5-0.1h7.6v4.3H60.8z"/>
</g>
<g>
	<path class="st2" d="M119.5,80.6H0V0h119.5V80.6z M5.6,75h108.3V5.6H5.6V75z"/>
</g>
</g>
</svg>
