<?xml version="1.0" encoding="utf-8"?>
<!-- Generator: Adobe Illustrator 28.0.0, SVG Export Plug-In . SVG Version: 6.00 Build 0)  -->
<svg width="156px" height="156px" viewBox="0 0 156 156" version="1.1" id="Ebene_1" xmlns="http://www.w3.org/2000/svg" xmlns:xlink="http://www.w3.org/1999/xlink" x="0px" y="0px" style="enable-background:new 0 0 79.8 129;" xml:space="preserve">
<style type="text/css">
	.st0{fill:#FFFFFF;}
	.st1{fill:#0000FF;}
	.st2{enable-background:new    ;}
</style>
<g transform="translate(29.75,0.00) scale(1.209302)">
<g>
	<circle class="st0" cx="45.5" cy="33.1" r="30.8"/>
</g>
<g>
	<rect x="11.2" y="33.3" class="st1" width="5.6" height="80.8"/>
</g>
<g>
	<path class="st1" d="M45.5,66.3c-18.9,0-34.3-14.9-34.3-33.1C11.2,14.9,26.6,0,45.5,0c18.9,0,34.3,14.9,34.3,33.1
		C79.8,51.4,64.4,66.3,45.5,66.3z M45.5,5.6C29.7,5.6,16.8,18,16.8,33.1c0,15.2,12.9,27.5,28.7,27.5c15.8,0,28.7-12.3,28.7-27.5
		C74.2,18,61.3,5.6,45.5,5.6z"/>
</g>
<g class="st2">
	<path class="st1" d="M39.9,41.8V25.1h11.4v2.8h-8.1v4h7v2.8h-7v7.1H39.9z"/>
</g>
<g>
	<rect x="11.9" y="98" transform="matrix(0.7081 -0.7061 0.7061 0.7081 -76.9048 43.9423)" class="st1" width="5.6" height="34"/>
</g>
<g>
	<rect x="-3" y="112.2" transform="matrix(0.7055 -0.7087 0.7087 0.7055 -77.3815 43.7661)" class="st1" width="34" height="5.6"/>
</g>
</g>
</svg>
