<?xml version="1.0" encoding="utf-8"?>
<!-- Generator: Adobe Illustrator 28.0.0, SVG Export Plug-In . SVG Version: 6.00 Build 0)  -->
<svg width="156px" height="156px" viewBox="0 0 156 156" version="1.1" id="Ebene_1" xmlns="http://www.w3.org/2000/svg" xmlns:xlink="http://www.w3.org/1999/xlink" x="0px" y="0px" style="enable-background:new 0 0 86.8 74;" xml:space="preserve">
<style type="text/css">
	.st0{fill:#FFFFFF;}
	.st1{fill:#FF9900;}
	.st2{enable-background:new    ;}
</style>
<g transform="translate(0.00,11.50) scale(1.797235)">
<g>
	<polygon class="st0" points="5.9,70.6 43.4,6.7 80.9,70.6 5.9,70.6 	"/>
	<path class="st1" d="M86.8,74H0L43.4,0L86.8,74z M11.8,67.2H75L43.4,13.3L11.8,67.2z"/>
</g>
<g class="st2">
	<path class="st1" d="M43.8,56.3v-2.7h7V60c-0.7,0.7-1.7,1.2-2.9,1.7c-1.3,0.5-2.6,0.7-3.9,0.7c-1.7,0-3.1-0.4-4.4-1.1
		c-1.2-0.7-2.2-1.7-2.8-3c-0.6-1.3-0.9-2.7-0.9-4.3c0-1.7,0.3-3.1,1-4.4c0.7-1.3,1.7-2.3,3.1-3c1-0.5,2.3-0.8,3.8-0.8
		c2,0,3.5,0.4,4.7,1.3s1.8,2,2.2,3.5l-3.2,0.6c-0.2-0.8-0.7-1.4-1.3-1.9c-0.6-0.5-1.4-0.7-2.3-0.7c-1.4,0-2.5,0.4-3.4,1.3
		c-0.8,0.9-1.3,2.2-1.3,4c0,1.9,0.4,3.3,1.3,4.3s2,1.4,3.3,1.4c0.7,0,1.4-0.1,2-0.4c0.7-0.3,1.3-0.6,1.8-1v-2H43.8z"/>
</g>
</g>
</svg>
