<?xml version="1.0" encoding="utf-8"?>
<!-- Generator: Adobe Illustrator 28.0.0, SVG Export Plug-In . SVG Version: 6.00 Build 0)  -->
<svg width="156px" height="156px" viewBox="0 0 156 156" version="1.1" id="Ebene_1" xmlns="http://www.w3.org/2000/svg" xmlns:xlink="http://www.w3.org/1999/xlink" x="0px" y="0px" style="enable-background:new 0 0 192.5 188.8;" xml:space="preserve">
<style type="text/css">
	.st0{fill:#FFFFFF;}
	.st1{fill:#FF0000;}
</style>
<g transform="translate(0.00,1.50) scale(0.810390)">
<g>
	<rect class="st0" width="192.5" height="188.8"/>
</g>
<g>
	<rect x="8" y="73.7" transform="matrix(0.9674 -0.2534 0.2534 0.9674 -25.462 6.2339)" class="st1" width="7" height="56.5"/>
</g>
<g>
	
		<rect x="55.1" y="11.7" transform="matrix(1 -3.627208e-03 3.627208e-03 1 -5.466473e-02 0.3386)" class="st1" width="76.5" height="7"/>
</g>
<g>
	<polygon class="st1" points="185.7,63.7 178.8,63 184.2,12.6 134.8,31.1 132.4,24.5 192.4,2.1 	"/>
</g>
<g>
	<polygon class="st1" points="180.8,185.5 85.2,170 86.4,163.1 174.4,177.4 182.2,87.7 189.2,88.3 	"/>
</g>
<g>
	<polygon class="st1" points="66.5,188.2 16,177.9 7,147.6 13.8,145.6 21.5,171.9 67.9,181.3 	"/>
</g>
<g>
	<polygon class="st1" points="7.1,64.1 4.3,9 56.9,0.2 58.1,7.1 11.6,14.9 14.1,63.8 	"/>
</g>
<g>
	<rect x="25.5" y="47.6" transform="matrix(0.89 -0.456 0.456 0.89 -16.3108 34.6792)" class="st1" width="76.5" height="7"/>
</g>
<g>
	
		<rect x="-4" y="105.6" transform="matrix(7.254274e-03 -1 1 7.254274e-03 -65.2971 152.3481)" class="st1" width="96.2" height="7"/>
</g>
<g>
	<rect x="42.6" y="150.4" class="st1" width="72.7" height="7"/>
</g>
<g>
	<rect x="57.4" y="99.6" class="st1" width="31.8" height="7"/>
</g>
<g>
	
		<rect x="32.5" y="125.2" transform="matrix(2.427417e-02 -0.9997 0.9997 2.427417e-02 -70.3046 185.4177)" class="st1" width="54.7" height="7"/>
</g>
<g>
	
		<rect x="62.1" y="124.2" transform="matrix(1.311454e-02 -0.9999 0.9999 1.311454e-02 -42.876 211.9876)" class="st1" width="47.8" height="7"/>
</g>
<g>
	<path class="st1" d="M132.1,109.3c-0.2,4.3-2.8,14.7-4.9,19.1c0.4,2.5,2.2,6.1-1.4,6.9c-8.1-0.2-8,10.4-15.4,9.9
		c-1.7,5.4-2.6,3.7,0.7,6.1c2.3,3.3,4.8,7.4,9.1,7.6c4.4,1.6,1.2,6.2,6.3,6.9c7.4-1,14.9-1,20.4-4.6c17-1.6,5.6-20.9,7-32.1
		c-6.2-1.5-6.4-6.1-9.1-10.7C141.5,116.8,134,109.5,132.1,109.3L132.1,109.3z"/>
	<path class="st1" d="M126.5,166L126.5,166c-2.9-0.4-3.4-2-3.8-3.5c-0.4-1.4-0.7-2.6-2.6-3.3c-4.1-0.3-6.6-3.9-8.8-7l-0.5-0.7
		c-0.5-0.3-0.8-0.6-1.2-0.8c-1.3-0.9-1.4-1-0.8-2.4c0.3-0.6,0.7-1.6,1.2-3.1l0.1-0.2l0.2,0c3.5,0.2,5.3-2.2,7.2-4.7
		c2-2.6,4-5.4,8.2-5.3c0.8-0.2,1.3-0.5,1.6-1c0.6-1,0.2-2.5-0.1-4c-0.1-0.6-0.3-1.1-0.3-1.6l0-0.1l0-0.1c2.1-4.4,4.7-14.7,4.9-19
		l0-0.2h0.3c1.1,0.1,3.6,2.2,6.4,4.5c2.4,1.9,4.8,4,6.3,4.7l0.1,0l0,0.1c0.7,1.2,1.2,2.3,1.7,3.4c1.5,3.2,2.7,6,7.3,7.1l0.2,0.1
		l0,0.2c-0.4,3.4,0.4,7.8,1.1,11.9c1.2,6.3,2.4,12.8-0.6,16.7c-1.6,2.1-4.1,3.2-7.8,3.6c-4.4,2.8-9.9,3.4-15.7,4
		C129.7,165.6,128.1,165.8,126.5,166L126.5,166z M110.5,145.4c-0.5,1.4-0.9,2.4-1.1,3c-0.5,1.1-0.5,1.1,0.6,1.8
		c0.3,0.2,0.7,0.5,1.2,0.8l0.1,0.1l0.5,0.7c2.1,3.1,4.6,6.6,8.5,6.8l0.1,0c2.2,0.8,2.6,2.3,2.9,3.7c0.4,1.5,0.8,2.8,3.3,3.2
		c1.6-0.2,3.1-0.4,4.7-0.5c5.8-0.6,11.3-1.2,15.5-4l0.1,0c3.5-0.3,6-1.4,7.5-3.4c2.8-3.7,1.6-10.1,0.5-16.3
		c-0.8-4.1-1.6-8.4-1.2-11.9c-4.6-1.2-5.9-4-7.4-7.3c-0.5-1.1-1-2.2-1.7-3.3c-1.5-0.8-4-2.8-6.4-4.7c-2.4-1.9-4.8-3.9-5.9-4.3
		c-0.3,4.5-2.9,14.5-4.9,18.8c0.1,0.5,0.2,1,0.3,1.5c0.4,1.6,0.8,3.2,0,4.3c-0.4,0.6-1,1-2,1.2l0,0l0,0c-0.1,0-0.2,0-0.3,0
		c-3.8,0-5.7,2.6-7.6,5.1C116.1,143,114.2,145.5,110.5,145.4z"/>
</g>
<g>
	<rect x="103.9" y="26.7" transform="matrix(0.5971 -0.8022 0.8022 0.5971 8.5104 103.633)" class="st1" width="7" height="33.2"/>
</g>
<g>
	<path class="st1" d="M141,137.3h-7c0-0.4,0-0.8,0-1.1c0-0.6,0-1.1,0-1.6c-0.1-0.8-0.3-1.7-0.5-2.6l-0.2-0.9
		c-0.1-0.3-0.2-0.6-0.2-0.9c-0.2-0.7-0.4-1.5-0.5-2.5c-0.3-2.7-0.4-5.1-0.5-7.3c-0.1-3.2-0.3-6.2-0.8-9.5c-1.4-0.1-3-0.2-4.6-0.7
		c-3-0.9-4.1-2.6-4.5-3.9c-0.6-2.1-0.7-4.2-0.7-6c0-0.8,0-1.6-0.1-2.3l-0.1-0.6l0.8-3.6c0.2-0.7,0.4-1.3,0.5-1.8
		c0.1-0.2,0.2-0.5,0.2-0.7l0.7-2.2c-0.3-0.1-0.4-0.2-0.7-0.2c-1.5-0.3-2.5-0.8-4.2-2.6c-1.7-1.8-2.2-3.5-2.6-5.1
		c-0.1-0.3-0.1-0.5-0.2-0.8c-0.2-0.7-0.4-1.2-0.5-1.5c-4.6-0.3-5.4-4.9-6-10.7c-0.2-1.9,0.9-3.4,2.5-5.5c0.3-0.4,0.7-1,1-1.4
		c-0.1-1.1-0.3-2.2-0.4-3.3c-0.1-0.6-0.1-1.3-0.2-1.9l7-0.8c0.1,0.7,0.1,1.3,0.2,2c0.1,1.4,0.3,2.7,0.5,4c0.3,2-0.9,3.5-2.5,5.7
		c-0.3,0.4-0.7,1-1,1.4c0.2,1.9,0.5,3,0.6,3.7c2.7,0.4,4.4,2.3,5.6,6.3c0.1,0.3,0.2,0.6,0.3,0.9c0.4,1.3,0.5,1.7,1.1,2.3
		c0.3,0.3,0.4,0.5,0.5,0.5l0,0c0.5,0.1,1.4,0.3,2.8,1c0.8,0.4,1.4,0.9,1.9,1.3c0.2,0.1,0.4,0.3,0.6,0.4l2,1.5l-2.1,7
		c-0.1,0.3-0.2,0.6-0.3,0.9c-0.1,0.4-0.3,0.8-0.4,1.2l-0.6,2.5c0.1,0.8,0.1,1.5,0.1,2.2c0,1.2,0.1,2.3,0.2,3.4
		c1,0.3,2.2,0.3,3.4,0.4c0.8,0.1,1.5,0.1,2.3,0.2l2.3,0.3l0.7,2.2c0.1,0.2,0.1,0.4,0.2,0.6c0.2,0.6,0.5,1.3,0.6,2.1
		c0.7,3.9,0.8,7.3,1,10.8c0.1,2.2,0.2,4.5,0.5,7c0,0.3,0.2,0.8,0.3,1.3c0.1,0.5,0.3,0.9,0.3,1.4l0.2,0.8c0.2,1.1,0.5,2.2,0.6,3.4
		c0.1,0.9,0.1,1.8,0,2.5C141,136.7,141,137,141,137.3z M116.1,68.8L116.1,68.8L116.1,68.8z M113,62.3C113,62.3,113,62.3,113,62.3
		C113,62.3,113,62.3,113,62.3z"/>
</g>
</g>
</svg>
