<?xml version="1.0" encoding="utf-8"?>
<!-- Generator: Adobe Illustrator 28.0.0, SVG Export Plug-In . SVG Version: 6.00 Build 0)  -->
<svg width="156px" height="156px" viewBox="0 0 156 156" version="1.1" id="Ebene_1" xmlns="http://www.w3.org/2000/svg" xmlns:xlink="http://www.w3.org/1999/xlink" x="0px" y="0px" style="enable-background:new 0 0 86.8 74;" xml:space="preserve">
<style type="text/css">
	.st0{fill:#FFFFFF;}
	.st1{fill:#FF9900;}
	.st2{fill-rule:evenodd;clip-rule:evenodd;fill:#FF9415;}
</style>
<g transform="translate(0.00,11.50) scale(1.797235)">
<g>
	<polygon class="st0" points="5.9,70.6 43.4,6.7 80.9,70.6 5.9,70.6 	"/>
	<path class="st1" d="M86.8,74H0L43.4,0L86.8,74z M11.8,67.2H75L43.4,13.3L11.8,67.2z"/>
</g>
<g>
	<path class="st2" d="M49.4,42.1l-6,10.3l-6-10.3h4.4V24.8h3v17.3H49.4L49.4,42.1z M62.6,56.7c-3.2-0.1-4,2.3-4,5
		c-0.5,1.5-2.5,1.8-3.7,1.1c-1.7-1.1-0.3-4-2.1-5.2c-1.5-1.2-3.7-1.1-5.3-0.5c-2.5,1.4-0.9,4-2.4,5.6c-0.9,0.6-2.2,0.6-3.2,0.1
		c-1.5-1.2-0.3-3.7-1.9-5c-1.4-1.3-4-1.4-5.6-0.5c-2.5,1.2-0.5,5-3,5.8c-1.6,0.5-3.5-0.4-3.3-2.3c0.3-3.6-3.6-4.9-6.5-3.6
		c-1.3,0.7-1.8,2.1-1.7,3.5c0.4-0.1,1.9,0.3,1.8-0.4c-0.1-1.8,2.3-2.4,3.5-1.3c1.3,1.1,1.1,3.1,2.1,4.4c1.5,1.8,4.6,1.8,6.2,0.3
		c1.3-1.3,0.2-3.7,1.6-4.7c1-0.8,2.6-0.6,3.5,0.1c1,1.1,0.3,2.8,1.1,4.1c1.3,2.1,4.9,2.2,6.7,0.5c1.2-1.2,0.5-3.2,1.3-4.5
		c1.1-1.1,3.3-1,4.2,0.3c0.4,0.7,0.3,1.7,0.4,2.5c0.3,1.8,2,2.8,3.8,2.7c1.7,0.2,3.8-0.7,4-2.7c0.3-0.8,0-1.8,0.5-2.7
		c0.8-1.3,3.1-1.3,4.1-0.3c0.9,1.6-0.1,1.6,2.2,1.5C67,58.1,65,56.6,62.6,56.7C62.6,56.7,62.6,56.7,62.6,56.7z"/>
</g>
</g>
</svg>
