<?xml version="1.0" encoding="utf-8"?>
<!-- Generator: Adobe Illustrator 28.0.0, SVG Export Plug-In . SVG Version: 6.00 Build 0)  -->
<svg width="156px" height="156px" viewBox="0 0 156 156" version="1.1" id="Ebene_1" xmlns="http://www.w3.org/2000/svg" xmlns:xlink="http://www.w3.org/1999/xlink" x="0px" y="0px" style="enable-background:new 0 0 86.8 74;" xml:space="preserve">
<style type="text/css">
	.st0{fill:#FFFFFF;}
	.st1{fill:#FF9900;}
	.st2{enable-background:new    ;}
</style>
<g transform="translate(0.00,11.50) scale(1.797235)">
<g>
	<polygon class="st0" points="5.9,70.6 43.4,6.7 80.9,70.6 5.9,70.6 	"/>
	<path class="st1" d="M86.8,74H0L43.4,0L86.8,74z M11.8,67.2H75L43.4,13.3L11.8,67.2z"/>
</g>
<g>
	<rect x="42" y="33.7" transform="matrix(0.7073 -0.7069 0.7069 0.7073 -22.9723 45.4421)" class="st1" width="2.8" height="33.5"/>
</g>
<g>
	
		<rect x="26.7" y="49.1" transform="matrix(0.7069 -0.7073 0.7073 0.7069 -22.9746 45.4737)" class="st1" width="33.5" height="2.8"/>
</g>
<g class="st2">
	<path class="st1" d="M49.6,58.3c0,0.2-0.1,0.3-0.2,0.4c-0.1,0.1-0.2,0.2-0.3,0.2c-0.2,0.1-0.3,0.1-0.6,0.1c-0.2,0-0.5,0-0.9,0
		c-0.4,0-0.7,0-1,0c-0.2,0-0.4-0.1-0.6-0.1c-0.1-0.1-0.2-0.1-0.3-0.2c-0.1-0.1-0.1-0.2-0.2-0.4l-2.2-8.9h0l-2.1,8.9
		c0,0.2-0.1,0.3-0.2,0.4c-0.1,0.1-0.2,0.2-0.3,0.2c-0.1,0.1-0.3,0.1-0.6,0.1c-0.2,0-0.6,0-1,0c-0.4,0-0.8,0-1,0
		c-0.2,0-0.4-0.1-0.6-0.1c-0.1-0.1-0.2-0.1-0.3-0.2c-0.1-0.1-0.1-0.2-0.2-0.4l-3.2-12.2c-0.1-0.3-0.1-0.5-0.1-0.6s0-0.3,0.1-0.3
		c0.1-0.1,0.2-0.1,0.4-0.1c0.2,0,0.5,0,0.9,0c0.3,0,0.6,0,0.8,0c0.2,0,0.3,0,0.4,0.1s0.2,0.1,0.2,0.2c0,0.1,0.1,0.2,0.1,0.3
		l2.5,10.7h0l2.6-10.7c0-0.1,0.1-0.2,0.1-0.3c0-0.1,0.1-0.2,0.2-0.2c0.1,0,0.3-0.1,0.5-0.1c0.2,0,0.5,0,0.8,0c0.3,0,0.6,0,0.8,0
		s0.4,0,0.5,0.1s0.2,0.1,0.2,0.2c0.1,0.1,0.1,0.2,0.1,0.3l2.6,10.7h0l2.5-10.7c0-0.1,0-0.2,0.1-0.3c0-0.1,0.1-0.1,0.2-0.2
		c0.1,0,0.2-0.1,0.4-0.1c0.2,0,0.5,0,0.8,0c0.3,0,0.6,0,0.7,0c0.2,0,0.3,0.1,0.4,0.1c0.1,0.1,0.1,0.2,0.1,0.4s0,0.4-0.1,0.6
		L49.6,58.3z"/>
</g>
</g>
</svg>
