<svg width="156" height="156" viewBox="0 0 156 156" fill="none" xmlns="http://www.w3.org/2000/svg">
<path d="M155.7 142C103.9 142 51.9 142 0.100006 142C26 97.4 52 52.6 78 8C103.9 52.6 129.8 97.4 155.7 142ZM136.2 132.2C116.8 98.5 97.4 64.7 78 31C58.6 64.7 39.2 98.5 19.8 132.2C58.6 132.2 97.4 132.2 136.2 132.2Z" fill="#FF9900"/>
<path d="M76.6054 104.939L75.3265 73H82.2653L80.932 104.939H76.6054ZM79.0272 119C77.9206 119 76.9683 118.588 76.1701 117.765C75.39 116.961 75 115.997 75 114.874C75 113.733 75.39 112.76 76.1701 111.955C76.9683 111.151 77.9206 110.749 79.0272 110.749C80.0975 110.749 81.0227 111.151 81.8027 111.955C82.6009 112.741 83 113.714 83 114.874C83 116.016 82.6009 116.989 81.8027 117.793C81.0045 118.598 80.0794 119 79.0272 119Z" fill="#FF9900"/>
</svg>
