<?xml version="1.0" encoding="utf-8"?>
<!-- Generator: Adobe Illustrator 28.0.0, SVG Export Plug-In . SVG Version: 6.00 Build 0)  -->
<svg width="156px" height="156px" viewBox="0 0 156 156" version="1.1" id="Ebene_1" xmlns="http://www.w3.org/2000/svg" xmlns:xlink="http://www.w3.org/1999/xlink" x="0px" y="0px" style="enable-background:new 0 0 78.2 126.2;" xml:space="preserve">
<style type="text/css">
	.st0{fill:#FFFFFF;}
	.st1{fill-rule:evenodd;clip-rule:evenodd;fill:#0000FF;}
	.st2{fill:#0000FF;}
	.st3{enable-background:new    ;}
</style>
<g transform="translate(29.67,0.00) scale(1.236133)">
<g>
	<circle class="st0" cx="45.3" cy="32.9" r="30.1"/>
</g>
<g>
	<path class="st1" d="M0.4,113.7c0-6.7,5.6-12,12.5-12l0,0c6.9,0,12.5,5.4,12.5,12l0,0c0,6.7-5.6,12-12.5,12l0,0
		C6,125.8,0.4,120.4,0.4,113.7L0.4,113.7z"/>
</g>
<g>
	<path class="st2" d="M12.9,126.2c-7.1,0-12.9-5.6-12.9-12.4s5.8-12.4,12.9-12.4c7.1,0,12.9,5.6,12.9,12.4S20,126.2,12.9,126.2z
		 M12.9,102.1c-6.7,0-12.1,5.2-12.1,11.6s5.4,11.6,12.1,11.6c6.7,0,12.1-5.2,12.1-11.6S19.6,102.1,12.9,102.1z"/>
</g>
<g>
	<path class="st2" d="M44.2,65.7c-18.7,0-33.9-14.7-33.9-32.9S25.5,0,44.2,0c18.7,0,33.9,14.7,33.9,32.9S62.9,65.7,44.2,65.7z
		 M44.2,5.5c-15.7,0-28.4,12.3-28.4,27.4s12.8,27.4,28.4,27.4s28.4-12.3,28.4-27.4S59.9,5.5,44.2,5.5z"/>
</g>
<g class="st3">
	<path class="st2" d="M28.4,35.3v-2.8h7.2v6.6c-0.7,0.7-1.7,1.3-3,1.8c-1.3,0.5-2.7,0.8-4,0.8c-1.7,0-3.2-0.4-4.5-1.1
		c-1.3-0.7-2.3-1.8-2.9-3.1c-0.6-1.4-1-2.8-1-4.4c0-1.7,0.4-3.3,1.1-4.6c0.7-1.3,1.8-2.4,3.2-3.1c1.1-0.6,2.4-0.8,4-0.8
		c2.1,0,3.7,0.4,4.8,1.3c1.2,0.9,1.9,2.1,2.2,3.6l-3.3,0.6c-0.2-0.8-0.7-1.5-1.3-1.9c-0.6-0.5-1.4-0.7-2.4-0.7
		c-1.5,0-2.6,0.5-3.5,1.4s-1.3,2.3-1.3,4.1c0,2,0.4,3.4,1.3,4.4c0.9,1,2,1.5,3.4,1.5c0.7,0,1.4-0.1,2.1-0.4c0.7-0.3,1.3-0.6,1.8-1
		v-2.1H28.4z"/>
</g>
<g class="st3">
	<path class="st2" d="M38.7,41.4V24.8H50v2.8h-8v3.9H49v2.8H42v7H38.7z"/>
	<path class="st2" d="M52.1,33.2c0-1.7,0.3-3.1,0.8-4.2c0.4-0.8,0.9-1.6,1.5-2.3c0.7-0.7,1.4-1.2,2.1-1.5c1-0.4,2.2-0.7,3.6-0.7
		c2.4,0,4.4,0.8,5.9,2.3c1.5,1.5,2.2,3.6,2.2,6.3c0,2.7-0.7,4.8-2.2,6.3c-1.5,1.5-3.4,2.3-5.8,2.3c-2.5,0-4.4-0.8-5.9-2.3
		C52.9,37.9,52.1,35.9,52.1,33.2z M55.6,33.1c0,1.9,0.4,3.3,1.3,4.3c0.9,1,2,1.5,3.3,1.5s2.4-0.5,3.3-1.4s1.3-2.4,1.3-4.3
		c0-1.9-0.4-3.3-1.2-4.3c-0.8-0.9-1.9-1.4-3.3-1.4s-2.5,0.5-3.3,1.4C56,29.8,55.6,31.2,55.6,33.1z"/>
</g>
<g>
	<rect x="10.3" y="32.9" class="st2" width="5.5" height="75.2"/>
</g>
</g>
</svg>
