<?xml version="1.0" encoding="utf-8"?>
<!-- Generator: Adobe Illustrator 28.0.0, SVG Export Plug-In . SVG Version: 6.00 Build 0)  -->
<svg width="156px" height="156px" viewBox="0 0 156 156" version="1.1" id="Ebene_1" xmlns="http://www.w3.org/2000/svg" xmlns:xlink="http://www.w3.org/1999/xlink" x="0px" y="0px" style="enable-background:new 0 0 84.3 106.1;" xml:space="preserve">
<style type="text/css">
	.st0{fill:#0000FF;}
	.st1{fill:#FFFFFF;}
</style>
<g transform="translate(16.03,0.00) scale(1.470311)">
<g>
	<circle class="st0" cx="23.8" cy="11.1" r="9.2"/>
	<path class="st0" d="M23.8,22.1c-6.1,0-11-5-11-11.1c0-6.1,5-11,11-11s11,5,11,11C34.8,17.1,29.8,22.1,23.8,22.1z M23.8,3.7
		c-4,0-7.3,3.3-7.3,7.3c0,4,3.3,7.3,7.3,7.3s7.3-3.3,7.3-7.3C31.1,7,27.8,3.7,23.8,3.7z"/>
</g>
<g>
	<circle class="st0" cx="57.7" cy="11.1" r="9.2"/>
	<path class="st0" d="M57.7,22.1c-6.1,0-11-5-11-11.1c0-6.1,5-11,11-11s11.1,5,11.1,11C68.8,17.1,63.8,22.1,57.7,22.1z M57.7,3.7
		c-4,0-7.3,3.3-7.3,7.3c0,4,3.3,7.3,7.3,7.3c4,0,7.3-3.3,7.3-7.3C65,7,61.8,3.7,57.7,3.7z"/>
</g>
<g>
	<path class="st1" d="M4.6,64.1c0-20.6,16.8-37.3,37.5-37.3l0,0c20.7,0,37.5,16.7,37.5,37.3l0,0c0,20.6-16.8,37.3-37.5,37.3l0,0l0,0
		C21.4,101.4,4.6,84.7,4.6,64.1C4.6,64.1,4.6,64.1,4.6,64.1z"/>
	<path class="st0" d="M42.1,106C18.9,106,0,87.2,0,64.1C0,41,18.9,22.1,42.1,22.1S84.3,41,84.3,64.1C84.3,87.2,65.4,106,42.1,106z
		 M42.1,31.4C24,31.4,9.3,46.1,9.3,64.1S24,96.8,42.1,96.8C60.3,96.8,75,82.1,75,64.1S60.3,31.4,42.1,31.4z"/>
</g>
</g>
</svg>
