<?xml version="1.0" encoding="utf-8"?>
<!-- Generator: Adobe Illustrator 28.0.0, SVG Export Plug-In . SVG Version: 6.00 Build 0)  -->
<svg width="156px" height="156px" viewBox="0 0 156 156" version="1.1" id="Ebene_1" xmlns="http://www.w3.org/2000/svg" xmlns:xlink="http://www.w3.org/1999/xlink" x="0px" y="0px" style="enable-background:new 0 0 84.2 171.3;" xml:space="preserve">
<style type="text/css">
	.st0{fill:#FFFFFF;}
	.st1{fill:#0000FF;}
</style>
<g transform="translate(39.66,0.00) scale(0.910683)">
<g>
	<path class="st0" d="M4.6,129.2c0-20.6,16.8-37.4,37.5-37.4l0,0c20.7,0,37.5,16.7,37.5,37.4l0,0c0,20.6-16.8,37.4-37.5,37.4l0,0
		C21.4,166.6,4.6,149.9,4.6,129.2C4.6,129.2,4.6,129.2,4.6,129.2z"/>
	<path class="st1" d="M42.1,171.3c-23.2,0-42.1-18.8-42.1-42s18.9-42,42.1-42c23.2,0,42.1,18.8,42.1,42S65.3,171.3,42.1,171.3z
		 M42.1,96.5c-18.1,0-32.9,14.7-32.9,32.8S24,162,42.1,162c18.1,0,32.9-14.7,32.9-32.8S60.2,96.5,42.1,96.5z"/>
</g>
<g>
	
		<rect x="-4.8" y="41.2" transform="matrix(2.112795e-03 -1 1 2.112795e-03 -4.9205 85.8885)" class="st1" width="90.7" height="8.3"/>
</g>
<g>
	<rect x="36.5" class="st1" width="32.1" height="8.3"/>
</g>
</g>
</svg>
