<?xml version="1.0" encoding="utf-8"?>
<!-- Generator: Adobe Illustrator 28.0.0, SVG Export Plug-In . SVG Version: 6.00 Build 0)  -->
<svg width="156px" height="156px" viewBox="0 0 156 156" version="1.1" id="Ebene_1" xmlns="http://www.w3.org/2000/svg" xmlns:xlink="http://www.w3.org/1999/xlink" x="0px" y="0px" style="enable-background:new 0 0 84.3 106.1;" xml:space="preserve">
<style type="text/css">
	.st0{fill:#0000FF;}
	.st1{fill:#FFFFFF;}
	.st2{enable-background:new    ;}
	.st3{fill:none;stroke:#0000FF;stroke-width:1.85;stroke-miterlimit:10;}
</style>
<g transform="translate(16.03,0.00) scale(1.470311)">
<g>
	<path class="st0" d="M32.9,11.1c0,5.1-4.1,9.2-9.2,9.2c-12.2-0.5-12.2-17.9,0-18.4C28.8,1.9,32.9,6,32.9,11.1z"/>
	<path class="st0" d="M23.8,22.1c-7.6-0.3-11-5.9-11-11.1c0-5.1,3.4-10.8,10.9-11c0,0,0,0,0,0c6.2,0,11.1,5,11.1,11
		C34.8,17.1,29.8,22.1,23.8,22.1z M23.8,3.7c-5,0.2-7.3,3.8-7.3,7.3c0,3.5,2.3,7.1,7.4,7.3c4,0,7.3-3.3,7.3-7.3
		C31.1,7,27.8,3.7,23.8,3.7z"/>
</g>
<g>
	<path class="st0" d="M66.9,11.1c0,5.1-4.1,9.2-9.2,9.2c-12.2-0.5-12.2-17.9,0-18.4C62.8,1.9,66.9,6,66.9,11.1z"/>
	<path class="st0" d="M57.7,22.1c-7.6-0.3-11-5.9-11-11.1c0-5.1,3.4-10.8,10.9-11c0,0,0,0,0,0c6.2,0,11.1,5,11.1,11
		C68.8,17.1,63.8,22.1,57.7,22.1z M57.7,3.7c-5,0.2-7.3,3.8-7.3,7.3s2.3,7.1,7.4,7.3c4,0,7.3-3.3,7.3-7.3C65,7,61.8,3.7,57.7,3.7z"
		/>
</g>
<g>
	<path class="st1" d="M4.6,64.1c0-20.6,16.8-37.3,37.5-37.3l0,0c20.7,0,37.5,16.7,37.5,37.3l0,0c0,20.6-16.8,37.3-37.5,37.3l0,0l0,0
		C21.4,101.4,4.6,84.7,4.6,64.1C4.6,64.1,4.6,64.1,4.6,64.1z"/>
	<path class="st0" d="M42.1,106C18.9,106,0,87.2,0,64.1C0,41,18.9,22.1,42.1,22.1S84.3,41,84.3,64.1C84.3,87.2,65.4,106,42.1,106z
		 M42.1,31.4C24,31.4,9.3,46.1,9.3,64.1S24,96.8,42.1,96.8C60.3,96.8,75,82.1,75,64.1S60.3,31.4,42.1,31.4z"/>
</g>
<g class="st2">
	<path class="st0" d="M29.1,83V45.2h14.3c2.5,0,4.4,0.1,5.8,0.4c1.9,0.3,3.4,0.9,4.7,1.8c1.3,0.9,2.3,2.1,3,3.6
		c0.8,1.6,1.1,3.3,1.1,5.2c0,3.2-1,5.9-3.1,8.2s-5.7,3.3-11.1,3.3h-9.7V83H29.1z M34.1,63.2h9.8c3.2,0,5.5-0.6,6.9-1.8
		c1.4-1.2,2-2.9,2-5.1c0-1.6-0.4-2.9-1.2-4.1c-0.8-1.1-1.9-1.9-3.2-2.2c-0.8-0.2-2.4-0.3-4.7-0.3h-9.7V63.2z"/>
</g>
<g class="st2">
	<path class="st3" d="M29.1,83V45.2h14.3c2.5,0,4.4,0.1,5.8,0.4c1.9,0.3,3.4,0.9,4.7,1.8c1.3,0.9,2.3,2.1,3,3.6
		c0.8,1.6,1.1,3.3,1.1,5.2c0,3.2-1,5.9-3.1,8.2s-5.7,3.3-11.1,3.3h-9.7V83H29.1z M34.1,63.2h9.8c3.2,0,5.5-0.6,6.9-1.8
		c1.4-1.2,2-2.9,2-5.1c0-1.6-0.4-2.9-1.2-4.1c-0.8-1.1-1.9-1.9-3.2-2.2c-0.8-0.2-2.4-0.3-4.7-0.3h-9.7V63.2z"/>
</g>
</g>
</svg>
