<?xml version="1.0" encoding="utf-8"?>
<!-- Generator: Adobe Illustrator 28.0.0, SVG Export Plug-In . SVG Version: 6.00 Build 0)  -->
<svg width="156px" height="156px" viewBox="0 0 156 156" version="1.1" id="Ebene_1" xmlns="http://www.w3.org/2000/svg" xmlns:xlink="http://www.w3.org/1999/xlink" x="0px" y="0px" style="enable-background:new 0 0 84.2 171.3;" xml:space="preserve">
<style type="text/css">
	.st0{fill:#FFFFFF;}
	.st1{fill:#0000FF;}
	.st2{enable-background:new    ;}
	.st3{fill:none;stroke:#0000FF;stroke-width:1.85;stroke-miterlimit:10;}
</style>
<g transform="translate(39.66,0.00) scale(0.910683)">
<g>
	<path class="st0" d="M4.6,129.2c0-20.6,16.8-37.4,37.5-37.4l0,0c20.7,0,37.5,16.7,37.5,37.4l0,0c0,20.6-16.8,37.4-37.5,37.4l0,0
		C21.4,166.6,4.6,149.9,4.6,129.2C4.6,129.2,4.6,129.2,4.6,129.2z"/>
	<path class="st1" d="M42.1,171.3c-23.2,0-42.1-18.8-42.1-42s18.9-42,42.1-42c23.2,0,42.1,18.8,42.1,42S65.3,171.3,42.1,171.3z
		 M42.1,96.5c-18.1,0-32.9,14.7-32.9,32.8S24,162,42.1,162c18.1,0,32.9-14.7,32.9-32.8S60.2,96.5,42.1,96.5z"/>
</g>
<g>
	
		<rect x="-4.8" y="41.2" transform="matrix(2.112795e-03 -1 1 2.112795e-03 -4.9205 85.8885)" class="st1" width="90.7" height="8.3"/>
</g>
<g>
	<rect x="36.5" class="st1" width="32.1" height="8.3"/>
</g>
<g class="st2">
	<path class="st1" d="M18.8,140.5V118h15.4v3.8H23.4v5.3h9.4v3.8h-9.4v9.6H18.8z"/>
	<path class="st1" d="M44.3,140.5L39,118h4.7l3.4,15.5l4.1-15.5h5.4l3.9,15.7l3.5-15.7h4.6l-5.5,22.5h-4.8l-4.5-16.8l-4.5,16.8H44.3
		z"/>
</g>
<g class="st2">
	<path class="st3" d="M18.8,140.5V118h15.4v3.8H23.4v5.3h9.4v3.8h-9.4v9.6H18.8z"/>
	<path class="st3" d="M44.3,140.5L39,118h4.7l3.4,15.5l4.1-15.5h5.4l3.9,15.7l3.5-15.7h4.6l-5.5,22.5h-4.8l-4.5-16.8l-4.5,16.8H44.3
		z"/>
</g>
</g>
</svg>
