<?xml version="1.0" encoding="utf-8"?>
<!-- Generator: Adobe Illustrator 28.0.0, SVG Export Plug-In . SVG Version: 6.00 Build 0)  -->
<svg width="156px" height="156px" viewBox="0 0 156 156" version="1.1" id="Ebene_1" xmlns="http://www.w3.org/2000/svg" xmlns:xlink="http://www.w3.org/1999/xlink" x="0px" y="0px" style="enable-background:new 0 0 84.3 106.1;" xml:space="preserve">
<style type="text/css">
	.st0{fill:#0000FF;}
	.st1{fill:#FFFFFF;}
	.st2{enable-background:new    ;}
	.st3{fill:none;stroke:#0000FF;stroke-width:0.93;stroke-miterlimit:10;}
</style>
<g transform="translate(16.03,0.00) scale(1.470311)">
<g>
	<circle class="st0" cx="23.8" cy="11.1" r="9.2"/>
	<path class="st0" d="M23.8,22.1c-6.1,0-11-5-11-11.1c0-6.1,5-11,11-11s11,5,11,11C34.8,17.1,29.8,22.1,23.8,22.1z M23.8,3.7
		c-4,0-7.3,3.3-7.3,7.3c0,4,3.3,7.3,7.3,7.3s7.3-3.3,7.3-7.3C31.1,7,27.8,3.7,23.8,3.7z"/>
</g>
<g>
	<circle class="st0" cx="57.7" cy="11.1" r="9.2"/>
	<path class="st0" d="M57.7,22.1c-6.1,0-11-5-11-11.1c0-6.1,5-11,11-11s11.1,5,11.1,11C68.8,17.1,63.8,22.1,57.7,22.1z M57.7,3.7
		c-4,0-7.3,3.3-7.3,7.3c0,4,3.3,7.3,7.3,7.3c4,0,7.3-3.3,7.3-7.3C65,7,61.8,3.7,57.7,3.7z"/>
</g>
<g>
	<path class="st1" d="M4.6,64.1c0-20.6,16.8-37.3,37.5-37.3l0,0c20.7,0,37.5,16.7,37.5,37.3l0,0c0,20.6-16.8,37.3-37.5,37.3l0,0l0,0
		C21.4,101.4,4.6,84.7,4.6,64.1C4.6,64.1,4.6,64.1,4.6,64.1z"/>
	<path class="st0" d="M42.1,106C18.9,106,0,87.2,0,64.1C0,41,18.9,22.1,42.1,22.1S84.3,41,84.3,64.1C84.3,87.2,65.4,106,42.1,106z
		 M42.1,31.4C24,31.4,9.3,46.1,9.3,64.1S24,96.8,42.1,96.8C60.3,96.8,75,82.1,75,64.1S60.3,31.4,42.1,31.4z"/>
</g>
<g class="st2">
	<path class="st0" d="M19.2,67.3l2.2-0.2c0.1,0.9,0.4,1.6,0.7,2.2s1,1,1.8,1.4c0.8,0.4,1.7,0.5,2.7,0.5c0.9,0,1.7-0.1,2.4-0.4
		c0.7-0.3,1.2-0.6,1.5-1.1c0.3-0.5,0.5-1,0.5-1.5c0-0.6-0.2-1.1-0.5-1.5c-0.3-0.4-0.9-0.8-1.6-1.1c-0.5-0.2-1.5-0.5-3.2-0.9
		c-1.6-0.4-2.8-0.8-3.5-1.1c-0.9-0.4-1.5-1-1.9-1.7c-0.4-0.7-0.6-1.4-0.6-2.2c0-0.9,0.3-1.7,0.8-2.5c0.5-0.8,1.3-1.4,2.2-1.8
		c1-0.4,2.1-0.6,3.3-0.6c1.3,0,2.5,0.2,3.5,0.6c1,0.4,1.8,1.1,2.3,1.9c0.5,0.8,0.8,1.8,0.9,2.8l-2.3,0.2c-0.1-1.1-0.5-2-1.2-2.6
		s-1.7-0.9-3.1-0.9c-1.4,0-2.5,0.3-3.1,0.8c-0.7,0.5-1,1.2-1,1.9c0,0.6,0.2,1.2,0.7,1.6c0.5,0.4,1.6,0.8,3.6,1.3
		c1.9,0.4,3.2,0.8,4,1.1c1,0.5,1.8,1.1,2.3,1.8c0.5,0.7,0.7,1.6,0.7,2.5c0,1-0.3,1.8-0.8,2.7c-0.5,0.8-1.3,1.5-2.4,2
		c-1,0.5-2.2,0.7-3.4,0.7c-1.6,0-3-0.2-4.1-0.7c-1.1-0.5-2-1.2-2.6-2.1S19.2,68.5,19.2,67.3z"/>
	<path class="st0" d="M46.6,71.5c-0.8,0.7-1.6,1.2-2.4,1.5c-0.8,0.3-1.6,0.4-2.4,0.4c-1.4,0-2.5-0.3-3.3-1s-1.1-1.6-1.1-2.7
		c0-0.6,0.1-1.2,0.4-1.7c0.3-0.5,0.7-0.9,1.1-1.3c0.5-0.3,1-0.6,1.6-0.7c0.4-0.1,1.1-0.2,2-0.3c1.8-0.2,3.1-0.5,3.9-0.8
		c0-0.3,0-0.5,0-0.6c0-0.9-0.2-1.5-0.6-1.9c-0.6-0.5-1.4-0.7-2.5-0.7c-1,0-1.8,0.2-2.3,0.5c-0.5,0.4-0.9,1-1.1,1.9l-2.1-0.3
		c0.2-0.9,0.5-1.7,1-2.2c0.4-0.6,1.1-1,1.9-1.3c0.8-0.3,1.8-0.5,2.9-0.5c1.1,0,2,0.1,2.7,0.4c0.7,0.3,1.2,0.6,1.5,1
		c0.3,0.4,0.6,0.9,0.7,1.5c0.1,0.4,0.1,1.1,0.1,2v2.9c0,2,0,3.3,0.1,3.9c0.1,0.5,0.3,1.1,0.6,1.6H47C46.8,72.6,46.6,72.1,46.6,71.5z
		 M46.4,66.5c-0.8,0.3-2,0.6-3.6,0.8c-0.9,0.1-1.5,0.3-1.9,0.4c-0.4,0.2-0.7,0.4-0.9,0.7s-0.3,0.7-0.3,1c0,0.6,0.2,1.1,0.7,1.5
		s1.1,0.6,1.9,0.6c0.8,0,1.6-0.2,2.3-0.6s1.1-0.9,1.5-1.5c0.2-0.5,0.4-1.2,0.4-2.2V66.5z"/>
	<path class="st0" d="M53.8,73v-13h2v1.8c1-1.4,2.3-2.1,4.1-2.1c0.8,0,1.5,0.1,2.2,0.4s1.1,0.6,1.5,1.1c0.3,0.5,0.6,1,0.7,1.6
		c0.1,0.4,0.1,1.1,0.1,2.1v8h-2.2v-7.9c0-0.9-0.1-1.6-0.3-2c-0.2-0.4-0.5-0.8-0.9-1.1s-0.9-0.4-1.5-0.4c-0.9,0-1.7,0.3-2.4,0.9
		c-0.7,0.6-1,1.7-1,3.4V73H53.8z"/>
</g>
<g class="st2">
	<path class="st3" d="M19.2,67.3l2.2-0.2c0.1,0.9,0.4,1.6,0.7,2.2s1,1,1.8,1.4c0.8,0.4,1.7,0.5,2.7,0.5c0.9,0,1.7-0.1,2.4-0.4
		c0.7-0.3,1.2-0.6,1.5-1.1c0.3-0.5,0.5-1,0.5-1.5c0-0.6-0.2-1.1-0.5-1.5c-0.3-0.4-0.9-0.8-1.6-1.1c-0.5-0.2-1.5-0.5-3.2-0.9
		c-1.6-0.4-2.8-0.8-3.5-1.1c-0.9-0.4-1.5-1-1.9-1.7c-0.4-0.7-0.6-1.4-0.6-2.2c0-0.9,0.3-1.7,0.8-2.5c0.5-0.8,1.3-1.4,2.2-1.8
		c1-0.4,2.1-0.6,3.3-0.6c1.3,0,2.5,0.2,3.5,0.6c1,0.4,1.8,1.1,2.3,1.9c0.5,0.8,0.8,1.8,0.9,2.8l-2.3,0.2c-0.1-1.1-0.5-2-1.2-2.6
		s-1.7-0.9-3.1-0.9c-1.4,0-2.5,0.3-3.1,0.8c-0.7,0.5-1,1.2-1,1.9c0,0.6,0.2,1.2,0.7,1.6c0.5,0.4,1.6,0.8,3.6,1.3
		c1.9,0.4,3.2,0.8,4,1.1c1,0.5,1.8,1.1,2.3,1.8c0.5,0.7,0.7,1.6,0.7,2.5c0,1-0.3,1.8-0.8,2.7c-0.5,0.8-1.3,1.5-2.4,2
		c-1,0.5-2.2,0.7-3.4,0.7c-1.6,0-3-0.2-4.1-0.7c-1.1-0.5-2-1.2-2.6-2.1S19.2,68.5,19.2,67.3z"/>
	<path class="st3" d="M46.6,71.5c-0.8,0.7-1.6,1.2-2.4,1.5c-0.8,0.3-1.6,0.4-2.4,0.4c-1.4,0-2.5-0.3-3.3-1s-1.1-1.6-1.1-2.7
		c0-0.6,0.1-1.2,0.4-1.7c0.3-0.5,0.7-0.9,1.1-1.3c0.5-0.3,1-0.6,1.6-0.7c0.4-0.1,1.1-0.2,2-0.3c1.8-0.2,3.1-0.5,3.9-0.8
		c0-0.3,0-0.5,0-0.6c0-0.9-0.2-1.5-0.6-1.9c-0.6-0.5-1.4-0.7-2.5-0.7c-1,0-1.8,0.2-2.3,0.5c-0.5,0.4-0.9,1-1.1,1.9l-2.1-0.3
		c0.2-0.9,0.5-1.7,1-2.2c0.4-0.6,1.1-1,1.9-1.3c0.8-0.3,1.8-0.5,2.9-0.5c1.1,0,2,0.1,2.7,0.4c0.7,0.3,1.2,0.6,1.5,1
		c0.3,0.4,0.6,0.9,0.7,1.5c0.1,0.4,0.1,1.1,0.1,2v2.9c0,2,0,3.3,0.1,3.9c0.1,0.5,0.3,1.1,0.6,1.6H47C46.8,72.6,46.6,72.1,46.6,71.5z
		 M46.4,66.5c-0.8,0.3-2,0.6-3.6,0.8c-0.9,0.1-1.5,0.3-1.9,0.4c-0.4,0.2-0.7,0.4-0.9,0.7s-0.3,0.7-0.3,1c0,0.6,0.2,1.1,0.7,1.5
		s1.1,0.6,1.9,0.6c0.8,0,1.6-0.2,2.3-0.6s1.1-0.9,1.5-1.5c0.2-0.5,0.4-1.2,0.4-2.2V66.5z"/>
	<path class="st3" d="M53.8,73v-13h2v1.8c1-1.4,2.3-2.1,4.1-2.1c0.8,0,1.5,0.1,2.2,0.4s1.1,0.6,1.5,1.1c0.3,0.5,0.6,1,0.7,1.6
		c0.1,0.4,0.1,1.1,0.1,2.1v8h-2.2v-7.9c0-0.9-0.1-1.6-0.3-2c-0.2-0.4-0.5-0.8-0.9-1.1s-0.9-0.4-1.5-0.4c-0.9,0-1.7,0.3-2.4,0.9
		c-0.7,0.6-1,1.7-1,3.4V73H53.8z"/>
</g>
</g>
</svg>
