<?xml version="1.0" encoding="utf-8"?>
<!-- Generator: Adobe Illustrator 28.0.0, SVG Export Plug-In . SVG Version: 6.00 Build 0)  -->
<svg width="156px" height="156px" viewBox="0 0 156 156" version="1.1" id="Calque_1" xmlns="http://www.w3.org/2000/svg" xmlns:xlink="http://www.w3.org/1999/xlink" x="0px" y="0px" style="enable-background:new 0 0 150 80.2;" xml:space="preserve">
<style type="text/css">
	.st0{fill:#FFFFFF;}
	.st1{fill:#0000FF;}
</style>
<g transform="translate(0.00,36.30) scale(1.040000)">
<g>
	<polygon class="st0" points="147.4,2.6 147.4,77.6 2.6,77.6 2.6,2.6 147.4,2.6 	"/>
	<path class="st1" d="M150,80.2H0V0h150V80.2z M5.2,75h139.5V5.2H5.2V75z"/>
</g>
<g>
	<rect x="100.2" y="2.6" class="st1" width="5.1" height="75"/>
</g>
<g>
	<rect x="95.8" y="56.3" transform="matrix(0.766 -0.6429 0.6429 0.766 -8.5849 94.1076)" class="st1" width="58.4" height="5.1"/>
</g>
<g>
	
		<rect x="122.6" y="-7.7" transform="matrix(0.6428 -0.766 0.766 0.6428 28.3532 103.5287)" class="st1" width="5.1" height="58.1"/>
</g>
<g>
	<path class="st1" d="M3.6,79.3L1,74.9l52.3-30.2c-4.2-1.1-8.4-2.1-12.5-3.2c-6.3-1.6-12.9-3.2-19.3-4.9l1.3-5
		c6.4,1.7,12.9,3.3,19.2,4.9c6.1,1.5,12.4,3.1,18.6,4.8l6,1.6L3.6,79.3z"/>
</g>
</g>
</svg>
