<?xml version="1.0" encoding="utf-8"?>
<!-- Generator: Adobe Illustrator 28.0.0, SVG Export Plug-In . SVG Version: 6.00 Build 0)  -->
<svg width="156px" height="156px" viewBox="0 0 156 156" version="1.1" id="Ebene_1" xmlns="http://www.w3.org/2000/svg" xmlns:xlink="http://www.w3.org/1999/xlink" x="0px" y="0px" style="enable-background:new 0 0 78.1 78.1;" xml:space="preserve">
<style type="text/css">
	.st0{fill:#FFFFFF;}
	.st1{fill-rule:evenodd;clip-rule:evenodd;fill:#FF0000;}
	.st2{fill:#FF0000;}
</style>
<g transform="translate(0.00,0.00) scale(1.997439)">
<g>
	<rect x="1.8" y="2.2" class="st0" width="74.1" height="73.7"/>
</g>
<g>
	<path class="st1" d="M72.2,62.1c-0.2-0.2-0.4-0.4-0.6-0.5c-9.8-10.2-16.2-27.6-16.2-42.4c0-2.4,0.2-4.7,0.5-6.8
		c0.1-0.5,0.2-1.1,0.3-1.6l-4.6,0.1h-6.5c0,0.6,0,1.2,0,1.9c0,8.2-1.2,18.1-3.3,27c0,0,0,0.1,0,0.1c-0.1,0.4-0.2,0.8-0.4,1.1
		c-0.7,1.8-1.5,2.7-2.3,2.7c-1.2,0-2.3-1.9-3.1-5.4v0.1c-0.5-2.3-0.9-4.7-1.3-7c-1.1-7-1.7-14-1.8-20.3c0,0,0,0,0,0v0l-5.6,0
		l-4.7-0.1h0c0,0,0,0.1,0,0.1c0.5,2.4,0.8,5.1,0.8,7.9c0,12.6-5.2,28.4-13.3,38.7c-1.2,1.5-2.4,2.9-3.7,4.1h0l-1.7,1.5
		c1.3,1.3,2.4,2.8,3.7,4.1l0.2-0.2L8.7,67l2.5-3.1c3.3-3.5,7.8-6.4,13-8.3c4.8-1.7,9.9-2.5,14.8-2.5c9,0,17.8,2.7,24.2,7.5
		c0,0,0,0,0,0c2.5,1.9,4.6,4.1,6.3,6.6V67c1.3-1.2,2.4-2.6,3.8-3.8C72.9,62.8,72.5,62.5,72.2,62.1L72.2,62.1z M53.7,12.2v0.2h-0.2
		C53.6,12.3,53.7,12.2,53.7,12.2z"/>
</g>
<g>
	<path class="st2" d="M78.1,78.1H0V0h78.1V78.1z M3.1,75H75V3.1H3.1V75z"/>
</g>
</g>
</svg>
