<?xml version="1.0" encoding="utf-8"?>
<!-- Generator: Adobe Illustrator 28.0.0, SVG Export Plug-In . SVG Version: 6.00 Build 0)  -->
<svg width="156px" height="156px" viewBox="0 0 156 156" version="1.1" id="Ebene_1" xmlns="http://www.w3.org/2000/svg" xmlns:xlink="http://www.w3.org/1999/xlink" x="0px" y="0px" style="enable-background:new 0 0 75 75;" xml:space="preserve">
<style type="text/css">
	.st0{fill:#FFFFFF;}
	.st1{fill:#FF0000;}
	.st2{fill-rule:evenodd;clip-rule:evenodd;fill:#FF0000;}
</style>
<g transform="translate(0.00,0.00) scale(2.080000)">
<rect class="st0" width="75" height="75"/>
<path class="st1" d="M36.1,37.2c-3.8,4.9-12.9,2.9-13.1-3.5c0.7-1.9,0.2-3.9,2.1-5.6c1.3-0.1,6.4-5.4,6.7-1.7
	c-1.9,0.6-7.5,5-6.5,4.2c-0.6,5-0.7,5.2,2.9,7.3C32.5,40.3,34.1,33.6,36.1,37.2z"/>
<path class="st1" d="M0.1,0.2H75v74.6H0.1V0.2L0.1,0.2z M3,73.4l-1.5-1.4h72l-1.4,1.4V1.6l1.4,1.4h-72L3,1.6V73.4
	C3,73.4,3,73.4,3,73.4z"/>
<path class="st1" d="M16.4,57c8.2,4.6,1,16.1-7,11.7C1.2,63.8,7.9,52,16.4,57z M15.1,58.6c-3.6-1.9-7.4,0.3-7.4,3.9v0.3
	c0.1,3.4,4.4,6.2,7.7,4.3C18.6,65.3,19.2,60.6,15.1,58.6L15.1,58.6z"/>
<polygon class="st1" points="59.6,6.6 59.9,6.4 60.2,6.2 60.5,6.1 60.8,6 61.2,5.9 61.5,5.8 61.8,5.8 62.1,5.7 62.4,5.7 62.8,5.7 
	63.1,5.7 63.4,5.7 63.7,5.8 64,5.8 64.3,5.9 64.6,6 64.9,6.1 65.2,6.3 65.5,6.4 65.8,6.6 66.1,6.8 66.3,6.9 66.6,7.2 66.9,7.4 
	67.1,7.6 67.3,7.9 67.6,8.1 67.8,8.4 68,8.7 68.2,9 68.4,9.3 68.5,9.6 68.5,9.6 68.7,9.9 68.8,10.2 69,10.5 69.1,10.8 69.2,11.1 
	69.3,11.4 69.3,11.8 69.4,12.1 69.4,12.4 69.4,12.7 69.4,13 69.4,13.4 69.3,13.7 69.3,14 69.2,14.3 69.2,14.6 69.1,14.9 68.9,15.2 
	68.8,15.4 68.7,15.7 68.5,16 68.4,16.3 68.2,16.5 68,16.8 67.8,17 67.6,17.3 67.3,17.5 67.1,17.7 66.8,17.9 66.6,18.1 66.3,18.3 
	66,18.5 65,16.8 65.2,16.6 65.2,16.7 65.4,16.5 65.4,16.5 65.6,16.4 65.6,16.4 65.8,16.2 65.8,16.2 66,16 65.9,16.1 66.1,15.9 
	66.1,15.9 66.3,15.7 66.3,15.8 66.4,15.5 66.4,15.6 66.6,15.4 66.5,15.4 66.7,15.2 66.7,15.2 66.8,15 66.8,15 66.9,14.8 66.9,14.8 
	67,14.6 67,14.6 67.1,14.4 67.1,14.4 67.2,14.2 67.2,14.2 67.2,14 67.2,14 67.3,13.8 67.3,13.8 67.3,13.6 67.3,13.6 67.4,13.4 
	67.4,13.4 67.4,13.1 67.4,13.2 67.4,12.9 67.4,13 67.4,12.7 67.4,12.8 67.4,12.5 67.4,12.6 67.4,12.3 67.4,12.4 67.3,12.1 
	67.4,12.1 67.3,11.9 67.3,11.9 67.2,11.6 67.3,11.7 67.2,11.4 67.2,11.5 67.1,11.2 67.1,11.3 67,11 67,11.1 66.9,10.8 66.9,10.9 
	66.8,10.6 66.6,10.3 66.6,10.3 66.5,10 66.5,10.1 66.3,9.8 66.3,9.8 66.2,9.6 66.2,9.6 66,9.4 66,9.4 65.8,9.2 65.9,9.2 65.7,9 
	65.7,9 65.5,8.8 65.5,8.9 65.3,8.7 65.3,8.7 65.1,8.5 65.2,8.6 64.9,8.4 65,8.4 64.7,8.3 64.8,8.3 64.5,8.1 64.6,8.2 64.3,8.1 
	64.4,8.1 64.1,8 64.2,8 63.9,7.9 64,7.9 63.7,7.8 63.8,7.8 63.5,7.8 63.6,7.8 63.3,7.7 63.4,7.7 63.1,7.7 63.2,7.7 62.9,7.7 63,7.7 
	62.7,7.7 62.8,7.7 62.5,7.7 62.5,7.7 62.3,7.7 62.3,7.7 62.1,7.7 62.1,7.7 61.9,7.8 61.9,7.8 61.7,7.8 61.7,7.8 61.5,7.9 61.5,7.9 
	61.2,8 61.3,7.9 61,8.1 61.1,8.1 60.8,8.2 60.9,8.1 60.6,8.3 59.6,6.6 "/>
<polygon class="st1" points="6.3,59.8 15.4,41.7 21,40.4 23.1,43.3 22.3,42.9 25.6,42.9 28.4,47.2 19.2,65.9 17.5,65 26.4,46.8 
	26.4,47.8 24.2,44.4 25,44.9 21.8,44.9 19.8,42.2 20.8,42.5 16.4,43.6 17,43 8.1,60.7 6.3,59.8 "/>
<polygon class="st1" points="61.2,8 31.9,26.4 32.3,25.1 32.4,25.5 31.7,24.9 33.5,25.2 33.3,25.2 46.1,24.1 37.3,29.8 37.7,28.5 
	38.8,31 38.8,31.3 38.8,31.5 38.8,31.6 38.8,31.7 38.8,31.9 38.8,32 38.8,32 38.8,32.1 38.8,32.4 38.8,32.6 38.8,32.8 38.7,33.1 
	38.6,33.3 38.5,33.6 38.5,33.6 38.4,33.9 38.4,33.8 38.3,34.1 38.3,34 38.3,34.2 38.3,34.2 38.3,34.3 38.3,34.2 38.3,34.4 
	38.2,34.6 38.1,34.8 38,35 37.9,35.1 37.8,35.3 37.6,35.5 37.5,35.7 37.3,35.9 37.1,36.1 37,36.3 37,36.3 36.8,36.5 36.8,36.5 
	36.7,36.6 36.7,36.6 36.6,36.8 36.6,36.8 36.5,36.9 36.5,36.9 36.4,37 36.4,37 36.3,37.1 36.4,37 36.4,37.1 36.4,37 36.4,37 
	34.9,35.9 65.2,16.6 66.3,18.3 33.5,39.1 34.5,36.3 34.6,36.1 34.7,35.9 34.8,35.8 35,35.6 35.1,35.4 35.3,35.2 35.4,35 35.6,34.8 
	35.8,34.6 35.8,34.6 35.9,34.4 35.9,34.4 36,34.3 36,34.3 36.2,34.1 36.2,34.1 36.3,34 36.2,34 36.3,33.9 36.3,33.9 36.4,33.8 
	36.3,33.9 36.4,33.8 36.3,33.9 36.4,33.8 36.3,34.1 36.3,34 36.3,33.8 36.4,33.5 36.5,33.2 36.6,32.9 36.7,32.7 36.7,32.7 
	36.8,32.5 36.8,32.5 36.8,32.3 36.8,32.4 36.8,32.3 36.8,32.3 36.8,32.2 36.8,32.4 36.8,32.2 36.8,32.1 36.8,32 36.8,31.8 
	36.8,31.7 36.8,31.6 36.8,31.6 36.8,31.4 36.8,31.3 36.8,31.6 35.5,28.5 41.7,24.6 42.3,26.4 33.3,27.2 30.8,26.8 30.1,25.2 
	60.1,6.3 61.2,8 "/>
<path class="st2" d="M32.2,41.1c5.9,6.6-0.3,14.7,0.5,21.7c2.5,8.7,15.3,8.1,22.4,6c16.9-0.7,10.1-22.5-4.6-19.2
	C43.5,50.6,28,33.5,32.2,41.1z"/>
</g>
</svg>
