<?xml version="1.0" encoding="utf-8"?>
<!-- Generator: Adobe Illustrator 28.0.0, SVG Export Plug-In . SVG Version: 6.00 Build 0)  -->
<svg width="156px" height="156px" viewBox="0 0 156 156" version="1.1" id="Ebene_1" xmlns="http://www.w3.org/2000/svg" xmlns:xlink="http://www.w3.org/1999/xlink" x="0px" y="0px" style="enable-background:new 0 0 77.8 125.7;" xml:space="preserve">
<style type="text/css">
	.st0{fill:#FFFFFF;}
	.st1{fill-rule:evenodd;clip-rule:evenodd;fill:#0000FF;}
	.st2{fill:#0000FF;}
	.st3{enable-background:new    ;}
</style>
<g transform="translate(29.72,0.00) scale(1.241050)">
<g>
	<circle class="st0" cx="43.8" cy="32.5" r="30.1"/>
</g>
<g>
	<path class="st1" d="M0,113.7c0-6.7,5.6-12,12.5-12l0,0c6.9,0,12.5,5.4,12.5,12l0,0c0,6.7-5.6,12-12.5,12l0,0
		C5.6,125.7,0,120.3,0,113.7L0,113.7z"/>
</g>
<g>
	<path class="st2" d="M43.8,65.7C25.1,65.7,9.9,51,9.9,32.9S25.1,0,43.8,0c18.7,0,33.9,14.7,33.9,32.9S62.5,65.7,43.8,65.7z
		 M43.8,5.5c-15.7,0-28.4,12.3-28.4,27.4s12.8,27.4,28.4,27.4s28.4-12.3,28.4-27.4S59.5,5.5,43.8,5.5z"/>
</g>
<g class="st3">
	<path class="st2" d="M21,41.3V24.8h3.3v7.4l6.8-7.4h4.5l-6.2,6.5L36,41.3h-4.3l-4.6-7.8l-2.7,2.8v5H21z"/>
</g>
<g class="st3">
	<path class="st2" d="M39,41.3V24.8h11.4v2.8h-8v3.9h6.9v2.8h-6.9v7H39z"/>
	<path class="st2" d="M52.4,33.2c0-1.7,0.3-3.1,0.8-4.2c0.4-0.8,0.9-1.6,1.5-2.3c0.7-0.7,1.4-1.2,2.1-1.5c1-0.4,2.2-0.7,3.6-0.7
		c2.4,0,4.4,0.8,5.9,2.3c1.5,1.5,2.2,3.6,2.2,6.3c0,2.7-0.7,4.8-2.2,6.3s-3.4,2.3-5.8,2.3c-2.5,0-4.4-0.8-5.9-2.3
		C53.1,37.9,52.4,35.8,52.4,33.2z M55.9,33c0,1.9,0.4,3.3,1.3,4.3c0.9,1,2,1.5,3.3,1.5s2.4-0.5,3.3-1.4S65,34.9,65,33
		c0-1.9-0.4-3.3-1.2-4.3c-0.8-0.9-1.9-1.4-3.3-1.4s-2.5,0.5-3.3,1.4C56.3,29.7,55.9,31.1,55.9,33z"/>
</g>
<g>
	<rect x="9.9" y="32.9" class="st2" width="5.5" height="75.2"/>
</g>
</g>
</svg>
