<?xml version="1.0" encoding="utf-8"?>
<!-- Generator: Adobe Illustrator 28.0.0, SVG Export Plug-In . SVG Version: 6.00 Build 0)  -->
<svg width="156px" height="156px" viewBox="0 0 156 156" version="1.1" id="Ebene_1" xmlns="http://www.w3.org/2000/svg" xmlns:xlink="http://www.w3.org/1999/xlink" x="0px" y="0px" style="enable-background:new 0 0 80.9 130.7;" xml:space="preserve">
<style type="text/css">
	.st0{fill:#0000FF;}
	.st1{fill:#FFFFFF;}
	.st2{fill-rule:evenodd;clip-rule:evenodd;fill:#0000FF;}
</style>
<g transform="translate(29.72,0.00) scale(1.193573)">
<g>
	<rect x="6.6" y="124.9" class="st0" width="66.3" height="2.8"/>
	<rect x="3.6" y="121.9" class="st1" width="72.3" height="8.8"/>
</g>
<g>
	<path class="st1" d="M3,127.8L3,127.8V44.4l35.9-40l39.1,40v83.4"/>
	<polygon class="st0" points="5.9,130.7 0,130.7 0,43.2 38.7,0 80.9,43.2 80.9,130.7 75,130.7 75,45.6 38.9,8.7 5.9,45.5 	"/>
</g>
<g>
	<polyline class="st2" points="64.7,46 40.5,70.2 16.4,46 	"/>
</g>
<g>
	<path d="M64.8,94.6H16.1V46h48.7V94.6z M16.3,94.4h48.3V46.1H16.3V94.4z"/>
</g>
<g>
	
		<rect x="23.4" y="77.4" transform="matrix(0.7071 -0.7071 0.7071 0.7071 -54.9669 56.3516)" class="st0" width="34.2" height="34.2"/>
</g>
</g>
</svg>
