<?xml version="1.0" encoding="utf-8"?>
<!-- Generator: Adobe Illustrator 28.0.0, SVG Export Plug-In . SVG Version: 6.00 Build 0)  -->
<svg width="156px" height="156px" viewBox="0 0 156 156" version="1.1" id="Ebene_1" xmlns="http://www.w3.org/2000/svg" xmlns:xlink="http://www.w3.org/1999/xlink" x="0px" y="0px" style="enable-background:new 0 0 84.4 125.6;" xml:space="preserve">
<style type="text/css">
	.st0{fill:#FFFFFF;}
	.st1{fill:#0000FF;}
</style>
<g transform="translate(25.59,0.00) scale(1.242038)">
<g>
	<path class="st0" d="M4.7,83.6c0-20.6,16.8-37.4,37.5-37.4l0,0c20.7,0,37.5,16.7,37.5,37.4l0,0c0,20.6-16.8,37.4-37.5,37.4l0,0
		C21.5,120.9,4.7,104.2,4.7,83.6C4.7,83.6,4.7,83.6,4.7,83.6z"/>
	<path class="st1" d="M42.2,125.6C18.9,125.6,0,106.7,0,83.6c0-23.2,18.9-42.1,42.2-42.1c23.3,0,42.2,18.9,42.2,42.1
		C84.4,106.7,65.5,125.6,42.2,125.6z M42.2,50.9c-18.1,0-32.8,14.7-32.8,32.7s14.7,32.7,32.8,32.7S75,101.6,75,83.6
		S60.3,50.9,42.2,50.9z"/>
</g>
<g>
	
		<rect x="18.1" y="18.3" transform="matrix(4.170492e-03 -1 1 4.170492e-03 17.9209 63.0857)" class="st1" width="45.1" height="8.4"/>
</g>
<g>
	<rect x="20.5" y="17.3" class="st1" width="40.3" height="8.4"/>
</g>
</g>
</svg>
