<?xml version="1.0" encoding="utf-8"?>
<!-- Generator: Adobe Illustrator 28.0.0, SVG Export Plug-In . SVG Version: 6.00 Build 0)  -->
<svg width="156px" height="156px" viewBox="0 0 156 156" version="1.1" id="Ebene_1" xmlns="http://www.w3.org/2000/svg" xmlns:xlink="http://www.w3.org/1999/xlink" x="0px" y="0px" style="enable-background:new 0 0 78.4 56;" xml:space="preserve">
<style type="text/css">
	.st0{fill:#FFFFFF;}
	.st1{fill:#0000FF;}
</style>
<g transform="translate(0.00,22.29) scale(1.989796)">
<g>
	<circle class="st0" cx="46.1" cy="46" r="8.4"/>
	<path class="st1" d="M46.1,56C40.5,56,36,51.5,36,46c0-5.6,4.5-10.1,10.1-10.1c5.6,0,10.1,4.5,10.1,10.1C56.2,51.5,51.7,56,46.1,56
		z M46.1,39.3c-3.7,0-6.7,3-6.7,6.7c0,3.7,3,6.7,6.7,6.7c3.7,0,6.7-3,6.7-6.7C52.8,42.3,49.8,39.3,46.1,39.3z"/>
</g>
<g>
	<circle class="st0" cx="13.1" cy="46" r="8.4"/>
	<path class="st1" d="M13.1,56C7.5,56,3,51.5,3,46c0-5.6,4.5-10.1,10.1-10.1S23.2,40.4,23.2,46C23.2,51.5,18.7,56,13.1,56z
		 M13.1,39.3c-3.7,0-6.7,3-6.7,6.7c0,3.7,3,6.7,6.7,6.7s6.7-3,6.7-6.7C19.8,42.3,16.8,39.3,13.1,39.3z"/>
</g>
<g>
	<circle class="st0" cx="67.2" cy="46" r="8.4"/>
	<path class="st1" d="M67.2,56c-5.6,0-10.1-4.5-10.1-10.1c0-5.6,4.5-10.1,10.1-10.1c5.6,0,10.1,4.5,10.1,10.1
		C77.3,51.5,72.8,56,67.2,56z M67.2,39.3c-3.7,0-6.7,3-6.7,6.7c0,3.7,3,6.7,6.7,6.7c3.7,0,6.7-3,6.7-6.7
		C73.9,42.3,70.9,39.3,67.2,39.3z"/>
</g>
<g>
	<polygon class="st0" points="1.7,34.4 39.2,34.4 76.7,34.4 76.7,18.3 76.7,2.2 58.2,7.3 46,9.6 39.2,10 31.6,9.4 20.3,7.2 1.7,2.2 
		1.7,18.3 	"/>
	<path class="st1" d="M78.4,36.1H0V0l20.7,5.5l11.2,2.2l7.3,0.5l6.6-0.4l12-2.2L78.4,0V36.1z M3.4,32.8H75V4.4L58.5,8.9l-12.4,2.3
		l-6.9,0.4l-7.9-0.6L19.9,8.8L3.4,4.4V32.8z"/>
</g>
</g>
</svg>
