<?xml version="1.0" encoding="utf-8"?>
<!-- Generator: Adobe Illustrator 28.0.0, SVG Export Plug-In . SVG Version: 6.00 Build 0)  -->
<svg width="156px" height="156px" viewBox="0 0 156 156" version="1.1" id="Ebene_1" xmlns="http://www.w3.org/2000/svg" xmlns:xlink="http://www.w3.org/1999/xlink" x="0px" y="0px" style="enable-background:new 0 0 75 75;" xml:space="preserve">
<style type="text/css">
	.st0{fill:#FFFFFF;}
	.st1{fill:#FF0000;}
</style>
<g transform="translate(0.00,0.00) scale(2.080000)">
<rect class="st0" width="74.9" height="74.9"/>
<path class="st1" d="M0.1,75V0.1H75V75H0.1z M2.8,2.8V72h69.2v-0.4c0-14.6,0-29.2,0-43.7c0-0.2-0.1-0.5-0.3-0.7
	c-4.1-5.2-8.2-10.5-12.3-15.7c-0.7-0.9-1.4-1.7-2.1-2.7c-3.2,4.1-6.5,8.2-9.7,12.4c-1-0.6-2-1.1-3-1.7c4.3-5.5,8.6-11,12.9-16.5
	c4.8,6.4,9.5,12.6,14.3,19V2.8H2.8z"/>
<path class="st1" d="M30.4,62.3c0,0.8,0,1.7,0,2.6c-0.1,0.8-0.1,1.6-0.4,2.3c-0.6,1.7-1.9,2.5-3.6,2.8c-2.8,0.5-5.4-0.3-7.9-1.5
	c-0.2-0.1-0.4-0.2-0.5-0.2c-0.4,0.6-0.8,1.2-1.2,1.7c-1.9,2.1-4.5,2.5-6.9,1.1c-1.7-1-3-2.4-3.7-4.2c-0.5-1.3-0.3-2.7,0.2-3.9
	c0.4-1,0.9-2,1.4-3c-0.7-0.7-1.5-1.5-2.1-2.2c-0.8-1-1.2-2.2-1-3.5c0.3-1.3,0.7-2.6,1-3.9c0-0.1,0.2-0.2,0.4-0.3
	c1.4-0.2,2.8-0.4,4.2-0.7c0.4,0,0.4-0.3,0.4-0.6c0.1-1,0.2-2.1,0.3-3.1c0.1-1.5,0.4-1.9,2.1-2c1.4-0.1,2.9,0.1,4.4,0.2
	c0.6,0,1.1,0.2,1.7,0.3c0.2,0,0.3,0,0.4-0.3c1.3-3.8,3.6-6.7,7.2-8.5c1.7-0.8,3.5-1,5.3-0.3c1,0.4,1.8,1.1,2.3,2.1
	c0.7,1.3,1,2.7,1,4.2c0,0.5,0,1,0,1.5c0,0.3,0.1,0.5,0.3,0.6c1.1,0.6,2.2,1.3,3,2.4c1.6,2.1,1.1,4.2-0.6,5.8
	c-0.7,0.7-1.7,1.2-2.5,1.9c-0.1,0.1-0.2,0.3-0.3,0.4c-0.3,1.2-0.5,2.5-0.4,3.7c0,0.7,0,1.3,0,2c0,1.6-0.9,2.6-2.5,2.7
	C31.7,62.3,31.1,62.3,30.4,62.3L30.4,62.3z M30.4,45.3c0.2-0.3,0.4-0.6,0.6-0.9c0.9-1.4,1.4-2.8,0.8-4.5c-0.5-1.2-1.2-1.8-2.6-1.6
	c-0.5,0.1-1,0.2-1.5,0.4c-2.1,0.8-3.7,2.3-4.4,4.4c-0.5,1.5-0.7,3-1.1,4.5c-0.1,0.7-0.3,1.4-0.4,2.1c-0.3-0.1-0.6-0.2-0.8-0.4
	c-1.2-0.6-2.3-1.5-3.7-1.8c-1-0.2-1.9-0.3-2.9-0.2c0.1,2-0.4,3.9-0.9,5.9c-0.2,0-0.4,0-0.5,0c-1.1-0.1-2.3-0.2-3.4-0.2
	c-1.3,0-2,1.3-1.3,2.4c0.4,0.6,0.9,1.1,1.5,1.6c1.1,1,1.7,2.1,1.1,3.6c-0.4,1-0.9,2-1.3,3c-0.1,0.3-0.3,0.7-0.3,1
	c0.2,1.4,0.9,2.7,2.5,2.9c1,0.1,1.9,0,2.5-0.9c0.3-0.4,0.5-0.9,0.7-1.3c0.5-0.8,1-1.6,1.5-2.4c0.2-0.3,0.5-0.4,0.9-0.1
	c0.3,0.3,0.7,0.5,1.1,0.7c1.3,0.9,2.6,1.8,4,2.6c0.8,0.5,1.7,0.7,2.7,0.4c0.6-0.2,1.1-0.6,1.3-1.3c0.2-0.8,0.2-1.6-0.3-2.2
	c-0.8-1.2-1.7-2.3-2.5-3.5c-0.4-0.5-0.8-1.1-1-1.8c0.3,0,0.5,0,0.7,0c2.5,0.3,4.9,0.2,7.3-0.1c0.3,0,0.5-0.2,0.6-0.4
	c0.2-0.6,0.1-1.2-0.1-1.8c-0.3-1.1-0.7-2.2-0.9-3.4c-0.2-1.1,0.1-1.4,1.2-1.6c0.9-0.2,1.8-0.3,2.7-0.6c0.9-0.2,1.4-0.9,1.4-1.7
	c0-0.9-0.6-1.2-1.3-1.4c-0.6-0.2-1.3-0.3-1.9-0.5C31.9,46.3,31,46.1,30.4,45.3L30.4,45.3z"/>
<path class="st1" d="M58,39.1c-0.9,0.7-1.8,1.4-2.8,2.1c-5.4-7-10.8-14-16.3-21.1c-3.2,4.1-6.4,8.2-9.6,12.4c-1-0.6-1.9-1.2-2.9-1.8
	c4.3-5.5,8.5-11,12.8-16.5C45.5,22.5,51.7,30.8,58,39.1L58,39.1z"/>
<path class="st1" d="M65.9,66.8H36.6v-3.9h29.3V66.8z"/>
</g>
</svg>
