<?xml version="1.0" encoding="utf-8"?>
<!-- Generator: Adobe Illustrator 28.0.0, SVG Export Plug-In . SVG Version: 6.00 Build 0)  -->
<svg width="156px" height="156px" viewBox="0 0 156 156" version="1.1" id="Ebene_1" xmlns="http://www.w3.org/2000/svg" xmlns:xlink="http://www.w3.org/1999/xlink" x="0px" y="0px" style="enable-background:new 0 0 78.2 78.2;" xml:space="preserve">
<style type="text/css">
	.st0{fill:#FFFFFF;}
	.st1{clip-path:url(#SVGID_00000034811312529555017450000011737752876377027243_);}
	.st2{clip-path:url(#SVGID_00000016039176636422507810000008290248218892487080_);}
	.st3{fill-rule:evenodd;clip-rule:evenodd;fill:#FFFFFF;fill-opacity:0;}
	.st4{fill-rule:evenodd;clip-rule:evenodd;fill:#FF0000;}
	.st5{fill:#FF0000;}
	.st6{clip-path:url(#SVGID_00000042010354293141336450000011388422631196017552_);}
	.st7{clip-path:url(#SVGID_00000000920573262622682990000002189598001774078859_);}
	.st8{clip-path:url(#SVGID_00000092441082851121337900000005974575098844659099_);}
</style>
<g transform="translate(0.00,0.00) scale(1.994885)">
<g>
	<rect x="1.8" y="1.8" class="st0" width="75" height="75"/>
</g>
<g>
	<defs>
		<polygon id="SVGID_1_" points="1.8,76.4 76.4,76.4 76.4,1.8 1.8,1.8 1.8,76.4 		"/>
	</defs>
	<clipPath id="SVGID_00000179637852777018276360000000575033028788931759_">
		<use xlink:href="#SVGID_1_"  style="overflow:visible;"/>
	</clipPath>
	<g style="clip-path:url(#SVGID_00000179637852777018276360000000575033028788931759_);">
		<g>
			<defs>
				<polygon id="SVGID_00000056413002939361427750000012953323742559826854_" points="7.4,39.5 44.3,39.5 44.3,8.6 7.4,8.6 
					7.4,39.5 				"/>
			</defs>
			<clipPath id="SVGID_00000165931611449484176100000009189648795569043864_">
				<use xlink:href="#SVGID_00000056413002939361427750000012953323742559826854_"  style="overflow:visible;"/>
			</clipPath>
			<g style="clip-path:url(#SVGID_00000165931611449484176100000009189648795569043864_);">
				<g>
					<polygon class="st3" points="7.3,9.3 40.8,9.3 40.8,36.6 7.3,36.6 7.3,9.3 					"/>
				</g>
				<g>
					<path class="st4" d="M30.1,12.6c0-1.1,0.9-2.1,2.1-2.1l0,0c1.1,0,2,0.9,2,2.1l0,0c0,1.1-0.9,2.1-2,2.1l0,0
						C31,14.6,30.1,13.7,30.1,12.6C30.1,12.6,30.1,12.6,30.1,12.6z"/>
				</g>
				<g>
					<path class="st5" d="M32.1,14.8c-1.2,0-2.2-1-2.2-2.2c0-1.2,1-2.2,2.2-2.2c1.2,0,2.2,1,2.2,2.2C34.4,13.8,33.4,14.8,32.1,14.8z
						 M32.1,10.7c-1,0-1.9,0.8-1.9,1.9s0.8,1.9,1.9,1.9s1.9-0.8,1.9-1.9S33.2,10.7,32.1,10.7z"/>
				</g>
				<g>
					<path class="st5" d="M34.2,22.5c-0.3,0-0.6-0.1-0.9-0.4l-4.6-4.6c-0.5-0.5-0.5-1.3,0-1.8c0.5-0.5,1.3-0.5,1.8,0l4.6,4.6
						c0.5,0.5,0.5,1.3,0,1.8C34.9,22.4,34.6,22.5,34.2,22.5z"/>
				</g>
				<g>
					<path class="st5" d="M34.7,22.1c-0.3,0-0.6-0.1-0.9-0.4c-0.5-0.5-0.5-1.3,0-1.8l4.6-4.6c0.5-0.5,1.3-0.5,1.8,0
						c0.5,0.5,0.5,1.3,0,1.8l-4.6,4.6C35.3,22,35,22.1,34.7,22.1z"/>
				</g>
				<g>
					<path class="st5" d="M19.7,15.8c-0.3,0-0.6-0.1-0.9-0.4c-0.5-0.5-0.5-1.3,0-1.8l3.7-3.7c0.5-0.5,1.3-0.5,1.8,0
						c0.5,0.5,0.5,1.3,0,1.8l-3.7,3.7C20.3,15.6,20,15.8,19.7,15.8z"/>
				</g>
				<g>
					<path class="st5" d="M29,16.9c-0.3,0-0.6-0.1-0.8-0.3l-5-4.2c-0.5-0.5-0.6-1.2-0.1-1.8c0.5-0.5,1.2-0.6,1.8-0.1l5,4.2
						c0.5,0.5,0.6,1.2,0.1,1.8C29.7,16.7,29.3,16.9,29,16.9z"/>
				</g>
				<g>
					<path class="st5" d="M21.8,24.4c-0.5,0-0.9-0.2-1.3-0.5c-0.7-0.7-0.7-1.9,0-2.6l6.9-6.9c0.7-0.7,1.9-0.7,2.6,0
						c0.7,0.7,0.7,1.9,0,2.6l-6.9,6.9C22.8,24.2,22.3,24.4,21.8,24.4z"/>
				</g>
				<g>
					<path class="st5" d="M28.2,28c-0.3,0-0.6-0.1-0.8-0.3l-5-4.2c-0.5-0.5-0.6-1.2-0.1-1.8s1.2-0.6,1.8-0.1l5,4.2
						c0.5,0.5,0.6,1.2,0.1,1.8C28.9,27.8,28.6,28,28.2,28z"/>
				</g>
				<g>
					<path class="st5" d="M27.9,36.4C27.8,36.4,27.8,36.4,27.9,36.4c-0.8,0-1.3-0.6-1.3-1.3l0.3-8.1c0-0.7,0.6-1.3,1.3-1.2
						c0.7,0,1.2,0.6,1.2,1.3l-0.3,8.1C29.1,35.8,28.5,36.4,27.9,36.4z"/>
				</g>
				<g>
					<path class="st5" d="M17.5,29.7c-0.3,0-0.7-0.1-0.9-0.4c-0.5-0.5-0.5-1.3,0.1-1.8l4-3.8c0.5-0.5,1.3-0.5,1.8,0.1
						c0.5,0.5,0.5,1.3-0.1,1.8l-4,3.8C18.1,29.6,17.8,29.7,17.5,29.7z"/>
				</g>
				<g>
					<path class="st5" d="M17.6,29.6c-0.3,0-0.6-0.1-0.8-0.3l-5.3-4.5c-0.5-0.5-0.6-1.2-0.2-1.8c0.5-0.5,1.2-0.6,1.8-0.2l5.3,4.5
						c0.5,0.5,0.6,1.2,0.2,1.8C18.3,29.4,17.9,29.6,17.6,29.6z"/>
				</g>
				<g>
					<path class="st5" d="M16.2,33.8C16.2,33.8,16.2,33.8,16.2,33.8l-8.1-0.1c-0.3,0-0.6-0.3-0.6-0.6c0-0.3,0.3-0.6,0.6-0.6l8.1,0.1
						c0.3,0,0.6,0.3,0.6,0.6C16.8,33.5,16.5,33.8,16.2,33.8z"/>
				</g>
				<g>
					<path class="st5" d="M16.2,31.8C16.2,31.8,16.2,31.8,16.2,31.8l-8.1-0.1c-0.3,0-0.6-0.3-0.6-0.6c0-0.3,0.3-0.6,0.6-0.6l8.1,0.1
						c0.3,0,0.6,0.3,0.6,0.6C16.8,31.6,16.5,31.8,16.2,31.8z"/>
				</g>
			</g>
		</g>
		<g>
			<defs>
				<polygon id="SVGID_00000018205678188320188120000004765776957427120524_" points="37.4,39.5 74.3,39.5 74.3,8.6 37.4,8.6 
					37.4,39.5 				"/>
			</defs>
			<clipPath id="SVGID_00000109708440437760567010000010737584725932452486_">
				<use xlink:href="#SVGID_00000018205678188320188120000004765776957427120524_"  style="overflow:visible;"/>
			</clipPath>
			<g style="clip-path:url(#SVGID_00000109708440437760567010000010737584725932452486_);">
				<g>
					<polygon class="st3" points="37.2,9.3 70.8,9.3 70.8,36.6 37.2,36.6 37.2,9.3 					"/>
				</g>
				<g>
					<path class="st4" d="M60,12.6c0-1.1,0.9-2.1,2-2.1l0,0c1.1,0,2,0.9,2,2.1l0,0c0,1.1-0.9,2.1-2,2.1l0,0C61,14.6,60,13.7,60,12.6
						L60,12.6z"/>
				</g>
				<g>
					<path class="st5" d="M62.1,14.8c-1.2,0-2.2-1-2.2-2.2c0-1.2,1-2.2,2.2-2.2s2.2,1,2.2,2.2C64.3,13.8,63.3,14.8,62.1,14.8z
						 M62.1,10.7c-1,0-1.9,0.8-1.9,1.9s0.8,1.9,1.9,1.9s1.9-0.8,1.9-1.9S63.1,10.7,62.1,10.7z"/>
				</g>
				<g>
					<path class="st5" d="M64.2,22.5c-0.3,0-0.6-0.1-0.9-0.4l-4.6-4.6c-0.5-0.5-0.5-1.3,0-1.8c0.5-0.5,1.3-0.5,1.8,0l4.6,4.6
						c0.5,0.5,0.5,1.3,0,1.8C64.8,22.4,64.5,22.5,64.2,22.5z"/>
				</g>
				<g>
					<path class="st5" d="M64.6,22.1c-0.3,0-0.6-0.1-0.9-0.4c-0.5-0.5-0.5-1.3,0-1.8l4.6-4.6c0.5-0.5,1.3-0.5,1.8,0
						c0.5,0.5,0.5,1.3,0,1.8l-4.6,4.6C65.3,22,65,22.1,64.6,22.1z"/>
				</g>
				<g>
					<path class="st5" d="M49.6,15.8c-0.3,0-0.6-0.1-0.9-0.4c-0.5-0.5-0.5-1.3,0-1.8l3.7-3.7c0.5-0.5,1.3-0.5,1.8,0s0.5,1.3,0,1.8
						l-3.7,3.7C50.2,15.6,49.9,15.8,49.6,15.8z"/>
				</g>
				<g>
					<path class="st5" d="M58.9,16.9c-0.3,0-0.6-0.1-0.8-0.3l-5-4.2c-0.5-0.5-0.6-1.2-0.2-1.8c0.5-0.5,1.2-0.6,1.8-0.1l5,4.2
						c0.5,0.5,0.6,1.2,0.2,1.8C59.6,16.7,59.3,16.9,58.9,16.9z"/>
				</g>
				<g>
					<path class="st5" d="M51.8,24.4c-0.5,0-0.9-0.2-1.3-0.5c-0.7-0.7-0.7-1.9,0-2.6l6.9-6.9c0.7-0.7,1.9-0.7,2.6,0
						c0.7,0.7,0.7,1.9,0,2.6l-6.9,6.9C52.7,24.2,52.2,24.4,51.8,24.4z"/>
				</g>
				<g>
					<path class="st5" d="M58.1,28c-0.3,0-0.6-0.1-0.8-0.3l-5-4.2c-0.5-0.5-0.6-1.2-0.2-1.8c0.5-0.5,1.2-0.6,1.8-0.2l5,4.2
						c0.5,0.5,0.6,1.2,0.2,1.8C58.9,27.8,58.5,28,58.1,28z"/>
				</g>
				<g>
					<path class="st5" d="M57.8,36.4C57.8,36.4,57.8,36.4,57.8,36.4c-0.8,0-1.3-0.6-1.3-1.3l0.3-8.1c0-0.7,0.6-1.2,1.3-1.2
						c0.7,0,1.2,0.6,1.2,1.3l-0.3,8.1C59,35.8,58.5,36.4,57.8,36.4z"/>
				</g>
				<g>
					<path class="st5" d="M47.5,29.7c-0.3,0-0.7-0.1-0.9-0.4c-0.5-0.5-0.5-1.3,0.1-1.8l4-3.8c0.5-0.5,1.3-0.5,1.8,0.1
						s0.5,1.3-0.1,1.8l-4,3.8C48.1,29.6,47.8,29.7,47.5,29.7z"/>
				</g>
				<g>
					<path class="st5" d="M47.5,29.6c-0.3,0-0.6-0.1-0.8-0.3l-5.3-4.5c-0.5-0.5-0.6-1.2-0.2-1.8c0.5-0.5,1.2-0.6,1.8-0.2l5.3,4.5
						c0.5,0.5,0.6,1.2,0.2,1.8C48.2,29.4,47.9,29.6,47.5,29.6z"/>
				</g>
				<g>
					<path class="st5" d="M46.1,33.8C46.1,33.8,46.1,33.8,46.1,33.8L38,33.7c-0.3,0-0.6-0.3-0.6-0.6c0-0.3,0.2-0.6,0.6-0.6l8.1,0.1
						c0.3,0,0.6,0.3,0.6,0.6C46.7,33.5,46.5,33.8,46.1,33.8z"/>
				</g>
				<g>
					<path class="st5" d="M46.1,31.8C46.1,31.8,46.1,31.8,46.1,31.8L38,31.7c-0.3,0-0.6-0.3-0.6-0.6c0-0.3,0.3-0.6,0.6-0.6l8.1,0.1
						c0.3,0,0.6,0.3,0.6,0.6C46.7,31.6,46.5,31.8,46.1,31.8z"/>
				</g>
			</g>
		</g>
		<g>
			<defs>
				<polygon id="SVGID_00000183213518637214582920000017421755827462685631_" points="37.4,71.3 74.3,71.3 74.3,40.3 37.4,40.3 
					37.4,71.3 				"/>
			</defs>
			<clipPath id="SVGID_00000138539061201665484650000009608994974760873895_">
				<use xlink:href="#SVGID_00000183213518637214582920000017421755827462685631_"  style="overflow:visible;"/>
			</clipPath>
			<g style="clip-path:url(#SVGID_00000138539061201665484650000009608994974760873895_);">
				<g>
					<polygon class="st3" points="37.2,41.1 70.8,41.1 70.8,68.4 37.2,68.4 37.2,41.1 					"/>
				</g>
				<g>
					<path class="st4" d="M60,44.3c0-1.1,0.9-2,2-2l0,0c1.1,0,2,0.9,2,2l0,0c0,1.1-0.9,2-2,2l0,0C61,46.4,60,45.5,60,44.3L60,44.3z"
						/>
				</g>
				<g>
					<path class="st5" d="M62.1,46.6c-1.2,0-2.2-1-2.2-2.2s1-2.2,2.2-2.2s2.2,1,2.2,2.2S63.3,46.6,62.1,46.6z M62.1,42.5
						c-1,0-1.9,0.8-1.9,1.9s0.8,1.9,1.9,1.9s1.9-0.8,1.9-1.9S63.1,42.5,62.1,42.5z"/>
				</g>
				<g>
					<path class="st5" d="M64.2,54.3c-0.3,0-0.6-0.1-0.9-0.4l-4.6-4.6c-0.5-0.5-0.5-1.3,0-1.8c0.5-0.5,1.3-0.5,1.8,0l4.6,4.6
						c0.5,0.5,0.5,1.3,0,1.8C64.8,54.2,64.5,54.3,64.2,54.3z"/>
				</g>
				<g>
					<path class="st5" d="M64.6,53.9c-0.3,0-0.6-0.1-0.9-0.4c-0.5-0.5-0.5-1.3,0-1.8l4.6-4.6c0.5-0.5,1.3-0.5,1.8,0
						c0.5,0.5,0.5,1.3,0,1.8l-4.6,4.6C65.3,53.8,65,53.9,64.6,53.9z"/>
				</g>
				<g>
					<path class="st5" d="M49.6,47.5c-0.3,0-0.6-0.1-0.9-0.4c-0.5-0.5-0.5-1.3,0-1.8l3.7-3.7c0.5-0.5,1.3-0.5,1.8,0
						c0.5,0.5,0.5,1.3,0,1.8l-3.7,3.7C50.2,47.4,49.9,47.5,49.6,47.5z"/>
				</g>
				<g>
					<path class="st5" d="M58.9,48.7c-0.3,0-0.6-0.1-0.8-0.3l-5-4.2c-0.5-0.5-0.6-1.2-0.2-1.8c0.5-0.5,1.2-0.6,1.8-0.2l5,4.2
						c0.5,0.5,0.6,1.2,0.2,1.8C59.6,48.5,59.3,48.7,58.9,48.7z"/>
				</g>
				<g>
					<path class="st5" d="M51.8,56.2c-0.5,0-0.9-0.2-1.3-0.5c-0.7-0.7-0.7-1.9,0-2.6l6.9-6.9c0.7-0.7,1.9-0.7,2.6,0
						c0.7,0.7,0.7,1.9,0,2.6l-6.9,6.9C52.7,56,52.2,56.2,51.8,56.2z"/>
				</g>
				<g>
					<path class="st5" d="M58.1,59.8c-0.3,0-0.6-0.1-0.8-0.3l-5-4.2c-0.5-0.4-0.6-1.2-0.2-1.8c0.4-0.5,1.2-0.6,1.8-0.2l5,4.2
						c0.5,0.4,0.6,1.2,0.2,1.8C58.9,59.6,58.5,59.8,58.1,59.8z"/>
				</g>
				<g>
					<path class="st5" d="M57.8,68.1C57.8,68.1,57.8,68.1,57.8,68.1c-0.8,0-1.3-0.6-1.3-1.3l0.3-8.1c0-0.7,0.6-1.3,1.3-1.2
						c0.7,0,1.2,0.6,1.2,1.3l-0.3,8.1C59,67.6,58.5,68.1,57.8,68.1z"/>
				</g>
				<g>
					<path class="st5" d="M47.5,61.5c-0.3,0-0.7-0.1-0.9-0.4c-0.5-0.5-0.5-1.3,0.1-1.8l4-3.8c0.5-0.5,1.3-0.5,1.8,0.1
						c0.5,0.5,0.5,1.3-0.1,1.8l-4,3.8C48.1,61.4,47.8,61.5,47.5,61.5z"/>
				</g>
				<g>
					<path class="st5" d="M47.5,61.4c-0.3,0-0.6-0.1-0.8-0.3l-5.3-4.5c-0.5-0.5-0.6-1.2-0.2-1.8c0.5-0.5,1.2-0.6,1.8-0.2l5.3,4.5
						c0.5,0.5,0.6,1.2,0.2,1.8C48.2,61.2,47.9,61.4,47.5,61.4z"/>
				</g>
				<g>
					<path class="st5" d="M46.1,65.6C46.1,65.6,46.1,65.6,46.1,65.6L38,65.5c-0.3,0-0.6-0.3-0.6-0.6c0-0.3,0.3-0.6,0.6-0.6l8.1,0.1
						c0.3,0,0.6,0.3,0.6,0.6C46.7,65.3,46.5,65.6,46.1,65.6z"/>
				</g>
				<g>
					<path class="st5" d="M46.1,63.6C46.1,63.6,46.1,63.6,46.1,63.6L38,63.5c-0.3,0-0.6-0.3-0.6-0.6c0-0.3,0.3-0.6,0.6-0.6l8.1,0.1
						c0.3,0,0.6,0.3,0.6,0.6C46.7,63.4,46.5,63.6,46.1,63.6z"/>
				</g>
			</g>
		</g>
		<g>
			<defs>
				<polygon id="SVGID_00000170990955203185405080000001707060912222947754_" points="7.4,71.3 44.3,71.3 44.3,40.3 7.4,40.3 
					7.4,71.3 				"/>
			</defs>
			<clipPath id="SVGID_00000050630426676148547700000011434602050617274537_">
				<use xlink:href="#SVGID_00000170990955203185405080000001707060912222947754_"  style="overflow:visible;"/>
			</clipPath>
			<g style="clip-path:url(#SVGID_00000050630426676148547700000011434602050617274537_);">
				<g>
					<polygon class="st3" points="7.3,41.1 40.8,41.1 40.8,68.4 7.3,68.4 7.3,41.1 					"/>
				</g>
				<g>
					<path class="st4" d="M30.1,44.3c0-1.1,0.9-2,2.1-2l0,0c1.1,0,2,0.9,2,2l0,0c0,1.1-0.9,2-2,2l0,0C31,46.4,30.1,45.5,30.1,44.3
						C30.1,44.3,30.1,44.3,30.1,44.3z"/>
				</g>
				<g>
					<path class="st5" d="M32.1,46.6c-1.2,0-2.2-1-2.2-2.2s1-2.2,2.2-2.2c1.2,0,2.2,1,2.2,2.2S33.4,46.6,32.1,46.6z M32.1,42.5
						c-1,0-1.9,0.8-1.9,1.9s0.8,1.9,1.9,1.9s1.9-0.8,1.9-1.9S33.2,42.5,32.1,42.5z"/>
				</g>
				<g>
					<path class="st5" d="M34.2,54.3c-0.3,0-0.6-0.1-0.9-0.4l-4.6-4.6c-0.5-0.5-0.5-1.3,0-1.8c0.5-0.5,1.3-0.5,1.8,0l4.6,4.6
						c0.5,0.5,0.5,1.3,0,1.8C34.9,54.2,34.6,54.3,34.2,54.3z"/>
				</g>
				<g>
					<path class="st5" d="M34.7,53.9c-0.3,0-0.6-0.1-0.9-0.4c-0.5-0.5-0.5-1.3,0-1.8l4.6-4.6c0.5-0.5,1.3-0.5,1.8,0
						c0.5,0.5,0.5,1.3,0,1.8l-4.6,4.6C35.3,53.8,35,53.9,34.7,53.9z"/>
				</g>
				<g>
					<path class="st5" d="M19.7,47.5c-0.3,0-0.6-0.1-0.9-0.4c-0.5-0.5-0.5-1.3,0-1.8l3.7-3.7c0.5-0.5,1.3-0.5,1.8,0s0.5,1.3,0,1.8
						l-3.7,3.7C20.3,47.4,20,47.5,19.7,47.5z"/>
				</g>
				<g>
					<path class="st5" d="M29,48.7c-0.3,0-0.6-0.1-0.8-0.3l-5-4.2c-0.5-0.5-0.6-1.2-0.1-1.8c0.5-0.5,1.2-0.6,1.8-0.2l5,4.2
						c0.5,0.5,0.6,1.2,0.1,1.8C29.7,48.5,29.3,48.7,29,48.7z"/>
				</g>
				<g>
					<path class="st5" d="M21.8,56.2c-0.5,0-0.9-0.2-1.3-0.5c-0.7-0.7-0.7-1.9,0-2.6l6.9-6.9c0.7-0.7,1.9-0.7,2.6,0
						c0.7,0.7,0.7,1.9,0,2.6l-6.9,6.9C22.8,56,22.3,56.2,21.8,56.2z"/>
				</g>
				<g>
					<path class="st5" d="M28.2,59.8c-0.3,0-0.6-0.1-0.8-0.3l-5-4.2c-0.5-0.5-0.6-1.2-0.1-1.8c0.5-0.5,1.2-0.6,1.8-0.2l5,4.2
						c0.5,0.5,0.6,1.2,0.1,1.8C28.9,59.6,28.6,59.8,28.2,59.8z"/>
				</g>
				<g>
					<path class="st5" d="M27.9,68.2C27.8,68.2,27.8,68.2,27.9,68.2c-0.8,0-1.3-0.6-1.3-1.3l0.3-8.1c0-0.7,0.6-1.3,1.3-1.2
						c0.7,0,1.2,0.6,1.2,1.3L29.1,67C29.1,67.6,28.5,68.2,27.9,68.2z"/>
				</g>
				<g>
					<path class="st5" d="M17.5,61.5c-0.3,0-0.7-0.1-0.9-0.4c-0.5-0.5-0.5-1.3,0.1-1.8l4-3.8c0.5-0.5,1.3-0.5,1.8,0.1
						c0.5,0.5,0.5,1.3-0.1,1.8l-4,3.8C18.1,61.4,17.8,61.5,17.5,61.5z"/>
				</g>
				<g>
					<path class="st5" d="M17.6,61.4c-0.3,0-0.6-0.1-0.8-0.3l-5.3-4.5c-0.5-0.5-0.6-1.2-0.2-1.8c0.5-0.5,1.2-0.6,1.8-0.2l5.3,4.5
						c0.5,0.5,0.6,1.2,0.2,1.8C18.3,61.2,17.9,61.4,17.6,61.4z"/>
				</g>
				<g>
					<path class="st5" d="M16.2,65.6C16.2,65.6,16.2,65.6,16.2,65.6l-8.1-0.1c-0.3,0-0.6-0.3-0.6-0.6c0-0.3,0.3-0.6,0.6-0.6l8.1,0.1
						c0.3,0,0.6,0.3,0.6,0.6C16.8,65.3,16.5,65.6,16.2,65.6z"/>
				</g>
				<g>
					<path class="st5" d="M16.2,63.6C16.2,63.6,16.2,63.6,16.2,63.6l-8.1-0.1c-0.3,0-0.6-0.3-0.6-0.6c0-0.3,0.3-0.6,0.6-0.6l8.1,0.1
						c0.3,0,0.6,0.3,0.6,0.6C16.8,63.4,16.5,63.6,16.2,63.6z"/>
				</g>
			</g>
		</g>
	</g>
</g>
<g>
	<path class="st5" d="M78.2,78.2H0V0h78.2V78.2z M3.6,74.6h71v-71h-71V74.6z"/>
</g>
</g>
</svg>
