<?xml version="1.0" encoding="utf-8"?>
<!-- Generator: Adobe Illustrator 28.0.0, SVG Export Plug-In . SVG Version: 6.00 Build 0)  -->
<svg width="156px" height="156px" viewBox="0 0 156 156" version="1.1" id="Ebene_1" xmlns="http://www.w3.org/2000/svg" xmlns:xlink="http://www.w3.org/1999/xlink" x="0px" y="0px" style="enable-background:new 0 0 78.9 79.2;" xml:space="preserve">
<style type="text/css">
	.st0{fill:#FFFFFF;}
	.st1{fill:#0000FF;}
	.st2{enable-background:new    ;}
</style>
<g transform="translate(0.30,0.00) scale(1.969697)">
<g>
	<path class="st0" d="M2,39.6C2,18.8,18.8,2,39.5,2l0,0C60.2,2,77,18.8,77,39.6l0,0c0,20.8-16.8,37.6-37.5,37.6l0,0l0,0
		C18.8,77.2,2,60.4,2,39.6L2,39.6z"/>
	<path class="st1" d="M39.5,79.2C17.7,79.2,0,61.4,0,39.6S17.7,0,39.5,0c21.8,0,39.5,17.8,39.5,39.6S61.2,79.2,39.5,79.2z M39.5,3.9
		c-19.6,0-35.5,16-35.5,35.7s15.9,35.7,35.5,35.7S75,59.3,75,39.6S59.1,3.9,39.5,3.9z"/>
</g>
<g class="st2">
	<path class="st1" d="M29.7,49.1V30.1h5.8l3.5,13l3.4-13h5.8v19.1h-3.6v-15l-3.8,15h-3.7l-3.8-15v15H29.7z"/>
</g>
</g>
</svg>
