<?xml version="1.0" encoding="utf-8"?>
<!-- Generator: Adobe Illustrator 28.0.0, SVG Export Plug-In . SVG Version: 6.00 Build 0)  -->
<svg width="156px" height="156px" viewBox="0 0 156 156" version="1.1" id="Ebene_1" xmlns="http://www.w3.org/2000/svg" xmlns:xlink="http://www.w3.org/1999/xlink" x="0px" y="0px" style="enable-background:new 0 0 79.8 128.7;" xml:space="preserve">
<style type="text/css">
	.st0{fill:#FFFFFF;}
	.st1{fill:#0000FF;}
	.st2{enable-background:new    ;}
</style>
<g transform="translate(29.64,0.00) scale(1.212121)">
<g>
	<circle class="st0" cx="46.3" cy="32.6" r="30.7"/>
</g>
<g>
	<rect x="11.4" y="33.2" class="st1" width="5.6" height="80.1"/>
</g>
<g>
	<path class="st1" d="M45.6,66.1c-18.9,0-34.2-14.8-34.2-33v0c0-18.2,15.3-33,34.2-33s34.2,14.8,34.2,33
		C79.8,51.2,64.4,66.1,45.6,66.1z M45.6,5.6C29.8,5.6,17,17.9,17,33v0c0,15.1,12.8,27.4,28.6,27.4c15.8,0,28.6-12.3,28.6-27.4
		C74.2,17.9,61.4,5.6,45.6,5.6z"/>
</g>
<g class="st2">
	<path class="st1" d="M22.4,41.7V25h5l3,11.4l3-11.4h5v16.6h-3.1V28.6l-3.3,13.1h-3.2l-3.3-13.1v13.1H22.4z"/>
	<path class="st1" d="M41.8,41.7V25h12.3v2.8h-9v3.7h8.4v2.8h-8.4v4.5h9.3v2.8H41.8z"/>
	<path class="st1" d="M55.9,41.7v-3l8.7-10.8h-7.8V25h12.2v2.6l-9.1,11.2h9.5v2.8H55.9z"/>
</g>
<g>
	<rect x="11.1" y="97.8" transform="matrix(0.708 -0.7062 0.7062 0.708 -76.9325 43.3379)" class="st1" width="5.6" height="33.8"/>
</g>
<g>
	
		<rect x="-2.8" y="111.9" transform="matrix(0.7056 -0.7086 0.7086 0.7056 -77.1035 43.8055)" class="st1" width="33.9" height="5.6"/>
</g>
</g>
</svg>
