<?xml version="1.0" encoding="utf-8"?>
<!-- Generator: Adobe Illustrator 28.0.0, SVG Export Plug-In . SVG Version: 6.00 Build 0)  -->
<svg width="156px" height="156px" viewBox="0 0 156 156" version="1.1" id="Ebene_1" xmlns="http://www.w3.org/2000/svg" xmlns:xlink="http://www.w3.org/1999/xlink" x="0px" y="0px" style="enable-background:new 0 0 78.4 56;" xml:space="preserve">
<style type="text/css">
	.st0{fill:#FFFFFF;}
	.st1{fill:#0000FF;}
</style>
<g transform="translate(0.00,22.29) scale(1.989796)">
<g>
	<circle class="st0" cx="15.6" cy="46" r="8.4"/>
	<path class="st1" d="M15.6,56C10.1,56,5.6,51.5,5.6,46c0-5.6,4.5-10.1,10.1-10.1S25.7,40.4,25.7,46C25.7,51.5,21.2,56,15.6,56z
		 M15.6,39.2c-3.7,0-6.7,3-6.7,6.7s3,6.7,6.7,6.7s6.7-3,6.7-6.7S19.3,39.2,15.6,39.2z"/>
</g>
<g>
	<circle class="st0" cx="63" cy="46" r="8.4"/>
	<path class="st1" d="M63,56c-5.6,0-10.1-4.5-10.1-10.1c0-5.6,4.5-10.1,10.1-10.1c5.6,0,10.1,4.5,10.1,10.1C73.1,51.5,68.6,56,63,56
		z M63,39.2c-3.7,0-6.7,3-6.7,6.7s3,6.7,6.7,6.7s6.7-3,6.7-6.7S66.7,39.2,63,39.2z"/>
</g>
<g>
	<polygon class="st0" points="1.7,34.4 39.2,34.4 76.7,34.4 76.7,18.3 76.7,2.2 58.2,7.3 46,9.6 39.2,10 31.6,9.4 20.3,7.2 1.7,2.2 
		1.7,18.3 	"/>
	<path class="st1" d="M78.4,36.1H0V0l20.7,5.5l11.2,2.2l7.3,0.5l6.6-0.4l12-2.2L78.4,0V36.1z M3.4,32.8H75V4.4L58.5,8.9l-12.4,2.3
		l-6.9,0.4l-7.9-0.6L19.9,8.8L3.4,4.4V32.8z"/>
</g>
</g>
</svg>
