<?xml version="1.0" encoding="utf-8"?>
<!-- Generator: Adobe Illustrator 28.0.0, SVG Export Plug-In . SVG Version: 6.00 Build 0)  -->
<svg width="156px" height="156px" viewBox="0 0 156 156" version="1.1" id="Ebene_1" xmlns="http://www.w3.org/2000/svg" xmlns:xlink="http://www.w3.org/1999/xlink" x="0px" y="0px" style="enable-background:new 0 0 75 56.1;" xml:space="preserve">
<style type="text/css">
	.st0{fill:#FF0000;}
</style>
<g transform="translate(0.00,19.66) scale(2.080000)">
<g>
	<path d="M31.9,54.6H12.8c0.6-2.6,1.2-5.1,1.8-7.7c1.6-6.4,3.1-12.8,4.7-19.3c1.9-7.8,3.8-15.5,5.7-23.3c0.2-0.9,0.4-1.8,0.6-2.6
		c0-0.2,0.3-0.4,0.5-0.4c0.7,0,1.3,0,2,0c6.7,0,13.5,0,20.2,0c1,0,1,0,1.2,0.9c1.6,6.4,3.1,12.8,4.7,19.3c1.7,6.8,3.3,13.6,5,20.5
		c1,4.1,2,8.2,3,12.2c0,0.1,0,0.2,0,0.4H43.1c-0.1-1.5-0.2-3-0.3-4.4c-0.1-0.9-0.2-1.9-0.2-2.8c0-0.5-0.2-0.5-0.6-0.5
		c-2.5,0-4.9,0-7.4,0c-0.3,0-0.5,0-0.8,0c-0.9,0-1.3,0.4-1.4,1.3C32.2,50.3,32.1,52.4,31.9,54.6L31.9,54.6z M33.5,31.8
		c-0.2,2.6-0.4,5-0.5,7.5h9c-0.2-2.5-0.4-5-0.6-7.5H33.5L33.5,31.8z M34.6,16.9c-0.2,2.5-0.3,4.9-0.5,7.4h6.8
		c-0.2-2.5-0.3-4.9-0.5-7.4H34.6L34.6,16.9z M39.7,9.4c0.1,0,0.1-0.2,0.1-0.3c-0.1-2.2-0.3-4.5-0.4-6.7c0-0.2-0.4-0.5-0.6-0.5
		c-0.5-0.1-1.1,0-1.7,0c-0.9,0-1.4,0.4-1.4,1.3c-0.1,1.3,0,0.1,0,0.1c-0.1,1.9-0.2,3.8-0.3,5.7c0,0.5,0,0.4,0.3,0.4
		C37,9.5,38.4,9.5,39.7,9.4L39.7,9.4z"/>
</g>
<g>
	<path d="M52.9,1.4c1.4,0,2.6,0,3.8,0c0.2,0,0.5,0.4,0.6,0.7C58,4.4,58.8,6.7,59.6,9c2.5,7.2,4.9,14.4,7.4,21.6
		c2,5.8,3.9,11.6,5.8,17.4c0.7,2.2,1.5,4.4,2.2,6.6c-0.3,0-0.5,0.1-0.7,0.1c-2.5,0-5.1,0-7.6,0c-0.5,0-0.7-0.2-0.8-0.7
		c-1.5-6.2-3.1-12.5-4.6-18.7C60,30.1,58.7,25,57.4,19.8C56,14,54.6,8.2,53.2,2.4C53.1,2.1,53,1.8,52.9,1.4L52.9,1.4z"/>
</g>
<g>
	<path d="M0,54.6c1.1-3.3,2.2-6.4,3.3-9.6c2.5-7.2,4.9-14.5,7.4-21.8c1.8-5.4,3.6-10.7,5.4-16.1c0.6-1.8,1.2-3.5,1.8-5.2
		c0.1-0.2,0.3-0.5,0.5-0.5c1.2,0,2.5,0,3.8,0c-0.4,1.5-0.8,3-1.1,4.5c-2,8.4-4.1,16.7-6.1,25.1c-1.8,7.5-3.7,15-5.5,22.4
		c-0.4,1.5-0.2,1.2-1.6,1.2c-2.3,0-4.6,0-6.9,0C0.6,54.7,0.3,54.7,0,54.6L0,54.6z"/>
</g>
<g>
	<rect x="36" y="-9.4" transform="matrix(0.7137 -0.7004 0.7004 0.7137 -8.793 34.5649)" class="st0" width="3.8" height="74.9"/>
</g>
<g>
	<rect x="0" y="26.4" transform="matrix(0.708 -0.7062 0.7062 0.708 -9.0538 34.6619)" class="st0" width="74.9" height="3.8"/>
</g>
</g>
</svg>
