<?xml version="1.0" encoding="utf-8"?>
<!-- Generator: Adobe Illustrator 28.0.0, SVG Export Plug-In . SVG Version: 6.00 Build 0)  -->
<svg width="156px" height="156px" viewBox="0 0 156 156" version="1.1" id="Ebene_1" xmlns="http://www.w3.org/2000/svg" xmlns:xlink="http://www.w3.org/1999/xlink" x="0px" y="0px" style="enable-background:new 0 0 75.5 74.7;" xml:space="preserve">
<style type="text/css">
	.st0{fill:#FFFFFF;}
	.st1{fill:#FF0000;}
</style>
<g transform="translate(0.00,0.83) scale(2.066225)">
<g>
	<rect x="5.1" y="0.2" class="st0" width="62.7" height="68"/>
	<path class="st0" d="M68.1,68.4H4.9V0h63.1V68.4z M5.3,68h62.3V0.4H5.3V68z"/>
</g>
<g>
	
		<rect x="0.2" y="0.2" transform="matrix(1 -5.103882e-03 5.103882e-03 1 -0.1909 2.039197e-02)" class="st1" width="7.4" height="74.4"/>
</g>
<g>
	
		<rect x="0.4" y="67.2" transform="matrix(1 -1.579361e-03 1.579361e-03 1 -0.1119 5.993021e-02)" class="st1" width="75" height="7.4"/>
</g>
<g>
	<rect x="67.9" y="0" transform="matrix(1 -5.103849e-03 5.103849e-03 1 -0.1891 0.3659)" class="st1" width="7.4" height="74.4"/>
</g>
</g>
</svg>
