<?xml version="1.0" encoding="utf-8"?>
<!-- Generator: Adobe Illustrator 28.0.0, SVG Export Plug-In . SVG Version: 6.00 Build 0)  -->
<svg width="156px" height="156px" viewBox="0 0 156 156" version="1.1" id="Ebene_1" xmlns="http://www.w3.org/2000/svg" xmlns:xlink="http://www.w3.org/1999/xlink" x="0px" y="0px" style="enable-background:new 0 0 75 75;" xml:space="preserve">
<style type="text/css">
	.st0{fill:#FFFFFF;}
	.st1{fill:#FF0000;}
</style>
<g transform="translate(0.00,0.00) scale(2.080000)">
<rect class="st0" width="75" height="74.5"/>
<path class="st1" d="M44.2,44.7c1.3,0,2.5,0,3.8,0c4,0.1,7.7,1,11.1,3c1.1,0.7,1.5,1.8,0.8,3.2c-0.3,0.6-0.7,1.1-1,1.7
	c-0.7,1-0.6,1.1,0.5,1.4c2.2,0.6,4.3,1.3,6.6,2c0.8-7.8,1.6-15.5,2.3-23.3c0.9,0.1,1.7,0.2,2.7,0.3c-0.8,8-1.6,15.9-2.3,23.8
	c0.7,0.4,1.4,0.6,2.1,1c1,0.6,2,1.3,2.8,2.1c1.6,1.5,1.8,3.3,1.1,5.3c-0.6,1.6-1.6,2.7-2.9,3.7c-3.1,2.3-6.7,3.6-10.4,4.5
	c-2.4,0.6-4.8,1-7.3,1.2c-3.8,0.3-7.6,0.3-11.4,0c-4-0.3-7.9-1.1-11.7-2.4c-1.3-0.4-2.5-1-3.7-1.6c-1.2-0.7-2.5-1-3.9-1.3
	c-4.9-1.1-9.7-2.2-14.5-3.3c-0.2,0-0.4-0.2-0.5-0.4c-1-3.7-1.9-7.3-2.9-11c0.9-0.3,1.7-0.5,2.6-0.8c0.3,1,0.5,2,0.8,3
	c0.6,2.2,1.1,4.4,1.7,6.6c0.1,0.2,0.2,0.4,0.4,0.4c4.1,0.9,8.2,1.8,12.3,2.7c0.2,0.1,0.5,0.1,0.7,0.2c0.8-2,1.6-4,1-6.1
	c-0.4-1.4-1-2.8-1.4-4.1c-0.3-1-0.5-2-0.3-3c0.2-1.3,1-2.1,2.1-2.6c1.3-0.6,2.7-0.7,4.2-0.7c1.7,0.1,3.4,0,5.2-0.2
	c0.7-0.1,1.4-0.4,2.1-0.7c0.4-0.2,0.6-1.2,0.4-1.8c-0.4-1.1-0.9-2.3-1.1-3.4c-0.3-1.4-0.5-2.9-0.6-4.3c-0.1-2.7,0-5.4,0.5-8.1
	c0.7-3.9,2.1-7.5,4.7-10.5c0.9-1.1,2.1-2,3.2-2.9c0.2-0.1,0.5-0.1,0.7-0.1c0.4,0,0.8,0.2,1.1,0.3c0.8,0.1,1.3,0.7,1.7,1.3
	c0.8,1.3,1.2,2.7,1.4,4.2c0.4,3.3,0.2,6.5-0.3,9.8C47.8,37,46.7,40,45.2,43C44.9,43.6,44.5,44.2,44.2,44.7L44.2,44.7z M38,46.4
	c0.8-0.3,1.5-0.6,2.3-0.8c1-0.2,1.7-0.7,2.2-1.5c1.4-2.2,2.5-4.6,3.2-7.1c0.7-2.5,1.1-5,1.2-7.6c0.1-2.4,0.2-4.8-0.4-7.1
	c-0.2-0.7-0.5-1.3-1-1.8c-0.6-0.6-1.7-0.5-2.5,0.3c-1.3,1.2-2.2,2.8-2.9,4.3c-1.1,2.2-2,4.6-2.5,7.1c-0.8,3.2-1.4,6.5-1.1,9.9
	C36.6,43.6,37,45.1,38,46.4L38,46.4z"/>
<path class="st1" d="M32.1,15.3c-1.4,1-2.4,2.1-3.4,3.5c-1,1.4-1.9,2.9-2.5,4.6c-0.7,1.9-1.4,3.9-1.9,5.8c-0.6,2.5-0.9,5.1-0.9,7.6
	c0,2.6,0.3,5.2,1.4,7.6c0.1,0.2,0.2,0.4,0.3,0.7c-0.5-0.1-0.8-0.2-1.2-0.3c-2.5-0.6-5.1-1.2-7.7-1.8c-0.4-0.1-0.6-0.3-0.7-0.7
	c-0.6-1.4-0.9-2.9-1.2-4.4c-0.5-3.2-0.4-6.3,0-9.4c0.5-4,1.6-7.8,4.1-11.1c1.2-1.6,2.6-3,4.2-4.1c0.1-0.1,0.3-0.1,0.5-0.1
	c2.9,0.6,5.8,1.3,8.6,1.9C32,15.2,32,15.2,32.1,15.3L32.1,15.3z"/>
<path class="st1" d="M8.1,48.2c-0.4-1.5-0.8-3-1.2-4.4c-0.2-0.9-0.4-1.8-0.7-2.7c-0.1-0.4-0.5-0.7-0.6-1.1c-0.7-1.7-1.1-3.5-1.2-5.4
	c-0.1-1.9-0.2-3.9-0.1-5.8C4.5,24.8,5.2,21,7,17.5c1.3-2.6,3.2-4.7,5.5-6.3c0.3-0.2,0.6-0.3,1-0.2c1.2,0.3,2.4,0.5,3.7,0.8
	c-0.3,0.2-0.5,0.4-0.8,0.6c-1.7,1.2-3,2.9-4.1,4.7c-1.8,3-2.9,6.2-3.6,9.6C8.2,29.8,8,33,8.4,36.3c0.2,1.7,0.6,3.3,1.2,4.8
	c0,0.1,0,0.2,0.1,0.3c-0.2,0-0.4,0-0.7,0c0.5,2.1,1,4.1,1.5,6.2C9.7,47.7,8.9,47.9,8.1,48.2L8.1,48.2z"/>
<path class="st1" d="M42,17.6c-1.8,1.3-3.2,2.8-4.3,4.6c-0.8,1.2-1.4,2.5-2,3.8c-0.7,1.7-1.3,3.5-1.7,5.2c-0.4,1.8-0.7,3.7-0.8,5.5
	c-0.2,2.2-0.1,4.3,0.3,6.5c0.3,1.4,0.6,2.8,1.3,4.2c-0.7-0.2-1.3-0.3-2-0.5c-0.4-0.1-0.8-0.2-1.1-0.3c-0.5,0-0.8-0.3-0.9-0.8
	c-0.9-2.1-1.3-4.3-1.5-6.6c-0.2-2.7-0.1-5.4,0.3-8c0.5-3.8,1.7-7.4,4.1-10.6c1.1-1.5,2.4-2.7,3.9-3.8c0.1-0.1,0.3-0.1,0.5-0.1
	C39.3,17,40.6,17.3,42,17.6L42,17.6z"/>
<path class="st1" d="M7.5,11.2c0.6-0.3,1.1-0.6,1.6-0.9c0.6-0.4,1.2-0.3,1.8,0c-0.5,0.4-1,0.8-1.5,1.2c-1.6,1.3-2.8,2.9-3.7,4.8
	c-1.6,3-2.5,6.1-3.2,9.4c-0.6,3-0.7,5.9-0.4,8.9c0.2,1.7,0.5,3.3,1.2,4.8c0.1,0.2,0.1,0.3,0.2,0.5c-1.1,0.1-1.6-0.7-2-1.5
	c-1-2-1.3-4.1-1.3-6.2c-0.1-2.4,0.1-4.8,0.5-7.2c0.5-2.6,1.3-5.2,2.5-7.6c0.5-1,1.1-2,1.7-3c0.1-0.2,0.1-0.4,0.1-0.6
	c-0.1-3.2-0.3-6.4-0.4-9.6c0-0.2,0-0.5,0-0.7c6.3-0.9,12.6-1.9,18.9-2.8c0.2,0.9,0.3,1.8,0.5,2.7C18.3,4.3,12.8,5.1,7.3,6
	C7.4,7.7,7.4,9.4,7.5,11.2L7.5,11.2z"/>
<path class="st1" d="M67.5,7.1c-5.2,1.7-10.4,3.3-15.6,5c-0.4-0.8-0.8-1.7-1.2-2.5c6.6-2.2,13.2-4.3,19.9-6.4
	c-0.4,7.2-0.8,14.3-1.2,21.5c-0.9,0-1.7-0.1-2.7-0.1C66.9,18.7,67.2,12.9,67.5,7.1L67.5,7.1z"/>
<path class="st1" d="M22.8,7.8V5h27v2.8H22.8z"/>
<path class="st1" d="M20.9,12.6c-1.9,1.4-3.3,3-4.5,4.9c-1.4,2.4-2.5,4.9-3.2,7.6c-1,3.5-1.3,7.1-1.1,10.8c0.1,2.1,0.5,4.2,1.3,6.1
	c0.1,0.1,0.1,0.3,0.2,0.5c-0.4-0.1-0.9-0.1-1.2-0.3c-0.2-0.1-0.4-0.4-0.4-0.6c-0.4-1.3-0.9-2.7-1.1-4C10,32.2,10.4,27,12.1,21.9
	c1.2-3.8,3.5-6.9,6.7-9.2c0.5-0.4,0.9-0.6,1.5-0.3C20.4,12.5,20.6,12.5,20.9,12.6L20.9,12.6z"/>
<path class="st1" d="M28.5,45.9C27.5,46,27.3,45,27,44.3c-0.7-1.8-1-3.7-1.2-5.6c-0.3-3.8,0-7.5,0.8-11.1c0.6-2.4,1.5-4.7,2.9-6.8
	c1.2-1.8,2.7-3.3,4.4-4.6c0.7-0.5,1.2,0,1.9,0c-2.1,1.5-3.7,3.3-4.9,5.4c-1.2,2.2-2.1,4.5-2.7,6.9c-0.4,1.5-0.7,3-0.9,4.5
	c-0.1,0.9-0.2,1.9-0.2,2.8C27,37.8,27,39.9,27.5,42C27.8,43.3,28.2,44.6,28.5,45.9L28.5,45.9z"/>
</g>
</svg>
