<?xml version="1.0" encoding="utf-8"?>
<!-- Generator: Adobe Illustrator 28.0.0, SVG Export Plug-In . SVG Version: 6.00 Build 0)  -->
<svg width="156px" height="156px" viewBox="0 0 156 156" version="1.1" id="Ebene_1" xmlns="http://www.w3.org/2000/svg" xmlns:xlink="http://www.w3.org/1999/xlink" x="0px" y="0px" style="enable-background:new 0 0 84.3 172.4;" xml:space="preserve">
<style type="text/css">
	.st0{fill:#FFFFFF;}
	.st1{fill:#0000FF;}
</style>
<g transform="translate(39.86,0.00) scale(0.904872)">
<g>
	<path class="st0" d="M4.7,130.1c0-20.8,16.8-37.6,37.5-37.6l0,0c20.7,0,37.5,16.8,37.5,37.6l0,0c0,20.8-16.8,37.6-37.5,37.6l0,0
		l0,0C21.5,167.7,4.7,150.9,4.7,130.1C4.7,130.1,4.7,130.1,4.7,130.1z"/>
	<path class="st1" d="M42.2,172.4c-23.2,0-42.2-19-42.2-42.3s18.9-42.2,42.2-42.2s42.2,19,42.2,42.2S65.4,172.4,42.2,172.4z
		 M42.2,97.2c-18.1,0-32.8,14.8-32.8,32.9c0,18.2,14.7,32.9,32.8,32.9c18.1,0,32.8-14.8,32.8-32.9C75,112,60.3,97.2,42.2,97.2z"/>
</g>
<g>
	
		<rect x="-5" y="41.6" transform="matrix(2.095211e-03 -1 1 2.095211e-03 -5.1653 86.3141)" class="st1" width="91.4" height="8.4"/>
</g>
<g>
	<rect x="36.6" y="0" class="st1" width="32.1" height="8.4"/>
</g>
<g>
	<rect x="37.4" y="22.1" class="st1" width="32.1" height="8.4"/>
</g>
</g>
</svg>
