<?xml version="1.0" encoding="utf-8"?>
<!-- Generator: Adobe Illustrator 28.0.0, SVG Export Plug-In . SVG Version: 6.00 Build 0)  -->
<svg width="156px" height="156px" viewBox="0 0 156 156" version="1.1" id="Ebene_1" xmlns="http://www.w3.org/2000/svg" xmlns:xlink="http://www.w3.org/1999/xlink" x="0px" y="0px" style="enable-background:new 0 0 84.3 172.4;" xml:space="preserve">
<style type="text/css">
	.st0{fill:#FFFFFF;}
	.st1{fill:#0000FF;}
	.st2{enable-background:new    ;}
	.st3{fill:none;stroke:#0000FF;stroke-width:1.86;stroke-miterlimit:10;}
</style>
<g transform="translate(39.86,0.00) scale(0.904872)">
<g>
	<path class="st0" d="M4.7,130.1c0-20.8,16.8-37.6,37.5-37.6l0,0c20.7,0,37.5,16.8,37.5,37.6l0,0c0,20.8-16.8,37.6-37.5,37.6l0,0
		l0,0C21.5,167.7,4.7,150.9,4.7,130.1C4.7,130.1,4.7,130.1,4.7,130.1z"/>
	<path class="st1" d="M42.2,172.4c-23.2,0-42.2-19-42.2-42.3s18.9-42.2,42.2-42.2s42.2,19,42.2,42.2S65.4,172.4,42.2,172.4z
		 M42.2,97.2c-18.1,0-32.8,14.8-32.8,32.9c0,18.2,14.7,32.9,32.8,32.9c18.1,0,32.8-14.8,32.8-32.9C75,112,60.3,97.2,42.2,97.2z"/>
</g>
<g>
	
		<rect x="-5" y="41.6" transform="matrix(2.095211e-03 -1 1 2.095211e-03 -5.1653 86.3141)" class="st1" width="91.4" height="8.4"/>
</g>
<g>
	<rect x="36.6" y="0" class="st1" width="32.1" height="8.4"/>
</g>
<g>
	<rect x="37.4" y="22.1" class="st1" width="32.1" height="8.4"/>
</g>
<g class="st2">
	<path class="st1" d="M29,149.2v-38h14.3c2.5,0,4.5,0.1,5.8,0.4c1.9,0.3,3.4,0.9,4.7,1.8s2.3,2.1,3,3.7s1.2,3.3,1.2,5.2
		c0,3.2-1,6-3.1,8.2c-2.1,2.2-5.8,3.4-11.2,3.4h-9.8v15.5H29z M34.1,129.2h9.8c3.2,0,5.6-0.6,6.9-1.8c1.4-1.2,2-2.9,2-5.1
		c0-1.6-0.4-3-1.2-4.1c-0.8-1.1-1.9-1.9-3.2-2.2c-0.8-0.2-2.4-0.3-4.7-0.3h-9.7V129.2z"/>
</g>
<g class="st2">
	<path class="st3" d="M29,149.2v-38h14.3c2.5,0,4.5,0.1,5.8,0.4c1.9,0.3,3.4,0.9,4.7,1.8s2.3,2.1,3,3.7s1.2,3.3,1.2,5.2
		c0,3.2-1,6-3.1,8.2c-2.1,2.2-5.8,3.4-11.2,3.4h-9.8v15.5H29z M34.1,129.2h9.8c3.2,0,5.6-0.6,6.9-1.8c1.4-1.2,2-2.9,2-5.1
		c0-1.6-0.4-3-1.2-4.1c-0.8-1.1-1.9-1.9-3.2-2.2c-0.8-0.2-2.4-0.3-4.7-0.3h-9.7V129.2z"/>
</g>
</g>
</svg>
