<?xml version="1.0" encoding="utf-8"?>
<!-- Generator: Adobe Illustrator 28.0.0, SVG Export Plug-In . SVG Version: 6.00 Build 0)  -->
<svg width="156px" height="156px" viewBox="0 0 156 156" version="1.1" id="Ebene_1" xmlns="http://www.w3.org/2000/svg" xmlns:xlink="http://www.w3.org/1999/xlink" x="0px" y="0px" style="enable-background:new 0 0 75 75;" xml:space="preserve">
<style type="text/css">
	.st0{fill:#FFFFFF;}
	.st1{fill:#FF0000;}
</style>
<g transform="translate(0.00,0.00) scale(2.080000)">
<rect class="st0" width="74.9" height="75"/>
<path class="st1" d="M0.1,74.9V0.2H75v74.7c-0.2,0-0.4,0-0.5,0c-24.6,0-49.2,0-73.9,0C0.4,74.9,0.3,74.9,0.1,74.9L0.1,74.9z M3.1,72
	h69V3.2h-69V72L3.1,72z"/>
<path class="st1" d="M14.6,20.7c1.6-0.5,2.2,1.1,3.2,2c2.6,1.5,2.7,4.6,5.2,6.1c1.2,0.7,2.1,1.8,3.2,2.8c1.4,1.1,3.2,1.7,4.1,3.3
	c0.6,0.7,0.9,1.9,1.7,2.4c1.2,0.2,1.6,1.2,2.5,1.8c1.5,0.8,2.9,1.6,4.6,1.9c3.9-2.1,2.2-3.6-0.7-5.6c-2.2-1.6-6.5-3-5.6-6.4
	c1.1-2.2,1.1-5.9,4.1-6.3c2.6-0.5,5.2-0.6,7.3,1.1c4.1,1,3.9,5.7,2.1,8.7c-2.5,2.9,0.3,1.9,0.7,4.5c0.7,0.2,1.6-0.1,1.8-0.8
	c2.4-1.8,3.2-4.7,3.8-7.6c0.4-1.5-5.4-11-6.9-10.5c0.1-0.3,0.1-0.6,0.2-0.8c2.7,0.2,3.3,3.6,4.9,5.3c3.4,3.6,3,7.2,1.2,11.4h0
	c0,0,0,0,0,0c2.1-1.3,3-5.4,2.4-7.6c-3.2-4.7-5.9-9-10.1-12.6c-1.5-2.4-5.2-1.4-7.5-1.3c-6.8,0.4-13.5-2.1-20-3.7
	c0.4-1.2,0.9-2.3,1.3-3.4c5.4,1.2,10.7,2.9,16.2,3.5c4.1,0,9.3-1.6,12.5,1.8c4.9,4.6,9.2,10,11.9,16.2c-0.5,3.6-0.9,8-4.3,10.1
	c-0.5,0.6-0.6,1.5-1.4,1.9c5.2,4.7,3,15.3-4.6,15.5c-5.6,0.8-10.1-3.7-9.5-9.2c0-0.3-0.1-0.4-0.4-0.5c-2.5-0.7-5.5-1.5-7.4-3.4
	c-0.7-0.8-2-0.9-2.5-2c-1.1-2.4-3-3.8-5.2-5.1c-1.7-2.1-4.3-3.2-5.8-5.4c-0.5-1.1-0.6-2.5-1.9-3.1c-2.2-0.8-1.7-3.2-1.7-5
	 M45.1,40.4c-0.5,1.1-1,2.2-2.2,2.7c-0.3,0.1-0.4,0.3-0.4,0.6c-0.7,3.2,0.3,7.4,4.1,7.8c5.8,0.8,7.2-8.5,2.9-11
	C48.1,40.6,46.6,40.8,45.1,40.4L45.1,40.4z M41.5,32.8c0.3-1.7,2-2.5,2.2-4.2c0.2-1.9-4.1-2.8-5.6-2.4c-1,0.6-1,2.2-1.5,3.2
	C37.7,30.8,39.9,31.6,41.5,32.8L41.5,32.8z"/>
<path class="st1" d="M22,51.3h3.5v6.5h6.9v-6.5h3.5v16.8h-3.5v-7.3h-6.9v7.3h-3.5C21.9,68.1,21.9,51.3,22,51.3z"/>
<path class="st1" d="M18.4,56.2h-3.4c0,0,0,0,0,0c-0.5-2.2-1.9-2.5-4-2.3c-0.4,0-0.9,0.2-1.3,0.4c-1,0.6-1.1,1.8,0,2.3
	c0.8,0.4,1.7,0.6,2.5,0.9c1.2,0.4,2.4,0.6,3.6,1.1c2,0.8,3.4,2.3,3.2,5c-0.1,1.8-1.5,3.7-3.4,4.3c-2.1,0.7-4.3,0.7-6.5,0.1
	c-2.2-0.6-3.5-2.1-4-4.2c-0.1-0.4-0.2-0.7-0.2-1.1c1.2-0.1,2.3-0.2,3.4-0.3c0.1,0.2,0.1,0.4,0.1,0.6c0.4,1.3,1.2,2.3,2.7,2.5
	c1.3,0.2,2.6,0.2,3.7-0.7c0.9-0.7,1-2.4-0.3-2.9c-0.9-0.3-1.9-0.6-2.8-0.9c-1.2-0.4-2.5-0.7-3.6-1.2c-1.8-0.9-2.6-2.4-2.5-4.3
	c0.1-1.7,1.1-3,2.8-3.7c2.6-1,5.3-1,7.8,0.3C17.6,52.7,18.6,54.7,18.4,56.2L18.4,56.2z"/>
<path class="st1" d="M61.8,61.7v6.4h-3.5V51.3c0.2,0,0.3,0,0.5,0c2.4,0,4.8,0,7.2,0.1c1,0,2.1,0,3,0.5c1.4,0.7,2.3,1.8,2.5,3.3
	c0.3,1.5,0.2,2.9-0.6,4.2c-0.8,1.3-2,2-3.5,2.2c-0.8,0.1-1.6,0.1-2.3,0.2C64,61.7,62.9,61.7,61.8,61.7L61.8,61.7z M61.8,58.9
	c1.3,0,2.6,0,3.9,0c1.3-0.1,2.2-1,2.3-2c0.1-1.3-0.5-2.3-1.8-2.5c-1.4-0.2-2.9-0.2-4.4-0.3L61.8,58.9L61.8,58.9z"/>
</g>
</svg>
