<?xml version="1.0" encoding="utf-8"?>
<!-- Generator: Adobe Illustrator 28.0.0, SVG Export Plug-In . SVG Version: 6.00 Build 0)  -->
<svg width="156px" height="156px" viewBox="0 0 156 156" version="1.1" id="Ebene_1" xmlns="http://www.w3.org/2000/svg" xmlns:xlink="http://www.w3.org/1999/xlink" x="0px" y="0px" style="enable-background:new 0 0 86.8 74;" xml:space="preserve">
<style type="text/css">
	.st0{fill:#FFFFFF;}
	.st1{fill:#FF9900;}
	.st2{fill:#FF9415;}
</style>
<g transform="translate(0.00,11.50) scale(1.797235)">
<g>
	<polygon class="st0" points="5.9,70.6 43.4,6.7 80.9,70.6 5.9,70.6 	"/>
	<path class="st1" d="M86.8,74H0L43.4,0L86.8,74z M11.8,67.2H75L43.4,13.3L11.8,67.2z"/>
</g>
<g>
	<ellipse class="st2" cx="43.4" cy="49.8" rx="15.2" ry="15.3"/>
</g>
<g>
	<polygon class="st0" points="31.3,49.2 55.5,49.2 55.5,48.8 55.5,48.3 55.5,47.9 55.4,47.5 55.3,47.1 55.3,46.7 55.2,46.3 
		55.2,45.9 55,45.6 55,45.2 54.8,44.8 54.7,44.5 54.5,44.1 54.4,43.7 54.2,43.4 54,43.1 53.8,42.8 53.6,42.4 53.4,42.1 53.2,41.8 
		52.9,41.5 52.7,41.2 52.4,40.9 52.2,40.7 51.8,40.4 51.6,40.1 51.2,39.9 50.9,39.6 50.6,39.3 50.3,39.2 49.9,38.9 49.5,38.7 
		37.4,59.8 37.5,59.9 37.7,60 37.9,60.1 38,60.1 38.2,60.3 38.4,60.3 38.5,60.4 38.7,60.5 38.9,60.5 39.1,60.6 39.2,60.7 39.5,60.7 
		39.6,60.8 39.8,60.8 40,60.9 40.2,61 40.4,61 40.5,61 40.8,61.1 40.9,61.2 41.1,61.2 41.3,61.2 41.5,61.2 41.7,61.2 41.9,61.3 
		42.1,61.3 42.3,61.3 42.5,61.4 42.7,61.4 42.9,61.4 43.1,61.4 43.3,61.4 43.5,61.4 43.7,61.4 43.9,61.4 44.1,61.4 44.3,61.3 
		44.5,61.3 44.7,61.3 44.9,61.2 45.1,61.2 45.4,61.2 45.6,61.2 45.8,61.1 46,61 46.2,61 46.3,61 46.5,60.9 46.8,60.8 46.9,60.8 
		47.1,60.7 47.3,60.7 47.5,60.6 47.7,60.5 47.8,60.5 48,60.3 48.2,60.3 48.4,60.2 48.6,60.1 48.8,60 49,59.9 49.2,59.8 49.3,59.7 
		49.5,59.5 37.4,38.6 37,38.9 36.6,39.1 36.2,39.3 35.9,39.6 35.5,39.9 35.2,40.1 35,40.4 34.6,40.7 34.4,40.9 34.1,41.2 33.8,41.5 
		33.6,41.8 33.3,42.1 33.1,42.4 32.9,42.8 32.7,43 32.5,43.4 32.3,43.7 32.2,44.1 32.1,44.5 32,44.8 31.8,45.2 31.7,45.5 31.6,45.9 
		31.6,46.3 31.4,46.7 31.4,47.1 31.4,47.5 31.3,47.9 31.3,48.3 31.3,48.8 31.3,49.2 	"/>
</g>
</g>
</svg>
