<svg width="156" height="156" viewBox="0 0 156 156" fill="none" xmlns="http://www.w3.org/2000/svg">
<path d="M154.4 117.7H0.399994V37.3H154.4V117.7ZM6.99999 111.1H147.8V43.9H6.99999V111.1Z" fill="#0000FF"/>
<path d="M100.2 115.2V41.1L148.7 78.1L100.2 115.2ZM106.8 54.5V101.8L137.7 78.2L106.8 54.5Z" fill="#0000FF"/>
<path d="M19.3335 89V66.194H29.0253C31.4625 66.194 33.2308 66.4014 34.3301 66.8162C35.4398 67.2207 36.3265 67.9467 36.9903 68.9942C37.654 70.0416 37.9859 71.2395 37.9859 72.5877C37.9859 74.299 37.4829 75.7146 36.4769 76.8347C35.4709 77.9444 33.9671 78.6445 31.9655 78.9349C32.9611 79.5156 33.7804 80.1535 34.4234 80.8483C35.0768 81.5432 35.9532 82.7773 37.0525 84.5508L39.8371 89H34.3301L31.001 84.0374C29.8187 82.264 29.0097 81.1491 28.5741 80.6928C28.1386 80.2261 27.677 79.9097 27.1896 79.7438C26.7022 79.5675 25.9295 79.4793 24.8717 79.4793H23.9383V89H19.3335ZM23.9383 75.8391H27.3452C29.5542 75.8391 30.9336 75.7457 31.4832 75.5591C32.0329 75.3724 32.4633 75.0509 32.7744 74.5946C33.0856 74.1382 33.2411 73.5678 33.2411 72.8833C33.2411 72.1159 33.0337 71.4988 32.6189 71.0321C32.2144 70.555 31.6388 70.2542 30.8921 70.1298C30.5187 70.0779 29.3986 70.052 27.5318 70.052H23.9383V75.8391ZM47.4755 89V70.052H40.7083V66.194H58.8318V70.052H52.0802V89H47.4755ZM65.0545 89L59.6096 66.194H64.3233L67.7613 81.8595L71.9305 66.194H77.4064L81.4045 82.124L84.9047 66.194H89.5406L84.0025 89H79.1177L74.5751 71.9499L70.0481 89H65.0545Z" fill="#0000FF"/>
</svg>
