<?xml version="1.0" encoding="utf-8"?>
<!-- Generator: Adobe Illustrator 28.0.0, SVG Export Plug-In . SVG Version: 6.00 Build 0)  -->
<svg width="156px" height="156px" viewBox="0 0 156 156" version="1.1" id="Ebene_1" xmlns="http://www.w3.org/2000/svg" xmlns:xlink="http://www.w3.org/1999/xlink" x="0px" y="0px" style="enable-background:new 0 0 77.8 125.8;" xml:space="preserve">
<style type="text/css">
	.st0{fill:#FFFFFF;}
	.st1{fill-rule:evenodd;clip-rule:evenodd;fill:#0000FF;}
	.st2{fill:#0000FF;}
	.st3{enable-background:new    ;}
</style>
<g transform="translate(29.76,0.00) scale(1.240064)">
<g>
	<circle class="st0" cx="44.9" cy="32.8" r="30.1"/>
</g>
<g>
	<path class="st1" d="M0,113.7c0-6.7,5.6-12,12.5-12l0,0c6.9,0,12.5,5.4,12.5,12l0,0c0,6.7-5.6,12-12.5,12l0,0
		C5.6,125.8,0,120.4,0,113.7L0,113.7z"/>
</g>
<g>
	<path class="st2" d="M43.8,65.7C25.1,65.7,9.9,51,9.9,32.9S25.1,0,43.8,0c18.7,0,33.9,14.7,33.9,32.9S62.5,65.7,43.8,65.7z
		 M43.8,5.5c-15.7,0-28.4,12.3-28.4,27.4s12.8,27.4,28.4,27.4s28.4-12.3,28.4-27.4S59.5,5.5,43.8,5.5z"/>
</g>
<g class="st3">
	<path class="st2" d="M19.2,41.8V23.5H27c1.9,0,3.4,0.2,4.2,0.5c0.9,0.3,1.6,0.9,2.1,1.7c0.5,0.8,0.8,1.8,0.8,2.9
		c0,1.4-0.4,2.5-1.2,3.4c-0.8,0.9-2,1.5-3.6,1.7c0.8,0.5,1.5,1,2,1.5c0.5,0.6,1.2,1.5,2.1,3l2.2,3.6h-4.4l-2.7-4
		c-0.9-1.4-1.6-2.3-1.9-2.7s-0.7-0.6-1.1-0.8s-1-0.2-1.9-0.2h-0.7v7.6H19.2z M22.9,31.2h2.7c1.8,0,2.9-0.1,3.3-0.2
		c0.4-0.1,0.8-0.4,1-0.8c0.2-0.4,0.4-0.8,0.4-1.4c0-0.6-0.2-1.1-0.5-1.5c-0.3-0.4-0.8-0.6-1.4-0.7c-0.3,0-1.2-0.1-2.7-0.1h-2.9V31.2
		z"/>
	<path class="st2" d="M37.6,41.8V23.5h12.5v3.1h-8.8v4.3h7.6V34h-7.6v7.7H37.6z"/>
	<path class="st2" d="M52.4,32.7c0-1.9,0.3-3.4,0.8-4.7c0.4-0.9,1-1.8,1.7-2.5c0.7-0.7,1.5-1.3,2.4-1.6c1.1-0.5,2.4-0.7,3.9-0.7
		c2.7,0,4.8,0.8,6.4,2.5c1.6,1.7,2.4,4,2.4,6.9c0,2.9-0.8,5.2-2.4,6.9s-3.7,2.5-6.4,2.5c-2.7,0-4.9-0.8-6.5-2.5
		C53.2,37.9,52.4,35.7,52.4,32.7z M56.2,32.6c0,2.1,0.5,3.6,1.4,4.7c1,1.1,2.2,1.6,3.6,1.6c1.5,0,2.7-0.5,3.6-1.6
		c0.9-1.1,1.4-2.6,1.4-4.8c0-2.1-0.5-3.6-1.4-4.7c-0.9-1-2.1-1.5-3.6-1.5c-1.5,0-2.7,0.5-3.7,1.6C56.7,29,56.2,30.5,56.2,32.6z"/>
</g>
<g>
	<rect x="9.9" y="32.9" class="st2" width="5.5" height="75.2"/>
</g>
</g>
</svg>
