<?xml version="1.0" encoding="utf-8"?>
<!-- Generator: Adobe Illustrator 28.0.0, SVG Export Plug-In . SVG Version: 6.00 Build 0)  -->
<svg width="156px" height="156px" viewBox="0 0 156 156" version="1.1" id="Ebene_1" xmlns="http://www.w3.org/2000/svg" xmlns:xlink="http://www.w3.org/1999/xlink" x="0px" y="0px" style="enable-background:new 0 0 77.8 125.8;" xml:space="preserve">
<style type="text/css">
	.st0{fill:#FFFFFF;}
	.st1{fill-rule:evenodd;clip-rule:evenodd;fill:#0000FF;}
	.st2{fill:#0000FF;}
	.st3{enable-background:new    ;}
</style>
<g transform="translate(29.76,0.00) scale(1.240064)">
<g>
	<circle class="st0" cx="43.8" cy="32.6" r="30.1"/>
</g>
<g>
	<path class="st1" d="M0,113.7c0-6.7,5.6-12,12.5-12l0,0c6.9,0,12.5,5.4,12.5,12l0,0c0,6.7-5.6,12-12.5,12l0,0
		C5.6,125.8,0,120.4,0,113.7L0,113.7z"/>
</g>
<g>
	<path class="st2" d="M43.8,65.7C25.1,65.7,9.9,51,9.9,32.9S25.1,0,43.8,0c18.7,0,33.9,14.7,33.9,32.9S62.5,65.7,43.8,65.7z
		 M43.8,5.5c-15.7,0-28.4,12.3-28.4,27.4s12.8,27.4,28.4,27.4s28.4-12.3,28.4-27.4S59.5,5.5,43.8,5.5z"/>
</g>
<g class="st3">
	<path class="st2" d="M36.8,41.4V24.8h7c1.8,0,3.1,0.1,3.9,0.4c0.8,0.3,1.4,0.8,1.9,1.6c0.5,0.8,0.7,1.6,0.7,2.6
		c0,1.2-0.4,2.3-1.1,3.1c-0.7,0.8-1.8,1.3-3.3,1.5c0.7,0.4,1.3,0.9,1.8,1.4s1.1,1.4,1.9,2.7l2,3.2h-4l-2.4-3.6
		c-0.9-1.3-1.4-2.1-1.8-2.4c-0.3-0.3-0.7-0.6-1-0.7c-0.4-0.1-0.9-0.2-1.7-0.2h-0.7v6.9H36.8z M40.2,31.9h2.5c1.6,0,2.6-0.1,3-0.2
		c0.4-0.1,0.7-0.4,0.9-0.7c0.2-0.3,0.3-0.7,0.3-1.2c0-0.6-0.1-1-0.4-1.4s-0.7-0.6-1.3-0.6c-0.3,0-1.1-0.1-2.4-0.1h-2.6V31.9z"/>
</g>
<g>
	<rect x="9.9" y="32.9" class="st2" width="5.5" height="75.2"/>
</g>
</g>
</svg>
