<?xml version="1.0" encoding="utf-8"?>
<!-- Generator: Adobe Illustrator 28.0.0, SVG Export Plug-In . SVG Version: 6.00 Build 0)  -->
<svg width="156px" height="156px" viewBox="0 0 156 156" version="1.1" id="Ebene_1" xmlns="http://www.w3.org/2000/svg" xmlns:xlink="http://www.w3.org/1999/xlink" x="0px" y="0px" style="enable-background:new 0 0 75 75;" xml:space="preserve">
<style type="text/css">
	.st0{fill:#FFFFFF;}
	.st1{fill:#FF0000;}
</style>
<g transform="translate(0.00,0.00) scale(2.080000)">
<rect class="st0" width="74.7" height="74.8"/>
<path class="st1" d="M75,0v74.9c-0.2,0-0.3,0.1-0.5,0.1c-24.6,0-49.3,0-73.9,0c-0.2,0-0.3,0-0.5,0V0h0.6c22.4,0,44.8,0,67.2,0
	C70.3,0,72.6,0,75,0z M53.7,12.1c-1.7-1.6-3.3-3.1-5-4.5c-1.1-0.9-2.2-1.8-3.5-2.5C41.9,3.1,38.3,2.6,34.6,3
	c-2.2,0.2-4.4,0.6-6.5,1.3c-3.1,0.9-6.1,2.2-8.8,4c-3.3,2.1-5.8,4.9-7.9,8.2c-1.8,2.8-3.1,5.8-3.5,9.2c-0.2,1.8-0.3,3.7,0,5.5
	c0.3,1.9,0.9,3.7,1.8,5.4c1,2,2.1,3.8,3.6,5.3c2.8,2.9,6.3,4.3,10.3,4.3c2.3,0,4.5-0.6,6.7-1c1.7-0.3,3.5-0.8,5.2-1.1
	c1.4-0.3,2.9-0.4,4.4-0.7c-0.8-1.5-1.6-3-2.4-4.5c2.7-0.9,5.2-1.8,8-2.8c-1.9-0.5-3.7-1.1-5.5-1.6c0.8-1.2,1.6-2.4,2.4-3.6
	c-0.2,0-0.3,0-0.5,0c-1,0.2-2,0.5-3,0.6c-2.9,0.5-5.7,0.9-8.6,1.3c-2.2,0.3-4.5,0.2-6.7-0.4c-1.9-0.5-3.7-2.4-4-4.4
	c-0.2-1.3,0-2.6,0.5-3.8c0.7-1.7,1.8-3.1,3-4.4c1.4-1.6,3-2.8,4.9-3.6c1.5-0.7,3.1-1,4.7-1.3c1.5-0.2,2.8-0.1,4.2,0.5
	c1.5,0.7,2.7,1.6,3.9,2.7c0.2,0.2,0.4,0.2,0.7,0.1c1.9-1,3.8-2,5.7-2.9C49.3,14.3,51.4,13.2,53.7,12.1L53.7,12.1z M45,45.8
	c0.2,0.1,0.3,0.1,0.4,0.1c2.1,0.7,4.2,0.8,6.3,1c1.5,0.2,3,0.2,4.4,0.8c1.3,0.5,2.3,1.4,2.8,2.7c0.6,1.8,0,3.3-1.1,4.7
	c-0.9,1.1-2,1.8-3.1,2.5c-3.4,2-7,2.9-11,2.5c-2.6-0.3-5-1-7.2-2.3c-1.7-1.1-3.1-2.5-3.8-4.5c-0.3-0.7-0.3-0.7-1-0.6
	c-3.7,0.4-7.4,0.8-11.2,1.3c-0.7,0.1-1.4,0.2-2,0.2c0,0.1,0,0.2,0,0.2c0.6,2.6,1.5,5.1,2.8,7.4c1.3,2.3,3,4.3,5.1,5.8
	c2.7,2,5.8,3.3,9.1,4.1c2.2,0.5,4.5,0.8,6.8,0.9c3.1,0.2,6.2,0.2,9.3-0.4c1.9-0.4,3.8-0.8,5.6-1.5c2.6-0.9,4.9-2.3,6.9-4.2
	c1.9-1.8,3.6-3.7,4.8-6c1.3-2.5,2.1-5.1,2.2-8c0.1-3.4-0.4-6.5-2-9.5c-0.9-1.7-2-3.2-3.4-4.4c-1.4-1.1-2.9-2.1-4.7-2.4
	c-2.9-0.5-5.8-0.9-8.7-1.4c-0.7-0.1-1.3-0.2-2-0.4c0.3,1.4,0.5,2.6,0.8,4c-1.6,0.5-3.2,1-4.8,1.5c1.8,1.2,3.6,2.3,5.4,3.5
	C49.3,44.3,47.2,45,45,45.8L45,45.8z"/>
</g>
</svg>
