<?xml version="1.0" encoding="utf-8"?>
<!-- Generator: Adobe Illustrator 28.0.0, SVG Export Plug-In . SVG Version: 6.00 Build 0)  -->
<svg width="156px" height="156px" viewBox="0 0 156 156" version="1.1" id="Ebene_1" xmlns="http://www.w3.org/2000/svg" xmlns:xlink="http://www.w3.org/1999/xlink" x="0px" y="0px" style="enable-background:new 0 0 84 84;" xml:space="preserve">
<style type="text/css">
	.st0{fill:#FFFFFF;}
	.st1{fill:#FF0000;}
	.st2{fill:#020202;}
</style>
<g transform="translate(0.00,0.00) scale(1.857143)">
<g>
	<circle class="st0" cx="42" cy="42" r="37.5"/>
	<path class="st1" d="M42,84C18.8,84,0,65.2,0,42C0,18.8,18.8,0,42,0c23.2,0,42,18.8,42,42C84,65.2,65.2,84,42,84z M42,9
		C23.8,9,9,23.8,9,42s14.8,33,33,33s33-14.8,33-33S60.2,9,42,9z"/>
</g>
<g>
	<path class="st2" d="M21.1,64.1c0.1-1.4,0.1-2.7,0.2-3.8c4.3-0.8,8.5-1.6,13.7-2.6c4.6,2.8,10.3,2.7,14.9,0c5.1,1,9.4,1.8,13.9,2.7
		c0.1,0.9,0.2,2.3,0.3,3.8h-7.2c-4.4-2.7-8.8-1.5-13.1,0h-3.6c-4.2-2.4-8.4-1.9-12.5,0C27.7,64.1,21.1,64.1,21.1,64.1z"/>
</g>
<g>
	<path class="st2" d="M59,25.1v12.7c2,1,3.5,1.8,4.8,2.5c-1.5,5.3-2.8,10.1-4.1,14.9c-3.7,0.8-6.1-1.4-8.8-3.6
		c-3.1,3.6-7.2,4.3-12.1,3.5c-1.3-0.9-3-2.1-4.9-3.4c-2.3,2-4.6,4.3-8.4,3.5c-1.3-4.6-2.7-9.3-4.1-14.2c0.3-0.5,0.8-1.2,1.3-2
		c0.9-0.1,1.9-0.2,3.2-0.4c0-3.3,0-6.5,0-9.7c0-3.1,1.2-4.2,4.2-4.3c1,0,2,0,3,0c0.9,0,1.8,0,3,0v-6.3h13v6
		C52.4,24.5,55.5,24.8,59,25.1L59,25.1z M55,28.5H29.9v8.8c8.5-5,16.8-4.6,25.2-0.2V28.5z"/>
</g>
</g>
</svg>
