<?xml version="1.0" encoding="utf-8"?>
<!-- Generator: Adobe Illustrator 28.0.0, SVG Export Plug-In . SVG Version: 6.00 Build 0)  -->
<svg width="156px" height="156px" viewBox="0 0 156 156" version="1.1" id="Calque_1" xmlns="http://www.w3.org/2000/svg" xmlns:xlink="http://www.w3.org/1999/xlink" x="0px" y="0px" style="enable-background:new 0 0 75 75;" xml:space="preserve">
<style type="text/css">
	.st0{fill:#FFFFFF;}
	.st1{fill:#FE0808;}
</style>
<g transform="translate(0.00,0.00) scale(2.080000)">
<rect class="st0" width="75" height="75"/>
<path class="st1" d="M69.7,53c-7,4.8-13.3,3.1-19.5-1.2c-1.2-0.3-2.3-0.7-3.5-0.8c-5.4-0.5-9.2,4.3-14.4,4.9c-2.1,0.3-4.1-0.1-6-1
	c-4.5-1.8-10.7-6-15.1-2.3C10.2,53.4,9,54,7.8,54.8c-1.7-0.4-1.7-1.6-1.1-3c-1.8-0.9-1.7-2.8-2.2-4.2c-1.9-6-3.1-11.7-4.5-17.9
	c0.7-0.4,1.4-0.7,2.1-1C5,33.4,4.8,38.8,6.9,43.8c0.7-0.3,1.5-0.6,2.1-1.1c3.1-2.4,6.5-3,10.3-2.5c0.4,0,0.7,0.3,1.1,0.5
	c0.5,0.2,1,0.3,1.5,0.4l0.4-0.4c-2.7-4.1-5.4-8.3-8.1-12.4c0.5-1.5,1.2-1.8,2.6-1.2c2.1,0.9,4.3,1.6,6.4,2.4c4.2,1.8,8.4,3.8,12.8,5
	c0.1-0.1,0.2-0.2,0.3-0.4c-0.1-0.4-0.3-0.8-0.4-1.3c0.8-2,1.7-4.1,2.6-6.1c0.2-0.4,0.7-0.7,1.2-0.9c3.4-1.4,6.2,1.3,9.3,1.8
	c0.6,0,1.3-0.3,1.8-0.6c2-1.6,3.3-3.6,5.5-4.9c0.5,0.8,0.9,1.4,1.3,2.1c-1.6,1.5-3,2.7-4.6,4.1c0.3,0.4,0.6,0.7,1.1,1.3
	c2.1-1.9,4-3.7,6.1-5.6c0.5,0.5,1.2,0.8,1.3,1.3c0.1,0.4-0.3,1.1-0.7,1.5c-1.1,1.1-2.2,2.1-3.6,3.4c1.3,1,2.8,1.6,4.4,2
	c2.2,0.8,4.4,1.5,6.5,2.3c0.6,0.2,1.1,0.8,1.8,1.2c-0.9,2.6-1.8,5.1-2.7,7.7c0.1,0.1,0.3,0.1,0.4,0.2c1.6-1,3.5-1.7,4-3.7
	c0.4-1.8,0.4-3.7,0.7-5.7h2.7c-0.1,1.2,0.2,2.4-0.2,3.3c-1,2.3-0.6,4.7-0.9,7c-0.9,9.5-2,18.8-3.1,28.3c-0.6,0.1-1.1,0.4-1.6,0.3
	c-3.6-0.5-7.2-1.2-10.8-1.7c-8.1-0.9-15.8-3-24-3.4c0.2-0.9,0.3-1.7,0.4-2.6c11.2,1.6,22.2,3.2,33.4,4.9c0.7-2.8,0.7-5.6,0.9-8.3
	c-2,0.7-3.8,1.3-5.6,1.9c-2.1,0.6-4.3,0.8-6.4-0.1c-3.1-1.3-6.1-2.8-9.3-3.9c-1.4-0.5-3-0.7-4.6,0.2c-2.3,1.3-5,2.1-7.3,3.5
	c-4,1.4-7.9,1.4-11.8-0.8c-1.7-1-3.7-1.4-5.3-2.4s-3.2-0.8-5.5-0.3c-1.7,0.9-3.9,2.2-6.3,3.6c0.6,1.6,1,2.8,1.6,4.1
	c0.1,0.3,0.6,0.5,1,0.6c5.8,1.2,11.4,2.3,17.1,4c-0.1,0.8-0.1,1.6-0.2,2.5c-0.4,0.1-0.8,0.3-1.1,0.4c-2.5-1.4-5.3-1.5-8-2.1
	c-3.4-0.8-6.8-1.4-10.1-2.4c-0.7-0.2-1.4-1.3-1.7-2.1c-1.1-3.6-2.3-6.9-2.9-10.6c0.9-0.2,1.6-0.4,2.4-0.5c0.5,1.2,1,2.2,1.5,3.3
	c4.7-2.8,9-5.4,14.3-2.5c4.4,2.1,9.1,5.3,14,2.8c2.9-1.4,5.8-2.7,8.9-3.9c1.1-0.4,2.5-0.4,3.6-0.1c2.7,0.9,5.4,1.9,7.8,3.4
	c3.7,2.1,7.5,1.5,11.1-0.1C68.9,59.1,70.7,56.2,69.7,53L69.7,53z M70.3,45.3c-9.7,3.7-10.5,2.5-19.6-1.4c-1.1-0.5-2.2-1.2-3.3-1.4
	c-1-0.2-2.1,0.2-3,0.6c-5.8,1.9-11.4,6.5-17.7,3.4c-3.2-1.6-6.6-3.1-10.1-3.9c-6.8,1.8-7.4,3-9.2,4.8c0.4,1.1,0.8,2.2,1.2,3.5
	c0.3-0.1,0.8-0.2,1.1-0.5c3.5-2.3,7.2-2.3,10.9-0.7c2.7,1.1,5.2,2.7,8.1,3.4c4.7,1,8.9-1.8,12.8-4c3.5-1.3,7.3-1,10.5,1
	c1.7,1,3.5,2,5.4,2.7c4.1,1.3,7.9,0.4,11.3-2.1C70.2,49.4,71,47,70.3,45.3L70.3,45.3z M39,32.3c2,1,3.8,1.6,5.8,2.3
	c4.2,1.6,8.2,3.6,12.5,5c2.1,0.8,4.1,1.7,6.2,2.4c0.4,0.2,1,0,1.5,0c0.5-1.8,1-3.5,1.5-5c-0.4-0.3-0.5-0.4-0.6-0.5
	c-3.5-1.4-7.1-2.8-10.7-4.1c-3-1.1-6.1-2.2-9.2-3.3c-1.8-0.7-3.6-1.3-5.5-1.6C40,29.4,39.5,30.7,39,32.3L39,32.3z M42.8,40.7
	c-0.7-0.5-1.2-0.9-1.7-1.1c-3.9-1.6-7.8-2.9-11.7-4.5c-2.8-1.2-5.6-2.4-8.5-3.5c-0.4-0.2-0.9-0.1-1.8-0.1c2.4,4.1,4.5,7.3,7.2,10.9
	c0.5,0.7,1.3,1.4,2.1,1.8c0.8,0.4,1.7,0.5,2.1,0.6C35.4,44.8,38.7,42,42.8,40.7L42.8,40.7z"/>
<path class="st1" d="M72.9,25.5c-2.3,0.2-2.6-0.1-2.5-2c0.1-1.7,0.2-3.5,0.3-5.2c0.1-3.5,0.2-7.1,0.2-10.6c0-0.2-0.1-0.4-0.2-0.9
	c-5.6,1.7-11.2,3.4-16.9,5.2c-0.2-0.8-0.3-1.6-0.5-2.6c7-2.6,14-4.5,21.1-6.9C73.9,10.4,73.4,18,72.9,25.5L72.9,25.5z"/>
<path class="st1" d="M1.9,2.8C8.7,1.8,15.4,0.9,22.4,0c0.2,0.9,0.3,1.6,0.4,2.4c-1.7,0.3-3.1,0.6-4.6,0.8c-3.3,0.5-6.6,1-10,1.5
	c-0.2,0-0.3,0.1-0.5,0.1c-3.1,0.4-3.1,0.4-3,3.6c0.2,5,0.4,10,0.6,15c0,0.5-0.1,1-0.2,1.5C4.4,24.9,3.8,25,3,25.2
	c-0.1-0.4-0.4-0.9-0.4-1.4C2.3,17.9,2.2,11.9,2,6C2,5,1.9,4.1,1.9,2.8L1.9,2.8z"/>
<path class="st1" d="M51.5,4.6v2.7H21.8c0-0.8-0.1-1.7-0.1-2.7H51.5z"/>
</g>
</svg>
