<?xml version="1.0" encoding="utf-8"?>
<!-- Generator: Adobe Illustrator 28.0.0, SVG Export Plug-In . SVG Version: 6.00 Build 0)  -->
<svg width="156px" height="156px" viewBox="0 0 156 156" version="1.1" id="Ebene_1" xmlns="http://www.w3.org/2000/svg" xmlns:xlink="http://www.w3.org/1999/xlink" x="0px" y="0px" style="enable-background:new 0 0 216.4 75;" xml:space="preserve">
<style type="text/css">
	.st0{fill:#0C0CFE;}
</style>
<g transform="translate(0.00,50.97) scale(0.720887)">
<path class="st0" d="M186.3,75c1.2-16.9-9.6-26.1-22.8-32.7c-25.1-12.5-52-14.9-79.3-10c-10.5,1.9-20.7,5.9-30.7,9.7
	c-4.8,1.8-9.1,5.3-13.1,8.6C32.9,56.9,28.7,64.9,30.3,75H0c0.2-2.4,0.5-4.9,0.8-8.1h17.5c2.4-5.8,4.4-10.7,6.7-16.3
	c-5.2-3.4-10.6-6.9-16.7-10.8c1.3-2.2,2.5-4.2,3.8-6.5c6.4,3.9,12.3,7.6,18.3,11.2c5.6-4.1,11.1-8,16.6-12
	c-3.9-5.4-7.7-10.7-11.8-16.5c2-1.5,3.8-3,6.3-4.9c4.5,6.1,8.8,11.8,13.4,18c5.9-1.9,11.8-3.7,18.2-5.7c-1.4-6.1-2.8-11.9-4.3-18.4
	c2.2-0.7,4.4-1.5,7.3-2.4C78,9.1,79.6,15,81.4,21.4c7.1-0.7,14.1-1.3,21.7-2V0.6c3.1-0.2,5.5-0.4,8.5-0.6v19.2
	c7.8,0.8,14.9,1.5,22.6,2.3c1.7-6.1,3.3-12.1,5-18.7c2.5,0.4,4.8,0.8,7.6,1.3c-1.6,6.6-3,12.6-4.5,19c6.2,2,12.1,3.9,18.7,6
	c4-5.6,8.1-11.1,12.3-16.9c2.2,1.6,4,2.8,6.3,4.4c-3.7,5.4-7.3,10.5-10.9,15.7c5.2,3.6,10.3,7.2,15.7,10.9
	c5.9-3.7,12.1-7.6,18.7-11.8c1.5,2,2.8,3.9,4.5,6.2c-6,3.9-11.6,7.5-17.4,11.3c2.5,5.8,4.9,11.4,7.6,17.6h18.5c-1.2,3.5-2,6-2.8,8.5
	H186.3L186.3,75z"/>
</g>
</svg>
