<svg width="156" height="156" viewBox="0 0 156 156" fill="none" xmlns="http://www.w3.org/2000/svg">
<rect x="4" y="4" width="148" height="148" stroke="#0000FF" stroke-width="8"/>
<path d="M41.1802 82.8667C42.4608 82.8667 43.3572 81.9274 44.083 80.8176C46.4736 77.1889 49.2912 74.9263 53.5175 74.9263C57.7863 74.9263 60.2624 77.1463 62.3541 80.7748C63.0373 81.9702 63.8056 82.8667 65.0863 82.8667C66.3671 82.8667 67.1782 81.9702 67.8184 80.8176C69.2273 78.2987 71.6605 76.2924 74.3927 75.3105V111.426C74.3927 114.756 72.0447 117.36 68.4588 117.36C64.9584 117.36 62.6104 114.713 62.6104 111.426C62.6104 108.822 60.988 107.328 58.9391 107.328C56.9326 107.328 55.3959 108.822 55.3959 111.426C55.3959 118.726 60.9454 124.532 68.4588 124.532C76.0148 124.532 81.6072 118.726 81.6072 111.426V75.3105C84.3393 76.2924 86.7301 78.2987 88.1816 80.8176C88.8218 81.9702 89.5903 82.8667 90.9138 82.8667C92.1944 82.8667 92.9627 81.9702 93.6459 80.7748C95.7376 77.1889 98.2137 74.9263 102.483 74.9263C106.709 74.9263 109.569 77.4024 111.917 81.0737C112.643 82.1836 113.539 82.8667 114.82 82.8667C116.57 82.8667 118.235 81.4578 118.235 79.1526C118.235 63.9123 106.709 42.7809 81.6072 40.9026V35.2676C81.6072 33.0051 80.0704 31.4681 77.9787 31.4681C75.9296 31.4681 74.3927 33.0051 74.3927 35.2676V40.9026C49.2912 42.7809 37.7648 63.9123 37.7648 79.1526C37.7648 81.4578 39.3872 82.8667 41.1802 82.8667Z" fill="#0000FF"/>
</svg>
