<?xml version="1.0" encoding="utf-8"?>
<!-- Generator: Adobe Illustrator 28.0.0, SVG Export Plug-In . SVG Version: 6.00 Build 0)  -->
<svg width="156px" height="156px" viewBox="0 0 156 156" version="1.1" id="Ebene_1" xmlns="http://www.w3.org/2000/svg" xmlns:xlink="http://www.w3.org/1999/xlink" x="0px" y="0px" style="enable-background:new 0 0 78.4 78.4;" xml:space="preserve">
<style type="text/css">
	.st0{fill:#FFFFFF;}
	.st1{fill:#FF0000;}
	.st2{fill:#FE0101;}
</style>
<g transform="translate(0.00,0.00) scale(1.989796)">
<g>
	<rect x="1.7" y="2.7" class="st0" width="74.9" height="73.1"/>
</g>
<g>
	<path class="st1" d="M78.4,78.4H0V0h78.4V78.4z M3.4,75H75V3.4H3.4V75z"/>
</g>
<g>
	<path class="st2" d="M15.8,41.6c-1.1,0-3.7-0.1-6.1-1.8c-1.2-0.9-2.3-2-3.1-3.5C4,31.6,6,25.9,10.9,23.7c1-0.5,2.1-0.6,3.2-1
		c0.3-0.1,0.7-0.5,0.7-0.8c-0.3-5.7,6.4-11.6,14.3-8.9c1,0.4,1.5,0.3,2.2-0.6c3.8-4.7,9.1-6.1,14.9-5.8c3.8,0.2,7.2,1.5,10.1,4.1
		c1.8,1.6,3.2,3.6,3.6,6.1c0.1,0.8,0.5,1.1,1.3,1.2c4.1,0.6,7.7,2.3,10.4,5.6c3.3,4.2,2.7,10.1-1.4,13.8c-1,0.9-2,1.6-3,2.2
		c-3.8,2.1-7.6,2.1-9,2.1C32.1,42.1,26.7,41.9,15.8,41.6L15.8,41.6z"/>
</g>
<g>
	
		<rect x="11.2" y="49.5" transform="matrix(0.6188 -0.7856 0.7856 0.6188 -34.0901 30.8752)" class="st1" width="7.1" height="2.1"/>
</g>
<g>
	
		<rect x="20.1" y="49.5" transform="matrix(0.6188 -0.7856 0.7856 0.6188 -30.6894 37.8826)" class="st1" width="7.1" height="2.1"/>
</g>
<g>
	<rect x="11.2" y="60.5" transform="matrix(0.618 -0.7862 0.7862 0.618 -42.7777 35.1362)" class="st1" width="7.1" height="2.1"/>
</g>
<g>
	<rect x="20.1" y="57.8" transform="matrix(0.618 -0.7862 0.7862 0.618 -37.1998 41.0946)" class="st1" width="7.1" height="2.1"/>
</g>
<g>
	
		<rect x="29.6" y="54.5" transform="matrix(0.6188 -0.7856 0.7856 0.6188 -31.0261 47.2084)" class="st1" width="7.1" height="2.1"/>
</g>
<g>
	<rect x="27" y="47.2" transform="matrix(0.619 -0.7854 0.7854 0.619 -26.2992 42.3996)" class="st1" width="7.1" height="2.1"/>
</g>
<g>
	<rect x="39.7" y="48.2" transform="matrix(0.6182 -0.786 0.786 0.6182 -22.2401 52.8251)" class="st1" width="7.1" height="2.1"/>
</g>
<g>
	<rect x="44.1" y="51.6" transform="matrix(0.6182 -0.786 0.786 0.6182 -23.1625 57.606)" class="st1" width="7.1" height="2.1"/>
</g>
<g>
	<rect x="33.9" y="60.5" transform="matrix(0.618 -0.7862 0.7862 0.618 -34.0903 53.0142)" class="st1" width="7.1" height="2.1"/>
</g>
<g>
	<rect x="44.1" y="59.9" transform="matrix(0.6182 -0.786 0.786 0.6182 -29.663 60.7636)" class="st1" width="7.1" height="2.1"/>
</g>
<g>
	<rect x="53.6" y="56.6" transform="matrix(0.6182 -0.786 0.786 0.6182 -23.4958 66.9393)" class="st1" width="7.1" height="2.1"/>
</g>
<g>
	<rect x="53.6" y="47.2" transform="matrix(0.6182 -0.786 0.786 0.6182 -16.1467 63.3695)" class="st1" width="7.1" height="2.1"/>
</g>
<g>
	<rect x="22.5" y="63.4" transform="matrix(0.618 -0.7862 0.7862 0.618 -40.6862 45.121)" class="st1" width="7.1" height="2.1"/>
</g>
<g>
	<rect x="27" y="69" transform="matrix(0.6198 -0.7848 0.7848 0.6198 -43.3348 50.5993)" class="st1" width="7.1" height="2.1"/>
</g>
<g>
	<rect x="37.3" y="69" transform="matrix(0.6188 -0.7856 0.7856 0.6188 -39.4347 58.7822)" class="st1" width="7.1" height="2.1"/>
</g>
<g>
	<rect x="48.5" y="68.3" transform="matrix(0.6198 -0.7848 0.7848 0.6198 -34.6187 67.249)" class="st1" width="7.1" height="2.1"/>
</g>
<g>
	<rect x="61.2" y="53.9" transform="matrix(0.6188 -0.7856 0.7856 0.6188 -18.4943 71.861)" class="st1" width="7.1" height="2.1"/>
</g>
<g>
	
		<rect x="59.1" y="63.5" transform="matrix(0.6188 -0.7856 0.7856 0.6188 -26.8576 73.8378)" class="st1" width="7.1" height="2.1"/>
</g>
</g>
</svg>
