<?xml version="1.0" encoding="utf-8"?>
<!-- Generator: Adobe Illustrator 28.0.0, SVG Export Plug-In . SVG Version: 6.00 Build 0)  -->
<svg width="156px" height="156px" viewBox="0 0 156 156" version="1.1" id="Ebene_1" xmlns="http://www.w3.org/2000/svg" xmlns:xlink="http://www.w3.org/1999/xlink" x="0px" y="0px" style="enable-background:new 0 0 78.2 76.8;" xml:space="preserve">
<style type="text/css">
	.st0{fill:#FFFFFF;}
	.st1{enable-background:new    ;}
	.st2{fill:#FF0000;}
</style>
<g transform="translate(0.00,1.40) scale(1.994885)">
<g>
	<rect x="1.6" y="1.6" class="st0" width="75" height="73.7"/>
</g>
<g class="st1">
	<path class="st2" d="M7.7,21.1l3.5-0.3c0.2,1.1,0.6,2,1.3,2.5c0.6,0.5,1.5,0.8,2.6,0.8c1.2,0,2-0.2,2.6-0.7c0.6-0.5,0.9-1,0.9-1.7
		c0-0.4-0.1-0.8-0.4-1c-0.2-0.3-0.7-0.5-1.3-0.8c-0.4-0.1-1.4-0.4-2.9-0.8c-1.9-0.5-3.3-1-4-1.7c-1.1-1-1.6-2.1-1.6-3.5
		c0-0.9,0.3-1.7,0.8-2.5c0.5-0.8,1.2-1.4,2.2-1.8s2.1-0.6,3.5-0.6c2.2,0,3.9,0.5,5,1.4c1.1,1,1.7,2.2,1.8,3.8L18,14.5
		c-0.2-0.9-0.5-1.5-1-1.9c-0.5-0.4-1.3-0.6-2.3-0.6c-1,0-1.9,0.2-2.4,0.6c-0.4,0.3-0.6,0.6-0.6,1.1c0,0.4,0.2,0.8,0.5,1.1
		c0.5,0.4,1.5,0.8,3.3,1.2c1.7,0.4,3,0.8,3.9,1.2c0.8,0.4,1.5,1,2,1.8c0.5,0.7,0.7,1.7,0.7,2.8c0,1-0.3,1.9-0.8,2.8
		c-0.6,0.9-1.4,1.5-2.4,1.9c-1,0.4-2.3,0.6-3.9,0.6c-2.2,0-4-0.5-5.2-1.5C8.7,24.6,8,23.1,7.7,21.1z"/>
</g>
<g class="st1">
	<path class="st2" d="M29.1,26.8V12.3h-5.3V9.4H38v2.9h-5.2v14.4H29.1z"/>
</g>
<g class="st1">
	<path class="st2" d="M54.3,26.8h-3.9l-1.5-3.9h-7.1l-1.5,3.9h-3.8l6.9-17.4h3.8L54.3,26.8z M47.7,19.9l-2.4-6.4l-2.4,6.4H47.7z"/>
</g>
<g class="st1">
	<path class="st2" d="M55.4,9.4H59v9.4c0,1.5,0,2.5,0.1,2.9c0.2,0.7,0.5,1.3,1.1,1.7s1.4,0.6,2.4,0.6c1,0,1.8-0.2,2.3-0.6
		c0.5-0.4,0.8-0.9,0.9-1.5c0.1-0.6,0.2-1.6,0.2-3V9.4h3.6v9.1c0,2.1-0.1,3.6-0.3,4.4s-0.6,1.6-1.1,2.2c-0.5,0.6-1.2,1.1-2.1,1.4
		c-0.9,0.4-2,0.5-3.4,0.5c-1.7,0-3-0.2-3.8-0.6c-0.9-0.4-1.6-0.9-2.1-1.5c-0.5-0.6-0.8-1.3-1-1.9c-0.2-1-0.4-2.5-0.4-4.4V9.4z"/>
</g>
<g class="st1">
	<path class="st2" d="M37.4,56.1L35.8,41v-7h6.3v7l-1.5,15.1H37.4z M36.1,63.8v-5.7h5.8v5.7H36.1z"/>
</g>
<g>
	<path class="st2" d="M78.2,76.8H0V0h78.2V76.8z M3.2,73.7H75V3.2H3.2V73.7z"/>
</g>
</g>
</svg>
