<?xml version="1.0" encoding="utf-8"?>
<!-- Generator: Adobe Illustrator 28.0.0, SVG Export Plug-In . SVG Version: 6.00 Build 0)  -->
<svg width="156px" height="156px" viewBox="0 0 156 156" version="1.1" id="Ebene_1" xmlns="http://www.w3.org/2000/svg" xmlns:xlink="http://www.w3.org/1999/xlink" x="0px" y="0px" style="enable-background:new 0 0 75 75;" xml:space="preserve">
<style type="text/css">
	.st0{fill:#FFFFFF;}
	.st1{fill:#FF0101;}
</style>
<g transform="translate(0.00,0.00) scale(2.080000)">
<rect class="st0" width="75" height="75"/>
<path class="st1" d="M0,75V0h75v75H0z M72.2,2.9H2.9v69.4C26,72.2,49.1,72.1,72.2,72V2.9z"/>
<path class="st1" d="M20.7,16.8c6,4.6,13.3,2.6,20,1.1c0.1,0.2,0.1,0.4,0.2,0.6c-3.9,1.7-7.7,3.4-11.6,5.1c6.2,5.4,15,6.1,22.8,4.3
	c0,0,0-0.1,0-0.2c-1.7-1.9-4.4-3.2-5.6-5.3c0,0,0.1,0,0.1-0.1c3.9,0.9,8.3,4.3,12.2,2c-1.1-1.3-2.2-2.5-3.3-3.8c0,0,0,0,0-0.1
	c4.8,2.3,10.4,1.4,14.8-1.3c0.1,0.2,0.2,0.3,0.3,0.4c-3.9,3.8-8.2,7.1-8.8,12.9c-0.6-1.5-1.2-2.9-1.8-4.4c-4.7,2-1.6,8.8-4,11.5
	c-0.6-2.3-1.2-4.6-1.8-7c-2.2,1.2-4.5,4.2-4.3,6.7c4.6,3.6,9.4,7,13.9,10.8c-1.9-0.2-3.8-0.4-5.7-0.6c-0.1,1.3-0.2,2.5-0.3,3.8
	c-1.2-0.9-2.4-1.7-3.5-2.5c-0.8,0.7-1.5,1.4-2.2,2.1c-1.5-1.4-2.9-2.9-4.5-4.3c-0.5,2.1-1,4.1-1.5,6.1h-0.7
	c0.2-5.7,1.1-8.5-4.1-12.2c-4,3-8.1,5.9-12.1,8.9c-0.5-0.5-1-1-1.5-1.5c0.7-0.9,1.3-1.8,2.1-2.8c-1.8-0.1-5.1,1.6-5.1-1.2
	c1.3-1.2,3.1-2.1,4.6-3.2c-0.8-0.7-1.5-1.3-2.3-2c2.7-1.4,5.3-2.8,8-4.2c-3.3-3.2-6.5-6.4-9.7-9.5c-2,4.7-4.1,9.4-6.2,14.2
	c-0.2-0.1-0.3-0.2-0.6-0.4c1.9-6.8,1.8-13.7-0.6-20.5c-1.5,2.9-3,5.8-4.5,8.7c-0.2-0.1-0.3-0.2-0.5-0.3c0.9-4.5,3.9-10.2-0.2-14
	c-1.2,1.9-2.4,3.8-3.6,5.7C9.2,20.2,9,20.1,8.8,20c2.8-5.4-0.6-10.3-3.9-14.5C5,5.4,5.1,5.2,5.1,5.2c4.9,4.4,8.2,4.3,14.1,4.2
	c0,0.1,0,0.1,0,0.1c-1.5,0.9-3,1.8-4.5,2.7c3.1,3.4,9.1-0.5,12.3,0.7C25,14.2,22.9,15.5,20.7,16.8L20.7,16.8z M22.7,21
	C22.7,21,22.7,21.1,22.7,21C22.7,21.1,22.7,21.1,22.7,21C22.7,21,22.7,21,22.7,21c-0.1,0-0.2-0.1-0.2-0.2C22.5,20.9,22.6,21,22.7,21
	L22.7,21z M57.9,27.3c0,0,0-0.1-0.1-0.1c-9,4.6-18,9.1-27,13.7c0.7,0.7,1.3,1.4,1.9,2c-1,0.7-2,1.3-3,2c3.5,0.2,5.9-2.8,8.7-4.4
	C44.9,36.1,51.4,31.8,57.9,27.3L57.9,27.3z M52,50.3c0.7-0.8,1.3-1.5,1.9-2.2c0.7,0.5,1.4,0.9,2.1,1.4c0.1-0.7,0.1-1.4,0.2-2h0.9
	c-2.7-2-5.3-4-7.9-6C47.4,46,48.7,47.2,52,50.3z M22.8,21.1C22.8,21.1,22.8,21.2,22.8,21.1c4.5,4.6,9.1,9,13.6,13.6
	c1,1.3,2.2-0.3,3.3-0.6C34.1,29.8,28.5,25.4,22.8,21.1z M45.6,43.8v-4.6c-0.9,0.7-1.7,1.4-2.6,2.1C43.9,42.1,44.7,42.9,45.6,43.8z
	 M58,27.2C58,27.2,58,27.3,58,27.2C58,27.2,58,27.2,58,27.2C58,27.2,58,27.2,58,27.2z"/>
<path class="st1" d="M16.3,46.7c1.3,1,2.6,1.9,3.9,2.8c1-1.4,2-2.7,3-4.1c0.7,2,1.3,4,2,6c0.6-0.4,1.3-0.7,2-1.1
	c0.1,4.2,1.5,8.8,1,12.7c-3.8,1.5-8.4,2.2-11.9-0.3C15.6,57.6,16.4,52,16.3,46.7L16.3,46.7z M18.4,50.8c0.6,5.1-3.3,13.4,5,11.4
	c0.5-4.3,0.9-8.4-1.1-12.3c-0.6,0.8-1.2,1.6-1.9,2.3C19.8,51.7,19.1,51.3,18.4,50.8L18.4,50.8z"/>
<path class="st1" d="M62.4,57.6c0.8-0.3,1.5-0.6,2.3-1c0.5,3.4,1,6.8,1.5,10.2c-15.7,3.7-14.2,0.7-13.5-13c4.4,2.6,4.2,2.5,7.7-1.1
	C61.1,54.3,61.7,56,62.4,57.6L62.4,57.6z M54.6,65.7c1.9,0.6,5.4,1.8,6.7,0c0-3.3,0-6.5-1.8-9.4c-1.8,1.9-2.4,2-4.6,0.6
	C54.8,59.9,54.7,62.8,54.6,65.7L54.6,65.7z"/>
<path class="st0" d="M45.6,43.8c-0.9-0.9-1.7-1.7-2.6-2.5c0.9-0.7,1.7-1.4,2.6-2.1V43.8z"/>
</g>
</svg>
