<?xml version="1.0" encoding="utf-8"?>
<!-- Generator: Adobe Illustrator 28.0.0, SVG Export Plug-In . SVG Version: 6.00 Build 0)  -->
<svg width="156px" height="156px" viewBox="0 0 156 156" version="1.1" id="Ebene_1" xmlns="http://www.w3.org/2000/svg" xmlns:xlink="http://www.w3.org/1999/xlink" x="0px" y="0px" style="enable-background:new 0 0 77.4 40;" xml:space="preserve">
<style type="text/css">
	.st0{fill:#FFFFFF;}
	.st1{fill:#0000FF;}
	.st2{enable-background:new    ;}
</style>
<g transform="translate(0.00,37.69) scale(2.015504)">
<g>
	<polygon class="st0" points="76.2,1.2 76.2,38.8 1.2,38.8 1.2,1.2 76.2,1.2 	"/>
	<path class="st1" d="M77.4,40H0V0h77.4V40z M2.4,37.6H75V2.4H2.4V37.6z"/>
</g>
<g>
	<polygon class="st0" points="52.9,4.7 73.1,20.1 52.9,35.6 52.9,4.7 	"/>
	<path class="st1" d="M51.6,38V2.2l23.4,17.9L51.6,38z M54.1,7.1v26l17-13L54.1,7.1z"/>
</g>
<g class="st2">
	<path class="st1" d="M17.1,25v-8.7h-3.1v-1.8h8.3v1.8h-3.1V25H17.1z"/>
	<path class="st1" d="M23.8,25V14.6h2.1v8.6h5.2V25H23.8z"/>
	<path class="st1" d="M32.6,25V14.5h7.1v1.8h-5v2.5h4.4v1.8h-4.4V25H32.6z"/>
</g>
</g>
</svg>
