<?xml version="1.0" encoding="utf-8"?>
<!-- Generator: Adobe Illustrator 28.0.0, SVG Export Plug-In . SVG Version: 6.00 Build 0)  -->
<svg width="156px" height="156px" viewBox="0 0 156 156" version="1.1" id="Ebene_1" xmlns="http://www.w3.org/2000/svg" xmlns:xlink="http://www.w3.org/1999/xlink" x="0px" y="0px" style="enable-background:new 0 0 84.4 84.4;" xml:space="preserve">
<style type="text/css">
	.st0{fill:#FFFFFF;}
	.st1{fill:#0000FF;}
	.st2{enable-background:new    ;}
	.st3{fill:none;stroke:#0000FF;stroke-width:0.94;stroke-miterlimit:10;}
</style>
<g transform="translate(0.00,0.00) scale(1.848341)">
<g>
	<path class="st0" d="M4.7,42.2c0-20.7,16.8-37.5,37.5-37.5l0,0c20.7,0,37.5,16.8,37.5,37.5l0,0c0,20.7-16.8,37.5-37.5,37.5l0,0
		C21.5,79.7,4.7,62.9,4.7,42.2C4.7,42.2,4.7,42.2,4.7,42.2z"/>
	<path class="st1" d="M42.2,84.4C18.9,84.4,0,65.5,0,42.2C0,18.9,18.9,0,42.2,0c23.3,0,42.2,18.9,42.2,42.2
		C84.4,65.5,65.5,84.4,42.2,84.4z M42.2,9.4C24.1,9.4,9.4,24.1,9.4,42.2C9.4,60.3,24.1,75,42.2,75C60.3,75,75,60.3,75,42.2
		C75,24.1,60.3,9.4,42.2,9.4z"/>
</g>
<g class="st2">
	<path class="st1" d="M22.2,41.1V29.8H18v-1.5h10.1v1.5h-4.2v11.3H22.2z"/>
</g>
<g class="st2">
	<path class="st3" d="M22.2,41.1V29.8H18v-1.5h10.1v1.5h-4.2v11.3H22.2z"/>
</g>
<g class="st2">
	<path class="st1" d="M34.4,38.1l1.6,0.2c-0.3,0.9-0.7,1.7-1.4,2.2C34,41,33.1,41.3,32,41.3c-1.4,0-2.4-0.4-3.2-1.3
		c-0.8-0.8-1.2-2-1.2-3.5c0-1.6,0.4-2.8,1.2-3.6s1.8-1.3,3.1-1.3c1.2,0,2.2,0.4,3,1.3c0.8,0.8,1.2,2,1.2,3.6c0,0.1,0,0.2,0,0.4h-6.9
		c0.1,1,0.3,1.8,0.9,2.3c0.5,0.5,1.2,0.8,1.9,0.8c0.6,0,1.1-0.2,1.5-0.5C33.9,39.2,34.2,38.8,34.4,38.1z M29.3,35.5h5.2
		c-0.1-0.8-0.3-1.4-0.6-1.8c-0.5-0.6-1.1-0.9-1.9-0.9c-0.7,0-1.3,0.2-1.8,0.7S29.3,34.7,29.3,35.5z"/>
	<path class="st1" d="M44.4,37.7l1.5,0.2c-0.2,1.1-0.6,1.9-1.3,2.5c-0.7,0.6-1.5,0.9-2.6,0.9c-1.3,0-2.3-0.4-3.1-1.2
		c-0.8-0.8-1.2-2-1.2-3.6c0-1,0.2-1.9,0.5-2.6s0.8-1.3,1.5-1.7c0.7-0.4,1.4-0.6,2.2-0.6c1,0,1.8,0.3,2.5,0.8c0.6,0.5,1,1.2,1.2,2.2
		l-1.5,0.2c-0.1-0.6-0.4-1.1-0.8-1.4c-0.4-0.3-0.8-0.5-1.3-0.5c-0.8,0-1.4,0.3-1.9,0.8c-0.5,0.6-0.7,1.5-0.7,2.7
		c0,1.2,0.2,2.1,0.7,2.7c0.5,0.6,1.1,0.8,1.9,0.8c0.6,0,1.1-0.2,1.5-0.6C44.1,39,44.3,38.5,44.4,37.7z"/>
	<path class="st1" d="M47.6,41.1V28.3h1.6v4.6c0.7-0.8,1.7-1.3,2.8-1.3c0.7,0,1.3,0.1,1.8,0.4s0.9,0.6,1.1,1.1s0.3,1.2,0.3,2.1v5.9
		h-1.6v-5.9c0-0.8-0.2-1.4-0.5-1.7S52.3,33,51.7,33c-0.5,0-0.9,0.1-1.3,0.4s-0.7,0.6-0.9,1c-0.2,0.4-0.3,1-0.3,1.7v5.1H47.6z"/>
	<path class="st1" d="M57.9,41.1v-9.3h1.4v1.3c0.7-1,1.7-1.5,2.9-1.5c0.6,0,1.1,0.1,1.5,0.3c0.5,0.2,0.8,0.5,1.1,0.8
		c0.2,0.3,0.4,0.7,0.5,1.2c0.1,0.3,0.1,0.8,0.1,1.5v5.7h-1.6v-5.6c0-0.6-0.1-1.1-0.2-1.4c-0.1-0.3-0.3-0.6-0.6-0.8
		C62.7,33.1,62.4,33,62,33c-0.7,0-1.2,0.2-1.7,0.6s-0.7,1.2-0.7,2.4v5.1H57.9z"/>
</g>
<g class="st2">
	<path class="st3" d="M34.4,38.1l1.6,0.2c-0.3,0.9-0.7,1.7-1.4,2.2C34,41,33.1,41.3,32,41.3c-1.4,0-2.4-0.4-3.2-1.3
		c-0.8-0.8-1.2-2-1.2-3.5c0-1.6,0.4-2.8,1.2-3.6s1.8-1.3,3.1-1.3c1.2,0,2.2,0.4,3,1.3c0.8,0.8,1.2,2,1.2,3.6c0,0.1,0,0.2,0,0.4h-6.9
		c0.1,1,0.3,1.8,0.9,2.3c0.5,0.5,1.2,0.8,1.9,0.8c0.6,0,1.1-0.2,1.5-0.5C33.9,39.2,34.2,38.8,34.4,38.1z M29.3,35.5h5.2
		c-0.1-0.8-0.3-1.4-0.6-1.8c-0.5-0.6-1.1-0.9-1.9-0.9c-0.7,0-1.3,0.2-1.8,0.7S29.3,34.7,29.3,35.5z"/>
	<path class="st3" d="M44.4,37.7l1.5,0.2c-0.2,1.1-0.6,1.9-1.3,2.5c-0.7,0.6-1.5,0.9-2.6,0.9c-1.3,0-2.3-0.4-3.1-1.2
		c-0.8-0.8-1.2-2-1.2-3.6c0-1,0.2-1.9,0.5-2.6s0.8-1.3,1.5-1.7c0.7-0.4,1.4-0.6,2.2-0.6c1,0,1.8,0.3,2.5,0.8c0.6,0.5,1,1.2,1.2,2.2
		l-1.5,0.2c-0.1-0.6-0.4-1.1-0.8-1.4c-0.4-0.3-0.8-0.5-1.3-0.5c-0.8,0-1.4,0.3-1.9,0.8c-0.5,0.6-0.7,1.5-0.7,2.7
		c0,1.2,0.2,2.1,0.7,2.7c0.5,0.6,1.1,0.8,1.9,0.8c0.6,0,1.1-0.2,1.5-0.6C44.1,39,44.3,38.5,44.4,37.7z"/>
	<path class="st3" d="M47.6,41.1V28.3h1.6v4.6c0.7-0.8,1.7-1.3,2.8-1.3c0.7,0,1.3,0.1,1.8,0.4s0.9,0.6,1.1,1.1s0.3,1.2,0.3,2.1v5.9
		h-1.6v-5.9c0-0.8-0.2-1.4-0.5-1.7S52.3,33,51.7,33c-0.5,0-0.9,0.1-1.3,0.4s-0.7,0.6-0.9,1c-0.2,0.4-0.3,1-0.3,1.7v5.1H47.6z"/>
	<path class="st3" d="M57.9,41.1v-9.3h1.4v1.3c0.7-1,1.7-1.5,2.9-1.5c0.6,0,1.1,0.1,1.5,0.3c0.5,0.2,0.8,0.5,1.1,0.8
		c0.2,0.3,0.4,0.7,0.5,1.2c0.1,0.3,0.1,0.8,0.1,1.5v5.7h-1.6v-5.6c0-0.6-0.1-1.1-0.2-1.4c-0.1-0.3-0.3-0.6-0.6-0.8
		C62.7,33.1,62.4,33,62,33c-0.7,0-1.2,0.2-1.7,0.6s-0.7,1.2-0.7,2.4v5.1H57.9z"/>
</g>
<g class="st2">
	<path class="st1" d="M37.6,56.1V43.3h4.8c1,0,1.8,0.1,2.4,0.4c0.6,0.3,1.1,0.7,1.4,1.2c0.3,0.5,0.5,1.1,0.5,1.7
		c0,0.5-0.1,1.1-0.4,1.5c-0.3,0.5-0.7,0.9-1.3,1.2c0.8,0.2,1.4,0.6,1.8,1.2c0.4,0.5,0.6,1.2,0.6,1.9c0,0.6-0.1,1.2-0.4,1.7
		S46.3,55,46,55.3s-0.8,0.5-1.4,0.6s-1.2,0.2-2.1,0.2H37.6z M39.3,48.7h2.8c0.8,0,1.3,0,1.6-0.1c0.4-0.1,0.8-0.3,1-0.6
		c0.2-0.3,0.3-0.7,0.3-1.1c0-0.4-0.1-0.8-0.3-1.1c-0.2-0.3-0.5-0.5-0.9-0.7c-0.4-0.1-1-0.2-1.9-0.2h-2.6V48.7z M39.3,54.6h3.2
		c0.5,0,0.9,0,1.2-0.1c0.4-0.1,0.7-0.2,1-0.3c0.3-0.2,0.5-0.4,0.6-0.7c0.2-0.3,0.3-0.7,0.3-1.1c0-0.5-0.1-0.9-0.4-1.2
		s-0.6-0.6-1-0.7c-0.4-0.1-1.1-0.2-1.9-0.2h-3V54.6z"/>
</g>
<g class="st2">
	<path class="st3" d="M37.6,56.1V43.3h4.8c1,0,1.8,0.1,2.4,0.4c0.6,0.3,1.1,0.7,1.4,1.2c0.3,0.5,0.5,1.1,0.5,1.7
		c0,0.5-0.1,1.1-0.4,1.5c-0.3,0.5-0.7,0.9-1.3,1.2c0.8,0.2,1.4,0.6,1.8,1.2c0.4,0.5,0.6,1.2,0.6,1.9c0,0.6-0.1,1.2-0.4,1.7
		S46.3,55,46,55.3s-0.8,0.5-1.4,0.6s-1.2,0.2-2.1,0.2H37.6z M39.3,48.7h2.8c0.8,0,1.3,0,1.6-0.1c0.4-0.1,0.8-0.3,1-0.6
		c0.2-0.3,0.3-0.7,0.3-1.1c0-0.4-0.1-0.8-0.3-1.1c-0.2-0.3-0.5-0.5-0.9-0.7c-0.4-0.1-1-0.2-1.9-0.2h-2.6V48.7z M39.3,54.6h3.2
		c0.5,0,0.9,0,1.2-0.1c0.4-0.1,0.7-0.2,1-0.3c0.3-0.2,0.5-0.4,0.6-0.7c0.2-0.3,0.3-0.7,0.3-1.1c0-0.5-0.1-0.9-0.4-1.2
		s-0.6-0.6-1-0.7c-0.4-0.1-1.1-0.2-1.9-0.2h-3V54.6z"/>
</g>
</g>
</svg>
