<?xml version="1.0" encoding="utf-8"?>
<!-- Generator: Adobe Illustrator 28.0.0, SVG Export Plug-In . SVG Version: 6.00 Build 0)  -->
<svg width="156px" height="156px" viewBox="0 0 156 156" version="1.1" id="Ebene_1" xmlns="http://www.w3.org/2000/svg" xmlns:xlink="http://www.w3.org/1999/xlink" x="0px" y="0px" style="enable-background:new 0 0 78.6 78.9;" xml:space="preserve">
<style type="text/css">
	.st0{fill:#FF0000;}
</style>
<g transform="translate(0.30,0.00) scale(1.977186)">
<g>
	
		<rect x="-8.2" y="24.3" transform="matrix(0.7071 -0.7071 0.7071 0.7071 -11.2368 26.6615)" class="st0" width="69.5" height="5.1"/>
</g>
<g>
	<rect x="4.5" y="37" transform="matrix(0.7071 -0.7071 0.7071 0.7071 -16.4989 39.3581)" class="st0" width="69.5" height="5.1"/>
</g>
<g>
	<rect x="17.5" y="50" transform="matrix(0.7071 -0.7071 0.7071 0.7071 -21.8642 52.325)" class="st0" width="69.5" height="5.1"/>
</g>
<g>
	<rect x="49.5" y="-8.4" transform="matrix(0.707 -0.7072 0.7072 0.707 -3.4101 44.5384)" class="st0" width="5.1" height="69.5"/>
</g>
<g>
	
		<rect x="36.8" y="4.3" transform="matrix(0.7071 -0.7071 0.7071 0.7071 -16.1065 39.2657)" class="st0" width="5.1" height="69.5"/>
</g>
<g>
	
		<rect x="23.8" y="17.3" transform="matrix(0.7071 -0.7071 0.7071 0.7071 -29.0735 33.9007)" class="st0" width="5.1" height="69.5"/>
</g>
</g>
</svg>
