<?xml version="1.0" encoding="utf-8"?>
<!-- Generator: Adobe Illustrator 28.0.0, SVG Export Plug-In . SVG Version: 6.00 Build 0)  -->
<svg width="156px" height="156px" viewBox="0 0 156 156" version="1.1" id="Ebene_1" xmlns="http://www.w3.org/2000/svg" xmlns:xlink="http://www.w3.org/1999/xlink" x="0px" y="0px" style="enable-background:new 0 0 78.7 56.2;" xml:space="preserve">
<style type="text/css">
	.st0{fill:#FFFFFF;}
	.st1{fill:#0000FF;}
</style>
<g transform="translate(0.00,22.30) scale(1.982211)">
<g>
	<circle class="st0" cx="39.5" cy="46.2" r="8.4"/>
	<path class="st1" d="M39.5,56.2c-5.6,0-10.1-4.5-10.1-10.1c0-5.6,4.5-10.1,10.1-10.1c5.6,0,10.1,4.5,10.1,10.1
		C49.6,51.7,45,56.2,39.5,56.2z M39.5,39.5c-3.7,0-6.7,3-6.7,6.7c0,3.7,3,6.7,6.7,6.7s6.7-3,6.7-6.7C46.2,42.5,43.2,39.5,39.5,39.5z
		"/>
</g>
<g>
	<circle class="st0" cx="16.6" cy="46.2" r="8.4"/>
	<path class="st1" d="M16.6,56.2c-5.6,0-10.1-4.5-10.1-10.1c0-5.6,4.5-10.1,10.1-10.1s10.1,4.5,10.1,10.1
		C26.7,51.7,22.2,56.2,16.6,56.2z M16.6,39.5c-3.7,0-6.7,3-6.7,6.7c0,3.7,3,6.7,6.7,6.7c3.7,0,6.7-3,6.7-6.7
		C23.3,42.5,20.3,39.5,16.6,39.5z"/>
</g>
<g>
	<circle class="st0" cx="62.3" cy="46.2" r="8.4"/>
	<path class="st1" d="M62.3,56.2c-5.6,0-10.1-4.5-10.1-10.1c0-5.6,4.5-10.1,10.1-10.1c5.6,0,10.1,4.5,10.1,10.1
		C72.4,51.7,67.9,56.2,62.3,56.2z M62.3,39.5c-3.7,0-6.7,3-6.7,6.7c0,3.7,3,6.7,6.7,6.7c3.7,0,6.7-3,6.7-6.7
		C69,42.5,66,39.5,62.3,39.5z"/>
</g>
<g>
	<polygon class="st0" points="1.9,34.6 39.3,34.6 76.8,34.6 76.8,18.5 76.8,2.4 58.3,7.5 46.1,9.8 39.3,10.2 31.8,9.6 20.5,7.4 
		1.9,2.4 1.9,18.5 	"/>
	<path class="st1" d="M78.7,36.5H0V0l20.9,5.5l11.2,2.2l7.3,0.5l6.5-0.4l12-2.2L78.7,0V36.5z M3.7,32.8H75v-28L58.6,9.3l-12.4,2.3
		L39.3,12l-7.9-0.6L20,9.1L3.7,4.8V32.8z"/>
</g>
</g>
</svg>
