<?xml version="1.0" encoding="utf-8"?>
<!-- Generator: Adobe Illustrator 28.0.0, SVG Export Plug-In . SVG Version: 6.00 Build 0)  -->
<svg width="156px" height="156px" viewBox="0 0 156 156" version="1.1" id="Ebene_1" xmlns="http://www.w3.org/2000/svg" xmlns:xlink="http://www.w3.org/1999/xlink" x="0px" y="0px" style="enable-background:new 0 0 84.3 108.8;" xml:space="preserve">
<style type="text/css">
	.st0{fill:#0000FF;}
	.st1{fill:#FFFFFF;}
	.st2{enable-background:new    ;}
	.st3{fill:none;stroke:#0000FF;stroke-width:1.85;stroke-miterlimit:10;}
</style>
<g transform="translate(17.56,0.00) scale(1.433824)">
<g>
	<circle class="st0" cx="42.1" cy="11.1" r="9.2"/>
	<path class="st0" d="M42.1,22.1c-6.1,0-11-5-11-11.1c0-6.1,5-11,11-11s11.1,5,11.1,11C53.2,17.1,48.2,22.1,42.1,22.1z M42.1,3.7
		c-4,0-7.3,3.3-7.3,7.3c0,4,3.3,7.3,7.3,7.3c4,0,7.3-3.3,7.3-7.3C49.5,7,46.2,3.7,42.1,3.7z"/>
</g>
<g>
	<path class="st1" d="M4.6,66.8c0-20.6,16.8-37.3,37.5-37.3l0,0c20.7,0,37.5,16.7,37.5,37.3l0,0c0,20.6-16.8,37.3-37.5,37.3l0,0l0,0
		C21.4,104.2,4.6,87.4,4.6,66.8C4.6,66.8,4.6,66.8,4.6,66.8z"/>
	<path class="st0" d="M42.1,108.8C18.9,108.8,0,90,0,66.8c0-23.1,18.9-41.9,42.1-41.9s42.1,18.8,42.1,41.9
		C84.3,90,65.4,108.8,42.1,108.8z M42.1,34.1C24,34.1,9.3,48.8,9.3,66.8S24,99.5,42.1,99.5C60.3,99.5,75,84.9,75,66.8
		S60.3,34.1,42.1,34.1z"/>
</g>
<g class="st2">
	<path class="st0" d="M18.8,78.1V55.6h15.5v3.8H23.4v5.3h9.4v3.8h-9.4v9.6H18.8z"/>
	<path class="st0" d="M44.4,78.1L39,55.6h4.7L47,71.1l4.1-15.5h5.4l4,15.8L64,55.6h4.6l-5.5,22.5h-4.8l-4.5-16.9l-4.5,16.9H44.4z"/>
</g>
<g class="st2">
	<path class="st3" d="M18.8,78.1V55.6h15.5v3.8H23.4v5.3h9.4v3.8h-9.4v9.6H18.8z"/>
	<path class="st3" d="M44.4,78.1L39,55.6h4.7L47,71.1l4.1-15.5h5.4l4,15.8L64,55.6h4.6l-5.5,22.5h-4.8l-4.5-16.9l-4.5,16.9H44.4z"/>
</g>
</g>
</svg>
