<?xml version="1.0" encoding="utf-8"?>
<!-- Generator: Adobe Illustrator 28.0.0, SVG Export Plug-In . SVG Version: 6.00 Build 0)  -->
<svg width="156px" height="156px" viewBox="0 0 156 156" version="1.1" id="Ebene_1" xmlns="http://www.w3.org/2000/svg" xmlns:xlink="http://www.w3.org/1999/xlink" x="0px" y="0px" style="enable-background:new 0 0 84.3 108.8;" xml:space="preserve">
<style type="text/css">
	.st0{fill:#0000FF;}
	.st1{fill:#FFFFFF;}
	.st2{enable-background:new    ;}
	.st3{fill:none;stroke:#0000FF;stroke-width:0.93;stroke-miterlimit:10;}
</style>
<g transform="translate(17.56,0.00) scale(1.433824)">
<g>
	<circle class="st0" cx="42.1" cy="11.1" r="9.2"/>
	<path class="st0" d="M42.1,22.1c-6.1,0-11-5-11-11.1c0-6.1,5-11,11-11s11.1,5,11.1,11C53.2,17.1,48.2,22.1,42.1,22.1z M42.1,3.7
		c-4,0-7.3,3.3-7.3,7.3c0,4,3.3,7.3,7.3,7.3c4,0,7.3-3.3,7.3-7.3C49.5,7,46.2,3.7,42.1,3.7z"/>
</g>
<g>
	<path class="st1" d="M4.6,66.8c0-20.6,16.8-37.3,37.5-37.3l0,0c20.7,0,37.5,16.7,37.5,37.3l0,0c0,20.6-16.8,37.3-37.5,37.3l0,0l0,0
		C21.4,104.2,4.6,87.4,4.6,66.8C4.6,66.8,4.6,66.8,4.6,66.8z"/>
	<path class="st0" d="M42.1,108.8C18.9,108.8,0,90,0,66.8c0-23.1,18.9-41.9,42.1-41.9s42.1,18.8,42.1,41.9
		C84.3,90,65.4,108.8,42.1,108.8z M42.1,34.1C24,34.1,9.3,48.8,9.3,66.8S24,99.5,42.1,99.5C60.3,99.5,75,84.9,75,66.8
		S60.3,34.1,42.1,34.1z"/>
</g>
<g class="st2">
	<path class="st0" d="M19.2,70l2.2-0.2c0.1,0.9,0.4,1.6,0.7,2.2s1,1,1.8,1.4c0.8,0.4,1.7,0.5,2.7,0.5c0.9,0,1.7-0.1,2.4-0.4
		c0.7-0.3,1.2-0.6,1.5-1.1c0.3-0.5,0.5-1,0.5-1.5c0-0.6-0.2-1.1-0.5-1.5c-0.3-0.4-0.9-0.8-1.6-1.1c-0.5-0.2-1.5-0.5-3.2-0.9
		c-1.6-0.4-2.8-0.8-3.5-1.1c-0.9-0.4-1.5-1-1.9-1.7c-0.4-0.7-0.6-1.4-0.6-2.2c0-0.9,0.3-1.7,0.8-2.5c0.5-0.8,1.3-1.4,2.2-1.8
		c1-0.4,2.1-0.6,3.3-0.6c1.3,0,2.5,0.2,3.5,0.6c1,0.4,1.8,1.1,2.3,1.9c0.5,0.8,0.8,1.8,0.9,2.8l-2.3,0.2c-0.1-1.1-0.5-2-1.2-2.6
		s-1.7-0.9-3.1-0.9c-1.4,0-2.5,0.3-3.1,0.8c-0.7,0.5-1,1.2-1,1.9c0,0.6,0.2,1.2,0.7,1.6c0.5,0.4,1.6,0.8,3.6,1.3
		c1.9,0.4,3.2,0.8,4,1.1c1,0.5,1.8,1.1,2.3,1.8c0.5,0.7,0.7,1.6,0.7,2.5c0,1-0.3,1.8-0.8,2.7c-0.5,0.8-1.3,1.5-2.4,2
		c-1,0.5-2.2,0.7-3.4,0.7c-1.6,0-3-0.2-4.1-0.7c-1.1-0.5-2-1.2-2.6-2.1S19.2,71.2,19.2,70z"/>
	<path class="st0" d="M46.6,74.2c-0.8,0.7-1.6,1.2-2.4,1.5c-0.8,0.3-1.6,0.4-2.4,0.4c-1.4,0-2.5-0.3-3.3-1s-1.1-1.6-1.1-2.7
		c0-0.6,0.1-1.2,0.4-1.7c0.3-0.5,0.7-0.9,1.1-1.3c0.5-0.3,1-0.6,1.6-0.7c0.4-0.1,1.1-0.2,2-0.3c1.8-0.2,3.1-0.5,3.9-0.8
		c0-0.3,0-0.5,0-0.6c0-0.9-0.2-1.5-0.6-1.9c-0.6-0.5-1.4-0.7-2.5-0.7c-1,0-1.8,0.2-2.3,0.5c-0.5,0.4-0.9,1-1.1,1.9l-2.1-0.3
		c0.2-0.9,0.5-1.7,1-2.2c0.4-0.6,1.1-1,1.9-1.3c0.8-0.3,1.8-0.5,2.9-0.5c1.1,0,2,0.1,2.7,0.4c0.7,0.3,1.2,0.6,1.5,1
		c0.3,0.4,0.6,0.9,0.7,1.5c0.1,0.4,0.1,1.1,0.1,2v2.9c0,2,0,3.3,0.1,3.9c0.1,0.5,0.3,1.1,0.6,1.6H47C46.8,75.3,46.6,74.8,46.6,74.2z
		 M46.4,69.3c-0.8,0.3-2,0.6-3.6,0.8c-0.9,0.1-1.5,0.3-1.9,0.4c-0.4,0.2-0.7,0.4-0.9,0.7s-0.3,0.7-0.3,1c0,0.6,0.2,1.1,0.7,1.5
		s1.1,0.6,1.9,0.6c0.8,0,1.6-0.2,2.3-0.6s1.1-0.9,1.5-1.5c0.2-0.5,0.4-1.2,0.4-2.2V69.3z"/>
	<path class="st0" d="M53.8,75.8v-13h2v1.8c1-1.4,2.3-2.1,4.1-2.1c0.8,0,1.5,0.1,2.2,0.4s1.1,0.6,1.5,1.1c0.3,0.5,0.6,1,0.7,1.6
		c0.1,0.4,0.1,1.1,0.1,2.1v8h-2.2v-7.9c0-0.9-0.1-1.6-0.3-2c-0.2-0.4-0.5-0.8-0.9-1.1s-0.9-0.4-1.5-0.4c-0.9,0-1.7,0.3-2.4,0.9
		c-0.7,0.6-1,1.7-1,3.4v7.1H53.8z"/>
</g>
<g class="st2">
	<path class="st3" d="M19.2,70l2.2-0.2c0.1,0.9,0.4,1.6,0.7,2.2s1,1,1.8,1.4c0.8,0.4,1.7,0.5,2.7,0.5c0.9,0,1.7-0.1,2.4-0.4
		c0.7-0.3,1.2-0.6,1.5-1.1c0.3-0.5,0.5-1,0.5-1.5c0-0.6-0.2-1.1-0.5-1.5c-0.3-0.4-0.9-0.8-1.6-1.1c-0.5-0.2-1.5-0.5-3.2-0.9
		c-1.6-0.4-2.8-0.8-3.5-1.1c-0.9-0.4-1.5-1-1.9-1.7c-0.4-0.7-0.6-1.4-0.6-2.2c0-0.9,0.3-1.7,0.8-2.5c0.5-0.8,1.3-1.4,2.2-1.8
		c1-0.4,2.1-0.6,3.3-0.6c1.3,0,2.5,0.2,3.5,0.6c1,0.4,1.8,1.1,2.3,1.9c0.5,0.8,0.8,1.8,0.9,2.8l-2.3,0.2c-0.1-1.1-0.5-2-1.2-2.6
		s-1.7-0.9-3.1-0.9c-1.4,0-2.5,0.3-3.1,0.8c-0.7,0.5-1,1.2-1,1.9c0,0.6,0.2,1.2,0.7,1.6c0.5,0.4,1.6,0.8,3.6,1.3
		c1.9,0.4,3.2,0.8,4,1.1c1,0.5,1.8,1.1,2.3,1.8c0.5,0.7,0.7,1.6,0.7,2.5c0,1-0.3,1.8-0.8,2.7c-0.5,0.8-1.3,1.5-2.4,2
		c-1,0.5-2.2,0.7-3.4,0.7c-1.6,0-3-0.2-4.1-0.7c-1.1-0.5-2-1.2-2.6-2.1S19.2,71.2,19.2,70z"/>
	<path class="st3" d="M46.6,74.2c-0.8,0.7-1.6,1.2-2.4,1.5c-0.8,0.3-1.6,0.4-2.4,0.4c-1.4,0-2.5-0.3-3.3-1s-1.1-1.6-1.1-2.7
		c0-0.6,0.1-1.2,0.4-1.7c0.3-0.5,0.7-0.9,1.1-1.3c0.5-0.3,1-0.6,1.6-0.7c0.4-0.1,1.1-0.2,2-0.3c1.8-0.2,3.1-0.5,3.9-0.8
		c0-0.3,0-0.5,0-0.6c0-0.9-0.2-1.5-0.6-1.9c-0.6-0.5-1.4-0.7-2.5-0.7c-1,0-1.8,0.2-2.3,0.5c-0.5,0.4-0.9,1-1.1,1.9l-2.1-0.3
		c0.2-0.9,0.5-1.7,1-2.2c0.4-0.6,1.1-1,1.9-1.3c0.8-0.3,1.8-0.5,2.9-0.5c1.1,0,2,0.1,2.7,0.4c0.7,0.3,1.2,0.6,1.5,1
		c0.3,0.4,0.6,0.9,0.7,1.5c0.1,0.4,0.1,1.1,0.1,2v2.9c0,2,0,3.3,0.1,3.9c0.1,0.5,0.3,1.1,0.6,1.6H47C46.8,75.3,46.6,74.8,46.6,74.2z
		 M46.4,69.3c-0.8,0.3-2,0.6-3.6,0.8c-0.9,0.1-1.5,0.3-1.9,0.4c-0.4,0.2-0.7,0.4-0.9,0.7s-0.3,0.7-0.3,1c0,0.6,0.2,1.1,0.7,1.5
		s1.1,0.6,1.9,0.6c0.8,0,1.6-0.2,2.3-0.6s1.1-0.9,1.5-1.5c0.2-0.5,0.4-1.2,0.4-2.2V69.3z"/>
	<path class="st3" d="M53.8,75.8v-13h2v1.8c1-1.4,2.3-2.1,4.1-2.1c0.8,0,1.5,0.1,2.2,0.4s1.1,0.6,1.5,1.1c0.3,0.5,0.6,1,0.7,1.6
		c0.1,0.4,0.1,1.1,0.1,2.1v8h-2.2v-7.9c0-0.9-0.1-1.6-0.3-2c-0.2-0.4-0.5-0.8-0.9-1.1s-0.9-0.4-1.5-0.4c-0.9,0-1.7,0.3-2.4,0.9
		c-0.7,0.6-1,1.7-1,3.4v7.1H53.8z"/>
</g>
</g>
</svg>
