<?xml version="1.0" encoding="utf-8"?>
<!-- Generator: Adobe Illustrator 28.0.0, SVG Export Plug-In . SVG Version: 6.00 Build 0)  -->
<svg width="156px" height="156px" viewBox="0 0 156 156" version="1.1" id="Ebene_1" xmlns="http://www.w3.org/2000/svg" xmlns:xlink="http://www.w3.org/1999/xlink" x="0px" y="0px" style="enable-background:new 0 0 84.3 108.6;" xml:space="preserve">
<style type="text/css">
	.st0{fill:#0000FF;}
	.st1{fill:#FFFFFF;}
	.st2{enable-background:new    ;}
	.st3{fill:none;stroke:#0000FF;stroke-width:1.85;stroke-miterlimit:10;}
</style>
<g transform="translate(17.45,0.00) scale(1.436464)">
<g>
	<path class="st0" d="M51.3,10.8c0.2,11.9-18.6,11.9-18.4,0C32.8-1.1,51.5-1.1,51.3,10.8z"/>
	<path class="st0" d="M42.1,21.6c-2.1,0-4.2-0.5-6-1.6c-3.3-1.9-5.1-5.2-5-9.2c-0.1-4,1.7-7.3,5-9.2c3.6-2.1,8.5-2.1,12.1,0
		c3.3,1.9,5.1,5.2,5,9.2c0,4-1.7,7.3-5,9.2C46.4,21.1,44.2,21.6,42.1,21.6z M42.1,3.7c-1.5,0-2.9,0.4-4.2,1.1
		c-1.5,0.9-3.2,2.6-3.2,6c-0.1,3.4,1.7,5.2,3.2,6c2.4,1.4,5.9,1.4,8.3,0c1.5-0.9,3.2-2.6,3.2-6l0,0l0,0c0.1-3.4-1.7-5.1-3.2-6
		C45.1,4.1,43.6,3.7,42.1,3.7z"/>
</g>
<g>
	<path class="st1" d="M4.6,66.6c0-20.6,16.8-37.3,37.5-37.3l0,0c20.7,0,37.5,16.7,37.5,37.3l0,0c0,20.6-16.8,37.3-37.5,37.3l0,0l0,0
		C21.4,103.9,4.6,87.2,4.6,66.6C4.6,66.6,4.6,66.6,4.6,66.6z"/>
	<path class="st0" d="M42.1,108.5C18.9,108.5,0,89.7,0,66.6c0-23.1,18.9-41.9,42.1-41.9s42.1,18.8,42.1,41.9
		C84.3,89.7,65.4,108.5,42.1,108.5z M42.1,33.9C24,33.9,9.3,48.6,9.3,66.6S24,99.3,42.1,99.3C60.3,99.3,75,84.6,75,66.6
		S60.3,33.9,42.1,33.9z"/>
</g>
<g class="st2">
	<path class="st0" d="M29.1,85.5V47.7h14.3c2.5,0,4.4,0.1,5.8,0.4c1.9,0.3,3.4,0.9,4.7,1.8c1.3,0.9,2.3,2.1,3,3.6
		c0.8,1.6,1.1,3.3,1.1,5.2c0,3.2-1,5.9-3.1,8.2s-5.7,3.3-11.1,3.3h-9.7v15.4H29.1z M34.1,65.7h9.8c3.2,0,5.5-0.6,6.9-1.8
		c1.4-1.2,2-2.9,2-5.1c0-1.6-0.4-2.9-1.2-4.1c-0.8-1.1-1.9-1.9-3.2-2.2c-0.8-0.2-2.4-0.3-4.7-0.3h-9.7V65.7z"/>
</g>
<g class="st2">
	<path class="st3" d="M29.1,85.5V47.7h14.3c2.5,0,4.4,0.1,5.8,0.4c1.9,0.3,3.4,0.9,4.7,1.8c1.3,0.9,2.3,2.1,3,3.6
		c0.8,1.6,1.1,3.3,1.1,5.2c0,3.2-1,5.9-3.1,8.2s-5.7,3.3-11.1,3.3h-9.7v15.4H29.1z M34.1,65.7h9.8c3.2,0,5.5-0.6,6.9-1.8
		c1.4-1.2,2-2.9,2-5.1c0-1.6-0.4-2.9-1.2-4.1c-0.8-1.1-1.9-1.9-3.2-2.2c-0.8-0.2-2.4-0.3-4.7-0.3h-9.7V65.7z"/>
</g>
</g>
</svg>
