<?xml version="1.0" encoding="utf-8"?>
<!-- Generator: Adobe Illustrator 28.0.0, SVG Export Plug-In . SVG Version: 6.00 Build 0)  -->
<svg width="156px" height="156px" viewBox="0 0 156 156" version="1.1" id="Ebene_1" xmlns="http://www.w3.org/2000/svg" xmlns:xlink="http://www.w3.org/1999/xlink" x="0px" y="0px" style="enable-background:new 0 0 75 75;" xml:space="preserve">
<style type="text/css">
	.st0{fill:#FFFFFF;}
	.st1{fill:#FF0101;}
</style>
<g transform="translate(0.00,0.00) scale(2.080000)">
<rect class="st0" width="74.7" height="75"/>
<path class="st1" d="M69.1,56.9c0.1,0.2,0.2,0.3,0.4,0.6c0.2-2,0.4-3.8,0.7-5.8c-14.7,11.8-19.6-7.5-33.4,2.7
	c-12.2,5.6-16.5-10.6-30,1.3c-0.4-0.7-0.9-1.3-1.3-2.1C22.8,39.9,25,60.4,39.7,50c10.9-5.8,19.4,10.5,30.2-0.9
	c0.2,0.1,0.4,0.3,0.6,0.5c0.2-1.9,0.4-3.7,0.6-5.6c-14.2,10.4-19.7-8-34,2.5C25.6,50.5,21.3,36,8.2,47.4C8.1,47.2,8,47.1,7.9,47
	c0,0-0.1,0-0.1,0c0.3,1.1,0.6,2.2,0.9,3.4c-1,0.2-1.9,0.4-2.9,0.7C3.9,44,2,37,0.1,30c1-0.3,1.9-0.5,2.9-0.8
	c1.4,5.2,2.8,10.4,4.2,15.7c18.8-13,17.2,7.7,36.9-4.3c7.1-2,12.5,5.9,19.5,4c5.7-1.5,8.6-3.8,8.2-10c1,0.1,2,0.2,3.1,0.3
	c-1.3,12.8-2.6,25.6-3.9,38.5c-12.3-1.9-24.6-3.9-36.9-5.8c0.2-1.1,0.3-2.1,0.5-3.2c11.2,1.8,22.4,3.7,33.7,5.5
	c0.3-3.1,0.7-6.1,1-9.3c-13.2,10.1-18.1-4.9-29.1,0.1c-3.8,2.2-7.9,4.6-12.5,2.9c-4.3-1.4-8.2-5.5-13.1-3.8
	c-2.6,0.7-4.9,1.9-7.2,3.3c-0.4,1.4,0.8,3.2,1,4.7c5.8,1.9,12.4,2.6,18.4,4.1c-0.2,1-0.4,2-0.7,3c-6.6-1.5-13.2-3-19.8-4.5
	c-1.9-3.6-2.3-8.2-3.6-12.3c1-0.3,2-0.5,3.1-0.8c0.3,1.1,0.5,2.1,0.8,3.2c13.9-10,18.6,6.6,31.1-1.4C48.6,51.4,58.9,69.3,69.1,56.9
	L69.1,56.9z M7.7,46.6C7.7,46.6,7.8,46.6,7.7,46.6c0.1,0,0.1-0.1,0-0.2c0,0,0,0,0,0V46.6z M7.9,46.7c0,0.1-0.1,0.1-0.1,0.1
	c0,0,0.1,0.1,0.1,0.1C7.9,46.9,7.9,46.8,7.9,46.7z"/>
<path class="st1" d="M73,25.9c-1-0.1-1.9-0.2-2.9-0.3c0.3-6.2,0.6-12.4,0.9-18.7c-5.7,1.8-11.4,3.6-17.1,5.4c-0.5-0.9-1-1.8-1.5-2.7
	c7.3-2.3,14.6-4.6,21.9-7C74,10.4,73.5,18.1,73,25.9L73,25.9z"/>
<path class="st1" d="M5.8,25.4c-1,0-1.9,0.1-2.9,0.1c-0.3-7.5-0.7-14.9-1-22.5c7-1,13.9-2,20.8-3c0.2,0.9,0.3,1.8,0.5,2.8
	C17.1,3.8,11.1,4.7,5,5.6C5.2,12.2,5.5,18.8,5.8,25.4L5.8,25.4z"/>
<path class="st1" d="M51.8,4.8v3H21.9v-3H51.8z"/>
</g>
</svg>
