<?xml version="1.0" encoding="utf-8"?>
<!-- Generator: Adobe Illustrator 28.0.0, SVG Export Plug-In . SVG Version: 6.00 Build 0)  -->
<svg width="156px" height="156px" viewBox="0 0 156 156" version="1.1" id="Ebene_1" xmlns="http://www.w3.org/2000/svg" xmlns:xlink="http://www.w3.org/1999/xlink" x="0px" y="0px" style="enable-background:new 0 0 84 84;" xml:space="preserve">
<style type="text/css">
	.st0{fill:#FFFFFF;}
	.st1{fill:#FF0000;}
	.st2{fill:#050505;}
</style>
<g transform="translate(0.00,0.00) scale(1.857143)">
<g>
	<circle class="st0" cx="42" cy="42" r="37.5"/>
	<path class="st1" d="M42,84C18.8,84,0,65.2,0,42C0,18.8,18.8,0,42,0c23.2,0,42,18.8,42,42C84,65.2,65.2,84,42,84z M42,9
		C23.8,9,9,23.8,9,42s14.8,33,33,33s33-14.8,33-33S60.2,9,42,9z"/>
</g>
<g>
	<path class="st2" d="M31.2,71.1c1.6-4.2,3.2-8.3,4.8-12.5c1.7-4,3.3-8.1,5.1-12.3c-2.2,0-4.1,0.1-6,0c-2.9-0.1-5.8-0.3-8.8-0.6
		c-0.4,0-1.3-0.1-2.3,0.3c-1.1,0.5-1.6,1.5-1.9,2c-1,1.8-2.4,4.3-4.2,7.4c-0.7,0-1.4,0.1-2.1,0.2c0.5-4.1,3.6-7.4,2.5-11.6
		c-0.6-0.2-1.1-0.5-1.7-0.7c0.6-0.3,1.1-0.6,1.7-0.9c1-4.1-2.4-7.1-3-11.1c0.6-0.1,1.3-0.2,2-0.3c1.8,2.7,3.2,5.3,5.1,7.7
		c0.7,0.9,2.3,1.6,3.5,1.5c4.3-0.2,8.7-0.8,13-1.3c0.6-0.1,1.2-0.2,2.1-0.4c-0.9-1.6-1.6-2.9-2.3-4.2c-0.6-1.3-1.2-2.5-1.8-3.8
		c0,0,0,0,0,0c-0.6-1.3-1.2-2.6-1.8-3.9c-0.8-2-1.7-4-2.6-6c-0.9-2-1.8-4-2.7-6c2.9-0.9,5.6,0,7.1,2.5c2.7,4.2,5.4,8.4,8.1,12.6h6.2
		c0.1,1,0.1,1.9,0.2,3.1c-1.3,0.3-2.4,0.5-3.8,0.9c1.1,1.8,2.1,3.3,3,4.6c4.7,0,9.2,0,13.7,0c2.1,0,4.1,0.1,5.7,1.6
		c1.3,1.3,1.4,2.7,0,3.6c-1.5,1-3.3,1.7-5,1.9c-3.7,0.4-7.4,0.5-11.1,0.4c-2.3,0-3.6,0.9-4.4,2.9C49,49.3,48.6,50,48.1,51
		c1.3,0.2,2.5,0.3,3.7,0.5v3.1c-2,0.2-4,0.4-6.2,0.6c-1.8,3-3.5,6.2-5.3,9.2c-0.7,1.3-1,2.7-2.2,3.9C36.1,70.3,33.3,70.9,31.2,71.1
		L31.2,71.1z"/>
</g>
</g>
</svg>
