<?xml version="1.0" encoding="utf-8"?>
<!-- Generator: Adobe Illustrator 28.0.0, SVG Export Plug-In . SVG Version: 6.00 Build 0)  -->
<svg width="156px" height="156px" viewBox="0 0 156 156" version="1.1" id="Ebene_1" xmlns="http://www.w3.org/2000/svg" xmlns:xlink="http://www.w3.org/1999/xlink" x="0px" y="0px" style="enable-background:new 0 0 75 103.2;" xml:space="preserve">
<style type="text/css">
	.st0{fill:#0000FF;}
</style>
<g transform="translate(21.31,0.00) scale(1.511628)">
<g>
	<polygon class="st0" points="52.8,0 75,5.3 57.5,19.9 52.8,0 	"/>
</g>
<g>
	<polygon class="st0" points="17.8,20 0,5.8 22,0.1 17.8,20 	"/>
</g>
<g>
	<path class="st0" d="M39,33.2H36C36,21.2,44,10.9,55.6,8l0.7,3C46.1,13.5,39,22.6,39,33.2z"/>
</g>
<g>
	<path class="st0" d="M39,33.2H36c0-10.5-7.1-19.7-17.3-22.2l0.7-3C30.9,10.9,39,21.2,39,33.2z"/>
</g>
<g>
	<rect x="36" y="33" class="st0" width="3.1" height="70.3"/>
</g>
</g>
</svg>
