<?xml version="1.0" encoding="utf-8"?>
<!-- Generator: Adobe Illustrator 28.0.0, SVG Export Plug-In . SVG Version: 6.00 Build 0)  -->
<svg width="156px" height="156px" viewBox="0 0 156 156" version="1.1" id="Ebene_1" xmlns="http://www.w3.org/2000/svg" xmlns:xlink="http://www.w3.org/1999/xlink" x="0px" y="0px" style="enable-background:new 0 0 75 64.1;" xml:space="preserve">
<style type="text/css">
	.st0{fill:#FFFFFF;}
	.st1{fill-rule:evenodd;clip-rule:evenodd;fill:#FFFFFF;fill-opacity:0;}
	.st2{fill-rule:evenodd;clip-rule:evenodd;fill:#FF9900;}
	.st3{enable-background:new    ;}
	.st4{fill:#FF9900;}
</style>
<g transform="translate(0.00,11.34) scale(2.080000)">
<g>
	<polygon class="st0" points="37.5,4.6 5.7,61.5 69.2,61.5 	"/>
	<path class="st0" d="M70.1,62.1H4.8L37.5,3.5L70.1,62.1z M6.6,61h61.7L37.5,5.7L6.6,61z"/>
</g>
<g>
	<polygon class="st1" points="0,0 75,0 75,64.1 0,64.1 0,0 	"/>
</g>
<g>
	<path class="st2" d="M74.9,64H0.1L37.5,0.1L74.9,64L74.9,64L74.9,64z M65.5,59.3L37.5,11l-28,48.4L65.5,59.3L65.5,59.3z"/>
</g>
<g class="st3">
	<path class="st4" d="M31.9,38.5h2.8V46c0,1.2,0,2,0.1,2.3c0.1,0.6,0.4,1,0.9,1.4c0.4,0.3,1.1,0.5,1.8,0.5c0.8,0,1.4-0.2,1.8-0.5
		s0.6-0.7,0.7-1.2c0.1-0.5,0.1-1.3,0.1-2.3v-7.7H43v7.3c0,1.7-0.1,2.8-0.2,3.5s-0.4,1.3-0.8,1.7c-0.4,0.5-0.9,0.8-1.6,1.1
		c-0.7,0.3-1.6,0.4-2.7,0.4c-1.3,0-2.3-0.2-3-0.5c-0.7-0.3-1.2-0.7-1.6-1.2c-0.4-0.5-0.7-1-0.8-1.5c-0.2-0.8-0.3-2-0.3-3.5V38.5z"/>
</g>
</g>
</svg>
