<?xml version="1.0" encoding="utf-8"?>
<!-- Generator: Adobe Illustrator 28.0.0, SVG Export Plug-In . SVG Version: 6.00 Build 0)  -->
<svg width="156px" height="156px" viewBox="0 0 156 156" version="1.1" id="Ebene_1" xmlns="http://www.w3.org/2000/svg" xmlns:xlink="http://www.w3.org/1999/xlink" x="0px" y="0px" style="enable-background:new 0 0 75 40.8;" xml:space="preserve">
<style type="text/css">
	.st0{fill-rule:evenodd;clip-rule:evenodd;fill:#FFFFFF;fill-opacity:0;}
	.st1{clip-path:url(#SVGID_00000152943775634736935770000003107188197760500923_);}
	.st2{enable-background:new    ;}
	.st3{fill:#FF0000;}
</style>
<g transform="translate(0.00,35.57) scale(2.080000)">
<g>
	<polygon class="st0" points="0,0 75,0 75,40.8 0,40.8 	"/>
</g>
<g>
	<g>
		<defs>
			<rect id="SVGID_1_" x="0.1" y="0.1" width="74.8" height="40.6"/>
		</defs>
		<clipPath id="SVGID_00000158738733078409858060000012187294619205202076_">
			<use xlink:href="#SVGID_1_"  style="overflow:visible;"/>
		</clipPath>
		<g style="clip-path:url(#SVGID_00000158738733078409858060000012187294619205202076_);">
			<g>
				<polygon class="st0" points="-29.4,-23.2 101.6,-23.2 101.6,48.5 -29.4,48.5 				"/>
			</g>
			<g class="st2">
				<path class="st3" d="M2.7,37V3.2h11c4.2,0,6.9,0.2,8.1,0.5c1.9,0.5,3.6,1.6,4.9,3.3s2,3.9,2,6.6c0,2.1-0.4,3.8-1.1,5.2
					s-1.7,2.5-2.9,3.3s-2.3,1.3-3.5,1.6c-1.6,0.3-4,0.5-7.1,0.5H9.6V37H2.7z M9.6,8.9v9.6h3.7c2.7,0,4.5-0.2,5.4-0.5
					c0.9-0.4,1.6-0.9,2.1-1.7s0.8-1.6,0.8-2.6c0-1.2-0.4-2.2-1.1-3s-1.6-1.3-2.7-1.5C17,9,15.3,8.9,12.9,8.9H9.6z"/>
				<path class="st3" d="M39.1,20l-5.9-1.1c0.7-2.4,1.8-4.1,3.4-5.3c1.6-1.1,4-1.7,7.2-1.7c2.9,0,5.1,0.3,6.5,1s2.4,1.6,3,2.6
					c0.6,1.1,0.9,3,0.9,5.8L54.1,29c0,2.2,0.1,3.7,0.3,4.8c0.2,1,0.6,2.1,1.2,3.3h-6.5c-0.2-0.4-0.4-1.1-0.6-1.9
					c-0.1-0.4-0.2-0.6-0.2-0.8c-1.1,1.1-2.3,1.9-3.6,2.4s-2.6,0.8-4,0.8c-2.5,0-4.5-0.7-6-2.1s-2.2-3.1-2.2-5.2c0-1.4,0.3-2.6,1-3.7
					s1.6-1.9,2.8-2.5s2.9-1.1,5.2-1.5c3-0.6,5.1-1.1,6.3-1.6v-0.6c0-1.2-0.3-2.1-0.9-2.7c-0.7-0.5-1.8-0.8-3.5-0.8
					c-1.2,0-2.1,0.2-2.7,0.7C40,18.1,39.5,18.8,39.1,20z M47.8,25.3c-0.8,0.3-2.1,0.6-4,1c-1.8,0.4-3,0.8-3.5,1.1
					C39.5,28,39,28.8,39,29.7s0.3,1.7,1,2.4c0.7,0.7,1.5,1,2.6,1c1.2,0,2.3-0.4,3.4-1.2c0.8-0.6,1.3-1.3,1.5-2.1
					c0.2-0.6,0.3-1.6,0.3-3.2V25.3z"/>
				<path class="st3" d="M71.8,12.5v5.2h-4.4v9.9c0,2,0,3.2,0.1,3.5s0.3,0.6,0.6,0.8c0.3,0.2,0.7,0.3,1.1,0.3c0.6,0,1.5-0.2,2.6-0.6
					l0.6,5c-1.5,0.6-3.2,1-5.1,1C66,37.6,65,37.4,64,37c-0.9-0.4-1.6-0.9-2.1-1.5c-0.5-0.6-0.8-1.5-0.9-2.6
					c-0.1-0.8-0.2-2.3-0.2-4.6V17.7h-3v-5.2h3V7.6l6.5-3.8v8.7C67.4,12.5,71.8,12.5,71.8,12.5z"/>
			</g>
		</g>
	</g>
</g>
</g>
</svg>
