<?xml version="1.0" encoding="utf-8"?>
<!-- Generator: Adobe Illustrator 28.0.0, SVG Export Plug-In . SVG Version: 6.00 Build 0)  -->
<svg width="156px" height="156px" viewBox="0 0 156 156" version="1.1" id="Ebene_1" xmlns="http://www.w3.org/2000/svg" xmlns:xlink="http://www.w3.org/1999/xlink" x="0px" y="0px" style="enable-background:new 0 0 75 113.3;" xml:space="preserve">
<style type="text/css">
	.st0{clip-path:url(#SVGID_00000011013854952751172840000008975025212167521954_);}
	.st1{fill-rule:evenodd;clip-rule:evenodd;fill:#FFFFFF;fill-opacity:0;}
	.st2{enable-background:new    ;}
	.st3{fill:#FF0000;}
</style>
<g transform="translate(26.37,0.00) scale(1.376876)">
<g>
	<defs>
		<rect id="SVGID_1_" width="75" height="113.3"/>
	</defs>
	<clipPath id="SVGID_00000095296467227870239710000017141100707217806213_">
		<use xlink:href="#SVGID_1_"  style="overflow:visible;"/>
	</clipPath>
	<g style="clip-path:url(#SVGID_00000095296467227870239710000017141100707217806213_);">
		<g>
			<polygon class="st1" points="-5.7,-4.3 80.7,-4.3 80.7,116.3 -5.7,116.3 			"/>
		</g>
		<g class="st2">
			<path class="st3" d="M46.4,87.8H30c0-2.4-0.1-3.8-0.1-4.3c0-5.3,0.9-9.7,2.6-13.1c1.8-3.4,5.3-7.3,10.5-11.6
				c5.3-4.3,8.4-7.1,9.4-8.4c1.6-2.1,2.4-4.4,2.4-6.9c0-3.5-1.4-6.5-4.2-9s-6.6-3.8-11.3-3.8c-4.6,0-8.4,1.3-11.5,3.9
				s-5.2,6.6-6.4,11.9L5,44.6c0.5-7.7,3.7-14.2,9.8-19.5s14-8,23.8-8c10.4,0,18.6,2.7,24.7,8.1s9.2,11.7,9.2,18.9
				c0,4-1.1,7.7-3.4,11.3C66.9,59,62,63.8,54.7,69.9c-3.8,3.2-6.2,5.7-7.1,7.6C46.7,79.4,46.3,82.9,46.4,87.8z M30,112.1v-18h18v18
				H30z"/>
		</g>
	</g>
</g>
</g>
</svg>
