<?xml version="1.0" encoding="utf-8"?>
<!-- Generator: Adobe Illustrator 28.0.0, SVG Export Plug-In . SVG Version: 6.00 Build 0)  -->
<svg width="156px" height="156px" viewBox="0 0 156 156" version="1.1" id="Ebene_1" xmlns="http://www.w3.org/2000/svg" xmlns:xlink="http://www.w3.org/1999/xlink" x="0px" y="0px" style="enable-background:new 0 0 150 80.2;" xml:space="preserve">
<style type="text/css">
	.st0{fill:#FFFFFF;}
	.st1{fill:#0000FF;}
	.st2{enable-background:new    ;}
</style>
<g transform="translate(0.00,36.30) scale(1.040000)">
<g>
	<polygon class="st0" points="147.4,2.6 147.4,77.6 2.6,77.6 2.6,2.6 147.4,2.6 	"/>
	<path class="st1" d="M150,80.2H0V0h150V80.2z M5.2,75h139.5V5.2H5.2V75z"/>
</g>
<g>
	<path class="st1" d="M98.1,75V5l45.8,35L98.1,75z M103.2,15.4v49.2L135.4,40L103.2,15.4z"/>
</g>
<g class="st2">
	<path class="st1" d="M24,48.5l-4.8-20.1h4.2l3,13.8L30,28.4h4.8l3.5,14l3.1-14h4.1l-4.9,20.1h-4.3l-4-15l-4,15H24z"/>
</g>
<g>
	<rect x="64.1" y="34.6" class="st1" width="32.7" height="9.4"/>
</g>
<g>
	<polygon class="st1" points="92,25 111.2,39.3 92,53.7 92,25 	"/>
</g>
<g>
	<path class="st1" d="M49.8,39.4c0-3.5,2.8-6.3,6.4-6.3l0,0c3.5,0,6.4,2.8,6.4,6.3l0,0c0,3.5-2.8,6.3-6.4,6.3l0,0
		C52.7,45.7,49.8,42.9,49.8,39.4L49.8,39.4z"/>
</g>
</g>
</svg>
