<?xml version="1.0" encoding="utf-8"?>
<!-- Generator: Adobe Illustrator 28.0.0, SVG Export Plug-In . SVG Version: 6.00 Build 0)  -->
<svg width="156px" height="156px" viewBox="0 0 156 156" version="1.1" id="Ebene_1" xmlns="http://www.w3.org/2000/svg" xmlns:xlink="http://www.w3.org/1999/xlink" x="0px" y="0px" style="enable-background:new 0 0 84.4 109.9;" xml:space="preserve">
<style type="text/css">
	.st0{fill:#FFFFFF;}
	.st1{fill:#0000FF;}
	.st2{enable-background:new    ;}
	.st3{fill:none;stroke:#0000FF;stroke-width:1.89;stroke-miterlimit:10;}
</style>
<g transform="translate(18.10,0.00) scale(1.419472)">
<g>
	<path class="st0" d="M4.7,67.9c0-20.6,16.8-37.3,37.5-37.3l0,0c20.7,0,37.5,16.7,37.5,37.3l0,0c0,20.6-16.8,37.3-37.5,37.3l0,0
		C21.5,105.2,4.7,88.5,4.7,67.9C4.7,67.9,4.7,67.9,4.7,67.9z"/>
	<path class="st1" d="M42.2,109.9C18.9,109.9,0,91.1,0,67.9c0-23.2,18.9-42,42.2-42s42.2,18.9,42.2,42
		C84.4,91.1,65.5,109.9,42.2,109.9z M42.2,35.3c-18.1,0-32.8,14.6-32.8,32.6s14.7,32.6,32.8,32.6c18.1,0,32.8-14.6,32.8-32.6
		S60.3,35.3,42.2,35.3z"/>
</g>
<g>
	<path class="st1" d="M79.7,11c0.2,12.1-18.9,12.1-18.7,0C60.8-1.1,79.9-1.1,79.7,11z"/>
	<path class="st1" d="M70.4,22c-2.2,0-4.3-0.5-6.1-1.6c-3.4-2-5.2-5.3-5.1-9.4c-0.1-4.1,1.8-7.4,5.1-9.4c3.7-2.1,8.6-2.1,12.3,0
		c3.3,2,5.2,5.3,5.1,9.4c0.1,4.1-1.8,7.4-5.1,9.4C74.7,21.5,72.5,22,70.4,22z M70.4,3.8c-1.5,0-3,0.4-4.2,1.1
		c-1.5,0.9-3.3,2.6-3.2,6.1c-0.1,3.5,1.7,5.3,3.2,6.1c2.5,1.5,6,1.5,8.5,0c1.5-0.9,3.3-2.6,3.2-6.1l0,0l0,0c0.1-3.4-1.7-5.2-3.2-6.1
		C73.3,4.2,71.8,3.8,70.4,3.8z"/>
</g>
<g>
	<path class="st1" d="M24.5,11c0.2,12.1-18.9,12.1-18.7,0C5.6-1.1,24.7-1.1,24.5,11z"/>
	<path class="st1" d="M15.2,22c-2.2,0-4.3-0.5-6.1-1.6c-3.4-2-5.2-5.3-5.1-9.4C3.9,6.9,5.7,3.6,9,1.6c3.7-2.1,8.6-2.1,12.3,0
		c3.3,2,5.2,5.3,5.1,9.4c0.1,4.1-1.8,7.4-5.1,9.4C19.5,21.5,17.3,22,15.2,22z M15.2,3.8c-1.5,0-3,0.4-4.2,1.1
		C9.4,5.8,7.7,7.5,7.7,11c-0.1,3.5,1.7,5.3,3.2,6.1c2.5,1.5,6,1.5,8.5,0c1.5-0.9,3.3-2.6,3.2-6.1V11c0.1-3.4-1.7-5.2-3.2-6.1
		C18.2,4.2,16.7,3.8,15.2,3.8z"/>
</g>
<g>
	<path class="st1" d="M51.6,11c0.2,12.1-18.9,12.1-18.7,0C32.7-1.1,51.8-1.1,51.6,11z"/>
	<path class="st1" d="M42.2,22c-2.2,0-4.3-0.5-6.1-1.6c-3.4-2-5.2-5.3-5.1-9.4c-0.1-4.1,1.8-7.4,5.1-9.4c3.7-2.1,8.6-2.1,12.3,0
		c3.3,2,5.2,5.3,5.1,9.4c0.1,4.1-1.8,7.4-5.1,9.4C46.5,21.5,44.4,22,42.2,22z M42.2,3.8c-1.5,0-3,0.4-4.2,1.1
		c-1.5,0.9-3.3,2.6-3.2,6.1c-0.1,3.5,1.7,5.3,3.2,6.1c2.5,1.5,6,1.5,8.5,0c1.5-0.9,3.3-2.6,3.2-6.1l0,0l0,0c0.1-3.4-1.7-5.2-3.2-6.1
		C45.2,4.2,43.7,3.8,42.2,3.8z"/>
</g>
<g class="st2">
	<path class="st1" d="M28.9,87.1V48.6h14.5c2.6,0,4.5,0.1,5.9,0.4c1.9,0.3,3.5,0.9,4.8,1.8c1.3,0.9,2.3,2.1,3.1,3.7
		c0.8,1.6,1.2,3.3,1.2,5.2c0,3.3-1,6-3.1,8.3s-5.8,3.4-11.3,3.4H34v15.6H28.9z M34,66.9H44c3.3,0,5.6-0.6,7-1.8s2.1-2.9,2.1-5.2
		c0-1.6-0.4-3-1.2-4.1c-0.8-1.1-1.9-1.9-3.2-2.3c-0.9-0.2-2.4-0.3-4.8-0.3H34V66.9z"/>
</g>
<g class="st2">
	<path class="st3" d="M28.9,87.1V48.6h14.5c2.6,0,4.5,0.1,5.9,0.4c1.9,0.3,3.5,0.9,4.8,1.8c1.3,0.9,2.3,2.1,3.1,3.7
		c0.8,1.6,1.2,3.3,1.2,5.2c0,3.3-1,6-3.1,8.3s-5.8,3.4-11.3,3.4H34v15.6H28.9z M34,66.9H44c3.3,0,5.6-0.6,7-1.8s2.1-2.9,2.1-5.2
		c0-1.6-0.4-3-1.2-4.1c-0.8-1.1-1.9-1.9-3.2-2.3c-0.9-0.2-2.4-0.3-4.8-0.3H34V66.9z"/>
</g>
</g>
</svg>
