<?xml version="1.0" encoding="utf-8"?>
<!-- Generator: Adobe Illustrator 28.0.0, SVG Export Plug-In . SVG Version: 6.00 Build 0)  -->
<svg width="156px" height="156px" viewBox="0 0 156 156" version="1.1" id="Ebene_1" xmlns="http://www.w3.org/2000/svg" xmlns:xlink="http://www.w3.org/1999/xlink" x="0px" y="0px" style="enable-background:new 0 0 84.4 110.2;" xml:space="preserve">
<style type="text/css">
	.st0{fill:#FFFFFF;}
	.st1{fill:#0000FF;}
</style>
<g transform="translate(18.26,0.00) scale(1.415608)">
<g>
	<path class="st0" d="M4.7,68.1c0-20.6,16.8-37.3,37.5-37.3l0,0c20.7,0,37.5,16.7,37.5,37.3l0,0c0,20.6-16.8,37.3-37.5,37.3l0,0
		C21.5,105.4,4.7,88.7,4.7,68.1C4.7,68.1,4.7,68.1,4.7,68.1z"/>
	<path class="st1" d="M42.2,110.2C18.9,110.2,0,91.3,0,68.1c0-23.2,18.9-42,42.2-42s42.2,18.9,42.2,42
		C84.4,91.3,65.5,110.2,42.2,110.2z M42.2,35.5c-18.1,0-32.8,14.6-32.8,32.6s14.7,32.6,32.8,32.6c18.1,0,32.8-14.6,32.8-32.6
		S60.3,35.5,42.2,35.5z"/>
</g>
<g>
	<circle class="st1" cx="70.4" cy="11.2" r="9.3"/>
	<path class="st1" d="M70.4,22.5c-6.2,0-11.2-5-11.2-11.2S64.2,0,70.4,0c6.2,0,11.2,5,11.2,11.2S76.6,22.5,70.4,22.5z M70.4,3.8
		c-4.1,0-7.5,3.3-7.5,7.5s3.3,7.5,7.5,7.5c4.1,0,7.5-3.3,7.5-7.5S74.5,3.8,70.4,3.8z"/>
</g>
<g>
	<circle class="st1" cx="15.2" cy="11.2" r="9.4"/>
	<path class="st1" d="M15.2,22.5c-6.2,0-11.2-5-11.2-11.2S9,0,15.2,0s11.2,5,11.2,11.2S21.4,22.5,15.2,22.5z M15.2,3.8
		c-4.1,0-7.5,3.3-7.5,7.5s3.3,7.5,7.5,7.5s7.5-3.3,7.5-7.5S19.3,3.8,15.2,3.8z"/>
</g>
<g>
	<circle class="st1" cx="42.2" cy="11.2" r="9.3"/>
	<path class="st1" d="M42.2,22.5c-6.2,0-11.2-5-11.2-11.2S36,0,42.2,0c6.2,0,11.2,5,11.2,11.2S48.4,22.5,42.2,22.5z M42.2,3.8
		c-4.1,0-7.5,3.3-7.5,7.5s3.3,7.5,7.5,7.5c4.1,0,7.5-3.3,7.5-7.5S46.3,3.8,42.2,3.8z"/>
</g>
</g>
</svg>
