<?xml version="1.0" encoding="utf-8"?>
<!-- Generator: Adobe Illustrator 28.0.0, SVG Export Plug-In . SVG Version: 6.00 Build 0)  -->
<svg width="156px" height="156px" viewBox="0 0 156 156" version="1.1" id="Ebene_1" xmlns="http://www.w3.org/2000/svg" xmlns:xlink="http://www.w3.org/1999/xlink" x="0px" y="0px" style="enable-background:new 0 0 84.4 84.4;" xml:space="preserve">
<style type="text/css">
	.st0{fill:#FFFFFF;}
	.st1{fill:#0000FF;}
	.st2{enable-background:new    ;}
	.st3{fill:none;stroke:#0000FF;stroke-width:1.88;stroke-miterlimit:10;}
</style>
<g transform="translate(0.00,0.00) scale(1.848341)">
<g>
	<path class="st0" d="M4.7,42.2c0-20.7,16.8-37.5,37.5-37.5l0,0c20.7,0,37.5,16.8,37.5,37.5l0,0c0,20.7-16.8,37.5-37.5,37.5l0,0
		C21.5,79.7,4.7,62.9,4.7,42.2C4.7,42.2,4.7,42.2,4.7,42.2z"/>
	<path class="st1" d="M42.2,84.4C18.9,84.4,0,65.5,0,42.2C0,18.9,18.9,0,42.2,0c23.3,0,42.2,18.9,42.2,42.2
		C84.4,65.5,65.5,84.4,42.2,84.4z M42.2,9.4C24.1,9.4,9.4,24.1,9.4,42.2C9.4,60.3,24.1,75,42.2,75C60.3,75,75,60.3,75,42.2
		C75,24.1,60.3,9.4,42.2,9.4z"/>
</g>
<g class="st2">
	<path class="st1" d="M18.6,53.6V30.8h15.7v3.9H23.3V40h9.6v3.9h-9.6v9.7H18.6z"/>
	<path class="st1" d="M44.6,53.6l-5.5-22.9h4.7l3.5,15.7l4.2-15.7H57l4,16l3.5-16h4.7l-5.6,22.9h-4.9l-4.6-17.1l-4.5,17.1H44.6z"/>
</g>
<g class="st2">
	<path class="st3" d="M18.6,53.6V30.8h15.7v3.9H23.3V40h9.6v3.9h-9.6v9.7H18.6z"/>
	<path class="st3" d="M44.6,53.6l-5.5-22.9h4.7l3.5,15.7l4.2-15.7H57l4,16l3.5-16h4.7l-5.6,22.9h-4.9l-4.6-17.1l-4.5,17.1H44.6z"/>
</g>
</g>
</svg>
