<?xml version="1.0" encoding="utf-8"?>
<!-- Generator: Adobe Illustrator 28.0.0, SVG Export Plug-In . SVG Version: 6.00 Build 0)  -->
<svg width="156px" height="156px" viewBox="0 0 156 156" version="1.1" id="Ebene_1" xmlns="http://www.w3.org/2000/svg" xmlns:xlink="http://www.w3.org/1999/xlink" x="0px" y="0px" style="enable-background:new 0 0 84.4 84.4;" xml:space="preserve">
<style type="text/css">
	.st0{fill:#FFFFFF;}
	.st1{fill:#0000FF;}
	.st2{enable-background:new    ;}
	.st3{fill:none;stroke:#0000FF;stroke-width:1.87;stroke-miterlimit:10;}
</style>
<g transform="translate(0.00,0.00) scale(1.848341)">
<g>
	<path class="st0" d="M4.7,42.2c0-20.7,16.8-37.5,37.5-37.5l0,0c20.7,0,37.5,16.8,37.5,37.5l0,0c0,20.7-16.8,37.5-37.5,37.5l0,0
		C21.5,79.7,4.7,62.9,4.7,42.2C4.7,42.2,4.7,42.2,4.7,42.2z"/>
	<path class="st1" d="M42.2,84.4C18.9,84.4,0,65.5,0,42.2C0,18.9,18.9,0,42.2,0c23.3,0,42.2,18.9,42.2,42.2
		C84.4,65.5,65.5,84.4,42.2,84.4z M42.2,9.4C24.1,9.4,9.4,24.1,9.4,42.2C9.4,60.3,24.1,75,42.2,75C60.3,75,75,60.3,75,42.2
		C75,24.1,60.3,9.4,42.2,9.4z"/>
</g>
<g class="st2">
	<path class="st1" d="M29,61.4V23h14.5c2.5,0,4.5,0.1,5.8,0.4c1.9,0.3,3.5,0.9,4.7,1.8s2.3,2.1,3.1,3.7c0.8,1.6,1.2,3.3,1.2,5.2
		c0,3.3-1,6-3.1,8.3c-2.1,2.3-5.8,3.4-11.3,3.4h-9.8v15.6H29z M34.1,41.3H44c3.3,0,5.6-0.6,7-1.8c1.4-1.2,2.1-2.9,2.1-5.2
		c0-1.6-0.4-3-1.2-4.1s-1.9-1.9-3.2-2.3c-0.9-0.2-2.4-0.3-4.7-0.3h-9.8V41.3z"/>
</g>
<g class="st2">
	<path class="st3" d="M29,61.4V23h14.5c2.5,0,4.5,0.1,5.8,0.4c1.9,0.3,3.5,0.9,4.7,1.8s2.3,2.1,3.1,3.7c0.8,1.6,1.2,3.3,1.2,5.2
		c0,3.3-1,6-3.1,8.3c-2.1,2.3-5.8,3.4-11.3,3.4h-9.8v15.6H29z M34.1,41.3H44c3.3,0,5.6-0.6,7-1.8c1.4-1.2,2.1-2.9,2.1-5.2
		c0-1.6-0.4-3-1.2-4.1s-1.9-1.9-3.2-2.3c-0.9-0.2-2.4-0.3-4.7-0.3h-9.8V41.3z"/>
</g>
</g>
</svg>
