<svg width="150" height="150" viewBox="0 0 150 150" fill="none" xmlns="http://www.w3.org/2000/svg">
<path fill-rule="evenodd" clip-rule="evenodd" d="M5.43449 75C5.43449 36.729 36.579 5.703 75 5.703C113.421 5.703 144.565 36.729 144.565 75C144.565 113.271 113.421 144.297 75 144.297C36.579 144.297 5.43449 113.271 5.43449 75Z" stroke="#0000FF" stroke-width="7.365" stroke-miterlimit="10" stroke-linejoin="round"/>
<path d="M31.2302 81.1542L38.3824 80.4588C38.8128 82.8595 39.682 84.6227 40.99 85.7485C42.3144 86.8743 44.0942 87.4372 46.3293 87.4372C48.6968 87.4372 50.4765 86.9405 51.6686 85.9471C52.8772 84.9372 53.4815 83.7618 53.4815 82.4207C53.4815 81.5598 53.2248 80.8313 52.7116 80.2353C52.2149 79.6228 51.3375 79.093 50.0792 78.646C49.2183 78.3479 47.2564 77.8182 44.1935 77.0566C40.2532 76.0798 37.4884 74.8795 35.899 73.4557C33.6639 71.4524 32.5464 69.0104 32.5464 66.1296C32.5464 64.2754 33.0679 62.5453 34.1109 60.9393C35.1705 59.3168 36.6854 58.0834 38.6556 57.2391C40.6423 56.3947 43.0346 55.9725 45.8326 55.9725C50.402 55.9725 53.8374 56.9742 56.1387 58.9774C58.4565 60.9807 59.6734 63.6545 59.7893 66.9988L52.4384 67.3217C52.1239 65.4508 51.4451 64.1098 50.402 63.2986C49.3756 62.4708 47.8276 62.0569 45.7581 62.0569C43.6224 62.0569 41.9502 62.4956 40.7416 63.3731C39.9635 63.936 39.5744 64.6893 39.5744 65.6329C39.5744 66.4939 39.9387 67.2306 40.6671 67.8432C41.5943 68.6213 43.8459 69.4325 47.422 70.2769C50.9981 71.1213 53.6387 71.9987 55.344 72.9093C57.0658 73.8033 58.4069 75.0368 59.3671 76.6096C60.3439 78.1658 60.8323 80.0946 60.8323 82.3959C60.8323 84.4819 60.2529 86.4356 59.0939 88.2567C57.935 90.0779 56.296 91.4355 54.1768 92.3295C52.0576 93.2069 49.417 93.6457 46.2548 93.6457C41.6522 93.6457 38.1175 92.5861 35.6507 90.4669C33.1838 88.3312 31.7103 85.227 31.2302 81.1542ZM72.1814 74.6725L65.8488 73.5302C66.5607 70.9805 67.7858 69.0932 69.5242 67.868C71.2626 66.6429 73.8453 66.0303 77.2724 66.0303C80.3849 66.0303 82.7028 66.4028 84.2259 67.1478C85.7491 67.8763 86.8169 68.8117 87.4295 69.9541C88.0586 71.0799 88.3732 73.1576 88.3732 76.1874L88.2987 84.3329C88.2987 86.6508 88.4063 88.3643 88.6215 89.4736C88.8533 90.5663 89.2755 91.7417 89.8881 93H82.9842C82.8021 92.5364 82.5786 91.8494 82.3137 90.9388C82.1978 90.5249 82.115 90.2517 82.0654 90.1193C80.8733 91.2782 79.5985 92.1474 78.2409 92.7268C76.8833 93.3063 75.4347 93.596 73.895 93.596C71.1798 93.596 69.0358 92.8593 67.463 91.3858C65.9067 89.9123 65.1286 88.0498 65.1286 85.7981C65.1286 84.3081 65.4845 82.9836 66.1965 81.8247C66.9084 80.6492 67.9017 79.7552 69.1765 79.1426C70.4679 78.5135 72.3222 77.9672 74.7393 77.5036C78.0009 76.891 80.2608 76.3198 81.519 75.79V75.0947C81.519 73.7537 81.1879 72.8017 80.5257 72.2388C79.8634 71.6593 78.6134 71.3696 76.7757 71.3696C75.534 71.3696 74.5655 71.6179 73.8702 72.1146C73.1748 72.5947 72.6119 73.4474 72.1814 74.6725ZM81.519 80.3347C80.625 80.6327 79.2095 80.9886 77.2724 81.4025C75.3354 81.8164 74.0688 82.2221 73.4728 82.6194C72.5622 83.2651 72.1069 84.0846 72.1069 85.078C72.1069 86.0548 72.4712 86.8991 73.1996 87.611C73.9281 88.3229 74.8552 88.6789 75.981 88.6789C77.2393 88.6789 78.4396 88.265 79.582 87.4372C80.4263 86.8081 80.9809 86.0382 81.2458 85.1276C81.428 84.5316 81.519 83.3975 81.519 81.7254V80.3347ZM119.267 93H112.288V79.54C112.288 76.6924 112.139 74.8546 111.841 74.0268C111.543 73.1825 111.055 72.5285 110.376 72.065C109.714 71.6014 108.911 71.3696 107.967 71.3696C106.759 71.3696 105.674 71.7007 104.714 72.363C103.754 73.0252 103.091 73.9027 102.727 74.9954C102.38 76.0881 102.206 78.1079 102.206 81.0549V93H95.2274V66.6263H101.709V70.5004C104.01 67.5203 106.908 66.0303 110.401 66.0303C111.941 66.0303 113.348 66.3117 114.623 66.8746C115.898 67.421 116.858 68.1246 117.503 68.9855C118.166 69.8464 118.621 70.8233 118.869 71.9159C119.134 73.0086 119.267 74.5732 119.267 76.6096V93Z" fill="#0000FF"/>
</svg>
