<?xml version="1.0" encoding="utf-8"?>
<!-- Generator: Adobe Illustrator 28.0.0, SVG Export Plug-In . SVG Version: 6.00 Build 0)  -->
<svg width="156px" height="156px" viewBox="0 0 156 156" version="1.1" id="Ebene_1" xmlns="http://www.w3.org/2000/svg" xmlns:xlink="http://www.w3.org/1999/xlink" x="0px" y="0px" style="enable-background:new 0 0 84.4 84.4;" xml:space="preserve">
<style type="text/css">
	.st0{fill:#FFFFFF;}
	.st1{fill:#0000FF;}
	.st2{enable-background:new    ;}
	.st3{fill:none;stroke:#0000FF;stroke-width:0.94;stroke-miterlimit:10;}
</style>
<g transform="translate(0.00,0.00) scale(1.848341)">
<g>
	<path class="st0" d="M4.7,42.2c0-20.7,16.8-37.5,37.5-37.5l0,0c20.7,0,37.5,16.8,37.5,37.5l0,0c0,20.7-16.8,37.5-37.5,37.5l0,0
		C21.5,79.7,4.7,62.9,4.7,42.2C4.7,42.2,4.7,42.2,4.7,42.2z"/>
	<path class="st1" d="M42.2,84.4C18.9,84.4,0,65.5,0,42.2C0,18.9,18.9,0,42.2,0c23.3,0,42.2,18.9,42.2,42.2
		C84.4,65.5,65.5,84.4,42.2,84.4z M42.2,9.4C24.1,9.4,9.4,24.1,9.4,42.2C9.4,60.3,24.1,75,42.2,75C60.3,75,75,60.3,75,42.2
		C75,24.1,60.3,9.4,42.2,9.4z"/>
</g>
<g class="st2">
	<path class="st1" d="M19,45.4l2.3-0.2c0.1,0.9,0.4,1.7,0.7,2.2c0.4,0.6,1,1.1,1.8,1.4c0.8,0.4,1.8,0.5,2.8,0.5
		c0.9,0,1.7-0.1,2.4-0.4c0.7-0.3,1.2-0.6,1.6-1.1c0.3-0.5,0.5-1,0.5-1.6c0-0.6-0.2-1.1-0.5-1.5c-0.3-0.4-0.9-0.8-1.6-1.1
		c-0.5-0.2-1.6-0.5-3.2-0.9c-1.7-0.4-2.8-0.8-3.5-1.1c-0.9-0.5-1.5-1-1.9-1.7c-0.4-0.7-0.6-1.4-0.6-2.3c0-0.9,0.3-1.8,0.8-2.6
		c0.5-0.8,1.3-1.4,2.3-1.8s2.1-0.6,3.3-0.6c1.3,0,2.5,0.2,3.6,0.7c1,0.4,1.8,1.1,2.4,1.9c0.6,0.8,0.9,1.8,0.9,2.9l-2.3,0.2
		c-0.1-1.1-0.5-2-1.3-2.6c-0.7-0.6-1.8-0.9-3.2-0.9c-1.5,0-2.5,0.3-3.2,0.8c-0.7,0.5-1,1.2-1,1.9c0,0.7,0.2,1.2,0.7,1.6
		c0.5,0.4,1.7,0.9,3.6,1.3c2,0.4,3.3,0.8,4,1.2c1.1,0.5,1.8,1.1,2.3,1.9c0.5,0.7,0.8,1.6,0.8,2.6c0,1-0.3,1.9-0.8,2.7
		c-0.6,0.9-1.3,1.5-2.4,2c-1,0.5-2.2,0.7-3.5,0.7c-1.6,0-3-0.2-4.1-0.7c-1.1-0.5-2-1.2-2.6-2.2C19.3,47.7,19,46.7,19,45.4z"/>
	<path class="st1" d="M46.8,49.7c-0.8,0.7-1.6,1.2-2.4,1.5c-0.8,0.3-1.6,0.4-2.5,0.4c-1.4,0-2.6-0.4-3.3-1.1
		c-0.8-0.7-1.2-1.6-1.2-2.7c0-0.6,0.1-1.2,0.4-1.8c0.3-0.5,0.7-1,1.2-1.3s1-0.6,1.6-0.7c0.4-0.1,1.1-0.2,2-0.3
		c1.8-0.2,3.1-0.5,4-0.8c0-0.3,0-0.5,0-0.6c0-0.9-0.2-1.5-0.6-1.9c-0.6-0.5-1.4-0.8-2.5-0.8c-1,0-1.8,0.2-2.3,0.6
		c-0.5,0.4-0.9,1-1.1,2l-2.2-0.3c0.2-0.9,0.5-1.7,1-2.3c0.5-0.6,1.1-1,2-1.3c0.9-0.3,1.9-0.5,3-0.5c1.1,0,2,0.1,2.7,0.4
		s1.2,0.6,1.5,1c0.3,0.4,0.6,0.9,0.7,1.5c0.1,0.4,0.1,1.1,0.1,2.1v3c0,2.1,0,3.4,0.1,3.9c0.1,0.5,0.3,1.1,0.6,1.6h-2.3
		C47,50.8,46.8,50.3,46.8,49.7z M46.6,44.7c-0.8,0.3-2,0.6-3.6,0.8C42,45.7,41.4,45.8,41,46c-0.4,0.2-0.7,0.4-0.9,0.7
		c-0.2,0.3-0.3,0.7-0.3,1.1c0,0.6,0.2,1.1,0.7,1.5s1.1,0.6,2,0.6c0.9,0,1.6-0.2,2.3-0.6s1.2-0.9,1.5-1.5c0.2-0.5,0.4-1.2,0.4-2.2
		V44.7z"/>
	<path class="st1" d="M54.1,51.3V38.1h2V40c1-1.4,2.4-2.2,4.2-2.2c0.8,0,1.5,0.1,2.2,0.4c0.7,0.3,1.2,0.7,1.5,1.1
		c0.3,0.5,0.6,1,0.7,1.6c0.1,0.4,0.1,1.1,0.1,2.2v8.1h-2.2v-8c0-0.9-0.1-1.6-0.3-2c-0.2-0.5-0.5-0.8-0.9-1.1c-0.4-0.3-1-0.4-1.6-0.4
		c-1,0-1.8,0.3-2.5,0.9c-0.7,0.6-1,1.7-1,3.4v7.2H54.1z"/>
</g>
<g class="st2">
	<path class="st3" d="M19,45.4l2.3-0.2c0.1,0.9,0.4,1.7,0.7,2.2c0.4,0.6,1,1.1,1.8,1.4c0.8,0.4,1.8,0.5,2.8,0.5
		c0.9,0,1.7-0.1,2.4-0.4c0.7-0.3,1.2-0.6,1.6-1.1c0.3-0.5,0.5-1,0.5-1.6c0-0.6-0.2-1.1-0.5-1.5c-0.3-0.4-0.9-0.8-1.6-1.1
		c-0.5-0.2-1.6-0.5-3.2-0.9c-1.7-0.4-2.8-0.8-3.5-1.1c-0.9-0.5-1.5-1-1.9-1.7c-0.4-0.7-0.6-1.4-0.6-2.3c0-0.9,0.3-1.8,0.8-2.6
		c0.5-0.8,1.3-1.4,2.3-1.8s2.1-0.6,3.3-0.6c1.3,0,2.5,0.2,3.6,0.7c1,0.4,1.8,1.1,2.4,1.9c0.6,0.8,0.9,1.8,0.9,2.9l-2.3,0.2
		c-0.1-1.1-0.5-2-1.3-2.6c-0.7-0.6-1.8-0.9-3.2-0.9c-1.5,0-2.5,0.3-3.2,0.8c-0.7,0.5-1,1.2-1,1.9c0,0.7,0.2,1.2,0.7,1.6
		c0.5,0.4,1.7,0.9,3.6,1.3c2,0.4,3.3,0.8,4,1.2c1.1,0.5,1.8,1.1,2.3,1.9c0.5,0.7,0.8,1.6,0.8,2.6c0,1-0.3,1.9-0.8,2.7
		c-0.6,0.9-1.3,1.5-2.4,2c-1,0.5-2.2,0.7-3.5,0.7c-1.6,0-3-0.2-4.1-0.7c-1.1-0.5-2-1.2-2.6-2.2C19.3,47.7,19,46.7,19,45.4z"/>
	<path class="st3" d="M46.8,49.7c-0.8,0.7-1.6,1.2-2.4,1.5c-0.8,0.3-1.6,0.4-2.5,0.4c-1.4,0-2.6-0.4-3.3-1.1
		c-0.8-0.7-1.2-1.6-1.2-2.7c0-0.6,0.1-1.2,0.4-1.8c0.3-0.5,0.7-1,1.2-1.3s1-0.6,1.6-0.7c0.4-0.1,1.1-0.2,2-0.3
		c1.8-0.2,3.1-0.5,4-0.8c0-0.3,0-0.5,0-0.6c0-0.9-0.2-1.5-0.6-1.9c-0.6-0.5-1.4-0.8-2.5-0.8c-1,0-1.8,0.2-2.3,0.6
		c-0.5,0.4-0.9,1-1.1,2l-2.2-0.3c0.2-0.9,0.5-1.7,1-2.3c0.5-0.6,1.1-1,2-1.3c0.9-0.3,1.9-0.5,3-0.5c1.1,0,2,0.1,2.7,0.4
		s1.2,0.6,1.5,1c0.3,0.4,0.6,0.9,0.7,1.5c0.1,0.4,0.1,1.1,0.1,2.1v3c0,2.1,0,3.4,0.1,3.9c0.1,0.5,0.3,1.1,0.6,1.6h-2.3
		C47,50.8,46.8,50.3,46.8,49.7z M46.6,44.7c-0.8,0.3-2,0.6-3.6,0.8C42,45.7,41.4,45.8,41,46c-0.4,0.2-0.7,0.4-0.9,0.7
		c-0.2,0.3-0.3,0.7-0.3,1.1c0,0.6,0.2,1.1,0.7,1.5s1.1,0.6,2,0.6c0.9,0,1.6-0.2,2.3-0.6s1.2-0.9,1.5-1.5c0.2-0.5,0.4-1.2,0.4-2.2
		V44.7z"/>
	<path class="st3" d="M54.1,51.3V38.1h2V40c1-1.4,2.4-2.2,4.2-2.2c0.8,0,1.5,0.1,2.2,0.4c0.7,0.3,1.2,0.7,1.5,1.1
		c0.3,0.5,0.6,1,0.7,1.6c0.1,0.4,0.1,1.1,0.1,2.2v8.1h-2.2v-8c0-0.9-0.1-1.6-0.3-2c-0.2-0.5-0.5-0.8-0.9-1.1c-0.4-0.3-1-0.4-1.6-0.4
		c-1,0-1.8,0.3-2.5,0.9c-0.7,0.6-1,1.7-1,3.4v7.2H54.1z"/>
</g>
</g>
</svg>
