<?xml version="1.0" encoding="utf-8"?>
<!-- Generator: Adobe Illustrator 28.0.0, SVG Export Plug-In . SVG Version: 6.00 Build 0)  -->
<svg width="156px" height="156px" viewBox="0 0 156 156" version="1.1" id="Ebene_1" xmlns="http://www.w3.org/2000/svg" xmlns:xlink="http://www.w3.org/1999/xlink" x="0px" y="0px" style="enable-background:new 0 0 84.4 84.4;" xml:space="preserve">
<style type="text/css">
	.st0{fill:#FFFFFF;}
	.st1{fill:#0000FF;}
	.st2{enable-background:new    ;}
	.st3{fill:none;stroke:#0000FF;stroke-width:1.88;stroke-miterlimit:10;}
</style>
<g transform="translate(0.00,0.00) scale(1.848341)">
<g>
	<path class="st0" d="M4.7,42.2c0-20.7,16.8-37.5,37.5-37.5l0,0c20.7,0,37.5,16.8,37.5,37.5l0,0c0,20.7-16.8,37.5-37.5,37.5l0,0
		C21.5,79.7,4.7,62.9,4.7,42.2C4.7,42.2,4.7,42.2,4.7,42.2z"/>
	<path class="st1" d="M42.2,84.4C18.9,84.4,0,65.5,0,42.2C0,18.9,18.9,0,42.2,0c23.3,0,42.2,18.9,42.2,42.2
		C84.4,65.5,65.5,84.4,42.2,84.4z M42.2,9.4C24.1,9.4,9.4,24.1,9.4,42.2C9.4,60.3,24.1,75,42.2,75C60.3,75,75,60.3,75,42.2
		C75,24.1,60.3,9.4,42.2,9.4z"/>
</g>
<g class="st2">
	<path class="st1" d="M20.9,53.6v-2.8l11.7-14.7c0.8-1,1.6-1.9,2.4-2.7H22.2v-2.7h16.4v2.7L25.8,49.3l-1.4,1.6H39v2.7H20.9z"/>
	<path class="st1" d="M44.4,46.3l2.9-0.2c0.1,1.1,0.5,2.1,0.9,2.8c0.5,0.7,1.3,1.3,2.3,1.8c1,0.5,2.2,0.7,3.5,0.7
		c1.2,0,2.2-0.2,3.1-0.5c0.9-0.3,1.5-0.8,2-1.4c0.4-0.6,0.6-1.3,0.6-2c0-0.7-0.2-1.3-0.6-1.9c-0.4-0.5-1.1-1-2.1-1.4
		c-0.6-0.2-2-0.6-4.1-1.1c-2.1-0.5-3.6-1-4.4-1.4c-1.1-0.6-1.9-1.3-2.4-2.1c-0.5-0.8-0.8-1.8-0.8-2.8c0-1.2,0.3-2.2,1-3.2
		c0.7-1,1.6-1.8,2.9-2.3s2.7-0.8,4.2-0.8c1.7,0,3.2,0.3,4.5,0.8c1.3,0.5,2.3,1.3,3,2.4s1.1,2.3,1.1,3.6L59,37.4
		c-0.2-1.4-0.7-2.5-1.6-3.3c-0.9-0.7-2.2-1.1-4-1.1c-1.8,0-3.2,0.3-4,1c-0.8,0.7-1.3,1.5-1.3,2.4c0,0.8,0.3,1.5,0.9,2
		c0.6,0.5,2.1,1.1,4.6,1.6c2.5,0.6,4.2,1,5.1,1.5c1.3,0.6,2.3,1.4,3,2.3c0.6,0.9,1,2,1,3.3c0,1.2-0.3,2.4-1,3.4s-1.7,1.9-3,2.5
		c-1.3,0.6-2.8,0.9-4.4,0.9c-2.1,0-3.8-0.3-5.2-0.9c-1.4-0.6-2.5-1.5-3.3-2.7C44.9,49.2,44.5,47.8,44.4,46.3z"/>
</g>
<g class="st2">
	<path class="st3" d="M20.9,53.6v-2.8l11.7-14.7c0.8-1,1.6-1.9,2.4-2.7H22.2v-2.7h16.4v2.7L25.8,49.3l-1.4,1.6H39v2.7H20.9z"/>
	<path class="st3" d="M44.4,46.3l2.9-0.2c0.1,1.1,0.5,2.1,0.9,2.8c0.5,0.7,1.3,1.3,2.3,1.8c1,0.5,2.2,0.7,3.5,0.7
		c1.2,0,2.2-0.2,3.1-0.5c0.9-0.3,1.5-0.8,2-1.4c0.4-0.6,0.6-1.3,0.6-2c0-0.7-0.2-1.3-0.6-1.9c-0.4-0.5-1.1-1-2.1-1.4
		c-0.6-0.2-2-0.6-4.1-1.1c-2.1-0.5-3.6-1-4.4-1.4c-1.1-0.6-1.9-1.3-2.4-2.1c-0.5-0.8-0.8-1.8-0.8-2.8c0-1.2,0.3-2.2,1-3.2
		c0.7-1,1.6-1.8,2.9-2.3s2.7-0.8,4.2-0.8c1.7,0,3.2,0.3,4.5,0.8c1.3,0.5,2.3,1.3,3,2.4s1.1,2.3,1.1,3.6L59,37.4
		c-0.2-1.4-0.7-2.5-1.6-3.3c-0.9-0.7-2.2-1.1-4-1.1c-1.8,0-3.2,0.3-4,1c-0.8,0.7-1.3,1.5-1.3,2.4c0,0.8,0.3,1.5,0.9,2
		c0.6,0.5,2.1,1.1,4.6,1.6c2.5,0.6,4.2,1,5.1,1.5c1.3,0.6,2.3,1.4,3,2.3c0.6,0.9,1,2,1,3.3c0,1.2-0.3,2.4-1,3.4s-1.7,1.9-3,2.5
		c-1.3,0.6-2.8,0.9-4.4,0.9c-2.1,0-3.8-0.3-5.2-0.9c-1.4-0.6-2.5-1.5-3.3-2.7C44.9,49.2,44.5,47.8,44.4,46.3z"/>
</g>
</g>
</svg>
