<svg width="922" height="518" xmlns="http://www.w3.org/2000/svg" xmlns:xlink="http://www.w3.org/1999/xlink" overflow="hidden"><defs><clipPath id="clip0"><rect x="242" y="1741" width="922" height="518"/></clipPath></defs><g clip-path="url(#clip0)" transform="translate(-242 -1741)"><path d="M954 1908 831 2103 708 1908Z" stroke="#0000FF" stroke-width="13.75" stroke-linecap="butt" stroke-linejoin="miter" stroke-miterlimit="8" stroke-opacity="1" fill="none" fill-rule="evenodd"/><path d="M247 1864 1156.22 1864" stroke="#000000" stroke-width="13.75" stroke-linecap="butt" stroke-linejoin="round" stroke-miterlimit="10" stroke-opacity="1" fill="none" fill-rule="evenodd"/><path d="M247 2141 1156.22 2141" stroke="#000000" stroke-width="13.75" stroke-linecap="butt" stroke-linejoin="round" stroke-miterlimit="10" stroke-opacity="1" fill="none" fill-rule="evenodd"/><path d="M247 1994.12 622.421 1994.13 622.421 2007.88 247 2007.88ZM563.885 1960.62 636.578 2001 563.885 2041.39C560.566 2043.23 556.38 2042.03 554.536 2038.71 552.692 2035.39 553.888 2031.21 557.207 2029.37L619.082 1994.99 619.082 2007.01 557.207 1972.64C553.888 1970.79 552.692 1966.61 554.536 1963.29 556.38 1959.97 560.566 1958.77 563.885 1960.62Z" fill="#000000" fill-rule="nonzero" fill-opacity="1"/><path d="M831 1839 831 2163.84" stroke="#0000FF" stroke-width="13.75" stroke-linecap="round" stroke-linejoin="round" stroke-miterlimit="10" stroke-opacity="1" fill="none" fill-rule="evenodd"/><path d="M831.497 1839.44 918.191 1752.75" stroke="#0000FF" stroke-width="13.75" stroke-linecap="round" stroke-linejoin="round" stroke-miterlimit="10" stroke-opacity="1" fill="none" fill-rule="evenodd"/><path d="M831.497 2164.67 918.191 2251.37" stroke="#0000FF" stroke-width="13.75" stroke-linecap="round" stroke-linejoin="round" stroke-miterlimit="10" stroke-opacity="1" fill="none" fill-rule="evenodd"/></g></svg>