<?xml version="1.0" encoding="utf-8"?>
<!-- Generator: Adobe Illustrator 18.0.0, SVG Export Plug-In . SVG Version: 6.00 Build 0)  -->
<!DOCTYPE svg PUBLIC "-//W3C//DTD SVG 1.1//EN" "http://www.w3.org/Graphics/SVG/1.1/DTD/svg11.dtd">
<svg version="1.1" id="Layer_2" xmlns="http://www.w3.org/2000/svg" xmlns:xlink="http://www.w3.org/1999/xlink" x="0px" y="0px"
	 viewBox="0 0 512 336" style="enable-background:new 0 0 512 336;" xml:space="preserve">
<style type="text/css">
	.st0{fill:#FF8000;}
	.st1{fill:#FF0000;}
	.st2{fill:#FFFF00;}
	.st3{fill:#0000FF;}
	.st4{fill:#00C000;}
	.st5{fill:#FFFFFF;}
</style>
<g>
	<path d="M262.5,20.5c82.3,0,149,66.7,149,149s-66.7,149-149,149c-82.3,0-149-66.7-149-149S180.2,20.5,262.5,20.5 M262.5,9.5
		c-42.7,0-82.9,16.6-113.1,46.9c-30.2,30.2-46.9,70.4-46.9,113.1c0,42.7,16.6,82.9,46.9,113.1c30.2,30.2,70.4,46.9,113.1,46.9
		s82.9-16.6,113.1-46.9c30.2-30.2,46.9-70.4,46.9-113.1s-16.6-82.9-46.9-113.1C345.4,26.1,305.2,9.5,262.5,9.5L262.5,9.5z"/>
	<circle class="st0" cx="262.5" cy="169.5" r="149"/>
</g>
<g>
	<path d="M304.3,192.2l34.2,10.7c-5.4,18.8-14.1,32.8-26.3,41.9c-12.2,9.1-27.6,13.6-46.2,13.6c-23.2,0-42.2-7.8-57.1-23.4
		c-14.9-15.6-22.3-36.9-22.3-63.9c0-28.5,7.5-50.7,22.6-66.6c15.1-15.9,34.7-23.8,58.9-23.8c21.2,0,38.6,6.2,52,18.6
		c7.7,7.3,13.7,17.8,17.8,31.7l-34.8,8.2c-2.2-9.1-6.5-16.1-12.9-21.2c-6.4-5.1-14.4-7.6-23.9-7.6c-12.7,0-23.1,4.6-31.2,13.7
		c-8.1,9.1-12.2,23.9-12.2,44.5c0,21.8,3.9,37.3,11.7,46.5c7.8,9.2,18.2,13.8,31.1,13.8c9.1,0,17-2.9,23.6-8.7
		C295.9,214.1,300.9,204.9,304.3,192.2z"/>
</g>
</svg>
