<?xml version="1.0" encoding="utf-8"?>
<!-- Generator: Adobe Illustrator 18.0.0, SVG Export Plug-In . SVG Version: 6.00 Build 0)  -->
<!DOCTYPE svg PUBLIC "-//W3C//DTD SVG 1.1//EN" "http://www.w3.org/Graphics/SVG/1.1/DTD/svg11.dtd">
<svg version="1.1" id="Layer_2" xmlns="http://www.w3.org/2000/svg" xmlns:xlink="http://www.w3.org/1999/xlink" x="0px" y="0px"
	 viewBox="0 0 512 336" style="enable-background:new 0 0 512 336;" xml:space="preserve">
<style type="text/css">
	.st0{fill:#FF8000;}
	.st1{fill:#FF0000;}
	.st2{fill:#FFFF00;}
	.st3{fill:#0000FF;}
	.st4{fill:#00C000;}
	.st5{fill:#FFFFFF;}
</style>
<g>
	<path d="M265.4,19c82.3,0,149,66.7,149,149s-66.7,149-149,149s-149-66.7-149-149S183.1,19,265.4,19 M265.4,8
		c-42.7,0-82.9,16.6-113.1,46.9s-46.9,70.4-46.9,113.1s16.6,82.9,46.9,113.1S222.7,328,265.4,328s82.9-16.6,113.1-46.9
		c30.2-30.2,46.9-70.4,46.9-113.1s-16.6-82.9-46.9-113.1C348.3,24.6,308.1,8,265.4,8L265.4,8z"/>
	<circle class="st3" cx="265.4" cy="168" r="149"/>
</g>
<g>
	<path d="M196.1,256.7L156.4,87.3l34.2,0l25.1,116.4l30.6-116.4l39.8,0l29.2,118.3l25.3-118.3l33.8,0l-40.3,169.4h-35.7L265.5,130
		l-33.2,126.6H196.1z"/>
</g>
</svg>
