<?xml version="1.0" encoding="utf-8"?>
<!-- Generator: Adobe Illustrator 18.0.0, SVG Export Plug-In . SVG Version: 6.00 Build 0)  -->
<!DOCTYPE svg PUBLIC "-//W3C//DTD SVG 1.1//EN" "http://www.w3.org/Graphics/SVG/1.1/DTD/svg11.dtd">
<svg version="1.1" id="Layer_2" xmlns="http://www.w3.org/2000/svg" xmlns:xlink="http://www.w3.org/1999/xlink" x="0px" y="0px"
	 viewBox="0 0 512 336" style="enable-background:new 0 0 512 336;" xml:space="preserve">
<style type="text/css">
	.st0{fill:#FF8000;}
	.st1{fill:#FF0000;}
	.st2{fill:#FFFF00;}
	.st3{fill:#0000FF;}
	.st4{fill:#00C000;}
	.st5{fill:#FFFFFF;}
</style>
<g>
	<path d="M267.4,23.4c82.3,0,149,66.7,149,149s-66.7,149-149,149s-149-66.7-149-149S185.1,23.4,267.4,23.4 M267.4,12.4
		c-42.7,0-82.9,16.6-113.1,46.9c-30.2,30.2-46.9,70.4-46.9,113.1s16.6,82.9,46.9,113.1c30.2,30.2,70.4,46.9,113.1,46.9
		c42.7,0,82.9-16.6,113.1-46.9c30.2-30.2,46.9-70.4,46.9-113.1s-16.6-82.9-46.9-113.1C350.3,29.1,310.1,12.4,267.4,12.4L267.4,12.4z
		"/>
	<circle class="st2" cx="267.4" cy="172.4" r="149"/>
</g>
<g>
	<path d="M205.6,257.1V87.8h70.6c17.8,0,30.7,1.5,38.8,4.6c8.1,3.1,14.6,8.5,19.4,16.3c4.8,7.8,7.2,16.6,7.2,26.6
		c0,12.7-3.7,23.2-11.1,31.5c-7.4,8.3-18.3,13.5-32.9,15.7c7.2,4.2,13,8.8,17.6,13.7c4.5,4.9,11,14.2,19.6,28l20.4,33l-40.2,0
		l-24.4-36.9c-4.5-7-8.2-12.5-10.9-16.3c-2.7-3.9-5-6.7-6.7-8.5c-3.4-3.5-6.9-5.9-10.3-7.2c-3.5-1.2-9.1-1.8-16.9-1.8H239v70.7
		H205.6z M239,159.4H264c16.1,0,26.1-0.7,30-2.1c4-1.4,7.1-3.8,9.5-7.2c2.4-3.4,3.5-7.6,3.5-12.7c0-5.3-1.5-9.9-4.5-13.8
		c-3-3.4-7.3-5.6-12.8-6.7c-2.8-0.4-11-0.6-24.4-0.6H239V159.4z"/>
</g>
</svg>
