<?xml version="1.0" encoding="utf-8"?>
<!-- Generator: Adobe Illustrator 18.0.0, SVG Export Plug-In . SVG Version: 6.00 Build 0)  -->
<!DOCTYPE svg PUBLIC "-//W3C//DTD SVG 1.1//EN" "http://www.w3.org/Graphics/SVG/1.1/DTD/svg11.dtd">
<svg version="1.1" id="Layer_2" xmlns="http://www.w3.org/2000/svg" xmlns:xlink="http://www.w3.org/1999/xlink" x="0px" y="0px"
	 viewBox="0 0 512 336" style="enable-background:new 0 0 512 336;" xml:space="preserve">
<style type="text/css">
	.st0{fill:#FF8000;}
	.st1{fill:#FF0000;}
	.st2{fill:#FFFF00;}
	.st3{fill:#0000FF;}
	.st4{fill:#00C000;}
	.st5{fill:#FFFFFF;}
</style>
<g>
	<path d="M258.5,18.1c82.3,0,149,66.7,149,149s-66.7,149-149,149s-149-66.7-149-149S176.2,18.1,258.5,18.1 M258.5,7.1
		c-42.7,0-82.9,16.6-113.1,46.9c-30.2,30.2-46.9,70.4-46.9,113.1s16.6,82.9,46.9,113.1c30.2,30.2,70.4,46.9,113.1,46.9
		c42.7,0,82.9-16.6,113.1-46.9c30.2-30.2,46.9-70.4,46.9-113.1S401.8,84.2,371.6,54C341.4,23.8,301.2,7.1,258.5,7.1L258.5,7.1z"/>
	<circle class="st1" cx="258.5" cy="167.1" r="149"/>
</g>
<g>
	<path d="M212.5,251.8V82.4h113.9v28.7h-80.2v40.1h69.4v28.7h-69.4v72H212.5z"/>
</g>
</svg>
