<?xml version="1.0" encoding="utf-8"?>
<!-- Generator: Adobe Illustrator 18.0.0, SVG Export Plug-In . SVG Version: 6.00 Build 0)  -->
<!DOCTYPE svg PUBLIC "-//W3C//DTD SVG 1.1//EN" "http://www.w3.org/Graphics/SVG/1.1/DTD/svg11.dtd">
<svg version="1.1" id="Layer_2" xmlns="http://www.w3.org/2000/svg" xmlns:xlink="http://www.w3.org/1999/xlink" x="0px" y="0px"
	 viewBox="0 0 512 336" style="enable-background:new 0 0 512 336;" xml:space="preserve">
<style type="text/css">
	.st0{fill:#FF8000;}
	.st1{fill:#FF0000;}
	.st2{fill:#FFFF00;}
	.st3{fill:#0000FF;}
	.st4{fill:#00C000;}
	.st5{fill:#FFFFFF;}
</style>
<g>
	<path d="M260.9,19.2c82.3,0,149,66.7,149,149s-66.7,149-149,149c-82.3,0-149-66.7-149-149S178.6,19.2,260.9,19.2 M260.9,8.2
		C218.2,8.2,178,24.8,147.8,55s-46.9,70.4-46.9,113.1s16.6,82.9,46.9,113.1c30.2,30.2,70.4,46.9,113.1,46.9s82.9-16.6,113.1-46.9
		c30.2-30.2,46.9-70.4,46.9-113.1S404.3,85.2,374.1,55C343.8,24.8,303.7,8.2,260.9,8.2L260.9,8.2z"/>
	<circle class="st4" cx="260.9" cy="168.2" r="149"/>
</g>
<g>
	<path d="M194.7,82h33.4v91.7c0,7.2,0.1,13.2,0.3,18c0.2,4.7,0.6,8.2,1.1,10.3c0,3.4,0.9,6.4,2.7,9.1c1.8,2.7,4.3,5.2,7.5,7.7
		c5.5,4.2,12.8,6.2,22.1,6.2c9.4,0,16.6-2,21.5-5.9c2.6-2.2,4.8-4.5,6.4-6.9c1.6-2.3,2.4-4.9,2.4-7.8c0-2.2,0.2-6.7,0.7-13.5
		c0.5-6.9,0.7-11.9,0.7-15.3V82h33.4v89c0,8.5-0.4,17.7-1.3,27.7c-0.8,10-1.3,15.1-1.3,15.4c-2.1,8.7-5.5,15.9-10.3,21.6
		c-4.8,5.7-11.2,10.2-19.3,13.6c-8,3.4-18.7,5-31.9,5c-15.9,0-28-1.9-36.3-5.6c-8.3-3.7-14.8-8.6-19.4-14.4
		c-4.6-5.9-7.8-12.2-9.5-18.9c0-1.2-0.5-7.5-1.6-18.9c-1-11.4-1.6-19.4-1.6-24.1V82z"/>
</g>
</svg>
