<svg width="596" height="349" xmlns="http://www.w3.org/2000/svg" xmlns:xlink="http://www.w3.org/1999/xlink" overflow="hidden"><defs><clipPath id="clip0"><rect x="2328" y="146" width="596" height="349"/></clipPath></defs><g clip-path="url(#clip0)" transform="translate(-2328 -146)"><path d="M2732.19 158.259C2671.59 159.291 2567.24 183.601 2510.19 191.283 2453.14 198.965 2418.55 194.379 2389.91 204.355 2361.27 214.331 2341.68 226.6 2338.36 251.139 2335.04 275.678 2355.54 313.174 2369.97 351.587 2384.41 390 2382.46 463.96 2424.96 481.619 2467.46 499.277 2558.19 457.882 2624.97 457.539 2691.76 457.195 2779.96 484.371 2825.67 479.555 2871.38 474.739 2884.55 455.131 2899.21 428.643 2913.87 402.155 2917.31 363.741 2913.65 320.627 2909.98 277.512 2904.02 212.152 2873.78 185.091 2843.54 158.03 2792.79 157.227 2732.19 158.259Z" stroke="#FF0000" stroke-width="13.75" stroke-linecap="butt" stroke-linejoin="round" stroke-miterlimit="10" stroke-opacity="1" fill="none" fill-rule="evenodd"/></g></svg>