<svg width="335" height="554" xmlns="http://www.w3.org/2000/svg" xmlns:xlink="http://www.w3.org/1999/xlink" overflow="hidden"><defs><clipPath id="clip0"><rect x="444" y="110" width="335" height="554"/></clipPath></defs><g clip-path="url(#clip0)" transform="translate(-444 -110)"><path d="M479 250C479 178.203 537.203 120 609 120 680.797 120 739 178.203 739 250 739 321.797 680.797 380 609 380 537.203 380 479 321.797 479 250Z" stroke="#0000FF" stroke-width="13.75" stroke-linecap="butt" stroke-linejoin="round" stroke-miterlimit="10" stroke-opacity="1" fill="none" fill-rule="evenodd"/><path d="M479 250 479.573 639.583" stroke="#0000FF" stroke-width="13.75" stroke-linecap="round" stroke-linejoin="round" stroke-miterlimit="10" stroke-opacity="1" fill="none" fill-rule="evenodd"/><path d="M460.5 640C460.5 629.23 469.231 620.5 480 620.5 490.77 620.5 499.5 629.23 499.5 640 499.5 650.77 490.77 659.5 480 659.5 469.231 659.5 460.5 650.77 460.5 640Z" stroke="#0000FF" stroke-width="3.4375" stroke-linecap="round" stroke-linejoin="round" stroke-miterlimit="10" stroke-opacity="1" fill="#0000FF" fill-rule="evenodd" fill-opacity="1"/><text fill="#0000FF" fill-opacity="1" font-family="Arial,Arial_MSFontService,sans-serif" font-style="normal" font-variant="normal" font-weight="700" font-stretch="normal" font-size="83" text-anchor="start" direction="ltr" writing-mode="lr-tb" unicode-bidi="normal" text-decoration="none" transform="matrix(1 0 0 1 495.573 280)">VKFO</text></g></svg>