<?xml version="1.0" encoding="utf-8"?>
<!-- Generator: Adobe Illustrator 28.0.0, SVG Export Plug-In . SVG Version: 6.00 Build 0)  -->
<svg width="156px" height="156px" viewBox="0 0 156 156" version="1.1" id="Ebene_1" xmlns="http://www.w3.org/2000/svg" xmlns:xlink="http://www.w3.org/1999/xlink" x="0px" y="0px" style="enable-background:new 0 0 82.1 75;" xml:space="preserve">
<style type="text/css">
	.st0{fill:#FFFFFF;}
	.st1{fill:#F6861F;}
	.st2{fill:#0085C8;}
</style>
<g transform="translate(0.00,6.75) scale(1.900122)">
<path id="_Pfad_" class="st0" d="M37.5,0C16.8,0,0,16.8,0,37.5S16.8,75,37.5,75S75,58.2,75,37.5S58.2,0,37.5,0z"/>
<path id="_Pfad_-2" class="st1" d="M37.5,0C16.8,0,0,16.8,0,37.5S16.8,75,37.5,75S75,58.2,75,37.5S58.2,0,37.5,0z M37.5,67.5
	c-16.6,0-30-13.4-30-30s13.4-30,30-30s30,13.4,30,30S54.1,67.5,37.5,67.5z"/>
<polygon class="st2" points="59.6,37.2 82.1,52.1 82.1,22.3 59.6,37.2 "/>
<path class="st1" d="M25.2,22.5c2,0,3.6,1.6,3.6,3.6s-1.6,3.6-3.6,3.6S21.6,28,21.6,26S23.2,22.5,25.2,22.5L25.2,22.5z"/>
<path class="st1" d="M49.8,22.5c2,0,3.6,1.6,3.6,3.6s-1.6,3.6-3.6,3.6S46.3,28,46.3,26S47.9,22.5,49.8,22.5L49.8,22.5z"/>
<path class="st1" d="M51.8,31.2h-3.9c-2.3,0-3.4,2.1-3.4,3.7v7c0,1.2,0.7,2,1.7,2.1v11.2c0,0.9,0.7,1.6,1.6,1.6s1.6-0.7,1.6-1.6l0,0
	v-7.7h0.8v7.7c0,0.9,0.7,1.6,1.6,1.6s1.6-0.7,1.6-1.6l0,0V44l0,0c0.9-0.1,1.7-1,1.7-2.1v-7C55.1,33.3,54.1,31.2,51.8,31.2L51.8,31.2
	z"/>
<path class="st1" d="M28.8,39.3v-7.7c-0.5-0.3-1-0.4-1.7-0.4h-3.9c-2.3,0-3.4,2.1-3.4,3.7v7c0,1.2,0.7,2,1.6,2.1v11.2
	c0,0.9,0.7,1.6,1.6,1.6s1.6-0.7,1.6-1.6l0,0v-7.7h0.9v7.7c0,0.9,0.7,1.6,1.6,1.6s1.6-0.7,1.6-1.6l0,0V44l0,0
	c0.9-0.1,1.5-0.9,1.6-1.9C29.4,41.7,28.7,40.7,28.8,39.3L28.8,39.3z"/>
<path class="st1" d="M38.3,26h-4.7c-2.8,0-4,2.5-4,4.5v8.4c0,1.4,0.9,2.5,2.1,2.6V55c0,1.1,0.9,1.9,1.9,1.9s1.9-0.9,1.9-1.9v-9.2
	h0.8V55c0,1.1,0.9,1.9,1.9,1.9s1.9-0.9,1.9-1.9V41.5c1.2,0,2.1-1.1,2.1-2.6v-8.4C42.3,28.6,41,26,38.3,26L38.3,26z"/>
<path class="st1" d="M36,24.2c2.3,0,4.2-1.9,4.2-4.2s-1.9-4.2-4.2-4.2s-4.2,1.9-4.2,4.2S33.7,24.2,36,24.2L36,24.2z"/>
</g>
</svg>
